<svg xmlns="http://www.w3.org/2000/svg" viewBox="0 0 704 707"><defs/><g fill="none" fill-rule="evenodd"><path d="M88.33 140.89l.38-.4-.38.4zM74.18 167.72c.96-3.3 2.87-6.58 5.74-9.87-2.87 3.3-4.78 6.58-5.74 9.87zM227.52 690.71c-2.94 0-6.62 0-9.56-.99 3.67 0 6.62.99 9.56.99z"/><path fill="#00AAB2" fill-rule="nonzero" d="M606.84 136.94L371.29 20.54l-2.3-1.18a18.5 18.5 0 00-4.96-1.58c-1.53-.4-3.06-.79-4.6-.79-2.29-.39-4.96-.39-7.26-.39-4.97 0-9.56 0-14.53.79-1.53.4-3.06.4-4.97.79L97.12 135.36a34.91 34.91 0 00-8.03 5.13l-.38.4 121.98 253.3-91.77-193.33H273.8l61.94 117.97-21.41 41.04-.77.4-62.7-119.95H182.4l107.83 235.95 15.3-30c4.96-9.46 16.44-13.4 26-8.28a20.33 20.33 0 018.02 26.83l-27.9 54.06-21.42 41.03 62.7 129.81L412.22 569c-6.12 8.68-18.36 10.65-26.77 4.34-7.65-5.53-9.94-16.18-5.74-24.47l13.77-28.4c5.35-9.47 16.83-12.63 26-7.1 8.03 4.73 11.47 14.99 8.41 24.06l27.92-56.81c-6.12 8.68-18.36 10.65-26.77 3.94a19.93 19.93 0 01-5.73-24.46l27.53-56.42c4.59-9.87 16.06-13.81 25.62-8.68a19.65 19.65 0 018.41 26.43l-6.88 13.81 35.18-71.81c-6.12 9.08-17.98 11.44-26.39 5.13a19.78 19.78 0 01-6.5-24.86l27.15-56.42c4.59-9.86 16.06-13.81 25.62-8.68 9.56 4.73 13.38 16.57 8.41 26.44l-15.3 31.95 43.6-88.77c-5.36 9.47-16.83 13.02-26 7.5a20.03 20.03 0 01-9.18-13.03h-22.94c-10.71 0-19.12-8.68-19.12-19.72 0-11.05 8.41-19.73 19.12-19.73h79.91l-19.12 39.06 47.04-95.88a40.82 40.82 0 00-4.6-3.94 41.85 41.85 0 00-8.02-5.53zM405.7 344.1l-28.68 55.63c-4.97 9.47-16.44 13.42-26 8.29-9.56-5.13-13-16.97-8.03-26.83l28.67-55.64c4.98-9.47 16.45-13.41 26-8.28 9.57 5.13 13 17.36 8.04 26.83zm58.88-115.22l-28.68 56.03c-4.97 9.47-16.44 13.42-26 8.29a20.33 20.33 0 01-8.03-26.83l33.65-66.29h12.24c3.06 0 6.12.8 8.8 2.37a19.62 19.62 0 018.02 26.43z"/><path fill="#FFF" fill-rule="nonzero" d="M89.1 140.5a91.05 91.05 0 018.02-5.14L332.67 18.18c1.53-.4 3.06-.8 4.59-.8 4.97-.78 9.94-.78 14.91-.78 2.3 0 4.97 0 7.27.4 1.53.39 3.44.39 4.97.78 1.53.4 3.44.8 4.97 1.58l2.3 1.19 235.54 116.4a41.85 41.85 0 018.03 5.52 40.82 40.82 0 014.59 3.94l7.27-14.6c-3.83-3.15-8.03-6.31-12.62-8.68h-.77L378.18 6.34a54.3 54.3 0 00-26-5.52c-7.65-.4-15.3.4-22.95 1.97l-1.53.4-1.53.78L90.62 121.16a66.99 66.99 0 00-8.79 5.52l6.88 14.2.38-.39zM705.5 425.37l-.39-1.58-58.89-260.41v-1.19c-3.44-11.44-10.32-22.1-19.5-29.59l-7.26 14.6c4.2 4.34 8.03 9.47 10.32 15a22.74 22.74 0 011.53 4.73l58.5 260.41a92 92 0 01.39 10.26c0 3.15-.77 5.92-1.15 9.07 0 .8-.38 1.58-.38 2.37a56.23 56.23 0 01-7.65 16.97l-70.36 89.96-92.53 117.97c-6.12 8.68-15.68 14.2-26 15.78-3.06.4-6.5.8-9.56.8H352.94l58.88 15.78h70.75c20.26 0 37.09-8.29 47.8-22.89l162.89-207.93.38-.4.38-.4c9.56-14.6 13.77-31.95 11.47-49.31zM222.93 690.12c-1.53 0-3.44-.4-4.97-.4-2.3-.4-4.2-.79-6.5-1.57l-3.44-1.19c-2.3-.79-4.6-1.97-6.5-2.76a60.01 60.01 0 01-9.18-5.92c-1.91-1.58-3.83-3.16-5.36-4.73l-54.3-69.45-108.2-138.88a53.42 53.42 0 01-8.8-23.28c-.38-1.58-.38-3.16-.38-4.74 0-3.55 0-6.7.76-10.25l58.12-262a25.64 25.64 0 012.3-7.1c2.67-6.7 6.88-12.23 12.23-16.96l-6.88-14.2a57.53 57.53 0 00-22.56 34.71l-58.12 262v.79c-3.06 17.75 1.14 35.5 11.09 50.1l.38.4.38.4L175.51 683.4l.39.79.76.4a69.82 69.82 0 0045.5 21.3h130.78v-15.78H222.93z"/><path fill="#FFF" fill-rule="nonzero" d="M352.94 690.12v15.78h58.88z"/><path fill="#00797F" fill-rule="nonzero" d="M289.85 561.1l-79.16-166.5L88.33 140.88a41.68 41.68 0 00-12.24 16.96l-2.29 7.1-57.74 262c-.76 3.55-.76 6.7-.76 10.25 0 1.58 0 3.16.38 5.13a57.43 57.43 0 008.8 23.28L133.06 604.5l54.3 68.65c1.53 1.58 3.44 3.16 5.35 4.74a37.08 37.08 0 009.18 5.92c2.3 1.18 4.2 1.97 6.5 2.76l3.44 1.18c1.91.79 4.2 1.18 6.5 1.58 1.53.4 3.44.4 4.97.4h130.01L290.99 559.9l-1.14 1.19z"/><path d="M15.3 437.2c0-3.55 0-6.7 1.9-10.25"/><path fill="#00797F" fill-rule="nonzero" d="M196.93 683.41c-3.42-3.29-6.83-6.58-9.56-9.86 2.73 3.28 6.14 6.57 9.56 9.86z"/><path d="M202.28 687.75a68.7 68.7 0 01-9.56-9.86M187.37 673.15l-54.3-69.05M217 689.92l-8.6-2.96"/><path fill="#00797F" fill-rule="nonzero" d="M211.46 691.1c-3.38-1.97-6.75-4.93-9.56-6.9 2.8 1.97 6.18 4.93 9.56 6.9z"/><path fill="#3ACCC5" fill-rule="nonzero" d="M570.13 247.42l-43.6 88.78-11.84 24.46a8.68 8.68 0 01-1.15 1.97l-35.18 71.42-20.65 42.61c-.38.79-1.15 1.97-1.53 2.76l-27.91 57.21c0 .4 0 .4-.39.8l-13.76 28.4c-.38.79-1.15 1.97-1.53 2.76l-59.27 120.74h129.63c3.06 0 6.5-.4 9.56-.79a39.8 39.8 0 0026-15.78l92.54-117.98 70.35-89.96a52.2 52.2 0 007.65-16.96c.38-.8.38-1.58.38-2.37a36.9 36.9 0 001.15-9.08c0-3.55 0-6.7-.38-10.25l-58.5-259.63c-.39-1.57-1.15-3.15-1.54-4.73-2.29-5.52-6.11-10.65-10.32-15l-47.03 95.49-2.68 5.13z"/><path d="M692.3 437.2c0 3.43-1.91 6.44-2.87 9.87M692.68 448.65c-1.9 3.45-3.82 6.9-6.69 9.86M492.12 689.33a39.8 39.8 0 0026-15.78l92.54-117.98M690.58 426.95c.96 3.55.96 6.7.96 10.25"/><path fill="#FFF" fill-rule="nonzero" d="M397.68 317.26c-9.18-5.13-21.03-1.58-26 8.28L343 381.18c-4.97 9.47-1.53 21.7 8.03 26.83 9.17 5.13 21.03 1.57 26-8.29l28.68-55.63c4.97-9.47 1.14-21.7-8.03-26.83zM419.09 511.38a19.03 19.03 0 00-25.62 8.68l-13.77 28.41c-4.58 9.86-.76 21.7 8.8 26.44 8.41 4.34 18.35 1.57 23.7-5.92l15.68-31.96c4.21-9.47.39-20.91-8.79-25.65zM427.88 537.82c0-.4 0-.4.39-.8L412.59 569a6.41 6.41 0 001.53-2.76l13.76-28.41z"/><path fill="#FFF" fill-rule="nonzero" d="M311.64 519.27l27.91-54.05c4.98-9.47 1.53-21.7-8.03-26.83-9.17-5.13-21.03-1.58-26 8.28l-15.3 29.99L182.4 240.32h68.44l62.71 119.94.77-.4 21.03-40.63-61.95-118.37H118.54L210.3 394.2l79.92 165.71 21.41-40.64z"/><path fill="#FFF" fill-rule="nonzero" d="M290.23 560.31l-79.54-165.72 79.16 166.51zM591.54 203.23h-79.91c-10.71 0-19.12 8.68-19.12 19.73 0 11.04 8.41 19.72 19.12 19.72h22.94c2.3 10.66 12.62 17.37 22.94 15a19.5 19.5 0 0012.62-9.47l2.68-5.53 18.73-39.45zM576.82 242.29l-6.69 9.86.96-.7zM541.83 304.63c4.98-9.86 1.15-21.7-8.4-26.44-9.57-4.73-21.04-1.18-25.63 8.69v.39l-27.15 56.42c-4.59 9.87-.76 21.7 8.8 26.44 8.41 4.34 18.73 1.58 24.09-6.71l13-26.83 15.3-31.96z"/><path fill="#FFF" fill-rule="nonzero" d="M526.54 336.59l-13 26.83c.38-.79.76-1.58 1.15-1.97l11.85-24.86zM484.86 421.03c4.59-9.87.76-21.7-8.41-26.44-9.18-4.73-21.03-.79-25.62 8.68l-27.15 56.42c-4.59 9.87-.77 21.7 8.8 26.44 8.4 4.34 18.35 1.58 23.7-5.92l22.18-45.37 6.5-13.81z"/><path fill="#FFF" fill-rule="nonzero" d="M478.36 434.84l-22.18 45.37c.77-.79 1.15-1.97 1.53-2.76l20.65-42.61zM456.56 202.44a17.34 17.34 0 00-8.8-2.37h-11.85l-33.64 66.29a20.15 20.15 0 004.97 27.62c8.8 6.31 20.64 3.94 26.76-5.13.77-1.19 1.53-2.37 1.91-3.95l28.68-55.63c4.97-9.86 1.53-21.7-8.03-26.83.39 0 0 0 0 0z"/></g></svg>