<?xml version="1.0" encoding="UTF-8" standalone="no"?>
<!DOCTYPE svg PUBLIC "-//W3C//DTD SVG 1.1//EN"
 "http://www.w3.org/Graphics/SVG/1.1/DTD/svg11.dtd">
<!-- Generated by graphviz version 2.44.0 (0)
 -->
<!-- Title: component Pages: 1 -->
<svg width="7186pt" height="706pt"
 viewBox="0.00 0.00 7186.00 706.00" xmlns="http://www.w3.org/2000/svg" xmlns:xlink="http://www.w3.org/1999/xlink">
<g id="graph0" class="graph" transform="scale(1 1) rotate(0) translate(4 702)">
<title>component</title>
<polygon fill="white" stroke="transparent" points="-4,4 -4,-702 7182,-702 7182,4 -4,4"/>
<g id="clust1" class="cluster">
<title>cluster_autopilot</title>
<polygon fill="none" stroke="black" stroke-dasharray="5,2" points="8,-548 8,-690 462,-690 462,-548 8,-548"/>
<text text-anchor="middle" x="235" y="-652.4" font-family="Courier-Bold" font-size="42.00">autopilot</text>
</g>
<g id="clust2" class="cluster">
<title>cluster_compute</title>
<polygon fill="none" stroke="black" stroke-dasharray="5,2" points="482,-8 482,-690 1036,-690 1036,-8 482,-8"/>
<text text-anchor="middle" x="759" y="-652.4" font-family="Courier-Bold" font-size="42.00">compute</text>
</g>
<g id="clust3" class="cluster">
<title>cluster_deployment</title>
<polygon fill="none" stroke="black" stroke-dasharray="5,2" points="1056,-368 1056,-690 1688,-690 1688,-368 1056,-368"/>
<text text-anchor="middle" x="1372" y="-652.4" font-family="Courier-Bold" font-size="42.00">deployment</text>
</g>
<g id="clust4" class="cluster">
<title>cluster_inflightoperations</title>
<polygon fill="none" stroke="black" stroke-dasharray="5,2" points="1708,-548 1708,-690 2345,-690 2345,-548 1708,-548"/>
<text text-anchor="middle" x="2026.5" y="-652.4" font-family="Courier-Bold" font-size="42.00">inflightoperations</text>
</g>
<g id="clust5" class="cluster">
<title>cluster_kubevirt&#45;apiserver&#45;proxy</title>
<polygon fill="none" stroke="black" stroke-dasharray="5,2" points="2365,-548 2365,-690 2895,-690 2895,-548 2365,-548"/>
<text text-anchor="middle" x="2630" y="-652.4" font-family="Courier-Bold" font-size="42.00">kubevirt&#45;apiserver&#45;proxy</text>
</g>
<g id="clust6" class="cluster">
<title>cluster_kubevirt&#45;console&#45;plugin</title>
<polygon fill="none" stroke="black" stroke-dasharray="5,2" points="2915,-548 2915,-690 3424,-690 3424,-548 2915,-548"/>
<text text-anchor="middle" x="3169.5" y="-652.4" font-family="Courier-Bold" font-size="42.00">kubevirt&#45;console&#45;plugin</text>
</g>
<g id="clust7" class="cluster">
<title>cluster_migration</title>
<polygon fill="none" stroke="black" stroke-dasharray="5,2" points="3444,-458 3444,-690 3978,-690 3978,-458 3444,-458"/>
<text text-anchor="middle" x="3711" y="-652.4" font-family="Courier-Bold" font-size="42.00">migration</text>
</g>
<g id="clust8" class="cluster">
<title>cluster_network</title>
<polygon fill="none" stroke="black" stroke-dasharray="5,2" points="3998,-8 3998,-690 4646,-690 4646,-8 3998,-8"/>
<text text-anchor="middle" x="4322" y="-652.4" font-family="Courier-Bold" font-size="42.00">network</text>
</g>
<g id="clust9" class="cluster">
<title>cluster_quota&#45;management</title>
<polygon fill="none" stroke="black" stroke-dasharray="5,2" points="4666,-548 4666,-690 5099,-690 5099,-548 4666,-548"/>
<text text-anchor="middle" x="4882.5" y="-652.4" font-family="Courier-Bold" font-size="42.00">quota&#45;management</text>
</g>
<g id="clust10" class="cluster">
<title>cluster_schedule</title>
<polygon fill="none" stroke="black" stroke-dasharray="5,2" points="5119,-458 5119,-690 5557,-690 5557,-458 5119,-458"/>
<text text-anchor="middle" x="5338" y="-652.4" font-family="Courier-Bold" font-size="42.00">schedule</text>
</g>
<g id="clust11" class="cluster">
<title>cluster_storage</title>
<polygon fill="none" stroke="black" stroke-dasharray="5,2" points="5577,-8 5577,-690 6124,-690 6124,-8 5577,-8"/>
<text text-anchor="middle" x="5850.5" y="-652.4" font-family="Courier-Bold" font-size="42.00">storage</text>
</g>
<g id="clust12" class="cluster">
<title>cluster_templating</title>
<polygon fill="none" stroke="black" stroke-dasharray="5,2" points="6144,-548 6144,-690 6603,-690 6603,-548 6144,-548"/>
<text text-anchor="middle" x="6373.5" y="-652.4" font-family="Courier-Bold" font-size="42.00">templating</text>
</g>
<g id="clust13" class="cluster">
<title>cluster_unassigned</title>
<polygon fill="none" stroke="black" stroke-dasharray="5,2" points="6623,-548 6623,-690 7170,-690 7170,-548 6623,-548"/>
<text text-anchor="middle" x="6896.5" y="-652.4" font-family="Courier-Bold" font-size="42.00">unassigned</text>
</g>
<!-- deployment/virt&#45;platform&#45;autopilot -->
<g id="node1" class="node">
<title>deployment/virt&#45;platform&#45;autopilot</title>
<path fill="none" stroke="black" d="M442,-628C442,-628 28,-628 28,-628 22,-628 16,-622 16,-616 16,-616 16,-568 16,-568 16,-562 22,-556 28,-556 28,-556 442,-556 442,-556 448,-556 454,-562 454,-568 454,-568 454,-616 454,-616 454,-622 448,-628 442,-628"/>
<text text-anchor="middle" x="235" y="-585.8" font-family="Courier-Bold" font-size="24.00">deployment/virt&#45;platform&#45;autopilot</text>
</g>
<!-- KubeVirt/kubevirt&#45;kubevirt&#45;hyperconverged -->
<g id="node2" class="node">
<title>KubeVirt/kubevirt&#45;kubevirt&#45;hyperconverged</title>
<path fill="none" stroke="black" d="M1016,-628C1016,-628 502,-628 502,-628 496,-628 490,-622 490,-616 490,-616 490,-568 490,-568 490,-562 496,-556 502,-556 502,-556 1016,-556 1016,-556 1022,-556 1028,-562 1028,-568 1028,-568 1028,-616 1028,-616 1028,-622 1022,-628 1016,-628"/>
<text text-anchor="middle" x="759" y="-585.8" font-family="Courier-Bold" font-size="24.00">KubeVirt/kubevirt&#45;kubevirt&#45;hyperconverged</text>
</g>
<!-- deployment/virt&#45;platform&#45;autopilot&#45;&gt;KubeVirt/kubevirt&#45;kubevirt&#45;hyperconverged -->
<!-- deployment/hco&#45;operator -->
<g id="node9" class="node">
<title>deployment/hco&#45;operator</title>
<path fill="none" stroke="black" d="M1523,-628C1523,-628 1221,-628 1221,-628 1215,-628 1209,-622 1209,-616 1209,-616 1209,-568 1209,-568 1209,-562 1215,-556 1221,-556 1221,-556 1523,-556 1523,-556 1529,-556 1535,-562 1535,-568 1535,-568 1535,-616 1535,-616 1535,-622 1529,-628 1523,-628"/>
<text text-anchor="middle" x="1372" y="-585.8" font-family="Courier-Bold" font-size="24.00">deployment/hco&#45;operator</text>
</g>
<!-- KubeVirt/kubevirt&#45;kubevirt&#45;hyperconverged&#45;&gt;deployment/hco&#45;operator -->
<!-- daemonset/virt&#45;handler -->
<g id="node3" class="node">
<title>daemonset/virt&#45;handler</title>
<path fill="none" stroke="black" d="M898,-538C898,-538 620,-538 620,-538 614,-538 608,-532 608,-526 608,-526 608,-478 608,-478 608,-472 614,-466 620,-466 620,-466 898,-466 898,-466 904,-466 910,-472 910,-478 910,-478 910,-526 910,-526 910,-532 904,-538 898,-538"/>
<text text-anchor="middle" x="759" y="-495.8" font-family="Courier-Bold" font-size="24.00">daemonset/virt&#45;handler</text>
</g>
<!-- deployment/virt&#45;api -->
<g id="node4" class="node">
<title>deployment/virt&#45;api</title>
<path fill="none" stroke="black" d="M874.5,-448C874.5,-448 643.5,-448 643.5,-448 637.5,-448 631.5,-442 631.5,-436 631.5,-436 631.5,-388 631.5,-388 631.5,-382 637.5,-376 643.5,-376 643.5,-376 874.5,-376 874.5,-376 880.5,-376 886.5,-382 886.5,-388 886.5,-388 886.5,-436 886.5,-436 886.5,-442 880.5,-448 874.5,-448"/>
<text text-anchor="middle" x="759" y="-405.8" font-family="Courier-Bold" font-size="24.00">deployment/virt&#45;api</text>
</g>
<!-- deployment/virt&#45;controller -->
<g id="node5" class="node">
<title>deployment/virt&#45;controller</title>
<path fill="none" stroke="black" d="M914,-358C914,-358 604,-358 604,-358 598,-358 592,-352 592,-346 592,-346 592,-298 592,-298 592,-292 598,-286 604,-286 604,-286 914,-286 914,-286 920,-286 926,-292 926,-298 926,-298 926,-346 926,-346 926,-352 920,-358 914,-358"/>
<text text-anchor="middle" x="759" y="-315.8" font-family="Courier-Bold" font-size="24.00">deployment/virt&#45;controller</text>
</g>
<!-- deployment/virt&#45;exportproxy -->
<g id="node6" class="node">
<title>deployment/virt&#45;exportproxy</title>
<path fill="none" stroke="black" d="M928.5,-268C928.5,-268 589.5,-268 589.5,-268 583.5,-268 577.5,-262 577.5,-256 577.5,-256 577.5,-208 577.5,-208 577.5,-202 583.5,-196 589.5,-196 589.5,-196 928.5,-196 928.5,-196 934.5,-196 940.5,-202 940.5,-208 940.5,-208 940.5,-256 940.5,-256 940.5,-262 934.5,-268 928.5,-268"/>
<text text-anchor="middle" x="759" y="-225.8" font-family="Courier-Bold" font-size="24.00">deployment/virt&#45;exportproxy</text>
</g>
<!-- deployment/virt&#45;operator -->
<g id="node7" class="node">
<title>deployment/virt&#45;operator</title>
<path fill="none" stroke="black" d="M908.5,-178C908.5,-178 609.5,-178 609.5,-178 603.5,-178 597.5,-172 597.5,-166 597.5,-166 597.5,-118 597.5,-118 597.5,-112 603.5,-106 609.5,-106 609.5,-106 908.5,-106 908.5,-106 914.5,-106 920.5,-112 920.5,-118 920.5,-118 920.5,-166 920.5,-166 920.5,-172 914.5,-178 908.5,-178"/>
<text text-anchor="middle" x="759" y="-135.8" font-family="Courier-Bold" font-size="24.00">deployment/virt&#45;operator</text>
</g>
<!-- deployment/virt&#45;synchronization&#45;controller -->
<g id="node8" class="node">
<title>deployment/virt&#45;synchronization&#45;controller</title>
<path fill="none" stroke="black" d="M1013.5,-88C1013.5,-88 504.5,-88 504.5,-88 498.5,-88 492.5,-82 492.5,-76 492.5,-76 492.5,-28 492.5,-28 492.5,-22 498.5,-16 504.5,-16 504.5,-16 1013.5,-16 1013.5,-16 1019.5,-16 1025.5,-22 1025.5,-28 1025.5,-28 1025.5,-76 1025.5,-76 1025.5,-82 1019.5,-88 1013.5,-88"/>
<text text-anchor="middle" x="759" y="-45.8" font-family="Courier-Bold" font-size="24.00">deployment/virt&#45;synchronization&#45;controller</text>
</g>
<!-- deployment/inflightoperations&#45;controller&#45;manager -->
<g id="node12" class="node">
<title>deployment/inflightoperations&#45;controller&#45;manager</title>
<path fill="none" stroke="black" d="M2325,-628C2325,-628 1728,-628 1728,-628 1722,-628 1716,-622 1716,-616 1716,-616 1716,-568 1716,-568 1716,-562 1722,-556 1728,-556 1728,-556 2325,-556 2325,-556 2331,-556 2337,-562 2337,-568 2337,-568 2337,-616 2337,-616 2337,-622 2331,-628 2325,-628"/>
<text text-anchor="middle" x="2026.5" y="-585.8" font-family="Courier-Bold" font-size="24.00">deployment/inflightoperations&#45;controller&#45;manager</text>
</g>
<!-- deployment/hco&#45;operator&#45;&gt;deployment/inflightoperations&#45;controller&#45;manager -->
<!-- deployment/hco&#45;webhook -->
<g id="node10" class="node">
<title>deployment/hco&#45;webhook</title>
<path fill="none" stroke="black" d="M1525,-538C1525,-538 1219,-538 1219,-538 1213,-538 1207,-532 1207,-526 1207,-526 1207,-478 1207,-478 1207,-472 1213,-466 1219,-466 1219,-466 1525,-466 1525,-466 1531,-466 1537,-472 1537,-478 1537,-478 1537,-526 1537,-526 1537,-532 1531,-538 1525,-538"/>
<text text-anchor="middle" x="1372" y="-495.8" font-family="Courier-Bold" font-size="24.00">deployment/hco&#45;webhook</text>
</g>
<!-- deployment/hyperconverged&#45;cluster&#45;cli&#45;download -->
<g id="node11" class="node">
<title>deployment/hyperconverged&#45;cluster&#45;cli&#45;download</title>
<path fill="none" stroke="black" d="M1668,-448C1668,-448 1076,-448 1076,-448 1070,-448 1064,-442 1064,-436 1064,-436 1064,-388 1064,-388 1064,-382 1070,-376 1076,-376 1076,-376 1668,-376 1668,-376 1674,-376 1680,-382 1680,-388 1680,-388 1680,-436 1680,-436 1680,-442 1674,-448 1668,-448"/>
<text text-anchor="middle" x="1372" y="-405.8" font-family="Courier-Bold" font-size="24.00">deployment/hyperconverged&#45;cluster&#45;cli&#45;download</text>
</g>
<!-- deployment/kubevirt&#45;apiserver&#45;proxy -->
<g id="node13" class="node">
<title>deployment/kubevirt&#45;apiserver&#45;proxy</title>
<path fill="none" stroke="black" d="M2850,-628C2850,-628 2410,-628 2410,-628 2404,-628 2398,-622 2398,-616 2398,-616 2398,-568 2398,-568 2398,-562 2404,-556 2410,-556 2410,-556 2850,-556 2850,-556 2856,-556 2862,-562 2862,-568 2862,-568 2862,-616 2862,-616 2862,-622 2856,-628 2850,-628"/>
<text text-anchor="middle" x="2630" y="-585.8" font-family="Courier-Bold" font-size="24.00">deployment/kubevirt&#45;apiserver&#45;proxy</text>
</g>
<!-- deployment/inflightoperations&#45;controller&#45;manager&#45;&gt;deployment/kubevirt&#45;apiserver&#45;proxy -->
<!-- deployment/kubevirt&#45;console&#45;plugin -->
<g id="node14" class="node">
<title>deployment/kubevirt&#45;console&#45;plugin</title>
<path fill="none" stroke="black" d="M3383,-628C3383,-628 2955,-628 2955,-628 2949,-628 2943,-622 2943,-616 2943,-616 2943,-568 2943,-568 2943,-562 2949,-556 2955,-556 2955,-556 3383,-556 3383,-556 3389,-556 3395,-562 3395,-568 3395,-568 3395,-616 3395,-616 3395,-622 3389,-628 3383,-628"/>
<text text-anchor="middle" x="3169" y="-585.8" font-family="Courier-Bold" font-size="24.00">deployment/kubevirt&#45;console&#45;plugin</text>
</g>
<!-- deployment/kubevirt&#45;apiserver&#45;proxy&#45;&gt;deployment/kubevirt&#45;console&#45;plugin -->
<!-- deployment/kubevirt&#45;migration&#45;controller -->
<g id="node15" class="node">
<title>deployment/kubevirt&#45;migration&#45;controller</title>
<path fill="none" stroke="black" d="M3958,-628C3958,-628 3464,-628 3464,-628 3458,-628 3452,-622 3452,-616 3452,-616 3452,-568 3452,-568 3452,-562 3458,-556 3464,-556 3464,-556 3958,-556 3958,-556 3964,-556 3970,-562 3970,-568 3970,-568 3970,-616 3970,-616 3970,-622 3964,-628 3958,-628"/>
<text text-anchor="middle" x="3711" y="-585.8" font-family="Courier-Bold" font-size="24.00">deployment/kubevirt&#45;migration&#45;controller</text>
</g>
<!-- deployment/kubevirt&#45;console&#45;plugin&#45;&gt;deployment/kubevirt&#45;migration&#45;controller -->
<!-- NetworkAddonsConfig/cluster -->
<g id="node17" class="node">
<title>NetworkAddonsConfig/cluster</title>
<path fill="none" stroke="black" d="M4497,-628C4497,-628 4147,-628 4147,-628 4141,-628 4135,-622 4135,-616 4135,-616 4135,-568 4135,-568 4135,-562 4141,-556 4147,-556 4147,-556 4497,-556 4497,-556 4503,-556 4509,-562 4509,-568 4509,-568 4509,-616 4509,-616 4509,-622 4503,-628 4497,-628"/>
<text text-anchor="middle" x="4322" y="-585.8" font-family="Courier-Bold" font-size="24.00">NetworkAddonsConfig/cluster</text>
</g>
<!-- deployment/kubevirt&#45;migration&#45;controller&#45;&gt;NetworkAddonsConfig/cluster -->
<!-- deployment/kubevirt&#45;migration&#45;operator -->
<g id="node16" class="node">
<title>deployment/kubevirt&#45;migration&#45;operator</title>
<path fill="none" stroke="black" d="M3952,-538C3952,-538 3470,-538 3470,-538 3464,-538 3458,-532 3458,-526 3458,-526 3458,-478 3458,-478 3458,-472 3464,-466 3470,-466 3470,-466 3952,-466 3952,-466 3958,-466 3964,-472 3964,-478 3964,-478 3964,-526 3964,-526 3964,-532 3958,-538 3952,-538"/>
<text text-anchor="middle" x="3711" y="-495.8" font-family="Courier-Bold" font-size="24.00">deployment/kubevirt&#45;migration&#45;operator</text>
</g>
<!-- deployment/aaq&#45;operator -->
<g id="node24" class="node">
<title>deployment/aaq&#45;operator</title>
<path fill="none" stroke="black" d="M5034,-628C5034,-628 4731,-628 4731,-628 4725,-628 4719,-622 4719,-616 4719,-616 4719,-568 4719,-568 4719,-562 4725,-556 4731,-556 4731,-556 5034,-556 5034,-556 5040,-556 5046,-562 5046,-568 5046,-568 5046,-616 5046,-616 5046,-622 5040,-628 5034,-628"/>
<text text-anchor="middle" x="4882.5" y="-585.8" font-family="Courier-Bold" font-size="24.00">deployment/aaq&#45;operator</text>
</g>
<!-- NetworkAddonsConfig/cluster&#45;&gt;deployment/aaq&#45;operator -->
<!-- daemonset/bridge&#45;marker -->
<g id="node18" class="node">
<title>daemonset/bridge&#45;marker</title>
<path fill="none" stroke="black" d="M4476,-538C4476,-538 4168,-538 4168,-538 4162,-538 4156,-532 4156,-526 4156,-526 4156,-478 4156,-478 4156,-472 4162,-466 4168,-466 4168,-466 4476,-466 4476,-466 4482,-466 4488,-472 4488,-478 4488,-478 4488,-526 4488,-526 4488,-532 4482,-538 4476,-538"/>
<text text-anchor="middle" x="4322" y="-495.8" font-family="Courier-Bold" font-size="24.00">daemonset/bridge&#45;marker</text>
</g>
<!-- daemonset/kube&#45;cni&#45;linux&#45;bridge&#45;plugin -->
<g id="node19" class="node">
<title>daemonset/kube&#45;cni&#45;linux&#45;bridge&#45;plugin</title>
<path fill="none" stroke="black" d="M4559,-448C4559,-448 4085,-448 4085,-448 4079,-448 4073,-442 4073,-436 4073,-436 4073,-388 4073,-388 4073,-382 4079,-376 4085,-376 4085,-376 4559,-376 4559,-376 4565,-376 4571,-382 4571,-388 4571,-388 4571,-436 4571,-436 4571,-442 4565,-448 4559,-448"/>
<text text-anchor="middle" x="4322" y="-405.8" font-family="Courier-Bold" font-size="24.00">daemonset/kube&#45;cni&#45;linux&#45;bridge&#45;plugin</text>
</g>
<!-- deployment/cluster&#45;network&#45;addons&#45;operator -->
<g id="node20" class="node">
<title>deployment/cluster&#45;network&#45;addons&#45;operator</title>
<path fill="none" stroke="black" d="M4593.5,-358C4593.5,-358 4050.5,-358 4050.5,-358 4044.5,-358 4038.5,-352 4038.5,-346 4038.5,-346 4038.5,-298 4038.5,-298 4038.5,-292 4044.5,-286 4050.5,-286 4050.5,-286 4593.5,-286 4593.5,-286 4599.5,-286 4605.5,-292 4605.5,-298 4605.5,-298 4605.5,-346 4605.5,-346 4605.5,-352 4599.5,-358 4593.5,-358"/>
<text text-anchor="middle" x="4322" y="-315.8" font-family="Courier-Bold" font-size="24.00">deployment/cluster&#45;network&#45;addons&#45;operator</text>
</g>
<!-- deployment/kubemacpool&#45;cert&#45;manager -->
<g id="node21" class="node">
<title>deployment/kubemacpool&#45;cert&#45;manager</title>
<path fill="none" stroke="black" d="M4562.5,-268C4562.5,-268 4081.5,-268 4081.5,-268 4075.5,-268 4069.5,-262 4069.5,-256 4069.5,-256 4069.5,-208 4069.5,-208 4069.5,-202 4075.5,-196 4081.5,-196 4081.5,-196 4562.5,-196 4562.5,-196 4568.5,-196 4574.5,-202 4574.5,-208 4574.5,-208 4574.5,-256 4574.5,-256 4574.5,-262 4568.5,-268 4562.5,-268"/>
<text text-anchor="middle" x="4322" y="-225.8" font-family="Courier-Bold" font-size="24.00">deployment/kubemacpool&#45;cert&#45;manager</text>
</g>
<!-- deployment/kubemacpool&#45;mac&#45;controller&#45;manager -->
<g id="node22" class="node">
<title>deployment/kubemacpool&#45;mac&#45;controller&#45;manager</title>
<path fill="none" stroke="black" d="M4626,-178C4626,-178 4018,-178 4018,-178 4012,-178 4006,-172 4006,-166 4006,-166 4006,-118 4006,-118 4006,-112 4012,-106 4018,-106 4018,-106 4626,-106 4626,-106 4632,-106 4638,-112 4638,-118 4638,-118 4638,-166 4638,-166 4638,-172 4632,-178 4626,-178"/>
<text text-anchor="middle" x="4322" y="-135.8" font-family="Courier-Bold" font-size="24.00">deployment/kubemacpool&#45;mac&#45;controller&#45;manager</text>
</g>
<!-- deployment/kubevirt&#45;ipam&#45;controller&#45;manager -->
<g id="node23" class="node">
<title>deployment/kubevirt&#45;ipam&#45;controller&#45;manager</title>
<path fill="none" stroke="black" d="M4598.5,-88C4598.5,-88 4045.5,-88 4045.5,-88 4039.5,-88 4033.5,-82 4033.5,-76 4033.5,-76 4033.5,-28 4033.5,-28 4033.5,-22 4039.5,-16 4045.5,-16 4045.5,-16 4598.5,-16 4598.5,-16 4604.5,-16 4610.5,-22 4610.5,-28 4610.5,-28 4610.5,-76 4610.5,-76 4610.5,-82 4604.5,-88 4598.5,-88"/>
<text text-anchor="middle" x="4322" y="-45.8" font-family="Courier-Bold" font-size="24.00">deployment/kubevirt&#45;ipam&#45;controller&#45;manager</text>
</g>
<!-- SSP/ssp&#45;kubevirt&#45;hyperconverged -->
<g id="node25" class="node">
<title>SSP/ssp&#45;kubevirt&#45;hyperconverged</title>
<path fill="none" stroke="black" d="M5537,-628C5537,-628 5139,-628 5139,-628 5133,-628 5127,-622 5127,-616 5127,-616 5127,-568 5127,-568 5127,-562 5133,-556 5139,-556 5139,-556 5537,-556 5537,-556 5543,-556 5549,-562 5549,-568 5549,-568 5549,-616 5549,-616 5549,-622 5543,-628 5537,-628"/>
<text text-anchor="middle" x="5338" y="-585.8" font-family="Courier-Bold" font-size="24.00">SSP/ssp&#45;kubevirt&#45;hyperconverged</text>
</g>
<!-- deployment/aaq&#45;operator&#45;&gt;SSP/ssp&#45;kubevirt&#45;hyperconverged -->
<!-- CDI/cdi&#45;kubevirt&#45;hyperconverged -->
<g id="node27" class="node">
<title>CDI/cdi&#45;kubevirt&#45;hyperconverged</title>
<path fill="none" stroke="black" d="M6046,-628C6046,-628 5655,-628 5655,-628 5649,-628 5643,-622 5643,-616 5643,-616 5643,-568 5643,-568 5643,-562 5649,-556 5655,-556 5655,-556 6046,-556 6046,-556 6052,-556 6058,-562 6058,-568 6058,-568 6058,-616 6058,-616 6058,-622 6052,-628 6046,-628"/>
<text text-anchor="middle" x="5850.5" y="-585.8" font-family="Courier-Bold" font-size="24.00">CDI/cdi&#45;kubevirt&#45;hyperconverged</text>
</g>
<!-- SSP/ssp&#45;kubevirt&#45;hyperconverged&#45;&gt;CDI/cdi&#45;kubevirt&#45;hyperconverged -->
<!-- deployment/ssp&#45;operator -->
<g id="node26" class="node">
<title>deployment/ssp&#45;operator</title>
<path fill="none" stroke="black" d="M5487.5,-538C5487.5,-538 5188.5,-538 5188.5,-538 5182.5,-538 5176.5,-532 5176.5,-526 5176.5,-526 5176.5,-478 5176.5,-478 5176.5,-472 5182.5,-466 5188.5,-466 5188.5,-466 5487.5,-466 5487.5,-466 5493.5,-466 5499.5,-472 5499.5,-478 5499.5,-478 5499.5,-526 5499.5,-526 5499.5,-532 5493.5,-538 5487.5,-538"/>
<text text-anchor="middle" x="5338" y="-495.8" font-family="Courier-Bold" font-size="24.00">deployment/ssp&#45;operator</text>
</g>
<!-- deployment/virt&#45;template&#45;validator -->
<g id="node34" class="node">
<title>deployment/virt&#45;template&#45;validator</title>
<path fill="none" stroke="black" d="M6583,-628C6583,-628 6164,-628 6164,-628 6158,-628 6152,-622 6152,-616 6152,-616 6152,-568 6152,-568 6152,-562 6158,-556 6164,-556 6164,-556 6583,-556 6583,-556 6589,-556 6595,-562 6595,-568 6595,-568 6595,-616 6595,-616 6595,-622 6589,-628 6583,-628"/>
<text text-anchor="middle" x="6373.5" y="-585.8" font-family="Courier-Bold" font-size="24.00">deployment/virt&#45;template&#45;validator</text>
</g>
<!-- CDI/cdi&#45;kubevirt&#45;hyperconverged&#45;&gt;deployment/virt&#45;template&#45;validator -->
<!-- CDIConfig/config -->
<g id="node28" class="node">
<title>CDIConfig/config</title>
<path fill="none" stroke="black" d="M5947,-538C5947,-538 5754,-538 5754,-538 5748,-538 5742,-532 5742,-526 5742,-526 5742,-478 5742,-478 5742,-472 5748,-466 5754,-466 5754,-466 5947,-466 5947,-466 5953,-466 5959,-472 5959,-478 5959,-478 5959,-526 5959,-526 5959,-532 5953,-538 5947,-538"/>
<text text-anchor="middle" x="5850.5" y="-495.8" font-family="Courier-Bold" font-size="24.00">CDIConfig/config</text>
</g>
<!-- deployment/cdi&#45;apiserver -->
<g id="node29" class="node">
<title>deployment/cdi&#45;apiserver</title>
<path fill="none" stroke="black" d="M6001.5,-448C6001.5,-448 5699.5,-448 5699.5,-448 5693.5,-448 5687.5,-442 5687.5,-436 5687.5,-436 5687.5,-388 5687.5,-388 5687.5,-382 5693.5,-376 5699.5,-376 5699.5,-376 6001.5,-376 6001.5,-376 6007.5,-376 6013.5,-382 6013.5,-388 6013.5,-388 6013.5,-436 6013.5,-436 6013.5,-442 6007.5,-448 6001.5,-448"/>
<text text-anchor="middle" x="5850.5" y="-405.8" font-family="Courier-Bold" font-size="24.00">deployment/cdi&#45;apiserver</text>
</g>
<!-- deployment/cdi&#45;deployment -->
<g id="node30" class="node">
<title>deployment/cdi&#45;deployment</title>
<path fill="none" stroke="black" d="M6017,-358C6017,-358 5684,-358 5684,-358 5678,-358 5672,-352 5672,-346 5672,-346 5672,-298 5672,-298 5672,-292 5678,-286 5684,-286 5684,-286 6017,-286 6017,-286 6023,-286 6029,-292 6029,-298 6029,-298 6029,-346 6029,-346 6029,-352 6023,-358 6017,-358"/>
<text text-anchor="middle" x="5850.5" y="-315.8" font-family="Courier-Bold" font-size="24.00">deployment/cdi&#45;deployment</text>
</g>
<!-- deployment/cdi&#45;operator -->
<g id="node31" class="node">
<title>deployment/cdi&#45;operator</title>
<path fill="none" stroke="black" d="M5997,-268C5997,-268 5704,-268 5704,-268 5698,-268 5692,-262 5692,-256 5692,-256 5692,-208 5692,-208 5692,-202 5698,-196 5704,-196 5704,-196 5997,-196 5997,-196 6003,-196 6009,-202 6009,-208 6009,-208 6009,-256 6009,-256 6009,-262 6003,-268 5997,-268"/>
<text text-anchor="middle" x="5850.5" y="-225.8" font-family="Courier-Bold" font-size="24.00">deployment/cdi&#45;operator</text>
</g>
<!-- deployment/cdi&#45;uploadproxy -->
<g id="node32" class="node">
<title>deployment/cdi&#45;uploadproxy</title>
<path fill="none" stroke="black" d="M6019.5,-178C6019.5,-178 5681.5,-178 5681.5,-178 5675.5,-178 5669.5,-172 5669.5,-166 5669.5,-166 5669.5,-118 5669.5,-118 5669.5,-112 5675.5,-106 5681.5,-106 5681.5,-106 6019.5,-106 6019.5,-106 6025.5,-106 6031.5,-112 6031.5,-118 6031.5,-118 6031.5,-166 6031.5,-166 6031.5,-172 6025.5,-178 6019.5,-178"/>
<text text-anchor="middle" x="5850.5" y="-135.8" font-family="Courier-Bold" font-size="24.00">deployment/cdi&#45;uploadproxy</text>
</g>
<!-- deployment/hostpath&#45;provisioner&#45;operator -->
<g id="node33" class="node">
<title>deployment/hostpath&#45;provisioner&#45;operator</title>
<path fill="none" stroke="black" d="M6104,-88C6104,-88 5597,-88 5597,-88 5591,-88 5585,-82 5585,-76 5585,-76 5585,-28 5585,-28 5585,-22 5591,-16 5597,-16 5597,-16 6104,-16 6104,-16 6110,-16 6116,-22 6116,-28 6116,-28 6116,-76 6116,-76 6116,-82 6110,-88 6104,-88"/>
<text text-anchor="middle" x="5850.5" y="-45.8" font-family="Courier-Bold" font-size="24.00">deployment/hostpath&#45;provisioner&#45;operator</text>
</g>
<!-- HyperConverged/kubevirt&#45;hyperconverged -->
<g id="node35" class="node">
<title>HyperConverged/kubevirt&#45;hyperconverged</title>
<path fill="none" stroke="black" d="M7150,-628C7150,-628 6643,-628 6643,-628 6637,-628 6631,-622 6631,-616 6631,-616 6631,-568 6631,-568 6631,-562 6637,-556 6643,-556 6643,-556 7150,-556 7150,-556 7156,-556 7162,-562 7162,-568 7162,-568 7162,-616 7162,-616 7162,-622 7156,-628 7150,-628"/>
<text text-anchor="middle" x="6896.5" y="-585.8" font-family="Courier-Bold" font-size="24.00">HyperConverged/kubevirt&#45;hyperconverged</text>
</g>
<!-- deployment/virt&#45;template&#45;validator&#45;&gt;HyperConverged/kubevirt&#45;hyperconverged -->
</g>
</svg>
