<?xml version="1.0" encoding="UTF-8" standalone="no"?>
<!DOCTYPE svg PUBLIC "-//W3C//DTD SVG 1.1//EN"
 "http://www.w3.org/Graphics/SVG/1.1/DTD/svg11.dtd">
<!-- Generated by graphviz version 2.44.0 (0)
 -->
<!-- Title: component Pages: 1 -->
<svg width="7871pt" height="706pt"
 viewBox="0.00 0.00 7871.00 706.00" xmlns="http://www.w3.org/2000/svg" xmlns:xlink="http://www.w3.org/1999/xlink">
<g id="graph0" class="graph" transform="scale(1 1) rotate(0) translate(4 702)">
<title>component</title>
<polygon fill="white" stroke="transparent" points="-4,4 -4,-702 7867,-702 7867,4 -4,4"/>
<g id="clust1" class="cluster">
<title>cluster_autopilot</title>
<polygon fill="none" stroke="black" stroke-dasharray="5,2" points="8,-548 8,-690 462,-690 462,-548 8,-548"/>
<text text-anchor="middle" x="235" y="-652.4" font-family="Courier-Bold" font-size="42.00">autopilot</text>
</g>
<g id="clust2" class="cluster">
<title>cluster_cnv&#45;network&#45;resources&#45;injector</title>
<polygon fill="none" stroke="black" stroke-dasharray="5,2" points="482,-548 482,-690 1147,-690 1147,-548 482,-548"/>
<text text-anchor="middle" x="814.5" y="-652.4" font-family="Courier-Bold" font-size="42.00">cnv&#45;network&#45;resources&#45;injector</text>
</g>
<g id="clust3" class="cluster">
<title>cluster_compute</title>
<polygon fill="none" stroke="black" stroke-dasharray="5,2" points="1167,-8 1167,-690 1721,-690 1721,-8 1167,-8"/>
<text text-anchor="middle" x="1444" y="-652.4" font-family="Courier-Bold" font-size="42.00">compute</text>
</g>
<g id="clust4" class="cluster">
<title>cluster_deployment</title>
<polygon fill="none" stroke="black" stroke-dasharray="5,2" points="1741,-368 1741,-690 2373,-690 2373,-368 1741,-368"/>
<text text-anchor="middle" x="2057" y="-652.4" font-family="Courier-Bold" font-size="42.00">deployment</text>
</g>
<g id="clust5" class="cluster">
<title>cluster_inflightoperations</title>
<polygon fill="none" stroke="black" stroke-dasharray="5,2" points="2393,-548 2393,-690 3030,-690 3030,-548 2393,-548"/>
<text text-anchor="middle" x="2711.5" y="-652.4" font-family="Courier-Bold" font-size="42.00">inflightoperations</text>
</g>
<g id="clust6" class="cluster">
<title>cluster_kubevirt&#45;apiserver&#45;proxy</title>
<polygon fill="none" stroke="black" stroke-dasharray="5,2" points="3050,-548 3050,-690 3580,-690 3580,-548 3050,-548"/>
<text text-anchor="middle" x="3315" y="-652.4" font-family="Courier-Bold" font-size="42.00">kubevirt&#45;apiserver&#45;proxy</text>
</g>
<g id="clust7" class="cluster">
<title>cluster_kubevirt&#45;console&#45;plugin</title>
<polygon fill="none" stroke="black" stroke-dasharray="5,2" points="3600,-548 3600,-690 4109,-690 4109,-548 3600,-548"/>
<text text-anchor="middle" x="3854.5" y="-652.4" font-family="Courier-Bold" font-size="42.00">kubevirt&#45;console&#45;plugin</text>
</g>
<g id="clust8" class="cluster">
<title>cluster_migration</title>
<polygon fill="none" stroke="black" stroke-dasharray="5,2" points="4129,-458 4129,-690 4663,-690 4663,-458 4129,-458"/>
<text text-anchor="middle" x="4396" y="-652.4" font-family="Courier-Bold" font-size="42.00">migration</text>
</g>
<g id="clust9" class="cluster">
<title>cluster_network</title>
<polygon fill="none" stroke="black" stroke-dasharray="5,2" points="4683,-8 4683,-690 5331,-690 5331,-8 4683,-8"/>
<text text-anchor="middle" x="5007" y="-652.4" font-family="Courier-Bold" font-size="42.00">network</text>
</g>
<g id="clust10" class="cluster">
<title>cluster_quota&#45;management</title>
<polygon fill="none" stroke="black" stroke-dasharray="5,2" points="5351,-548 5351,-690 5784,-690 5784,-548 5351,-548"/>
<text text-anchor="middle" x="5567.5" y="-652.4" font-family="Courier-Bold" font-size="42.00">quota&#45;management</text>
</g>
<g id="clust11" class="cluster">
<title>cluster_schedule</title>
<polygon fill="none" stroke="black" stroke-dasharray="5,2" points="5804,-458 5804,-690 6242,-690 6242,-458 5804,-458"/>
<text text-anchor="middle" x="6023" y="-652.4" font-family="Courier-Bold" font-size="42.00">schedule</text>
</g>
<g id="clust12" class="cluster">
<title>cluster_storage</title>
<polygon fill="none" stroke="black" stroke-dasharray="5,2" points="6262,-8 6262,-690 6809,-690 6809,-8 6262,-8"/>
<text text-anchor="middle" x="6535.5" y="-652.4" font-family="Courier-Bold" font-size="42.00">storage</text>
</g>
<g id="clust13" class="cluster">
<title>cluster_templating</title>
<polygon fill="none" stroke="black" stroke-dasharray="5,2" points="6829,-548 6829,-690 7288,-690 7288,-548 6829,-548"/>
<text text-anchor="middle" x="7058.5" y="-652.4" font-family="Courier-Bold" font-size="42.00">templating</text>
</g>
<g id="clust14" class="cluster">
<title>cluster_unassigned</title>
<polygon fill="none" stroke="black" stroke-dasharray="5,2" points="7308,-548 7308,-690 7855,-690 7855,-548 7308,-548"/>
<text text-anchor="middle" x="7581.5" y="-652.4" font-family="Courier-Bold" font-size="42.00">unassigned</text>
</g>
<!-- deployment/virt&#45;platform&#45;autopilot -->
<g id="node1" class="node">
<title>deployment/virt&#45;platform&#45;autopilot</title>
<path fill="none" stroke="black" d="M442,-628C442,-628 28,-628 28,-628 22,-628 16,-622 16,-616 16,-616 16,-568 16,-568 16,-562 22,-556 28,-556 28,-556 442,-556 442,-556 448,-556 454,-562 454,-568 454,-568 454,-616 454,-616 454,-622 448,-628 442,-628"/>
<text text-anchor="middle" x="235" y="-585.8" font-family="Courier-Bold" font-size="24.00">deployment/virt&#45;platform&#45;autopilot</text>
</g>
<!-- deployment/cnv&#45;network&#45;resources&#45;injector -->
<g id="node2" class="node">
<title>deployment/cnv&#45;network&#45;resources&#45;injector</title>
<path fill="none" stroke="black" d="M1075,-628C1075,-628 554,-628 554,-628 548,-628 542,-622 542,-616 542,-616 542,-568 542,-568 542,-562 548,-556 554,-556 554,-556 1075,-556 1075,-556 1081,-556 1087,-562 1087,-568 1087,-568 1087,-616 1087,-616 1087,-622 1081,-628 1075,-628"/>
<text text-anchor="middle" x="814.5" y="-585.8" font-family="Courier-Bold" font-size="24.00">deployment/cnv&#45;network&#45;resources&#45;injector</text>
</g>
<!-- deployment/virt&#45;platform&#45;autopilot&#45;&gt;deployment/cnv&#45;network&#45;resources&#45;injector -->
<!-- KubeVirt/kubevirt&#45;kubevirt&#45;hyperconverged -->
<g id="node3" class="node">
<title>KubeVirt/kubevirt&#45;kubevirt&#45;hyperconverged</title>
<path fill="none" stroke="black" d="M1701,-628C1701,-628 1187,-628 1187,-628 1181,-628 1175,-622 1175,-616 1175,-616 1175,-568 1175,-568 1175,-562 1181,-556 1187,-556 1187,-556 1701,-556 1701,-556 1707,-556 1713,-562 1713,-568 1713,-568 1713,-616 1713,-616 1713,-622 1707,-628 1701,-628"/>
<text text-anchor="middle" x="1444" y="-585.8" font-family="Courier-Bold" font-size="24.00">KubeVirt/kubevirt&#45;kubevirt&#45;hyperconverged</text>
</g>
<!-- deployment/cnv&#45;network&#45;resources&#45;injector&#45;&gt;KubeVirt/kubevirt&#45;kubevirt&#45;hyperconverged -->
<!-- deployment/hco&#45;operator -->
<g id="node10" class="node">
<title>deployment/hco&#45;operator</title>
<path fill="none" stroke="black" d="M2208,-628C2208,-628 1906,-628 1906,-628 1900,-628 1894,-622 1894,-616 1894,-616 1894,-568 1894,-568 1894,-562 1900,-556 1906,-556 1906,-556 2208,-556 2208,-556 2214,-556 2220,-562 2220,-568 2220,-568 2220,-616 2220,-616 2220,-622 2214,-628 2208,-628"/>
<text text-anchor="middle" x="2057" y="-585.8" font-family="Courier-Bold" font-size="24.00">deployment/hco&#45;operator</text>
</g>
<!-- KubeVirt/kubevirt&#45;kubevirt&#45;hyperconverged&#45;&gt;deployment/hco&#45;operator -->
<!-- daemonset/virt&#45;handler -->
<g id="node4" class="node">
<title>daemonset/virt&#45;handler</title>
<path fill="none" stroke="black" d="M1583,-538C1583,-538 1305,-538 1305,-538 1299,-538 1293,-532 1293,-526 1293,-526 1293,-478 1293,-478 1293,-472 1299,-466 1305,-466 1305,-466 1583,-466 1583,-466 1589,-466 1595,-472 1595,-478 1595,-478 1595,-526 1595,-526 1595,-532 1589,-538 1583,-538"/>
<text text-anchor="middle" x="1444" y="-495.8" font-family="Courier-Bold" font-size="24.00">daemonset/virt&#45;handler</text>
</g>
<!-- deployment/virt&#45;api -->
<g id="node5" class="node">
<title>deployment/virt&#45;api</title>
<path fill="none" stroke="black" d="M1559.5,-448C1559.5,-448 1328.5,-448 1328.5,-448 1322.5,-448 1316.5,-442 1316.5,-436 1316.5,-436 1316.5,-388 1316.5,-388 1316.5,-382 1322.5,-376 1328.5,-376 1328.5,-376 1559.5,-376 1559.5,-376 1565.5,-376 1571.5,-382 1571.5,-388 1571.5,-388 1571.5,-436 1571.5,-436 1571.5,-442 1565.5,-448 1559.5,-448"/>
<text text-anchor="middle" x="1444" y="-405.8" font-family="Courier-Bold" font-size="24.00">deployment/virt&#45;api</text>
</g>
<!-- deployment/virt&#45;controller -->
<g id="node6" class="node">
<title>deployment/virt&#45;controller</title>
<path fill="none" stroke="black" d="M1599,-358C1599,-358 1289,-358 1289,-358 1283,-358 1277,-352 1277,-346 1277,-346 1277,-298 1277,-298 1277,-292 1283,-286 1289,-286 1289,-286 1599,-286 1599,-286 1605,-286 1611,-292 1611,-298 1611,-298 1611,-346 1611,-346 1611,-352 1605,-358 1599,-358"/>
<text text-anchor="middle" x="1444" y="-315.8" font-family="Courier-Bold" font-size="24.00">deployment/virt&#45;controller</text>
</g>
<!-- deployment/virt&#45;exportproxy -->
<g id="node7" class="node">
<title>deployment/virt&#45;exportproxy</title>
<path fill="none" stroke="black" d="M1613.5,-268C1613.5,-268 1274.5,-268 1274.5,-268 1268.5,-268 1262.5,-262 1262.5,-256 1262.5,-256 1262.5,-208 1262.5,-208 1262.5,-202 1268.5,-196 1274.5,-196 1274.5,-196 1613.5,-196 1613.5,-196 1619.5,-196 1625.5,-202 1625.5,-208 1625.5,-208 1625.5,-256 1625.5,-256 1625.5,-262 1619.5,-268 1613.5,-268"/>
<text text-anchor="middle" x="1444" y="-225.8" font-family="Courier-Bold" font-size="24.00">deployment/virt&#45;exportproxy</text>
</g>
<!-- deployment/virt&#45;operator -->
<g id="node8" class="node">
<title>deployment/virt&#45;operator</title>
<path fill="none" stroke="black" d="M1593.5,-178C1593.5,-178 1294.5,-178 1294.5,-178 1288.5,-178 1282.5,-172 1282.5,-166 1282.5,-166 1282.5,-118 1282.5,-118 1282.5,-112 1288.5,-106 1294.5,-106 1294.5,-106 1593.5,-106 1593.5,-106 1599.5,-106 1605.5,-112 1605.5,-118 1605.5,-118 1605.5,-166 1605.5,-166 1605.5,-172 1599.5,-178 1593.5,-178"/>
<text text-anchor="middle" x="1444" y="-135.8" font-family="Courier-Bold" font-size="24.00">deployment/virt&#45;operator</text>
</g>
<!-- deployment/virt&#45;synchronization&#45;controller -->
<g id="node9" class="node">
<title>deployment/virt&#45;synchronization&#45;controller</title>
<path fill="none" stroke="black" d="M1698.5,-88C1698.5,-88 1189.5,-88 1189.5,-88 1183.5,-88 1177.5,-82 1177.5,-76 1177.5,-76 1177.5,-28 1177.5,-28 1177.5,-22 1183.5,-16 1189.5,-16 1189.5,-16 1698.5,-16 1698.5,-16 1704.5,-16 1710.5,-22 1710.5,-28 1710.5,-28 1710.5,-76 1710.5,-76 1710.5,-82 1704.5,-88 1698.5,-88"/>
<text text-anchor="middle" x="1444" y="-45.8" font-family="Courier-Bold" font-size="24.00">deployment/virt&#45;synchronization&#45;controller</text>
</g>
<!-- deployment/inflightoperations&#45;controller&#45;manager -->
<g id="node13" class="node">
<title>deployment/inflightoperations&#45;controller&#45;manager</title>
<path fill="none" stroke="black" d="M3010,-628C3010,-628 2413,-628 2413,-628 2407,-628 2401,-622 2401,-616 2401,-616 2401,-568 2401,-568 2401,-562 2407,-556 2413,-556 2413,-556 3010,-556 3010,-556 3016,-556 3022,-562 3022,-568 3022,-568 3022,-616 3022,-616 3022,-622 3016,-628 3010,-628"/>
<text text-anchor="middle" x="2711.5" y="-585.8" font-family="Courier-Bold" font-size="24.00">deployment/inflightoperations&#45;controller&#45;manager</text>
</g>
<!-- deployment/hco&#45;operator&#45;&gt;deployment/inflightoperations&#45;controller&#45;manager -->
<!-- deployment/hco&#45;webhook -->
<g id="node11" class="node">
<title>deployment/hco&#45;webhook</title>
<path fill="none" stroke="black" d="M2210,-538C2210,-538 1904,-538 1904,-538 1898,-538 1892,-532 1892,-526 1892,-526 1892,-478 1892,-478 1892,-472 1898,-466 1904,-466 1904,-466 2210,-466 2210,-466 2216,-466 2222,-472 2222,-478 2222,-478 2222,-526 2222,-526 2222,-532 2216,-538 2210,-538"/>
<text text-anchor="middle" x="2057" y="-495.8" font-family="Courier-Bold" font-size="24.00">deployment/hco&#45;webhook</text>
</g>
<!-- deployment/hyperconverged&#45;cluster&#45;cli&#45;download -->
<g id="node12" class="node">
<title>deployment/hyperconverged&#45;cluster&#45;cli&#45;download</title>
<path fill="none" stroke="black" d="M2353,-448C2353,-448 1761,-448 1761,-448 1755,-448 1749,-442 1749,-436 1749,-436 1749,-388 1749,-388 1749,-382 1755,-376 1761,-376 1761,-376 2353,-376 2353,-376 2359,-376 2365,-382 2365,-388 2365,-388 2365,-436 2365,-436 2365,-442 2359,-448 2353,-448"/>
<text text-anchor="middle" x="2057" y="-405.8" font-family="Courier-Bold" font-size="24.00">deployment/hyperconverged&#45;cluster&#45;cli&#45;download</text>
</g>
<!-- deployment/kubevirt&#45;apiserver&#45;proxy -->
<g id="node14" class="node">
<title>deployment/kubevirt&#45;apiserver&#45;proxy</title>
<path fill="none" stroke="black" d="M3535,-628C3535,-628 3095,-628 3095,-628 3089,-628 3083,-622 3083,-616 3083,-616 3083,-568 3083,-568 3083,-562 3089,-556 3095,-556 3095,-556 3535,-556 3535,-556 3541,-556 3547,-562 3547,-568 3547,-568 3547,-616 3547,-616 3547,-622 3541,-628 3535,-628"/>
<text text-anchor="middle" x="3315" y="-585.8" font-family="Courier-Bold" font-size="24.00">deployment/kubevirt&#45;apiserver&#45;proxy</text>
</g>
<!-- deployment/inflightoperations&#45;controller&#45;manager&#45;&gt;deployment/kubevirt&#45;apiserver&#45;proxy -->
<!-- deployment/kubevirt&#45;console&#45;plugin -->
<g id="node15" class="node">
<title>deployment/kubevirt&#45;console&#45;plugin</title>
<path fill="none" stroke="black" d="M4068,-628C4068,-628 3640,-628 3640,-628 3634,-628 3628,-622 3628,-616 3628,-616 3628,-568 3628,-568 3628,-562 3634,-556 3640,-556 3640,-556 4068,-556 4068,-556 4074,-556 4080,-562 4080,-568 4080,-568 4080,-616 4080,-616 4080,-622 4074,-628 4068,-628"/>
<text text-anchor="middle" x="3854" y="-585.8" font-family="Courier-Bold" font-size="24.00">deployment/kubevirt&#45;console&#45;plugin</text>
</g>
<!-- deployment/kubevirt&#45;apiserver&#45;proxy&#45;&gt;deployment/kubevirt&#45;console&#45;plugin -->
<!-- deployment/kubevirt&#45;migration&#45;controller -->
<g id="node16" class="node">
<title>deployment/kubevirt&#45;migration&#45;controller</title>
<path fill="none" stroke="black" d="M4643,-628C4643,-628 4149,-628 4149,-628 4143,-628 4137,-622 4137,-616 4137,-616 4137,-568 4137,-568 4137,-562 4143,-556 4149,-556 4149,-556 4643,-556 4643,-556 4649,-556 4655,-562 4655,-568 4655,-568 4655,-616 4655,-616 4655,-622 4649,-628 4643,-628"/>
<text text-anchor="middle" x="4396" y="-585.8" font-family="Courier-Bold" font-size="24.00">deployment/kubevirt&#45;migration&#45;controller</text>
</g>
<!-- deployment/kubevirt&#45;console&#45;plugin&#45;&gt;deployment/kubevirt&#45;migration&#45;controller -->
<!-- NetworkAddonsConfig/cluster -->
<g id="node18" class="node">
<title>NetworkAddonsConfig/cluster</title>
<path fill="none" stroke="black" d="M5182,-628C5182,-628 4832,-628 4832,-628 4826,-628 4820,-622 4820,-616 4820,-616 4820,-568 4820,-568 4820,-562 4826,-556 4832,-556 4832,-556 5182,-556 5182,-556 5188,-556 5194,-562 5194,-568 5194,-568 5194,-616 5194,-616 5194,-622 5188,-628 5182,-628"/>
<text text-anchor="middle" x="5007" y="-585.8" font-family="Courier-Bold" font-size="24.00">NetworkAddonsConfig/cluster</text>
</g>
<!-- deployment/kubevirt&#45;migration&#45;controller&#45;&gt;NetworkAddonsConfig/cluster -->
<!-- deployment/kubevirt&#45;migration&#45;operator -->
<g id="node17" class="node">
<title>deployment/kubevirt&#45;migration&#45;operator</title>
<path fill="none" stroke="black" d="M4637,-538C4637,-538 4155,-538 4155,-538 4149,-538 4143,-532 4143,-526 4143,-526 4143,-478 4143,-478 4143,-472 4149,-466 4155,-466 4155,-466 4637,-466 4637,-466 4643,-466 4649,-472 4649,-478 4649,-478 4649,-526 4649,-526 4649,-532 4643,-538 4637,-538"/>
<text text-anchor="middle" x="4396" y="-495.8" font-family="Courier-Bold" font-size="24.00">deployment/kubevirt&#45;migration&#45;operator</text>
</g>
<!-- deployment/aaq&#45;operator -->
<g id="node25" class="node">
<title>deployment/aaq&#45;operator</title>
<path fill="none" stroke="black" d="M5719,-628C5719,-628 5416,-628 5416,-628 5410,-628 5404,-622 5404,-616 5404,-616 5404,-568 5404,-568 5404,-562 5410,-556 5416,-556 5416,-556 5719,-556 5719,-556 5725,-556 5731,-562 5731,-568 5731,-568 5731,-616 5731,-616 5731,-622 5725,-628 5719,-628"/>
<text text-anchor="middle" x="5567.5" y="-585.8" font-family="Courier-Bold" font-size="24.00">deployment/aaq&#45;operator</text>
</g>
<!-- NetworkAddonsConfig/cluster&#45;&gt;deployment/aaq&#45;operator -->
<!-- daemonset/bridge&#45;marker -->
<g id="node19" class="node">
<title>daemonset/bridge&#45;marker</title>
<path fill="none" stroke="black" d="M5161,-538C5161,-538 4853,-538 4853,-538 4847,-538 4841,-532 4841,-526 4841,-526 4841,-478 4841,-478 4841,-472 4847,-466 4853,-466 4853,-466 5161,-466 5161,-466 5167,-466 5173,-472 5173,-478 5173,-478 5173,-526 5173,-526 5173,-532 5167,-538 5161,-538"/>
<text text-anchor="middle" x="5007" y="-495.8" font-family="Courier-Bold" font-size="24.00">daemonset/bridge&#45;marker</text>
</g>
<!-- daemonset/kube&#45;cni&#45;linux&#45;bridge&#45;plugin -->
<g id="node20" class="node">
<title>daemonset/kube&#45;cni&#45;linux&#45;bridge&#45;plugin</title>
<path fill="none" stroke="black" d="M5244,-448C5244,-448 4770,-448 4770,-448 4764,-448 4758,-442 4758,-436 4758,-436 4758,-388 4758,-388 4758,-382 4764,-376 4770,-376 4770,-376 5244,-376 5244,-376 5250,-376 5256,-382 5256,-388 5256,-388 5256,-436 5256,-436 5256,-442 5250,-448 5244,-448"/>
<text text-anchor="middle" x="5007" y="-405.8" font-family="Courier-Bold" font-size="24.00">daemonset/kube&#45;cni&#45;linux&#45;bridge&#45;plugin</text>
</g>
<!-- deployment/cluster&#45;network&#45;addons&#45;operator -->
<g id="node21" class="node">
<title>deployment/cluster&#45;network&#45;addons&#45;operator</title>
<path fill="none" stroke="black" d="M5278.5,-358C5278.5,-358 4735.5,-358 4735.5,-358 4729.5,-358 4723.5,-352 4723.5,-346 4723.5,-346 4723.5,-298 4723.5,-298 4723.5,-292 4729.5,-286 4735.5,-286 4735.5,-286 5278.5,-286 5278.5,-286 5284.5,-286 5290.5,-292 5290.5,-298 5290.5,-298 5290.5,-346 5290.5,-346 5290.5,-352 5284.5,-358 5278.5,-358"/>
<text text-anchor="middle" x="5007" y="-315.8" font-family="Courier-Bold" font-size="24.00">deployment/cluster&#45;network&#45;addons&#45;operator</text>
</g>
<!-- deployment/kubemacpool&#45;cert&#45;manager -->
<g id="node22" class="node">
<title>deployment/kubemacpool&#45;cert&#45;manager</title>
<path fill="none" stroke="black" d="M5247.5,-268C5247.5,-268 4766.5,-268 4766.5,-268 4760.5,-268 4754.5,-262 4754.5,-256 4754.5,-256 4754.5,-208 4754.5,-208 4754.5,-202 4760.5,-196 4766.5,-196 4766.5,-196 5247.5,-196 5247.5,-196 5253.5,-196 5259.5,-202 5259.5,-208 5259.5,-208 5259.5,-256 5259.5,-256 5259.5,-262 5253.5,-268 5247.5,-268"/>
<text text-anchor="middle" x="5007" y="-225.8" font-family="Courier-Bold" font-size="24.00">deployment/kubemacpool&#45;cert&#45;manager</text>
</g>
<!-- deployment/kubemacpool&#45;mac&#45;controller&#45;manager -->
<g id="node23" class="node">
<title>deployment/kubemacpool&#45;mac&#45;controller&#45;manager</title>
<path fill="none" stroke="black" d="M5311,-178C5311,-178 4703,-178 4703,-178 4697,-178 4691,-172 4691,-166 4691,-166 4691,-118 4691,-118 4691,-112 4697,-106 4703,-106 4703,-106 5311,-106 5311,-106 5317,-106 5323,-112 5323,-118 5323,-118 5323,-166 5323,-166 5323,-172 5317,-178 5311,-178"/>
<text text-anchor="middle" x="5007" y="-135.8" font-family="Courier-Bold" font-size="24.00">deployment/kubemacpool&#45;mac&#45;controller&#45;manager</text>
</g>
<!-- deployment/kubevirt&#45;ipam&#45;controller&#45;manager -->
<g id="node24" class="node">
<title>deployment/kubevirt&#45;ipam&#45;controller&#45;manager</title>
<path fill="none" stroke="black" d="M5283.5,-88C5283.5,-88 4730.5,-88 4730.5,-88 4724.5,-88 4718.5,-82 4718.5,-76 4718.5,-76 4718.5,-28 4718.5,-28 4718.5,-22 4724.5,-16 4730.5,-16 4730.5,-16 5283.5,-16 5283.5,-16 5289.5,-16 5295.5,-22 5295.5,-28 5295.5,-28 5295.5,-76 5295.5,-76 5295.5,-82 5289.5,-88 5283.5,-88"/>
<text text-anchor="middle" x="5007" y="-45.8" font-family="Courier-Bold" font-size="24.00">deployment/kubevirt&#45;ipam&#45;controller&#45;manager</text>
</g>
<!-- SSP/ssp&#45;kubevirt&#45;hyperconverged -->
<g id="node26" class="node">
<title>SSP/ssp&#45;kubevirt&#45;hyperconverged</title>
<path fill="none" stroke="black" d="M6222,-628C6222,-628 5824,-628 5824,-628 5818,-628 5812,-622 5812,-616 5812,-616 5812,-568 5812,-568 5812,-562 5818,-556 5824,-556 5824,-556 6222,-556 6222,-556 6228,-556 6234,-562 6234,-568 6234,-568 6234,-616 6234,-616 6234,-622 6228,-628 6222,-628"/>
<text text-anchor="middle" x="6023" y="-585.8" font-family="Courier-Bold" font-size="24.00">SSP/ssp&#45;kubevirt&#45;hyperconverged</text>
</g>
<!-- deployment/aaq&#45;operator&#45;&gt;SSP/ssp&#45;kubevirt&#45;hyperconverged -->
<!-- CDI/cdi&#45;kubevirt&#45;hyperconverged -->
<g id="node28" class="node">
<title>CDI/cdi&#45;kubevirt&#45;hyperconverged</title>
<path fill="none" stroke="black" d="M6731,-628C6731,-628 6340,-628 6340,-628 6334,-628 6328,-622 6328,-616 6328,-616 6328,-568 6328,-568 6328,-562 6334,-556 6340,-556 6340,-556 6731,-556 6731,-556 6737,-556 6743,-562 6743,-568 6743,-568 6743,-616 6743,-616 6743,-622 6737,-628 6731,-628"/>
<text text-anchor="middle" x="6535.5" y="-585.8" font-family="Courier-Bold" font-size="24.00">CDI/cdi&#45;kubevirt&#45;hyperconverged</text>
</g>
<!-- SSP/ssp&#45;kubevirt&#45;hyperconverged&#45;&gt;CDI/cdi&#45;kubevirt&#45;hyperconverged -->
<!-- deployment/ssp&#45;operator -->
<g id="node27" class="node">
<title>deployment/ssp&#45;operator</title>
<path fill="none" stroke="black" d="M6172.5,-538C6172.5,-538 5873.5,-538 5873.5,-538 5867.5,-538 5861.5,-532 5861.5,-526 5861.5,-526 5861.5,-478 5861.5,-478 5861.5,-472 5867.5,-466 5873.5,-466 5873.5,-466 6172.5,-466 6172.5,-466 6178.5,-466 6184.5,-472 6184.5,-478 6184.5,-478 6184.5,-526 6184.5,-526 6184.5,-532 6178.5,-538 6172.5,-538"/>
<text text-anchor="middle" x="6023" y="-495.8" font-family="Courier-Bold" font-size="24.00">deployment/ssp&#45;operator</text>
</g>
<!-- deployment/virt&#45;template&#45;validator -->
<g id="node35" class="node">
<title>deployment/virt&#45;template&#45;validator</title>
<path fill="none" stroke="black" d="M7268,-628C7268,-628 6849,-628 6849,-628 6843,-628 6837,-622 6837,-616 6837,-616 6837,-568 6837,-568 6837,-562 6843,-556 6849,-556 6849,-556 7268,-556 7268,-556 7274,-556 7280,-562 7280,-568 7280,-568 7280,-616 7280,-616 7280,-622 7274,-628 7268,-628"/>
<text text-anchor="middle" x="7058.5" y="-585.8" font-family="Courier-Bold" font-size="24.00">deployment/virt&#45;template&#45;validator</text>
</g>
<!-- CDI/cdi&#45;kubevirt&#45;hyperconverged&#45;&gt;deployment/virt&#45;template&#45;validator -->
<!-- CDIConfig/config -->
<g id="node29" class="node">
<title>CDIConfig/config</title>
<path fill="none" stroke="black" d="M6632,-538C6632,-538 6439,-538 6439,-538 6433,-538 6427,-532 6427,-526 6427,-526 6427,-478 6427,-478 6427,-472 6433,-466 6439,-466 6439,-466 6632,-466 6632,-466 6638,-466 6644,-472 6644,-478 6644,-478 6644,-526 6644,-526 6644,-532 6638,-538 6632,-538"/>
<text text-anchor="middle" x="6535.5" y="-495.8" font-family="Courier-Bold" font-size="24.00">CDIConfig/config</text>
</g>
<!-- deployment/cdi&#45;apiserver -->
<g id="node30" class="node">
<title>deployment/cdi&#45;apiserver</title>
<path fill="none" stroke="black" d="M6686.5,-448C6686.5,-448 6384.5,-448 6384.5,-448 6378.5,-448 6372.5,-442 6372.5,-436 6372.5,-436 6372.5,-388 6372.5,-388 6372.5,-382 6378.5,-376 6384.5,-376 6384.5,-376 6686.5,-376 6686.5,-376 6692.5,-376 6698.5,-382 6698.5,-388 6698.5,-388 6698.5,-436 6698.5,-436 6698.5,-442 6692.5,-448 6686.5,-448"/>
<text text-anchor="middle" x="6535.5" y="-405.8" font-family="Courier-Bold" font-size="24.00">deployment/cdi&#45;apiserver</text>
</g>
<!-- deployment/cdi&#45;deployment -->
<g id="node31" class="node">
<title>deployment/cdi&#45;deployment</title>
<path fill="none" stroke="black" d="M6702,-358C6702,-358 6369,-358 6369,-358 6363,-358 6357,-352 6357,-346 6357,-346 6357,-298 6357,-298 6357,-292 6363,-286 6369,-286 6369,-286 6702,-286 6702,-286 6708,-286 6714,-292 6714,-298 6714,-298 6714,-346 6714,-346 6714,-352 6708,-358 6702,-358"/>
<text text-anchor="middle" x="6535.5" y="-315.8" font-family="Courier-Bold" font-size="24.00">deployment/cdi&#45;deployment</text>
</g>
<!-- deployment/cdi&#45;operator -->
<g id="node32" class="node">
<title>deployment/cdi&#45;operator</title>
<path fill="none" stroke="black" d="M6682,-268C6682,-268 6389,-268 6389,-268 6383,-268 6377,-262 6377,-256 6377,-256 6377,-208 6377,-208 6377,-202 6383,-196 6389,-196 6389,-196 6682,-196 6682,-196 6688,-196 6694,-202 6694,-208 6694,-208 6694,-256 6694,-256 6694,-262 6688,-268 6682,-268"/>
<text text-anchor="middle" x="6535.5" y="-225.8" font-family="Courier-Bold" font-size="24.00">deployment/cdi&#45;operator</text>
</g>
<!-- deployment/cdi&#45;uploadproxy -->
<g id="node33" class="node">
<title>deployment/cdi&#45;uploadproxy</title>
<path fill="none" stroke="black" d="M6704.5,-178C6704.5,-178 6366.5,-178 6366.5,-178 6360.5,-178 6354.5,-172 6354.5,-166 6354.5,-166 6354.5,-118 6354.5,-118 6354.5,-112 6360.5,-106 6366.5,-106 6366.5,-106 6704.5,-106 6704.5,-106 6710.5,-106 6716.5,-112 6716.5,-118 6716.5,-118 6716.5,-166 6716.5,-166 6716.5,-172 6710.5,-178 6704.5,-178"/>
<text text-anchor="middle" x="6535.5" y="-135.8" font-family="Courier-Bold" font-size="24.00">deployment/cdi&#45;uploadproxy</text>
</g>
<!-- deployment/hostpath&#45;provisioner&#45;operator -->
<g id="node34" class="node">
<title>deployment/hostpath&#45;provisioner&#45;operator</title>
<path fill="none" stroke="black" d="M6789,-88C6789,-88 6282,-88 6282,-88 6276,-88 6270,-82 6270,-76 6270,-76 6270,-28 6270,-28 6270,-22 6276,-16 6282,-16 6282,-16 6789,-16 6789,-16 6795,-16 6801,-22 6801,-28 6801,-28 6801,-76 6801,-76 6801,-82 6795,-88 6789,-88"/>
<text text-anchor="middle" x="6535.5" y="-45.8" font-family="Courier-Bold" font-size="24.00">deployment/hostpath&#45;provisioner&#45;operator</text>
</g>
<!-- HyperConverged/kubevirt&#45;hyperconverged -->
<g id="node36" class="node">
<title>HyperConverged/kubevirt&#45;hyperconverged</title>
<path fill="none" stroke="black" d="M7835,-628C7835,-628 7328,-628 7328,-628 7322,-628 7316,-622 7316,-616 7316,-616 7316,-568 7316,-568 7316,-562 7322,-556 7328,-556 7328,-556 7835,-556 7835,-556 7841,-556 7847,-562 7847,-568 7847,-568 7847,-616 7847,-616 7847,-622 7841,-628 7835,-628"/>
<text text-anchor="middle" x="7581.5" y="-585.8" font-family="Courier-Bold" font-size="24.00">HyperConverged/kubevirt&#45;hyperconverged</text>
</g>
<!-- deployment/virt&#45;template&#45;validator&#45;&gt;HyperConverged/kubevirt&#45;hyperconverged -->
</g>
</svg>
