<?xml version="1.0" encoding="UTF-8" standalone="no"?>
<!DOCTYPE svg PUBLIC "-//W3C//DTD SVG 1.1//EN"
 "http://www.w3.org/Graphics/SVG/1.1/DTD/svg11.dtd">
<!-- Generated by graphviz version 2.44.0 (0)
 -->
<!-- Title: component Pages: 1 -->
<svg width="7186pt" height="886pt"
 viewBox="0.00 0.00 7186.00 886.00" xmlns="http://www.w3.org/2000/svg" xmlns:xlink="http://www.w3.org/1999/xlink">
<g id="graph0" class="graph" transform="scale(1 1) rotate(0) translate(4 882)">
<title>component</title>
<polygon fill="white" stroke="transparent" points="-4,4 -4,-882 7182,-882 7182,4 -4,4"/>
<g id="clust1" class="cluster">
<title>cluster_autopilot</title>
<polygon fill="none" stroke="black" stroke-dasharray="5,2" points="8,-728 8,-870 462,-870 462,-728 8,-728"/>
<text text-anchor="middle" x="235" y="-832.4" font-family="Courier-Bold" font-size="42.00">autopilot</text>
</g>
<g id="clust2" class="cluster">
<title>cluster_compute</title>
<polygon fill="none" stroke="black" stroke-dasharray="5,2" points="482,-8 482,-870 1036,-870 1036,-8 482,-8"/>
<text text-anchor="middle" x="759" y="-832.4" font-family="Courier-Bold" font-size="42.00">compute</text>
</g>
<g id="clust3" class="cluster">
<title>cluster_deployment</title>
<polygon fill="none" stroke="black" stroke-dasharray="5,2" points="1056,-548 1056,-870 1688,-870 1688,-548 1056,-548"/>
<text text-anchor="middle" x="1372" y="-832.4" font-family="Courier-Bold" font-size="42.00">deployment</text>
</g>
<g id="clust4" class="cluster">
<title>cluster_inflightoperations</title>
<polygon fill="none" stroke="black" stroke-dasharray="5,2" points="1708,-728 1708,-870 2345,-870 2345,-728 1708,-728"/>
<text text-anchor="middle" x="2026.5" y="-832.4" font-family="Courier-Bold" font-size="42.00">inflightoperations</text>
</g>
<g id="clust5" class="cluster">
<title>cluster_kubevirt&#45;apiserver&#45;proxy</title>
<polygon fill="none" stroke="black" stroke-dasharray="5,2" points="2365,-728 2365,-870 2895,-870 2895,-728 2365,-728"/>
<text text-anchor="middle" x="2630" y="-832.4" font-family="Courier-Bold" font-size="42.00">kubevirt&#45;apiserver&#45;proxy</text>
</g>
<g id="clust6" class="cluster">
<title>cluster_kubevirt&#45;console&#45;plugin</title>
<polygon fill="none" stroke="black" stroke-dasharray="5,2" points="2915,-728 2915,-870 3424,-870 3424,-728 2915,-728"/>
<text text-anchor="middle" x="3169.5" y="-832.4" font-family="Courier-Bold" font-size="42.00">kubevirt&#45;console&#45;plugin</text>
</g>
<g id="clust7" class="cluster">
<title>cluster_migration</title>
<polygon fill="none" stroke="black" stroke-dasharray="5,2" points="3444,-638 3444,-870 3978,-870 3978,-638 3444,-638"/>
<text text-anchor="middle" x="3711" y="-832.4" font-family="Courier-Bold" font-size="42.00">migration</text>
</g>
<g id="clust8" class="cluster">
<title>cluster_network</title>
<polygon fill="none" stroke="black" stroke-dasharray="5,2" points="3998,-188 3998,-870 4646,-870 4646,-188 3998,-188"/>
<text text-anchor="middle" x="4322" y="-832.4" font-family="Courier-Bold" font-size="42.00">network</text>
</g>
<g id="clust9" class="cluster">
<title>cluster_quota&#45;management</title>
<polygon fill="none" stroke="black" stroke-dasharray="5,2" points="4666,-728 4666,-870 5099,-870 5099,-728 4666,-728"/>
<text text-anchor="middle" x="4882.5" y="-832.4" font-family="Courier-Bold" font-size="42.00">quota&#45;management</text>
</g>
<g id="clust10" class="cluster">
<title>cluster_schedule</title>
<polygon fill="none" stroke="black" stroke-dasharray="5,2" points="5119,-638 5119,-870 5557,-870 5557,-638 5119,-638"/>
<text text-anchor="middle" x="5338" y="-832.4" font-family="Courier-Bold" font-size="42.00">schedule</text>
</g>
<g id="clust11" class="cluster">
<title>cluster_storage</title>
<polygon fill="none" stroke="black" stroke-dasharray="5,2" points="5577,-188 5577,-870 6124,-870 6124,-188 5577,-188"/>
<text text-anchor="middle" x="5850.5" y="-832.4" font-family="Courier-Bold" font-size="42.00">storage</text>
</g>
<g id="clust12" class="cluster">
<title>cluster_templating</title>
<polygon fill="none" stroke="black" stroke-dasharray="5,2" points="6144,-728 6144,-870 6603,-870 6603,-728 6144,-728"/>
<text text-anchor="middle" x="6373.5" y="-832.4" font-family="Courier-Bold" font-size="42.00">templating</text>
</g>
<g id="clust13" class="cluster">
<title>cluster_unassigned</title>
<polygon fill="none" stroke="black" stroke-dasharray="5,2" points="6623,-728 6623,-870 7170,-870 7170,-728 6623,-728"/>
<text text-anchor="middle" x="6896.5" y="-832.4" font-family="Courier-Bold" font-size="42.00">unassigned</text>
</g>
<!-- deployment/virt&#45;platform&#45;autopilot -->
<g id="node1" class="node">
<title>deployment/virt&#45;platform&#45;autopilot</title>
<path fill="none" stroke="black" d="M442,-808C442,-808 28,-808 28,-808 22,-808 16,-802 16,-796 16,-796 16,-748 16,-748 16,-742 22,-736 28,-736 28,-736 442,-736 442,-736 448,-736 454,-742 454,-748 454,-748 454,-796 454,-796 454,-802 448,-808 442,-808"/>
<text text-anchor="middle" x="235" y="-765.8" font-family="Courier-Bold" font-size="24.00">deployment/virt&#45;platform&#45;autopilot</text>
</g>
<!-- KubeVirt/kubevirt&#45;kubevirt&#45;hyperconverged -->
<g id="node2" class="node">
<title>KubeVirt/kubevirt&#45;kubevirt&#45;hyperconverged</title>
<path fill="none" stroke="black" d="M1016,-808C1016,-808 502,-808 502,-808 496,-808 490,-802 490,-796 490,-796 490,-748 490,-748 490,-742 496,-736 502,-736 502,-736 1016,-736 1016,-736 1022,-736 1028,-742 1028,-748 1028,-748 1028,-796 1028,-796 1028,-802 1022,-808 1016,-808"/>
<text text-anchor="middle" x="759" y="-765.8" font-family="Courier-Bold" font-size="24.00">KubeVirt/kubevirt&#45;kubevirt&#45;hyperconverged</text>
</g>
<!-- deployment/virt&#45;platform&#45;autopilot&#45;&gt;KubeVirt/kubevirt&#45;kubevirt&#45;hyperconverged -->
<!-- deployment/hco&#45;operator -->
<g id="node11" class="node">
<title>deployment/hco&#45;operator</title>
<path fill="none" stroke="black" d="M1523,-808C1523,-808 1221,-808 1221,-808 1215,-808 1209,-802 1209,-796 1209,-796 1209,-748 1209,-748 1209,-742 1215,-736 1221,-736 1221,-736 1523,-736 1523,-736 1529,-736 1535,-742 1535,-748 1535,-748 1535,-796 1535,-796 1535,-802 1529,-808 1523,-808"/>
<text text-anchor="middle" x="1372" y="-765.8" font-family="Courier-Bold" font-size="24.00">deployment/hco&#45;operator</text>
</g>
<!-- KubeVirt/kubevirt&#45;kubevirt&#45;hyperconverged&#45;&gt;deployment/hco&#45;operator -->
<!-- daemonset/virt&#45;handler -->
<g id="node3" class="node">
<title>daemonset/virt&#45;handler</title>
<path fill="none" stroke="black" d="M898,-718C898,-718 620,-718 620,-718 614,-718 608,-712 608,-706 608,-706 608,-658 608,-658 608,-652 614,-646 620,-646 620,-646 898,-646 898,-646 904,-646 910,-652 910,-658 910,-658 910,-706 910,-706 910,-712 904,-718 898,-718"/>
<text text-anchor="middle" x="759" y="-675.8" font-family="Courier-Bold" font-size="24.00">daemonset/virt&#45;handler</text>
</g>
<!-- deployment/virt&#45;api -->
<g id="node4" class="node">
<title>deployment/virt&#45;api</title>
<path fill="none" stroke="black" d="M874.5,-628C874.5,-628 643.5,-628 643.5,-628 637.5,-628 631.5,-622 631.5,-616 631.5,-616 631.5,-568 631.5,-568 631.5,-562 637.5,-556 643.5,-556 643.5,-556 874.5,-556 874.5,-556 880.5,-556 886.5,-562 886.5,-568 886.5,-568 886.5,-616 886.5,-616 886.5,-622 880.5,-628 874.5,-628"/>
<text text-anchor="middle" x="759" y="-585.8" font-family="Courier-Bold" font-size="24.00">deployment/virt&#45;api</text>
</g>
<!-- deployment/virt&#45;controller -->
<g id="node5" class="node">
<title>deployment/virt&#45;controller</title>
<path fill="none" stroke="black" d="M914,-538C914,-538 604,-538 604,-538 598,-538 592,-532 592,-526 592,-526 592,-478 592,-478 592,-472 598,-466 604,-466 604,-466 914,-466 914,-466 920,-466 926,-472 926,-478 926,-478 926,-526 926,-526 926,-532 920,-538 914,-538"/>
<text text-anchor="middle" x="759" y="-495.8" font-family="Courier-Bold" font-size="24.00">deployment/virt&#45;controller</text>
</g>
<!-- deployment/virt&#45;exportproxy -->
<g id="node6" class="node">
<title>deployment/virt&#45;exportproxy</title>
<path fill="none" stroke="black" d="M928.5,-448C928.5,-448 589.5,-448 589.5,-448 583.5,-448 577.5,-442 577.5,-436 577.5,-436 577.5,-388 577.5,-388 577.5,-382 583.5,-376 589.5,-376 589.5,-376 928.5,-376 928.5,-376 934.5,-376 940.5,-382 940.5,-388 940.5,-388 940.5,-436 940.5,-436 940.5,-442 934.5,-448 928.5,-448"/>
<text text-anchor="middle" x="759" y="-405.8" font-family="Courier-Bold" font-size="24.00">deployment/virt&#45;exportproxy</text>
</g>
<!-- deployment/virt&#45;operator -->
<g id="node7" class="node">
<title>deployment/virt&#45;operator</title>
<path fill="none" stroke="black" d="M908.5,-358C908.5,-358 609.5,-358 609.5,-358 603.5,-358 597.5,-352 597.5,-346 597.5,-346 597.5,-298 597.5,-298 597.5,-292 603.5,-286 609.5,-286 609.5,-286 908.5,-286 908.5,-286 914.5,-286 920.5,-292 920.5,-298 920.5,-298 920.5,-346 920.5,-346 920.5,-352 914.5,-358 908.5,-358"/>
<text text-anchor="middle" x="759" y="-315.8" font-family="Courier-Bold" font-size="24.00">deployment/virt&#45;operator</text>
</g>
<!-- deployment/virt&#45;synchronization&#45;controller -->
<g id="node8" class="node">
<title>deployment/virt&#45;synchronization&#45;controller</title>
<path fill="none" stroke="black" d="M1013.5,-268C1013.5,-268 504.5,-268 504.5,-268 498.5,-268 492.5,-262 492.5,-256 492.5,-256 492.5,-208 492.5,-208 492.5,-202 498.5,-196 504.5,-196 504.5,-196 1013.5,-196 1013.5,-196 1019.5,-196 1025.5,-202 1025.5,-208 1025.5,-208 1025.5,-256 1025.5,-256 1025.5,-262 1019.5,-268 1013.5,-268"/>
<text text-anchor="middle" x="759" y="-225.8" font-family="Courier-Bold" font-size="24.00">deployment/virt&#45;synchronization&#45;controller</text>
</g>
<!-- deployment/virt&#45;template&#45;apiserver -->
<g id="node9" class="node">
<title>deployment/virt&#45;template&#45;apiserver</title>
<path fill="none" stroke="black" d="M972,-178C972,-178 546,-178 546,-178 540,-178 534,-172 534,-166 534,-166 534,-118 534,-118 534,-112 540,-106 546,-106 546,-106 972,-106 972,-106 978,-106 984,-112 984,-118 984,-118 984,-166 984,-166 984,-172 978,-178 972,-178"/>
<text text-anchor="middle" x="759" y="-135.8" font-family="Courier-Bold" font-size="24.00">deployment/virt&#45;template&#45;apiserver</text>
</g>
<!-- deployment/virt&#45;template&#45;controller -->
<g id="node10" class="node">
<title>deployment/virt&#45;template&#45;controller</title>
<path fill="none" stroke="black" d="M973,-88C973,-88 545,-88 545,-88 539,-88 533,-82 533,-76 533,-76 533,-28 533,-28 533,-22 539,-16 545,-16 545,-16 973,-16 973,-16 979,-16 985,-22 985,-28 985,-28 985,-76 985,-76 985,-82 979,-88 973,-88"/>
<text text-anchor="middle" x="759" y="-45.8" font-family="Courier-Bold" font-size="24.00">deployment/virt&#45;template&#45;controller</text>
</g>
<!-- deployment/inflightoperations&#45;controller&#45;manager -->
<g id="node14" class="node">
<title>deployment/inflightoperations&#45;controller&#45;manager</title>
<path fill="none" stroke="black" d="M2325,-808C2325,-808 1728,-808 1728,-808 1722,-808 1716,-802 1716,-796 1716,-796 1716,-748 1716,-748 1716,-742 1722,-736 1728,-736 1728,-736 2325,-736 2325,-736 2331,-736 2337,-742 2337,-748 2337,-748 2337,-796 2337,-796 2337,-802 2331,-808 2325,-808"/>
<text text-anchor="middle" x="2026.5" y="-765.8" font-family="Courier-Bold" font-size="24.00">deployment/inflightoperations&#45;controller&#45;manager</text>
</g>
<!-- deployment/hco&#45;operator&#45;&gt;deployment/inflightoperations&#45;controller&#45;manager -->
<!-- deployment/hco&#45;webhook -->
<g id="node12" class="node">
<title>deployment/hco&#45;webhook</title>
<path fill="none" stroke="black" d="M1525,-718C1525,-718 1219,-718 1219,-718 1213,-718 1207,-712 1207,-706 1207,-706 1207,-658 1207,-658 1207,-652 1213,-646 1219,-646 1219,-646 1525,-646 1525,-646 1531,-646 1537,-652 1537,-658 1537,-658 1537,-706 1537,-706 1537,-712 1531,-718 1525,-718"/>
<text text-anchor="middle" x="1372" y="-675.8" font-family="Courier-Bold" font-size="24.00">deployment/hco&#45;webhook</text>
</g>
<!-- deployment/hyperconverged&#45;cluster&#45;cli&#45;download -->
<g id="node13" class="node">
<title>deployment/hyperconverged&#45;cluster&#45;cli&#45;download</title>
<path fill="none" stroke="black" d="M1668,-628C1668,-628 1076,-628 1076,-628 1070,-628 1064,-622 1064,-616 1064,-616 1064,-568 1064,-568 1064,-562 1070,-556 1076,-556 1076,-556 1668,-556 1668,-556 1674,-556 1680,-562 1680,-568 1680,-568 1680,-616 1680,-616 1680,-622 1674,-628 1668,-628"/>
<text text-anchor="middle" x="1372" y="-585.8" font-family="Courier-Bold" font-size="24.00">deployment/hyperconverged&#45;cluster&#45;cli&#45;download</text>
</g>
<!-- deployment/kubevirt&#45;apiserver&#45;proxy -->
<g id="node15" class="node">
<title>deployment/kubevirt&#45;apiserver&#45;proxy</title>
<path fill="none" stroke="black" d="M2850,-808C2850,-808 2410,-808 2410,-808 2404,-808 2398,-802 2398,-796 2398,-796 2398,-748 2398,-748 2398,-742 2404,-736 2410,-736 2410,-736 2850,-736 2850,-736 2856,-736 2862,-742 2862,-748 2862,-748 2862,-796 2862,-796 2862,-802 2856,-808 2850,-808"/>
<text text-anchor="middle" x="2630" y="-765.8" font-family="Courier-Bold" font-size="24.00">deployment/kubevirt&#45;apiserver&#45;proxy</text>
</g>
<!-- deployment/inflightoperations&#45;controller&#45;manager&#45;&gt;deployment/kubevirt&#45;apiserver&#45;proxy -->
<!-- deployment/kubevirt&#45;console&#45;plugin -->
<g id="node16" class="node">
<title>deployment/kubevirt&#45;console&#45;plugin</title>
<path fill="none" stroke="black" d="M3383,-808C3383,-808 2955,-808 2955,-808 2949,-808 2943,-802 2943,-796 2943,-796 2943,-748 2943,-748 2943,-742 2949,-736 2955,-736 2955,-736 3383,-736 3383,-736 3389,-736 3395,-742 3395,-748 3395,-748 3395,-796 3395,-796 3395,-802 3389,-808 3383,-808"/>
<text text-anchor="middle" x="3169" y="-765.8" font-family="Courier-Bold" font-size="24.00">deployment/kubevirt&#45;console&#45;plugin</text>
</g>
<!-- deployment/kubevirt&#45;apiserver&#45;proxy&#45;&gt;deployment/kubevirt&#45;console&#45;plugin -->
<!-- deployment/kubevirt&#45;migration&#45;controller -->
<g id="node17" class="node">
<title>deployment/kubevirt&#45;migration&#45;controller</title>
<path fill="none" stroke="black" d="M3958,-808C3958,-808 3464,-808 3464,-808 3458,-808 3452,-802 3452,-796 3452,-796 3452,-748 3452,-748 3452,-742 3458,-736 3464,-736 3464,-736 3958,-736 3958,-736 3964,-736 3970,-742 3970,-748 3970,-748 3970,-796 3970,-796 3970,-802 3964,-808 3958,-808"/>
<text text-anchor="middle" x="3711" y="-765.8" font-family="Courier-Bold" font-size="24.00">deployment/kubevirt&#45;migration&#45;controller</text>
</g>
<!-- deployment/kubevirt&#45;console&#45;plugin&#45;&gt;deployment/kubevirt&#45;migration&#45;controller -->
<!-- NetworkAddonsConfig/cluster -->
<g id="node19" class="node">
<title>NetworkAddonsConfig/cluster</title>
<path fill="none" stroke="black" d="M4497,-808C4497,-808 4147,-808 4147,-808 4141,-808 4135,-802 4135,-796 4135,-796 4135,-748 4135,-748 4135,-742 4141,-736 4147,-736 4147,-736 4497,-736 4497,-736 4503,-736 4509,-742 4509,-748 4509,-748 4509,-796 4509,-796 4509,-802 4503,-808 4497,-808"/>
<text text-anchor="middle" x="4322" y="-765.8" font-family="Courier-Bold" font-size="24.00">NetworkAddonsConfig/cluster</text>
</g>
<!-- deployment/kubevirt&#45;migration&#45;controller&#45;&gt;NetworkAddonsConfig/cluster -->
<!-- deployment/kubevirt&#45;migration&#45;operator -->
<g id="node18" class="node">
<title>deployment/kubevirt&#45;migration&#45;operator</title>
<path fill="none" stroke="black" d="M3952,-718C3952,-718 3470,-718 3470,-718 3464,-718 3458,-712 3458,-706 3458,-706 3458,-658 3458,-658 3458,-652 3464,-646 3470,-646 3470,-646 3952,-646 3952,-646 3958,-646 3964,-652 3964,-658 3964,-658 3964,-706 3964,-706 3964,-712 3958,-718 3952,-718"/>
<text text-anchor="middle" x="3711" y="-675.8" font-family="Courier-Bold" font-size="24.00">deployment/kubevirt&#45;migration&#45;operator</text>
</g>
<!-- deployment/aaq&#45;operator -->
<g id="node26" class="node">
<title>deployment/aaq&#45;operator</title>
<path fill="none" stroke="black" d="M5034,-808C5034,-808 4731,-808 4731,-808 4725,-808 4719,-802 4719,-796 4719,-796 4719,-748 4719,-748 4719,-742 4725,-736 4731,-736 4731,-736 5034,-736 5034,-736 5040,-736 5046,-742 5046,-748 5046,-748 5046,-796 5046,-796 5046,-802 5040,-808 5034,-808"/>
<text text-anchor="middle" x="4882.5" y="-765.8" font-family="Courier-Bold" font-size="24.00">deployment/aaq&#45;operator</text>
</g>
<!-- NetworkAddonsConfig/cluster&#45;&gt;deployment/aaq&#45;operator -->
<!-- daemonset/bridge&#45;marker -->
<g id="node20" class="node">
<title>daemonset/bridge&#45;marker</title>
<path fill="none" stroke="black" d="M4476,-718C4476,-718 4168,-718 4168,-718 4162,-718 4156,-712 4156,-706 4156,-706 4156,-658 4156,-658 4156,-652 4162,-646 4168,-646 4168,-646 4476,-646 4476,-646 4482,-646 4488,-652 4488,-658 4488,-658 4488,-706 4488,-706 4488,-712 4482,-718 4476,-718"/>
<text text-anchor="middle" x="4322" y="-675.8" font-family="Courier-Bold" font-size="24.00">daemonset/bridge&#45;marker</text>
</g>
<!-- daemonset/kube&#45;cni&#45;linux&#45;bridge&#45;plugin -->
<g id="node21" class="node">
<title>daemonset/kube&#45;cni&#45;linux&#45;bridge&#45;plugin</title>
<path fill="none" stroke="black" d="M4559,-628C4559,-628 4085,-628 4085,-628 4079,-628 4073,-622 4073,-616 4073,-616 4073,-568 4073,-568 4073,-562 4079,-556 4085,-556 4085,-556 4559,-556 4559,-556 4565,-556 4571,-562 4571,-568 4571,-568 4571,-616 4571,-616 4571,-622 4565,-628 4559,-628"/>
<text text-anchor="middle" x="4322" y="-585.8" font-family="Courier-Bold" font-size="24.00">daemonset/kube&#45;cni&#45;linux&#45;bridge&#45;plugin</text>
</g>
<!-- deployment/cluster&#45;network&#45;addons&#45;operator -->
<g id="node22" class="node">
<title>deployment/cluster&#45;network&#45;addons&#45;operator</title>
<path fill="none" stroke="black" d="M4593.5,-538C4593.5,-538 4050.5,-538 4050.5,-538 4044.5,-538 4038.5,-532 4038.5,-526 4038.5,-526 4038.5,-478 4038.5,-478 4038.5,-472 4044.5,-466 4050.5,-466 4050.5,-466 4593.5,-466 4593.5,-466 4599.5,-466 4605.5,-472 4605.5,-478 4605.5,-478 4605.5,-526 4605.5,-526 4605.5,-532 4599.5,-538 4593.5,-538"/>
<text text-anchor="middle" x="4322" y="-495.8" font-family="Courier-Bold" font-size="24.00">deployment/cluster&#45;network&#45;addons&#45;operator</text>
</g>
<!-- deployment/kubemacpool&#45;cert&#45;manager -->
<g id="node23" class="node">
<title>deployment/kubemacpool&#45;cert&#45;manager</title>
<path fill="none" stroke="black" d="M4562.5,-448C4562.5,-448 4081.5,-448 4081.5,-448 4075.5,-448 4069.5,-442 4069.5,-436 4069.5,-436 4069.5,-388 4069.5,-388 4069.5,-382 4075.5,-376 4081.5,-376 4081.5,-376 4562.5,-376 4562.5,-376 4568.5,-376 4574.5,-382 4574.5,-388 4574.5,-388 4574.5,-436 4574.5,-436 4574.5,-442 4568.5,-448 4562.5,-448"/>
<text text-anchor="middle" x="4322" y="-405.8" font-family="Courier-Bold" font-size="24.00">deployment/kubemacpool&#45;cert&#45;manager</text>
</g>
<!-- deployment/kubemacpool&#45;mac&#45;controller&#45;manager -->
<g id="node24" class="node">
<title>deployment/kubemacpool&#45;mac&#45;controller&#45;manager</title>
<path fill="none" stroke="black" d="M4626,-358C4626,-358 4018,-358 4018,-358 4012,-358 4006,-352 4006,-346 4006,-346 4006,-298 4006,-298 4006,-292 4012,-286 4018,-286 4018,-286 4626,-286 4626,-286 4632,-286 4638,-292 4638,-298 4638,-298 4638,-346 4638,-346 4638,-352 4632,-358 4626,-358"/>
<text text-anchor="middle" x="4322" y="-315.8" font-family="Courier-Bold" font-size="24.00">deployment/kubemacpool&#45;mac&#45;controller&#45;manager</text>
</g>
<!-- deployment/kubevirt&#45;ipam&#45;controller&#45;manager -->
<g id="node25" class="node">
<title>deployment/kubevirt&#45;ipam&#45;controller&#45;manager</title>
<path fill="none" stroke="black" d="M4598.5,-268C4598.5,-268 4045.5,-268 4045.5,-268 4039.5,-268 4033.5,-262 4033.5,-256 4033.5,-256 4033.5,-208 4033.5,-208 4033.5,-202 4039.5,-196 4045.5,-196 4045.5,-196 4598.5,-196 4598.5,-196 4604.5,-196 4610.5,-202 4610.5,-208 4610.5,-208 4610.5,-256 4610.5,-256 4610.5,-262 4604.5,-268 4598.5,-268"/>
<text text-anchor="middle" x="4322" y="-225.8" font-family="Courier-Bold" font-size="24.00">deployment/kubevirt&#45;ipam&#45;controller&#45;manager</text>
</g>
<!-- SSP/ssp&#45;kubevirt&#45;hyperconverged -->
<g id="node27" class="node">
<title>SSP/ssp&#45;kubevirt&#45;hyperconverged</title>
<path fill="none" stroke="black" d="M5537,-808C5537,-808 5139,-808 5139,-808 5133,-808 5127,-802 5127,-796 5127,-796 5127,-748 5127,-748 5127,-742 5133,-736 5139,-736 5139,-736 5537,-736 5537,-736 5543,-736 5549,-742 5549,-748 5549,-748 5549,-796 5549,-796 5549,-802 5543,-808 5537,-808"/>
<text text-anchor="middle" x="5338" y="-765.8" font-family="Courier-Bold" font-size="24.00">SSP/ssp&#45;kubevirt&#45;hyperconverged</text>
</g>
<!-- deployment/aaq&#45;operator&#45;&gt;SSP/ssp&#45;kubevirt&#45;hyperconverged -->
<!-- CDI/cdi&#45;kubevirt&#45;hyperconverged -->
<g id="node29" class="node">
<title>CDI/cdi&#45;kubevirt&#45;hyperconverged</title>
<path fill="none" stroke="black" d="M6046,-808C6046,-808 5655,-808 5655,-808 5649,-808 5643,-802 5643,-796 5643,-796 5643,-748 5643,-748 5643,-742 5649,-736 5655,-736 5655,-736 6046,-736 6046,-736 6052,-736 6058,-742 6058,-748 6058,-748 6058,-796 6058,-796 6058,-802 6052,-808 6046,-808"/>
<text text-anchor="middle" x="5850.5" y="-765.8" font-family="Courier-Bold" font-size="24.00">CDI/cdi&#45;kubevirt&#45;hyperconverged</text>
</g>
<!-- SSP/ssp&#45;kubevirt&#45;hyperconverged&#45;&gt;CDI/cdi&#45;kubevirt&#45;hyperconverged -->
<!-- deployment/ssp&#45;operator -->
<g id="node28" class="node">
<title>deployment/ssp&#45;operator</title>
<path fill="none" stroke="black" d="M5487.5,-718C5487.5,-718 5188.5,-718 5188.5,-718 5182.5,-718 5176.5,-712 5176.5,-706 5176.5,-706 5176.5,-658 5176.5,-658 5176.5,-652 5182.5,-646 5188.5,-646 5188.5,-646 5487.5,-646 5487.5,-646 5493.5,-646 5499.5,-652 5499.5,-658 5499.5,-658 5499.5,-706 5499.5,-706 5499.5,-712 5493.5,-718 5487.5,-718"/>
<text text-anchor="middle" x="5338" y="-675.8" font-family="Courier-Bold" font-size="24.00">deployment/ssp&#45;operator</text>
</g>
<!-- deployment/virt&#45;template&#45;validator -->
<g id="node36" class="node">
<title>deployment/virt&#45;template&#45;validator</title>
<path fill="none" stroke="black" d="M6583,-808C6583,-808 6164,-808 6164,-808 6158,-808 6152,-802 6152,-796 6152,-796 6152,-748 6152,-748 6152,-742 6158,-736 6164,-736 6164,-736 6583,-736 6583,-736 6589,-736 6595,-742 6595,-748 6595,-748 6595,-796 6595,-796 6595,-802 6589,-808 6583,-808"/>
<text text-anchor="middle" x="6373.5" y="-765.8" font-family="Courier-Bold" font-size="24.00">deployment/virt&#45;template&#45;validator</text>
</g>
<!-- CDI/cdi&#45;kubevirt&#45;hyperconverged&#45;&gt;deployment/virt&#45;template&#45;validator -->
<!-- CDIConfig/config -->
<g id="node30" class="node">
<title>CDIConfig/config</title>
<path fill="none" stroke="black" d="M5947,-718C5947,-718 5754,-718 5754,-718 5748,-718 5742,-712 5742,-706 5742,-706 5742,-658 5742,-658 5742,-652 5748,-646 5754,-646 5754,-646 5947,-646 5947,-646 5953,-646 5959,-652 5959,-658 5959,-658 5959,-706 5959,-706 5959,-712 5953,-718 5947,-718"/>
<text text-anchor="middle" x="5850.5" y="-675.8" font-family="Courier-Bold" font-size="24.00">CDIConfig/config</text>
</g>
<!-- deployment/cdi&#45;apiserver -->
<g id="node31" class="node">
<title>deployment/cdi&#45;apiserver</title>
<path fill="none" stroke="black" d="M6001.5,-628C6001.5,-628 5699.5,-628 5699.5,-628 5693.5,-628 5687.5,-622 5687.5,-616 5687.5,-616 5687.5,-568 5687.5,-568 5687.5,-562 5693.5,-556 5699.5,-556 5699.5,-556 6001.5,-556 6001.5,-556 6007.5,-556 6013.5,-562 6013.5,-568 6013.5,-568 6013.5,-616 6013.5,-616 6013.5,-622 6007.5,-628 6001.5,-628"/>
<text text-anchor="middle" x="5850.5" y="-585.8" font-family="Courier-Bold" font-size="24.00">deployment/cdi&#45;apiserver</text>
</g>
<!-- deployment/cdi&#45;deployment -->
<g id="node32" class="node">
<title>deployment/cdi&#45;deployment</title>
<path fill="none" stroke="black" d="M6017,-538C6017,-538 5684,-538 5684,-538 5678,-538 5672,-532 5672,-526 5672,-526 5672,-478 5672,-478 5672,-472 5678,-466 5684,-466 5684,-466 6017,-466 6017,-466 6023,-466 6029,-472 6029,-478 6029,-478 6029,-526 6029,-526 6029,-532 6023,-538 6017,-538"/>
<text text-anchor="middle" x="5850.5" y="-495.8" font-family="Courier-Bold" font-size="24.00">deployment/cdi&#45;deployment</text>
</g>
<!-- deployment/cdi&#45;operator -->
<g id="node33" class="node">
<title>deployment/cdi&#45;operator</title>
<path fill="none" stroke="black" d="M5997,-448C5997,-448 5704,-448 5704,-448 5698,-448 5692,-442 5692,-436 5692,-436 5692,-388 5692,-388 5692,-382 5698,-376 5704,-376 5704,-376 5997,-376 5997,-376 6003,-376 6009,-382 6009,-388 6009,-388 6009,-436 6009,-436 6009,-442 6003,-448 5997,-448"/>
<text text-anchor="middle" x="5850.5" y="-405.8" font-family="Courier-Bold" font-size="24.00">deployment/cdi&#45;operator</text>
</g>
<!-- deployment/cdi&#45;uploadproxy -->
<g id="node34" class="node">
<title>deployment/cdi&#45;uploadproxy</title>
<path fill="none" stroke="black" d="M6019.5,-358C6019.5,-358 5681.5,-358 5681.5,-358 5675.5,-358 5669.5,-352 5669.5,-346 5669.5,-346 5669.5,-298 5669.5,-298 5669.5,-292 5675.5,-286 5681.5,-286 5681.5,-286 6019.5,-286 6019.5,-286 6025.5,-286 6031.5,-292 6031.5,-298 6031.5,-298 6031.5,-346 6031.5,-346 6031.5,-352 6025.5,-358 6019.5,-358"/>
<text text-anchor="middle" x="5850.5" y="-315.8" font-family="Courier-Bold" font-size="24.00">deployment/cdi&#45;uploadproxy</text>
</g>
<!-- deployment/hostpath&#45;provisioner&#45;operator -->
<g id="node35" class="node">
<title>deployment/hostpath&#45;provisioner&#45;operator</title>
<path fill="none" stroke="black" d="M6104,-268C6104,-268 5597,-268 5597,-268 5591,-268 5585,-262 5585,-256 5585,-256 5585,-208 5585,-208 5585,-202 5591,-196 5597,-196 5597,-196 6104,-196 6104,-196 6110,-196 6116,-202 6116,-208 6116,-208 6116,-256 6116,-256 6116,-262 6110,-268 6104,-268"/>
<text text-anchor="middle" x="5850.5" y="-225.8" font-family="Courier-Bold" font-size="24.00">deployment/hostpath&#45;provisioner&#45;operator</text>
</g>
<!-- HyperConverged/kubevirt&#45;hyperconverged -->
<g id="node37" class="node">
<title>HyperConverged/kubevirt&#45;hyperconverged</title>
<path fill="none" stroke="black" d="M7150,-808C7150,-808 6643,-808 6643,-808 6637,-808 6631,-802 6631,-796 6631,-796 6631,-748 6631,-748 6631,-742 6637,-736 6643,-736 6643,-736 7150,-736 7150,-736 7156,-736 7162,-742 7162,-748 7162,-748 7162,-796 7162,-796 7162,-802 7156,-808 7150,-808"/>
<text text-anchor="middle" x="6896.5" y="-765.8" font-family="Courier-Bold" font-size="24.00">HyperConverged/kubevirt&#45;hyperconverged</text>
</g>
<!-- deployment/virt&#45;template&#45;validator&#45;&gt;HyperConverged/kubevirt&#45;hyperconverged -->
</g>
</svg>
