<?xml version="1.0" encoding="UTF-8" standalone="no"?>
<!DOCTYPE svg PUBLIC "-//W3C//DTD SVG 1.1//EN"
 "http://www.w3.org/Graphics/SVG/1.1/DTD/svg11.dtd">
<!-- Generated by graphviz version 2.44.0 (0)
 -->
<!-- Title: component Pages: 1 -->
<svg width="7871pt" height="886pt"
 viewBox="0.00 0.00 7871.00 886.00" xmlns="http://www.w3.org/2000/svg" xmlns:xlink="http://www.w3.org/1999/xlink">
<g id="graph0" class="graph" transform="scale(1 1) rotate(0) translate(4 882)">
<title>component</title>
<polygon fill="white" stroke="transparent" points="-4,4 -4,-882 7867,-882 7867,4 -4,4"/>
<g id="clust1" class="cluster">
<title>cluster_autopilot</title>
<polygon fill="none" stroke="black" stroke-dasharray="5,2" points="8,-728 8,-870 462,-870 462,-728 8,-728"/>
<text text-anchor="middle" x="235" y="-832.4" font-family="Courier-Bold" font-size="42.00">autopilot</text>
</g>
<g id="clust2" class="cluster">
<title>cluster_cnv&#45;network&#45;resources&#45;injector</title>
<polygon fill="none" stroke="black" stroke-dasharray="5,2" points="482,-728 482,-870 1147,-870 1147,-728 482,-728"/>
<text text-anchor="middle" x="814.5" y="-832.4" font-family="Courier-Bold" font-size="42.00">cnv&#45;network&#45;resources&#45;injector</text>
</g>
<g id="clust3" class="cluster">
<title>cluster_compute</title>
<polygon fill="none" stroke="black" stroke-dasharray="5,2" points="1167,-8 1167,-870 1721,-870 1721,-8 1167,-8"/>
<text text-anchor="middle" x="1444" y="-832.4" font-family="Courier-Bold" font-size="42.00">compute</text>
</g>
<g id="clust4" class="cluster">
<title>cluster_deployment</title>
<polygon fill="none" stroke="black" stroke-dasharray="5,2" points="1741,-548 1741,-870 2373,-870 2373,-548 1741,-548"/>
<text text-anchor="middle" x="2057" y="-832.4" font-family="Courier-Bold" font-size="42.00">deployment</text>
</g>
<g id="clust5" class="cluster">
<title>cluster_inflightoperations</title>
<polygon fill="none" stroke="black" stroke-dasharray="5,2" points="2393,-728 2393,-870 3030,-870 3030,-728 2393,-728"/>
<text text-anchor="middle" x="2711.5" y="-832.4" font-family="Courier-Bold" font-size="42.00">inflightoperations</text>
</g>
<g id="clust6" class="cluster">
<title>cluster_kubevirt&#45;apiserver&#45;proxy</title>
<polygon fill="none" stroke="black" stroke-dasharray="5,2" points="3050,-728 3050,-870 3580,-870 3580,-728 3050,-728"/>
<text text-anchor="middle" x="3315" y="-832.4" font-family="Courier-Bold" font-size="42.00">kubevirt&#45;apiserver&#45;proxy</text>
</g>
<g id="clust7" class="cluster">
<title>cluster_kubevirt&#45;console&#45;plugin</title>
<polygon fill="none" stroke="black" stroke-dasharray="5,2" points="3600,-728 3600,-870 4109,-870 4109,-728 3600,-728"/>
<text text-anchor="middle" x="3854.5" y="-832.4" font-family="Courier-Bold" font-size="42.00">kubevirt&#45;console&#45;plugin</text>
</g>
<g id="clust8" class="cluster">
<title>cluster_migration</title>
<polygon fill="none" stroke="black" stroke-dasharray="5,2" points="4129,-638 4129,-870 4663,-870 4663,-638 4129,-638"/>
<text text-anchor="middle" x="4396" y="-832.4" font-family="Courier-Bold" font-size="42.00">migration</text>
</g>
<g id="clust9" class="cluster">
<title>cluster_network</title>
<polygon fill="none" stroke="black" stroke-dasharray="5,2" points="4683,-188 4683,-870 5331,-870 5331,-188 4683,-188"/>
<text text-anchor="middle" x="5007" y="-832.4" font-family="Courier-Bold" font-size="42.00">network</text>
</g>
<g id="clust10" class="cluster">
<title>cluster_quota&#45;management</title>
<polygon fill="none" stroke="black" stroke-dasharray="5,2" points="5351,-728 5351,-870 5784,-870 5784,-728 5351,-728"/>
<text text-anchor="middle" x="5567.5" y="-832.4" font-family="Courier-Bold" font-size="42.00">quota&#45;management</text>
</g>
<g id="clust11" class="cluster">
<title>cluster_schedule</title>
<polygon fill="none" stroke="black" stroke-dasharray="5,2" points="5804,-638 5804,-870 6242,-870 6242,-638 5804,-638"/>
<text text-anchor="middle" x="6023" y="-832.4" font-family="Courier-Bold" font-size="42.00">schedule</text>
</g>
<g id="clust12" class="cluster">
<title>cluster_storage</title>
<polygon fill="none" stroke="black" stroke-dasharray="5,2" points="6262,-188 6262,-870 6809,-870 6809,-188 6262,-188"/>
<text text-anchor="middle" x="6535.5" y="-832.4" font-family="Courier-Bold" font-size="42.00">storage</text>
</g>
<g id="clust13" class="cluster">
<title>cluster_templating</title>
<polygon fill="none" stroke="black" stroke-dasharray="5,2" points="6829,-728 6829,-870 7288,-870 7288,-728 6829,-728"/>
<text text-anchor="middle" x="7058.5" y="-832.4" font-family="Courier-Bold" font-size="42.00">templating</text>
</g>
<g id="clust14" class="cluster">
<title>cluster_unassigned</title>
<polygon fill="none" stroke="black" stroke-dasharray="5,2" points="7308,-728 7308,-870 7855,-870 7855,-728 7308,-728"/>
<text text-anchor="middle" x="7581.5" y="-832.4" font-family="Courier-Bold" font-size="42.00">unassigned</text>
</g>
<!-- deployment/virt&#45;platform&#45;autopilot -->
<g id="node1" class="node">
<title>deployment/virt&#45;platform&#45;autopilot</title>
<path fill="none" stroke="black" d="M442,-808C442,-808 28,-808 28,-808 22,-808 16,-802 16,-796 16,-796 16,-748 16,-748 16,-742 22,-736 28,-736 28,-736 442,-736 442,-736 448,-736 454,-742 454,-748 454,-748 454,-796 454,-796 454,-802 448,-808 442,-808"/>
<text text-anchor="middle" x="235" y="-765.8" font-family="Courier-Bold" font-size="24.00">deployment/virt&#45;platform&#45;autopilot</text>
</g>
<!-- deployment/cnv&#45;network&#45;resources&#45;injector -->
<g id="node2" class="node">
<title>deployment/cnv&#45;network&#45;resources&#45;injector</title>
<path fill="none" stroke="black" d="M1075,-808C1075,-808 554,-808 554,-808 548,-808 542,-802 542,-796 542,-796 542,-748 542,-748 542,-742 548,-736 554,-736 554,-736 1075,-736 1075,-736 1081,-736 1087,-742 1087,-748 1087,-748 1087,-796 1087,-796 1087,-802 1081,-808 1075,-808"/>
<text text-anchor="middle" x="814.5" y="-765.8" font-family="Courier-Bold" font-size="24.00">deployment/cnv&#45;network&#45;resources&#45;injector</text>
</g>
<!-- deployment/virt&#45;platform&#45;autopilot&#45;&gt;deployment/cnv&#45;network&#45;resources&#45;injector -->
<!-- KubeVirt/kubevirt&#45;kubevirt&#45;hyperconverged -->
<g id="node3" class="node">
<title>KubeVirt/kubevirt&#45;kubevirt&#45;hyperconverged</title>
<path fill="none" stroke="black" d="M1701,-808C1701,-808 1187,-808 1187,-808 1181,-808 1175,-802 1175,-796 1175,-796 1175,-748 1175,-748 1175,-742 1181,-736 1187,-736 1187,-736 1701,-736 1701,-736 1707,-736 1713,-742 1713,-748 1713,-748 1713,-796 1713,-796 1713,-802 1707,-808 1701,-808"/>
<text text-anchor="middle" x="1444" y="-765.8" font-family="Courier-Bold" font-size="24.00">KubeVirt/kubevirt&#45;kubevirt&#45;hyperconverged</text>
</g>
<!-- deployment/cnv&#45;network&#45;resources&#45;injector&#45;&gt;KubeVirt/kubevirt&#45;kubevirt&#45;hyperconverged -->
<!-- deployment/hco&#45;operator -->
<g id="node12" class="node">
<title>deployment/hco&#45;operator</title>
<path fill="none" stroke="black" d="M2208,-808C2208,-808 1906,-808 1906,-808 1900,-808 1894,-802 1894,-796 1894,-796 1894,-748 1894,-748 1894,-742 1900,-736 1906,-736 1906,-736 2208,-736 2208,-736 2214,-736 2220,-742 2220,-748 2220,-748 2220,-796 2220,-796 2220,-802 2214,-808 2208,-808"/>
<text text-anchor="middle" x="2057" y="-765.8" font-family="Courier-Bold" font-size="24.00">deployment/hco&#45;operator</text>
</g>
<!-- KubeVirt/kubevirt&#45;kubevirt&#45;hyperconverged&#45;&gt;deployment/hco&#45;operator -->
<!-- daemonset/virt&#45;handler -->
<g id="node4" class="node">
<title>daemonset/virt&#45;handler</title>
<path fill="none" stroke="black" d="M1583,-718C1583,-718 1305,-718 1305,-718 1299,-718 1293,-712 1293,-706 1293,-706 1293,-658 1293,-658 1293,-652 1299,-646 1305,-646 1305,-646 1583,-646 1583,-646 1589,-646 1595,-652 1595,-658 1595,-658 1595,-706 1595,-706 1595,-712 1589,-718 1583,-718"/>
<text text-anchor="middle" x="1444" y="-675.8" font-family="Courier-Bold" font-size="24.00">daemonset/virt&#45;handler</text>
</g>
<!-- deployment/virt&#45;api -->
<g id="node5" class="node">
<title>deployment/virt&#45;api</title>
<path fill="none" stroke="black" d="M1559.5,-628C1559.5,-628 1328.5,-628 1328.5,-628 1322.5,-628 1316.5,-622 1316.5,-616 1316.5,-616 1316.5,-568 1316.5,-568 1316.5,-562 1322.5,-556 1328.5,-556 1328.5,-556 1559.5,-556 1559.5,-556 1565.5,-556 1571.5,-562 1571.5,-568 1571.5,-568 1571.5,-616 1571.5,-616 1571.5,-622 1565.5,-628 1559.5,-628"/>
<text text-anchor="middle" x="1444" y="-585.8" font-family="Courier-Bold" font-size="24.00">deployment/virt&#45;api</text>
</g>
<!-- deployment/virt&#45;controller -->
<g id="node6" class="node">
<title>deployment/virt&#45;controller</title>
<path fill="none" stroke="black" d="M1599,-538C1599,-538 1289,-538 1289,-538 1283,-538 1277,-532 1277,-526 1277,-526 1277,-478 1277,-478 1277,-472 1283,-466 1289,-466 1289,-466 1599,-466 1599,-466 1605,-466 1611,-472 1611,-478 1611,-478 1611,-526 1611,-526 1611,-532 1605,-538 1599,-538"/>
<text text-anchor="middle" x="1444" y="-495.8" font-family="Courier-Bold" font-size="24.00">deployment/virt&#45;controller</text>
</g>
<!-- deployment/virt&#45;exportproxy -->
<g id="node7" class="node">
<title>deployment/virt&#45;exportproxy</title>
<path fill="none" stroke="black" d="M1613.5,-448C1613.5,-448 1274.5,-448 1274.5,-448 1268.5,-448 1262.5,-442 1262.5,-436 1262.5,-436 1262.5,-388 1262.5,-388 1262.5,-382 1268.5,-376 1274.5,-376 1274.5,-376 1613.5,-376 1613.5,-376 1619.5,-376 1625.5,-382 1625.5,-388 1625.5,-388 1625.5,-436 1625.5,-436 1625.5,-442 1619.5,-448 1613.5,-448"/>
<text text-anchor="middle" x="1444" y="-405.8" font-family="Courier-Bold" font-size="24.00">deployment/virt&#45;exportproxy</text>
</g>
<!-- deployment/virt&#45;operator -->
<g id="node8" class="node">
<title>deployment/virt&#45;operator</title>
<path fill="none" stroke="black" d="M1593.5,-358C1593.5,-358 1294.5,-358 1294.5,-358 1288.5,-358 1282.5,-352 1282.5,-346 1282.5,-346 1282.5,-298 1282.5,-298 1282.5,-292 1288.5,-286 1294.5,-286 1294.5,-286 1593.5,-286 1593.5,-286 1599.5,-286 1605.5,-292 1605.5,-298 1605.5,-298 1605.5,-346 1605.5,-346 1605.5,-352 1599.5,-358 1593.5,-358"/>
<text text-anchor="middle" x="1444" y="-315.8" font-family="Courier-Bold" font-size="24.00">deployment/virt&#45;operator</text>
</g>
<!-- deployment/virt&#45;synchronization&#45;controller -->
<g id="node9" class="node">
<title>deployment/virt&#45;synchronization&#45;controller</title>
<path fill="none" stroke="black" d="M1698.5,-268C1698.5,-268 1189.5,-268 1189.5,-268 1183.5,-268 1177.5,-262 1177.5,-256 1177.5,-256 1177.5,-208 1177.5,-208 1177.5,-202 1183.5,-196 1189.5,-196 1189.5,-196 1698.5,-196 1698.5,-196 1704.5,-196 1710.5,-202 1710.5,-208 1710.5,-208 1710.5,-256 1710.5,-256 1710.5,-262 1704.5,-268 1698.5,-268"/>
<text text-anchor="middle" x="1444" y="-225.8" font-family="Courier-Bold" font-size="24.00">deployment/virt&#45;synchronization&#45;controller</text>
</g>
<!-- deployment/virt&#45;template&#45;apiserver -->
<g id="node10" class="node">
<title>deployment/virt&#45;template&#45;apiserver</title>
<path fill="none" stroke="black" d="M1657,-178C1657,-178 1231,-178 1231,-178 1225,-178 1219,-172 1219,-166 1219,-166 1219,-118 1219,-118 1219,-112 1225,-106 1231,-106 1231,-106 1657,-106 1657,-106 1663,-106 1669,-112 1669,-118 1669,-118 1669,-166 1669,-166 1669,-172 1663,-178 1657,-178"/>
<text text-anchor="middle" x="1444" y="-135.8" font-family="Courier-Bold" font-size="24.00">deployment/virt&#45;template&#45;apiserver</text>
</g>
<!-- deployment/virt&#45;template&#45;controller -->
<g id="node11" class="node">
<title>deployment/virt&#45;template&#45;controller</title>
<path fill="none" stroke="black" d="M1658,-88C1658,-88 1230,-88 1230,-88 1224,-88 1218,-82 1218,-76 1218,-76 1218,-28 1218,-28 1218,-22 1224,-16 1230,-16 1230,-16 1658,-16 1658,-16 1664,-16 1670,-22 1670,-28 1670,-28 1670,-76 1670,-76 1670,-82 1664,-88 1658,-88"/>
<text text-anchor="middle" x="1444" y="-45.8" font-family="Courier-Bold" font-size="24.00">deployment/virt&#45;template&#45;controller</text>
</g>
<!-- deployment/inflightoperations&#45;controller&#45;manager -->
<g id="node15" class="node">
<title>deployment/inflightoperations&#45;controller&#45;manager</title>
<path fill="none" stroke="black" d="M3010,-808C3010,-808 2413,-808 2413,-808 2407,-808 2401,-802 2401,-796 2401,-796 2401,-748 2401,-748 2401,-742 2407,-736 2413,-736 2413,-736 3010,-736 3010,-736 3016,-736 3022,-742 3022,-748 3022,-748 3022,-796 3022,-796 3022,-802 3016,-808 3010,-808"/>
<text text-anchor="middle" x="2711.5" y="-765.8" font-family="Courier-Bold" font-size="24.00">deployment/inflightoperations&#45;controller&#45;manager</text>
</g>
<!-- deployment/hco&#45;operator&#45;&gt;deployment/inflightoperations&#45;controller&#45;manager -->
<!-- deployment/hco&#45;webhook -->
<g id="node13" class="node">
<title>deployment/hco&#45;webhook</title>
<path fill="none" stroke="black" d="M2210,-718C2210,-718 1904,-718 1904,-718 1898,-718 1892,-712 1892,-706 1892,-706 1892,-658 1892,-658 1892,-652 1898,-646 1904,-646 1904,-646 2210,-646 2210,-646 2216,-646 2222,-652 2222,-658 2222,-658 2222,-706 2222,-706 2222,-712 2216,-718 2210,-718"/>
<text text-anchor="middle" x="2057" y="-675.8" font-family="Courier-Bold" font-size="24.00">deployment/hco&#45;webhook</text>
</g>
<!-- deployment/hyperconverged&#45;cluster&#45;cli&#45;download -->
<g id="node14" class="node">
<title>deployment/hyperconverged&#45;cluster&#45;cli&#45;download</title>
<path fill="none" stroke="black" d="M2353,-628C2353,-628 1761,-628 1761,-628 1755,-628 1749,-622 1749,-616 1749,-616 1749,-568 1749,-568 1749,-562 1755,-556 1761,-556 1761,-556 2353,-556 2353,-556 2359,-556 2365,-562 2365,-568 2365,-568 2365,-616 2365,-616 2365,-622 2359,-628 2353,-628"/>
<text text-anchor="middle" x="2057" y="-585.8" font-family="Courier-Bold" font-size="24.00">deployment/hyperconverged&#45;cluster&#45;cli&#45;download</text>
</g>
<!-- deployment/kubevirt&#45;apiserver&#45;proxy -->
<g id="node16" class="node">
<title>deployment/kubevirt&#45;apiserver&#45;proxy</title>
<path fill="none" stroke="black" d="M3535,-808C3535,-808 3095,-808 3095,-808 3089,-808 3083,-802 3083,-796 3083,-796 3083,-748 3083,-748 3083,-742 3089,-736 3095,-736 3095,-736 3535,-736 3535,-736 3541,-736 3547,-742 3547,-748 3547,-748 3547,-796 3547,-796 3547,-802 3541,-808 3535,-808"/>
<text text-anchor="middle" x="3315" y="-765.8" font-family="Courier-Bold" font-size="24.00">deployment/kubevirt&#45;apiserver&#45;proxy</text>
</g>
<!-- deployment/inflightoperations&#45;controller&#45;manager&#45;&gt;deployment/kubevirt&#45;apiserver&#45;proxy -->
<!-- deployment/kubevirt&#45;console&#45;plugin -->
<g id="node17" class="node">
<title>deployment/kubevirt&#45;console&#45;plugin</title>
<path fill="none" stroke="black" d="M4068,-808C4068,-808 3640,-808 3640,-808 3634,-808 3628,-802 3628,-796 3628,-796 3628,-748 3628,-748 3628,-742 3634,-736 3640,-736 3640,-736 4068,-736 4068,-736 4074,-736 4080,-742 4080,-748 4080,-748 4080,-796 4080,-796 4080,-802 4074,-808 4068,-808"/>
<text text-anchor="middle" x="3854" y="-765.8" font-family="Courier-Bold" font-size="24.00">deployment/kubevirt&#45;console&#45;plugin</text>
</g>
<!-- deployment/kubevirt&#45;apiserver&#45;proxy&#45;&gt;deployment/kubevirt&#45;console&#45;plugin -->
<!-- deployment/kubevirt&#45;migration&#45;controller -->
<g id="node18" class="node">
<title>deployment/kubevirt&#45;migration&#45;controller</title>
<path fill="none" stroke="black" d="M4643,-808C4643,-808 4149,-808 4149,-808 4143,-808 4137,-802 4137,-796 4137,-796 4137,-748 4137,-748 4137,-742 4143,-736 4149,-736 4149,-736 4643,-736 4643,-736 4649,-736 4655,-742 4655,-748 4655,-748 4655,-796 4655,-796 4655,-802 4649,-808 4643,-808"/>
<text text-anchor="middle" x="4396" y="-765.8" font-family="Courier-Bold" font-size="24.00">deployment/kubevirt&#45;migration&#45;controller</text>
</g>
<!-- deployment/kubevirt&#45;console&#45;plugin&#45;&gt;deployment/kubevirt&#45;migration&#45;controller -->
<!-- NetworkAddonsConfig/cluster -->
<g id="node20" class="node">
<title>NetworkAddonsConfig/cluster</title>
<path fill="none" stroke="black" d="M5182,-808C5182,-808 4832,-808 4832,-808 4826,-808 4820,-802 4820,-796 4820,-796 4820,-748 4820,-748 4820,-742 4826,-736 4832,-736 4832,-736 5182,-736 5182,-736 5188,-736 5194,-742 5194,-748 5194,-748 5194,-796 5194,-796 5194,-802 5188,-808 5182,-808"/>
<text text-anchor="middle" x="5007" y="-765.8" font-family="Courier-Bold" font-size="24.00">NetworkAddonsConfig/cluster</text>
</g>
<!-- deployment/kubevirt&#45;migration&#45;controller&#45;&gt;NetworkAddonsConfig/cluster -->
<!-- deployment/kubevirt&#45;migration&#45;operator -->
<g id="node19" class="node">
<title>deployment/kubevirt&#45;migration&#45;operator</title>
<path fill="none" stroke="black" d="M4637,-718C4637,-718 4155,-718 4155,-718 4149,-718 4143,-712 4143,-706 4143,-706 4143,-658 4143,-658 4143,-652 4149,-646 4155,-646 4155,-646 4637,-646 4637,-646 4643,-646 4649,-652 4649,-658 4649,-658 4649,-706 4649,-706 4649,-712 4643,-718 4637,-718"/>
<text text-anchor="middle" x="4396" y="-675.8" font-family="Courier-Bold" font-size="24.00">deployment/kubevirt&#45;migration&#45;operator</text>
</g>
<!-- deployment/aaq&#45;operator -->
<g id="node27" class="node">
<title>deployment/aaq&#45;operator</title>
<path fill="none" stroke="black" d="M5719,-808C5719,-808 5416,-808 5416,-808 5410,-808 5404,-802 5404,-796 5404,-796 5404,-748 5404,-748 5404,-742 5410,-736 5416,-736 5416,-736 5719,-736 5719,-736 5725,-736 5731,-742 5731,-748 5731,-748 5731,-796 5731,-796 5731,-802 5725,-808 5719,-808"/>
<text text-anchor="middle" x="5567.5" y="-765.8" font-family="Courier-Bold" font-size="24.00">deployment/aaq&#45;operator</text>
</g>
<!-- NetworkAddonsConfig/cluster&#45;&gt;deployment/aaq&#45;operator -->
<!-- daemonset/bridge&#45;marker -->
<g id="node21" class="node">
<title>daemonset/bridge&#45;marker</title>
<path fill="none" stroke="black" d="M5161,-718C5161,-718 4853,-718 4853,-718 4847,-718 4841,-712 4841,-706 4841,-706 4841,-658 4841,-658 4841,-652 4847,-646 4853,-646 4853,-646 5161,-646 5161,-646 5167,-646 5173,-652 5173,-658 5173,-658 5173,-706 5173,-706 5173,-712 5167,-718 5161,-718"/>
<text text-anchor="middle" x="5007" y="-675.8" font-family="Courier-Bold" font-size="24.00">daemonset/bridge&#45;marker</text>
</g>
<!-- daemonset/kube&#45;cni&#45;linux&#45;bridge&#45;plugin -->
<g id="node22" class="node">
<title>daemonset/kube&#45;cni&#45;linux&#45;bridge&#45;plugin</title>
<path fill="none" stroke="black" d="M5244,-628C5244,-628 4770,-628 4770,-628 4764,-628 4758,-622 4758,-616 4758,-616 4758,-568 4758,-568 4758,-562 4764,-556 4770,-556 4770,-556 5244,-556 5244,-556 5250,-556 5256,-562 5256,-568 5256,-568 5256,-616 5256,-616 5256,-622 5250,-628 5244,-628"/>
<text text-anchor="middle" x="5007" y="-585.8" font-family="Courier-Bold" font-size="24.00">daemonset/kube&#45;cni&#45;linux&#45;bridge&#45;plugin</text>
</g>
<!-- deployment/cluster&#45;network&#45;addons&#45;operator -->
<g id="node23" class="node">
<title>deployment/cluster&#45;network&#45;addons&#45;operator</title>
<path fill="none" stroke="black" d="M5278.5,-538C5278.5,-538 4735.5,-538 4735.5,-538 4729.5,-538 4723.5,-532 4723.5,-526 4723.5,-526 4723.5,-478 4723.5,-478 4723.5,-472 4729.5,-466 4735.5,-466 4735.5,-466 5278.5,-466 5278.5,-466 5284.5,-466 5290.5,-472 5290.5,-478 5290.5,-478 5290.5,-526 5290.5,-526 5290.5,-532 5284.5,-538 5278.5,-538"/>
<text text-anchor="middle" x="5007" y="-495.8" font-family="Courier-Bold" font-size="24.00">deployment/cluster&#45;network&#45;addons&#45;operator</text>
</g>
<!-- deployment/kubemacpool&#45;cert&#45;manager -->
<g id="node24" class="node">
<title>deployment/kubemacpool&#45;cert&#45;manager</title>
<path fill="none" stroke="black" d="M5247.5,-448C5247.5,-448 4766.5,-448 4766.5,-448 4760.5,-448 4754.5,-442 4754.5,-436 4754.5,-436 4754.5,-388 4754.5,-388 4754.5,-382 4760.5,-376 4766.5,-376 4766.5,-376 5247.5,-376 5247.5,-376 5253.5,-376 5259.5,-382 5259.5,-388 5259.5,-388 5259.5,-436 5259.5,-436 5259.5,-442 5253.5,-448 5247.5,-448"/>
<text text-anchor="middle" x="5007" y="-405.8" font-family="Courier-Bold" font-size="24.00">deployment/kubemacpool&#45;cert&#45;manager</text>
</g>
<!-- deployment/kubemacpool&#45;mac&#45;controller&#45;manager -->
<g id="node25" class="node">
<title>deployment/kubemacpool&#45;mac&#45;controller&#45;manager</title>
<path fill="none" stroke="black" d="M5311,-358C5311,-358 4703,-358 4703,-358 4697,-358 4691,-352 4691,-346 4691,-346 4691,-298 4691,-298 4691,-292 4697,-286 4703,-286 4703,-286 5311,-286 5311,-286 5317,-286 5323,-292 5323,-298 5323,-298 5323,-346 5323,-346 5323,-352 5317,-358 5311,-358"/>
<text text-anchor="middle" x="5007" y="-315.8" font-family="Courier-Bold" font-size="24.00">deployment/kubemacpool&#45;mac&#45;controller&#45;manager</text>
</g>
<!-- deployment/kubevirt&#45;ipam&#45;controller&#45;manager -->
<g id="node26" class="node">
<title>deployment/kubevirt&#45;ipam&#45;controller&#45;manager</title>
<path fill="none" stroke="black" d="M5283.5,-268C5283.5,-268 4730.5,-268 4730.5,-268 4724.5,-268 4718.5,-262 4718.5,-256 4718.5,-256 4718.5,-208 4718.5,-208 4718.5,-202 4724.5,-196 4730.5,-196 4730.5,-196 5283.5,-196 5283.5,-196 5289.5,-196 5295.5,-202 5295.5,-208 5295.5,-208 5295.5,-256 5295.5,-256 5295.5,-262 5289.5,-268 5283.5,-268"/>
<text text-anchor="middle" x="5007" y="-225.8" font-family="Courier-Bold" font-size="24.00">deployment/kubevirt&#45;ipam&#45;controller&#45;manager</text>
</g>
<!-- SSP/ssp&#45;kubevirt&#45;hyperconverged -->
<g id="node28" class="node">
<title>SSP/ssp&#45;kubevirt&#45;hyperconverged</title>
<path fill="none" stroke="black" d="M6222,-808C6222,-808 5824,-808 5824,-808 5818,-808 5812,-802 5812,-796 5812,-796 5812,-748 5812,-748 5812,-742 5818,-736 5824,-736 5824,-736 6222,-736 6222,-736 6228,-736 6234,-742 6234,-748 6234,-748 6234,-796 6234,-796 6234,-802 6228,-808 6222,-808"/>
<text text-anchor="middle" x="6023" y="-765.8" font-family="Courier-Bold" font-size="24.00">SSP/ssp&#45;kubevirt&#45;hyperconverged</text>
</g>
<!-- deployment/aaq&#45;operator&#45;&gt;SSP/ssp&#45;kubevirt&#45;hyperconverged -->
<!-- CDI/cdi&#45;kubevirt&#45;hyperconverged -->
<g id="node30" class="node">
<title>CDI/cdi&#45;kubevirt&#45;hyperconverged</title>
<path fill="none" stroke="black" d="M6731,-808C6731,-808 6340,-808 6340,-808 6334,-808 6328,-802 6328,-796 6328,-796 6328,-748 6328,-748 6328,-742 6334,-736 6340,-736 6340,-736 6731,-736 6731,-736 6737,-736 6743,-742 6743,-748 6743,-748 6743,-796 6743,-796 6743,-802 6737,-808 6731,-808"/>
<text text-anchor="middle" x="6535.5" y="-765.8" font-family="Courier-Bold" font-size="24.00">CDI/cdi&#45;kubevirt&#45;hyperconverged</text>
</g>
<!-- SSP/ssp&#45;kubevirt&#45;hyperconverged&#45;&gt;CDI/cdi&#45;kubevirt&#45;hyperconverged -->
<!-- deployment/ssp&#45;operator -->
<g id="node29" class="node">
<title>deployment/ssp&#45;operator</title>
<path fill="none" stroke="black" d="M6172.5,-718C6172.5,-718 5873.5,-718 5873.5,-718 5867.5,-718 5861.5,-712 5861.5,-706 5861.5,-706 5861.5,-658 5861.5,-658 5861.5,-652 5867.5,-646 5873.5,-646 5873.5,-646 6172.5,-646 6172.5,-646 6178.5,-646 6184.5,-652 6184.5,-658 6184.5,-658 6184.5,-706 6184.5,-706 6184.5,-712 6178.5,-718 6172.5,-718"/>
<text text-anchor="middle" x="6023" y="-675.8" font-family="Courier-Bold" font-size="24.00">deployment/ssp&#45;operator</text>
</g>
<!-- deployment/virt&#45;template&#45;validator -->
<g id="node37" class="node">
<title>deployment/virt&#45;template&#45;validator</title>
<path fill="none" stroke="black" d="M7268,-808C7268,-808 6849,-808 6849,-808 6843,-808 6837,-802 6837,-796 6837,-796 6837,-748 6837,-748 6837,-742 6843,-736 6849,-736 6849,-736 7268,-736 7268,-736 7274,-736 7280,-742 7280,-748 7280,-748 7280,-796 7280,-796 7280,-802 7274,-808 7268,-808"/>
<text text-anchor="middle" x="7058.5" y="-765.8" font-family="Courier-Bold" font-size="24.00">deployment/virt&#45;template&#45;validator</text>
</g>
<!-- CDI/cdi&#45;kubevirt&#45;hyperconverged&#45;&gt;deployment/virt&#45;template&#45;validator -->
<!-- CDIConfig/config -->
<g id="node31" class="node">
<title>CDIConfig/config</title>
<path fill="none" stroke="black" d="M6632,-718C6632,-718 6439,-718 6439,-718 6433,-718 6427,-712 6427,-706 6427,-706 6427,-658 6427,-658 6427,-652 6433,-646 6439,-646 6439,-646 6632,-646 6632,-646 6638,-646 6644,-652 6644,-658 6644,-658 6644,-706 6644,-706 6644,-712 6638,-718 6632,-718"/>
<text text-anchor="middle" x="6535.5" y="-675.8" font-family="Courier-Bold" font-size="24.00">CDIConfig/config</text>
</g>
<!-- deployment/cdi&#45;apiserver -->
<g id="node32" class="node">
<title>deployment/cdi&#45;apiserver</title>
<path fill="none" stroke="black" d="M6686.5,-628C6686.5,-628 6384.5,-628 6384.5,-628 6378.5,-628 6372.5,-622 6372.5,-616 6372.5,-616 6372.5,-568 6372.5,-568 6372.5,-562 6378.5,-556 6384.5,-556 6384.5,-556 6686.5,-556 6686.5,-556 6692.5,-556 6698.5,-562 6698.5,-568 6698.5,-568 6698.5,-616 6698.5,-616 6698.5,-622 6692.5,-628 6686.5,-628"/>
<text text-anchor="middle" x="6535.5" y="-585.8" font-family="Courier-Bold" font-size="24.00">deployment/cdi&#45;apiserver</text>
</g>
<!-- deployment/cdi&#45;deployment -->
<g id="node33" class="node">
<title>deployment/cdi&#45;deployment</title>
<path fill="none" stroke="black" d="M6702,-538C6702,-538 6369,-538 6369,-538 6363,-538 6357,-532 6357,-526 6357,-526 6357,-478 6357,-478 6357,-472 6363,-466 6369,-466 6369,-466 6702,-466 6702,-466 6708,-466 6714,-472 6714,-478 6714,-478 6714,-526 6714,-526 6714,-532 6708,-538 6702,-538"/>
<text text-anchor="middle" x="6535.5" y="-495.8" font-family="Courier-Bold" font-size="24.00">deployment/cdi&#45;deployment</text>
</g>
<!-- deployment/cdi&#45;operator -->
<g id="node34" class="node">
<title>deployment/cdi&#45;operator</title>
<path fill="none" stroke="black" d="M6682,-448C6682,-448 6389,-448 6389,-448 6383,-448 6377,-442 6377,-436 6377,-436 6377,-388 6377,-388 6377,-382 6383,-376 6389,-376 6389,-376 6682,-376 6682,-376 6688,-376 6694,-382 6694,-388 6694,-388 6694,-436 6694,-436 6694,-442 6688,-448 6682,-448"/>
<text text-anchor="middle" x="6535.5" y="-405.8" font-family="Courier-Bold" font-size="24.00">deployment/cdi&#45;operator</text>
</g>
<!-- deployment/cdi&#45;uploadproxy -->
<g id="node35" class="node">
<title>deployment/cdi&#45;uploadproxy</title>
<path fill="none" stroke="black" d="M6704.5,-358C6704.5,-358 6366.5,-358 6366.5,-358 6360.5,-358 6354.5,-352 6354.5,-346 6354.5,-346 6354.5,-298 6354.5,-298 6354.5,-292 6360.5,-286 6366.5,-286 6366.5,-286 6704.5,-286 6704.5,-286 6710.5,-286 6716.5,-292 6716.5,-298 6716.5,-298 6716.5,-346 6716.5,-346 6716.5,-352 6710.5,-358 6704.5,-358"/>
<text text-anchor="middle" x="6535.5" y="-315.8" font-family="Courier-Bold" font-size="24.00">deployment/cdi&#45;uploadproxy</text>
</g>
<!-- deployment/hostpath&#45;provisioner&#45;operator -->
<g id="node36" class="node">
<title>deployment/hostpath&#45;provisioner&#45;operator</title>
<path fill="none" stroke="black" d="M6789,-268C6789,-268 6282,-268 6282,-268 6276,-268 6270,-262 6270,-256 6270,-256 6270,-208 6270,-208 6270,-202 6276,-196 6282,-196 6282,-196 6789,-196 6789,-196 6795,-196 6801,-202 6801,-208 6801,-208 6801,-256 6801,-256 6801,-262 6795,-268 6789,-268"/>
<text text-anchor="middle" x="6535.5" y="-225.8" font-family="Courier-Bold" font-size="24.00">deployment/hostpath&#45;provisioner&#45;operator</text>
</g>
<!-- HyperConverged/kubevirt&#45;hyperconverged -->
<g id="node38" class="node">
<title>HyperConverged/kubevirt&#45;hyperconverged</title>
<path fill="none" stroke="black" d="M7835,-808C7835,-808 7328,-808 7328,-808 7322,-808 7316,-802 7316,-796 7316,-796 7316,-748 7316,-748 7316,-742 7322,-736 7328,-736 7328,-736 7835,-736 7835,-736 7841,-736 7847,-742 7847,-748 7847,-748 7847,-796 7847,-796 7847,-802 7841,-808 7835,-808"/>
<text text-anchor="middle" x="7581.5" y="-765.8" font-family="Courier-Bold" font-size="24.00">HyperConverged/kubevirt&#45;hyperconverged</text>
</g>
<!-- deployment/virt&#45;template&#45;validator&#45;&gt;HyperConverged/kubevirt&#45;hyperconverged -->
</g>
</svg>
