<?xml version="1.0" encoding="UTF-8" standalone="no"?>
<!DOCTYPE svg PUBLIC "-//W3C//DTD SVG 1.1//EN"
 "http://www.w3.org/Graphics/SVG/1.1/DTD/svg11.dtd">
<!-- Generated by graphviz version 2.44.0 (0)
 -->
<!-- Title: component Pages: 1 -->
<svg width="6043pt" height="706pt"
 viewBox="0.00 0.00 6043.00 706.00" xmlns="http://www.w3.org/2000/svg" xmlns:xlink="http://www.w3.org/1999/xlink">
<g id="graph0" class="graph" transform="scale(1 1) rotate(0) translate(4 702)">
<title>component</title>
<polygon fill="white" stroke="transparent" points="-4,4 -4,-702 6039,-702 6039,4 -4,4"/>
<g id="clust1" class="cluster">
<title>cluster_compute</title>
<polygon fill="none" stroke="black" stroke-dasharray="5,2" points="8,-98 8,-690 562,-690 562,-98 8,-98"/>
<text text-anchor="middle" x="285" y="-652.4" font-family="Courier-Bold" font-size="42.00">compute</text>
</g>
<g id="clust2" class="cluster">
<title>cluster_deployment</title>
<polygon fill="none" stroke="black" stroke-dasharray="5,2" points="582,-368 582,-690 1214,-690 1214,-368 582,-368"/>
<text text-anchor="middle" x="898" y="-652.4" font-family="Courier-Bold" font-size="42.00">deployment</text>
</g>
<g id="clust3" class="cluster">
<title>cluster_kubevirt&#45;apiserver&#45;proxy</title>
<polygon fill="none" stroke="black" stroke-dasharray="5,2" points="1234,-548 1234,-690 1764,-690 1764,-548 1234,-548"/>
<text text-anchor="middle" x="1499" y="-652.4" font-family="Courier-Bold" font-size="42.00">kubevirt&#45;apiserver&#45;proxy</text>
</g>
<g id="clust4" class="cluster">
<title>cluster_kubevirt&#45;console&#45;plugin</title>
<polygon fill="none" stroke="black" stroke-dasharray="5,2" points="1784,-548 1784,-690 2293,-690 2293,-548 1784,-548"/>
<text text-anchor="middle" x="2038.5" y="-652.4" font-family="Courier-Bold" font-size="42.00">kubevirt&#45;console&#45;plugin</text>
</g>
<g id="clust5" class="cluster">
<title>cluster_migration</title>
<polygon fill="none" stroke="black" stroke-dasharray="5,2" points="2313,-548 2313,-690 2835,-690 2835,-548 2313,-548"/>
<text text-anchor="middle" x="2574" y="-652.4" font-family="Courier-Bold" font-size="42.00">migration</text>
</g>
<g id="clust6" class="cluster">
<title>cluster_network</title>
<polygon fill="none" stroke="black" stroke-dasharray="5,2" points="2855,-8 2855,-690 3503,-690 3503,-8 2855,-8"/>
<text text-anchor="middle" x="3179" y="-652.4" font-family="Courier-Bold" font-size="42.00">network</text>
</g>
<g id="clust7" class="cluster">
<title>cluster_quota&#45;management</title>
<polygon fill="none" stroke="black" stroke-dasharray="5,2" points="3523,-548 3523,-690 3956,-690 3956,-548 3523,-548"/>
<text text-anchor="middle" x="3739.5" y="-652.4" font-family="Courier-Bold" font-size="42.00">quota&#45;management</text>
</g>
<g id="clust8" class="cluster">
<title>cluster_schedule</title>
<polygon fill="none" stroke="black" stroke-dasharray="5,2" points="3976,-458 3976,-690 4414,-690 4414,-458 3976,-458"/>
<text text-anchor="middle" x="4195" y="-652.4" font-family="Courier-Bold" font-size="42.00">schedule</text>
</g>
<g id="clust9" class="cluster">
<title>cluster_storage</title>
<polygon fill="none" stroke="black" stroke-dasharray="5,2" points="4434,-8 4434,-690 4981,-690 4981,-8 4434,-8"/>
<text text-anchor="middle" x="4707.5" y="-652.4" font-family="Courier-Bold" font-size="42.00">storage</text>
</g>
<g id="clust10" class="cluster">
<title>cluster_templating</title>
<polygon fill="none" stroke="black" stroke-dasharray="5,2" points="5001,-548 5001,-690 5460,-690 5460,-548 5001,-548"/>
<text text-anchor="middle" x="5230.5" y="-652.4" font-family="Courier-Bold" font-size="42.00">templating</text>
</g>
<g id="clust11" class="cluster">
<title>cluster_unassigned</title>
<polygon fill="none" stroke="black" stroke-dasharray="5,2" points="5480,-548 5480,-690 6027,-690 6027,-548 5480,-548"/>
<text text-anchor="middle" x="5753.5" y="-652.4" font-family="Courier-Bold" font-size="42.00">unassigned</text>
</g>
<!-- KubeVirt/kubevirt&#45;kubevirt&#45;hyperconverged -->
<g id="node1" class="node">
<title>KubeVirt/kubevirt&#45;kubevirt&#45;hyperconverged</title>
<path fill="none" stroke="black" d="M542,-628C542,-628 28,-628 28,-628 22,-628 16,-622 16,-616 16,-616 16,-568 16,-568 16,-562 22,-556 28,-556 28,-556 542,-556 542,-556 548,-556 554,-562 554,-568 554,-568 554,-616 554,-616 554,-622 548,-628 542,-628"/>
<text text-anchor="middle" x="285" y="-585.8" font-family="Courier-Bold" font-size="24.00">KubeVirt/kubevirt&#45;kubevirt&#45;hyperconverged</text>
</g>
<!-- deployment/hco&#45;operator -->
<g id="node7" class="node">
<title>deployment/hco&#45;operator</title>
<path fill="none" stroke="black" d="M1049,-628C1049,-628 747,-628 747,-628 741,-628 735,-622 735,-616 735,-616 735,-568 735,-568 735,-562 741,-556 747,-556 747,-556 1049,-556 1049,-556 1055,-556 1061,-562 1061,-568 1061,-568 1061,-616 1061,-616 1061,-622 1055,-628 1049,-628"/>
<text text-anchor="middle" x="898" y="-585.8" font-family="Courier-Bold" font-size="24.00">deployment/hco&#45;operator</text>
</g>
<!-- KubeVirt/kubevirt&#45;kubevirt&#45;hyperconverged&#45;&gt;deployment/hco&#45;operator -->
<!-- daemonset/virt&#45;handler -->
<g id="node2" class="node">
<title>daemonset/virt&#45;handler</title>
<path fill="none" stroke="black" d="M424,-538C424,-538 146,-538 146,-538 140,-538 134,-532 134,-526 134,-526 134,-478 134,-478 134,-472 140,-466 146,-466 146,-466 424,-466 424,-466 430,-466 436,-472 436,-478 436,-478 436,-526 436,-526 436,-532 430,-538 424,-538"/>
<text text-anchor="middle" x="285" y="-495.8" font-family="Courier-Bold" font-size="24.00">daemonset/virt&#45;handler</text>
</g>
<!-- deployment/virt&#45;api -->
<g id="node3" class="node">
<title>deployment/virt&#45;api</title>
<path fill="none" stroke="black" d="M400.5,-448C400.5,-448 169.5,-448 169.5,-448 163.5,-448 157.5,-442 157.5,-436 157.5,-436 157.5,-388 157.5,-388 157.5,-382 163.5,-376 169.5,-376 169.5,-376 400.5,-376 400.5,-376 406.5,-376 412.5,-382 412.5,-388 412.5,-388 412.5,-436 412.5,-436 412.5,-442 406.5,-448 400.5,-448"/>
<text text-anchor="middle" x="285" y="-405.8" font-family="Courier-Bold" font-size="24.00">deployment/virt&#45;api</text>
</g>
<!-- deployment/virt&#45;controller -->
<g id="node4" class="node">
<title>deployment/virt&#45;controller</title>
<path fill="none" stroke="black" d="M440,-358C440,-358 130,-358 130,-358 124,-358 118,-352 118,-346 118,-346 118,-298 118,-298 118,-292 124,-286 130,-286 130,-286 440,-286 440,-286 446,-286 452,-292 452,-298 452,-298 452,-346 452,-346 452,-352 446,-358 440,-358"/>
<text text-anchor="middle" x="285" y="-315.8" font-family="Courier-Bold" font-size="24.00">deployment/virt&#45;controller</text>
</g>
<!-- deployment/virt&#45;exportproxy -->
<g id="node5" class="node">
<title>deployment/virt&#45;exportproxy</title>
<path fill="none" stroke="black" d="M454.5,-268C454.5,-268 115.5,-268 115.5,-268 109.5,-268 103.5,-262 103.5,-256 103.5,-256 103.5,-208 103.5,-208 103.5,-202 109.5,-196 115.5,-196 115.5,-196 454.5,-196 454.5,-196 460.5,-196 466.5,-202 466.5,-208 466.5,-208 466.5,-256 466.5,-256 466.5,-262 460.5,-268 454.5,-268"/>
<text text-anchor="middle" x="285" y="-225.8" font-family="Courier-Bold" font-size="24.00">deployment/virt&#45;exportproxy</text>
</g>
<!-- deployment/virt&#45;operator -->
<g id="node6" class="node">
<title>deployment/virt&#45;operator</title>
<path fill="none" stroke="black" d="M434.5,-178C434.5,-178 135.5,-178 135.5,-178 129.5,-178 123.5,-172 123.5,-166 123.5,-166 123.5,-118 123.5,-118 123.5,-112 129.5,-106 135.5,-106 135.5,-106 434.5,-106 434.5,-106 440.5,-106 446.5,-112 446.5,-118 446.5,-118 446.5,-166 446.5,-166 446.5,-172 440.5,-178 434.5,-178"/>
<text text-anchor="middle" x="285" y="-135.8" font-family="Courier-Bold" font-size="24.00">deployment/virt&#45;operator</text>
</g>
<!-- deployment/kubevirt&#45;apiserver&#45;proxy -->
<g id="node10" class="node">
<title>deployment/kubevirt&#45;apiserver&#45;proxy</title>
<path fill="none" stroke="black" d="M1719,-628C1719,-628 1279,-628 1279,-628 1273,-628 1267,-622 1267,-616 1267,-616 1267,-568 1267,-568 1267,-562 1273,-556 1279,-556 1279,-556 1719,-556 1719,-556 1725,-556 1731,-562 1731,-568 1731,-568 1731,-616 1731,-616 1731,-622 1725,-628 1719,-628"/>
<text text-anchor="middle" x="1499" y="-585.8" font-family="Courier-Bold" font-size="24.00">deployment/kubevirt&#45;apiserver&#45;proxy</text>
</g>
<!-- deployment/hco&#45;operator&#45;&gt;deployment/kubevirt&#45;apiserver&#45;proxy -->
<!-- deployment/hco&#45;webhook -->
<g id="node8" class="node">
<title>deployment/hco&#45;webhook</title>
<path fill="none" stroke="black" d="M1051,-538C1051,-538 745,-538 745,-538 739,-538 733,-532 733,-526 733,-526 733,-478 733,-478 733,-472 739,-466 745,-466 745,-466 1051,-466 1051,-466 1057,-466 1063,-472 1063,-478 1063,-478 1063,-526 1063,-526 1063,-532 1057,-538 1051,-538"/>
<text text-anchor="middle" x="898" y="-495.8" font-family="Courier-Bold" font-size="24.00">deployment/hco&#45;webhook</text>
</g>
<!-- deployment/hyperconverged&#45;cluster&#45;cli&#45;download -->
<g id="node9" class="node">
<title>deployment/hyperconverged&#45;cluster&#45;cli&#45;download</title>
<path fill="none" stroke="black" d="M1194,-448C1194,-448 602,-448 602,-448 596,-448 590,-442 590,-436 590,-436 590,-388 590,-388 590,-382 596,-376 602,-376 602,-376 1194,-376 1194,-376 1200,-376 1206,-382 1206,-388 1206,-388 1206,-436 1206,-436 1206,-442 1200,-448 1194,-448"/>
<text text-anchor="middle" x="898" y="-405.8" font-family="Courier-Bold" font-size="24.00">deployment/hyperconverged&#45;cluster&#45;cli&#45;download</text>
</g>
<!-- deployment/kubevirt&#45;console&#45;plugin -->
<g id="node11" class="node">
<title>deployment/kubevirt&#45;console&#45;plugin</title>
<path fill="none" stroke="black" d="M2252,-628C2252,-628 1824,-628 1824,-628 1818,-628 1812,-622 1812,-616 1812,-616 1812,-568 1812,-568 1812,-562 1818,-556 1824,-556 1824,-556 2252,-556 2252,-556 2258,-556 2264,-562 2264,-568 2264,-568 2264,-616 2264,-616 2264,-622 2258,-628 2252,-628"/>
<text text-anchor="middle" x="2038" y="-585.8" font-family="Courier-Bold" font-size="24.00">deployment/kubevirt&#45;console&#45;plugin</text>
</g>
<!-- deployment/kubevirt&#45;apiserver&#45;proxy&#45;&gt;deployment/kubevirt&#45;console&#45;plugin -->
<!-- deployment/kubevirt&#45;migration&#45;operator -->
<g id="node12" class="node">
<title>deployment/kubevirt&#45;migration&#45;operator</title>
<path fill="none" stroke="black" d="M2815,-628C2815,-628 2333,-628 2333,-628 2327,-628 2321,-622 2321,-616 2321,-616 2321,-568 2321,-568 2321,-562 2327,-556 2333,-556 2333,-556 2815,-556 2815,-556 2821,-556 2827,-562 2827,-568 2827,-568 2827,-616 2827,-616 2827,-622 2821,-628 2815,-628"/>
<text text-anchor="middle" x="2574" y="-585.8" font-family="Courier-Bold" font-size="24.00">deployment/kubevirt&#45;migration&#45;operator</text>
</g>
<!-- deployment/kubevirt&#45;console&#45;plugin&#45;&gt;deployment/kubevirt&#45;migration&#45;operator -->
<!-- NetworkAddonsConfig/cluster -->
<g id="node13" class="node">
<title>NetworkAddonsConfig/cluster</title>
<path fill="none" stroke="black" d="M3354,-628C3354,-628 3004,-628 3004,-628 2998,-628 2992,-622 2992,-616 2992,-616 2992,-568 2992,-568 2992,-562 2998,-556 3004,-556 3004,-556 3354,-556 3354,-556 3360,-556 3366,-562 3366,-568 3366,-568 3366,-616 3366,-616 3366,-622 3360,-628 3354,-628"/>
<text text-anchor="middle" x="3179" y="-585.8" font-family="Courier-Bold" font-size="24.00">NetworkAddonsConfig/cluster</text>
</g>
<!-- deployment/kubevirt&#45;migration&#45;operator&#45;&gt;NetworkAddonsConfig/cluster -->
<!-- deployment/aaq&#45;operator -->
<g id="node20" class="node">
<title>deployment/aaq&#45;operator</title>
<path fill="none" stroke="black" d="M3891,-628C3891,-628 3588,-628 3588,-628 3582,-628 3576,-622 3576,-616 3576,-616 3576,-568 3576,-568 3576,-562 3582,-556 3588,-556 3588,-556 3891,-556 3891,-556 3897,-556 3903,-562 3903,-568 3903,-568 3903,-616 3903,-616 3903,-622 3897,-628 3891,-628"/>
<text text-anchor="middle" x="3739.5" y="-585.8" font-family="Courier-Bold" font-size="24.00">deployment/aaq&#45;operator</text>
</g>
<!-- NetworkAddonsConfig/cluster&#45;&gt;deployment/aaq&#45;operator -->
<!-- daemonset/bridge&#45;marker -->
<g id="node14" class="node">
<title>daemonset/bridge&#45;marker</title>
<path fill="none" stroke="black" d="M3333,-538C3333,-538 3025,-538 3025,-538 3019,-538 3013,-532 3013,-526 3013,-526 3013,-478 3013,-478 3013,-472 3019,-466 3025,-466 3025,-466 3333,-466 3333,-466 3339,-466 3345,-472 3345,-478 3345,-478 3345,-526 3345,-526 3345,-532 3339,-538 3333,-538"/>
<text text-anchor="middle" x="3179" y="-495.8" font-family="Courier-Bold" font-size="24.00">daemonset/bridge&#45;marker</text>
</g>
<!-- daemonset/kube&#45;cni&#45;linux&#45;bridge&#45;plugin -->
<g id="node15" class="node">
<title>daemonset/kube&#45;cni&#45;linux&#45;bridge&#45;plugin</title>
<path fill="none" stroke="black" d="M3416,-448C3416,-448 2942,-448 2942,-448 2936,-448 2930,-442 2930,-436 2930,-436 2930,-388 2930,-388 2930,-382 2936,-376 2942,-376 2942,-376 3416,-376 3416,-376 3422,-376 3428,-382 3428,-388 3428,-388 3428,-436 3428,-436 3428,-442 3422,-448 3416,-448"/>
<text text-anchor="middle" x="3179" y="-405.8" font-family="Courier-Bold" font-size="24.00">daemonset/kube&#45;cni&#45;linux&#45;bridge&#45;plugin</text>
</g>
<!-- deployment/cluster&#45;network&#45;addons&#45;operator -->
<g id="node16" class="node">
<title>deployment/cluster&#45;network&#45;addons&#45;operator</title>
<path fill="none" stroke="black" d="M3450.5,-358C3450.5,-358 2907.5,-358 2907.5,-358 2901.5,-358 2895.5,-352 2895.5,-346 2895.5,-346 2895.5,-298 2895.5,-298 2895.5,-292 2901.5,-286 2907.5,-286 2907.5,-286 3450.5,-286 3450.5,-286 3456.5,-286 3462.5,-292 3462.5,-298 3462.5,-298 3462.5,-346 3462.5,-346 3462.5,-352 3456.5,-358 3450.5,-358"/>
<text text-anchor="middle" x="3179" y="-315.8" font-family="Courier-Bold" font-size="24.00">deployment/cluster&#45;network&#45;addons&#45;operator</text>
</g>
<!-- deployment/kubemacpool&#45;cert&#45;manager -->
<g id="node17" class="node">
<title>deployment/kubemacpool&#45;cert&#45;manager</title>
<path fill="none" stroke="black" d="M3419.5,-268C3419.5,-268 2938.5,-268 2938.5,-268 2932.5,-268 2926.5,-262 2926.5,-256 2926.5,-256 2926.5,-208 2926.5,-208 2926.5,-202 2932.5,-196 2938.5,-196 2938.5,-196 3419.5,-196 3419.5,-196 3425.5,-196 3431.5,-202 3431.5,-208 3431.5,-208 3431.5,-256 3431.5,-256 3431.5,-262 3425.5,-268 3419.5,-268"/>
<text text-anchor="middle" x="3179" y="-225.8" font-family="Courier-Bold" font-size="24.00">deployment/kubemacpool&#45;cert&#45;manager</text>
</g>
<!-- deployment/kubemacpool&#45;mac&#45;controller&#45;manager -->
<g id="node18" class="node">
<title>deployment/kubemacpool&#45;mac&#45;controller&#45;manager</title>
<path fill="none" stroke="black" d="M3483,-178C3483,-178 2875,-178 2875,-178 2869,-178 2863,-172 2863,-166 2863,-166 2863,-118 2863,-118 2863,-112 2869,-106 2875,-106 2875,-106 3483,-106 3483,-106 3489,-106 3495,-112 3495,-118 3495,-118 3495,-166 3495,-166 3495,-172 3489,-178 3483,-178"/>
<text text-anchor="middle" x="3179" y="-135.8" font-family="Courier-Bold" font-size="24.00">deployment/kubemacpool&#45;mac&#45;controller&#45;manager</text>
</g>
<!-- deployment/kubevirt&#45;ipam&#45;controller&#45;manager -->
<g id="node19" class="node">
<title>deployment/kubevirt&#45;ipam&#45;controller&#45;manager</title>
<path fill="none" stroke="black" d="M3455.5,-88C3455.5,-88 2902.5,-88 2902.5,-88 2896.5,-88 2890.5,-82 2890.5,-76 2890.5,-76 2890.5,-28 2890.5,-28 2890.5,-22 2896.5,-16 2902.5,-16 2902.5,-16 3455.5,-16 3455.5,-16 3461.5,-16 3467.5,-22 3467.5,-28 3467.5,-28 3467.5,-76 3467.5,-76 3467.5,-82 3461.5,-88 3455.5,-88"/>
<text text-anchor="middle" x="3179" y="-45.8" font-family="Courier-Bold" font-size="24.00">deployment/kubevirt&#45;ipam&#45;controller&#45;manager</text>
</g>
<!-- SSP/ssp&#45;kubevirt&#45;hyperconverged -->
<g id="node21" class="node">
<title>SSP/ssp&#45;kubevirt&#45;hyperconverged</title>
<path fill="none" stroke="black" d="M4394,-628C4394,-628 3996,-628 3996,-628 3990,-628 3984,-622 3984,-616 3984,-616 3984,-568 3984,-568 3984,-562 3990,-556 3996,-556 3996,-556 4394,-556 4394,-556 4400,-556 4406,-562 4406,-568 4406,-568 4406,-616 4406,-616 4406,-622 4400,-628 4394,-628"/>
<text text-anchor="middle" x="4195" y="-585.8" font-family="Courier-Bold" font-size="24.00">SSP/ssp&#45;kubevirt&#45;hyperconverged</text>
</g>
<!-- deployment/aaq&#45;operator&#45;&gt;SSP/ssp&#45;kubevirt&#45;hyperconverged -->
<!-- CDI/cdi&#45;kubevirt&#45;hyperconverged -->
<g id="node23" class="node">
<title>CDI/cdi&#45;kubevirt&#45;hyperconverged</title>
<path fill="none" stroke="black" d="M4903,-628C4903,-628 4512,-628 4512,-628 4506,-628 4500,-622 4500,-616 4500,-616 4500,-568 4500,-568 4500,-562 4506,-556 4512,-556 4512,-556 4903,-556 4903,-556 4909,-556 4915,-562 4915,-568 4915,-568 4915,-616 4915,-616 4915,-622 4909,-628 4903,-628"/>
<text text-anchor="middle" x="4707.5" y="-585.8" font-family="Courier-Bold" font-size="24.00">CDI/cdi&#45;kubevirt&#45;hyperconverged</text>
</g>
<!-- SSP/ssp&#45;kubevirt&#45;hyperconverged&#45;&gt;CDI/cdi&#45;kubevirt&#45;hyperconverged -->
<!-- deployment/ssp&#45;operator -->
<g id="node22" class="node">
<title>deployment/ssp&#45;operator</title>
<path fill="none" stroke="black" d="M4344.5,-538C4344.5,-538 4045.5,-538 4045.5,-538 4039.5,-538 4033.5,-532 4033.5,-526 4033.5,-526 4033.5,-478 4033.5,-478 4033.5,-472 4039.5,-466 4045.5,-466 4045.5,-466 4344.5,-466 4344.5,-466 4350.5,-466 4356.5,-472 4356.5,-478 4356.5,-478 4356.5,-526 4356.5,-526 4356.5,-532 4350.5,-538 4344.5,-538"/>
<text text-anchor="middle" x="4195" y="-495.8" font-family="Courier-Bold" font-size="24.00">deployment/ssp&#45;operator</text>
</g>
<!-- deployment/virt&#45;template&#45;validator -->
<g id="node30" class="node">
<title>deployment/virt&#45;template&#45;validator</title>
<path fill="none" stroke="black" d="M5440,-628C5440,-628 5021,-628 5021,-628 5015,-628 5009,-622 5009,-616 5009,-616 5009,-568 5009,-568 5009,-562 5015,-556 5021,-556 5021,-556 5440,-556 5440,-556 5446,-556 5452,-562 5452,-568 5452,-568 5452,-616 5452,-616 5452,-622 5446,-628 5440,-628"/>
<text text-anchor="middle" x="5230.5" y="-585.8" font-family="Courier-Bold" font-size="24.00">deployment/virt&#45;template&#45;validator</text>
</g>
<!-- CDI/cdi&#45;kubevirt&#45;hyperconverged&#45;&gt;deployment/virt&#45;template&#45;validator -->
<!-- CDIConfig/config -->
<g id="node24" class="node">
<title>CDIConfig/config</title>
<path fill="none" stroke="black" d="M4804,-538C4804,-538 4611,-538 4611,-538 4605,-538 4599,-532 4599,-526 4599,-526 4599,-478 4599,-478 4599,-472 4605,-466 4611,-466 4611,-466 4804,-466 4804,-466 4810,-466 4816,-472 4816,-478 4816,-478 4816,-526 4816,-526 4816,-532 4810,-538 4804,-538"/>
<text text-anchor="middle" x="4707.5" y="-495.8" font-family="Courier-Bold" font-size="24.00">CDIConfig/config</text>
</g>
<!-- deployment/cdi&#45;apiserver -->
<g id="node25" class="node">
<title>deployment/cdi&#45;apiserver</title>
<path fill="none" stroke="black" d="M4858.5,-448C4858.5,-448 4556.5,-448 4556.5,-448 4550.5,-448 4544.5,-442 4544.5,-436 4544.5,-436 4544.5,-388 4544.5,-388 4544.5,-382 4550.5,-376 4556.5,-376 4556.5,-376 4858.5,-376 4858.5,-376 4864.5,-376 4870.5,-382 4870.5,-388 4870.5,-388 4870.5,-436 4870.5,-436 4870.5,-442 4864.5,-448 4858.5,-448"/>
<text text-anchor="middle" x="4707.5" y="-405.8" font-family="Courier-Bold" font-size="24.00">deployment/cdi&#45;apiserver</text>
</g>
<!-- deployment/cdi&#45;deployment -->
<g id="node26" class="node">
<title>deployment/cdi&#45;deployment</title>
<path fill="none" stroke="black" d="M4874,-358C4874,-358 4541,-358 4541,-358 4535,-358 4529,-352 4529,-346 4529,-346 4529,-298 4529,-298 4529,-292 4535,-286 4541,-286 4541,-286 4874,-286 4874,-286 4880,-286 4886,-292 4886,-298 4886,-298 4886,-346 4886,-346 4886,-352 4880,-358 4874,-358"/>
<text text-anchor="middle" x="4707.5" y="-315.8" font-family="Courier-Bold" font-size="24.00">deployment/cdi&#45;deployment</text>
</g>
<!-- deployment/cdi&#45;operator -->
<g id="node27" class="node">
<title>deployment/cdi&#45;operator</title>
<path fill="none" stroke="black" d="M4854,-268C4854,-268 4561,-268 4561,-268 4555,-268 4549,-262 4549,-256 4549,-256 4549,-208 4549,-208 4549,-202 4555,-196 4561,-196 4561,-196 4854,-196 4854,-196 4860,-196 4866,-202 4866,-208 4866,-208 4866,-256 4866,-256 4866,-262 4860,-268 4854,-268"/>
<text text-anchor="middle" x="4707.5" y="-225.8" font-family="Courier-Bold" font-size="24.00">deployment/cdi&#45;operator</text>
</g>
<!-- deployment/cdi&#45;uploadproxy -->
<g id="node28" class="node">
<title>deployment/cdi&#45;uploadproxy</title>
<path fill="none" stroke="black" d="M4876.5,-178C4876.5,-178 4538.5,-178 4538.5,-178 4532.5,-178 4526.5,-172 4526.5,-166 4526.5,-166 4526.5,-118 4526.5,-118 4526.5,-112 4532.5,-106 4538.5,-106 4538.5,-106 4876.5,-106 4876.5,-106 4882.5,-106 4888.5,-112 4888.5,-118 4888.5,-118 4888.5,-166 4888.5,-166 4888.5,-172 4882.5,-178 4876.5,-178"/>
<text text-anchor="middle" x="4707.5" y="-135.8" font-family="Courier-Bold" font-size="24.00">deployment/cdi&#45;uploadproxy</text>
</g>
<!-- deployment/hostpath&#45;provisioner&#45;operator -->
<g id="node29" class="node">
<title>deployment/hostpath&#45;provisioner&#45;operator</title>
<path fill="none" stroke="black" d="M4961,-88C4961,-88 4454,-88 4454,-88 4448,-88 4442,-82 4442,-76 4442,-76 4442,-28 4442,-28 4442,-22 4448,-16 4454,-16 4454,-16 4961,-16 4961,-16 4967,-16 4973,-22 4973,-28 4973,-28 4973,-76 4973,-76 4973,-82 4967,-88 4961,-88"/>
<text text-anchor="middle" x="4707.5" y="-45.8" font-family="Courier-Bold" font-size="24.00">deployment/hostpath&#45;provisioner&#45;operator</text>
</g>
<!-- HyperConverged/kubevirt&#45;hyperconverged -->
<g id="node31" class="node">
<title>HyperConverged/kubevirt&#45;hyperconverged</title>
<path fill="none" stroke="black" d="M6007,-628C6007,-628 5500,-628 5500,-628 5494,-628 5488,-622 5488,-616 5488,-616 5488,-568 5488,-568 5488,-562 5494,-556 5500,-556 5500,-556 6007,-556 6007,-556 6013,-556 6019,-562 6019,-568 6019,-568 6019,-616 6019,-616 6019,-622 6013,-628 6007,-628"/>
<text text-anchor="middle" x="5753.5" y="-585.8" font-family="Courier-Bold" font-size="24.00">HyperConverged/kubevirt&#45;hyperconverged</text>
</g>
<!-- deployment/virt&#45;template&#45;validator&#45;&gt;HyperConverged/kubevirt&#45;hyperconverged -->
</g>
</svg>
