<?xml version="1.0" encoding="UTF-8" standalone="no"?>
<!DOCTYPE svg PUBLIC "-//W3C//DTD SVG 1.1//EN"
 "http://www.w3.org/Graphics/SVG/1.1/DTD/svg11.dtd">
<!-- Generated by graphviz version 2.44.0 (0)
 -->
<!-- Title: component Pages: 1 -->
<svg width="6529pt" height="706pt"
 viewBox="0.00 0.00 6529.00 706.00" xmlns="http://www.w3.org/2000/svg" xmlns:xlink="http://www.w3.org/1999/xlink">
<g id="graph0" class="graph" transform="scale(1 1) rotate(0) translate(4 702)">
<title>component</title>
<polygon fill="white" stroke="transparent" points="-4,4 -4,-702 6525,-702 6525,4 -4,4"/>
<g id="clust1" class="cluster">
<title>cluster_autopilot</title>
<polygon fill="none" stroke="black" stroke-dasharray="5,2" points="8,-548 8,-690 462,-690 462,-548 8,-548"/>
<text text-anchor="middle" x="235" y="-652.4" font-family="Courier-Bold" font-size="42.00">autopilot</text>
</g>
<g id="clust2" class="cluster">
<title>cluster_compute</title>
<polygon fill="none" stroke="black" stroke-dasharray="5,2" points="482,-8 482,-690 1036,-690 1036,-8 482,-8"/>
<text text-anchor="middle" x="759" y="-652.4" font-family="Courier-Bold" font-size="42.00">compute</text>
</g>
<g id="clust3" class="cluster">
<title>cluster_deployment</title>
<polygon fill="none" stroke="black" stroke-dasharray="5,2" points="1056,-368 1056,-690 1688,-690 1688,-368 1056,-368"/>
<text text-anchor="middle" x="1372" y="-652.4" font-family="Courier-Bold" font-size="42.00">deployment</text>
</g>
<g id="clust4" class="cluster">
<title>cluster_kubevirt&#45;apiserver&#45;proxy</title>
<polygon fill="none" stroke="black" stroke-dasharray="5,2" points="1708,-548 1708,-690 2238,-690 2238,-548 1708,-548"/>
<text text-anchor="middle" x="1973" y="-652.4" font-family="Courier-Bold" font-size="42.00">kubevirt&#45;apiserver&#45;proxy</text>
</g>
<g id="clust5" class="cluster">
<title>cluster_kubevirt&#45;console&#45;plugin</title>
<polygon fill="none" stroke="black" stroke-dasharray="5,2" points="2258,-548 2258,-690 2767,-690 2767,-548 2258,-548"/>
<text text-anchor="middle" x="2512.5" y="-652.4" font-family="Courier-Bold" font-size="42.00">kubevirt&#45;console&#45;plugin</text>
</g>
<g id="clust6" class="cluster">
<title>cluster_migration</title>
<polygon fill="none" stroke="black" stroke-dasharray="5,2" points="2787,-458 2787,-690 3321,-690 3321,-458 2787,-458"/>
<text text-anchor="middle" x="3054" y="-652.4" font-family="Courier-Bold" font-size="42.00">migration</text>
</g>
<g id="clust7" class="cluster">
<title>cluster_network</title>
<polygon fill="none" stroke="black" stroke-dasharray="5,2" points="3341,-8 3341,-690 3989,-690 3989,-8 3341,-8"/>
<text text-anchor="middle" x="3665" y="-652.4" font-family="Courier-Bold" font-size="42.00">network</text>
</g>
<g id="clust8" class="cluster">
<title>cluster_quota&#45;management</title>
<polygon fill="none" stroke="black" stroke-dasharray="5,2" points="4009,-548 4009,-690 4442,-690 4442,-548 4009,-548"/>
<text text-anchor="middle" x="4225.5" y="-652.4" font-family="Courier-Bold" font-size="42.00">quota&#45;management</text>
</g>
<g id="clust9" class="cluster">
<title>cluster_schedule</title>
<polygon fill="none" stroke="black" stroke-dasharray="5,2" points="4462,-458 4462,-690 4900,-690 4900,-458 4462,-458"/>
<text text-anchor="middle" x="4681" y="-652.4" font-family="Courier-Bold" font-size="42.00">schedule</text>
</g>
<g id="clust10" class="cluster">
<title>cluster_storage</title>
<polygon fill="none" stroke="black" stroke-dasharray="5,2" points="4920,-8 4920,-690 5467,-690 5467,-8 4920,-8"/>
<text text-anchor="middle" x="5193.5" y="-652.4" font-family="Courier-Bold" font-size="42.00">storage</text>
</g>
<g id="clust11" class="cluster">
<title>cluster_templating</title>
<polygon fill="none" stroke="black" stroke-dasharray="5,2" points="5487,-548 5487,-690 5946,-690 5946,-548 5487,-548"/>
<text text-anchor="middle" x="5716.5" y="-652.4" font-family="Courier-Bold" font-size="42.00">templating</text>
</g>
<g id="clust12" class="cluster">
<title>cluster_unassigned</title>
<polygon fill="none" stroke="black" stroke-dasharray="5,2" points="5966,-548 5966,-690 6513,-690 6513,-548 5966,-548"/>
<text text-anchor="middle" x="6239.5" y="-652.4" font-family="Courier-Bold" font-size="42.00">unassigned</text>
</g>
<!-- deployment/virt&#45;platform&#45;autopilot -->
<g id="node1" class="node">
<title>deployment/virt&#45;platform&#45;autopilot</title>
<path fill="none" stroke="black" d="M442,-628C442,-628 28,-628 28,-628 22,-628 16,-622 16,-616 16,-616 16,-568 16,-568 16,-562 22,-556 28,-556 28,-556 442,-556 442,-556 448,-556 454,-562 454,-568 454,-568 454,-616 454,-616 454,-622 448,-628 442,-628"/>
<text text-anchor="middle" x="235" y="-585.8" font-family="Courier-Bold" font-size="24.00">deployment/virt&#45;platform&#45;autopilot</text>
</g>
<!-- KubeVirt/kubevirt&#45;kubevirt&#45;hyperconverged -->
<g id="node2" class="node">
<title>KubeVirt/kubevirt&#45;kubevirt&#45;hyperconverged</title>
<path fill="none" stroke="black" d="M1016,-628C1016,-628 502,-628 502,-628 496,-628 490,-622 490,-616 490,-616 490,-568 490,-568 490,-562 496,-556 502,-556 502,-556 1016,-556 1016,-556 1022,-556 1028,-562 1028,-568 1028,-568 1028,-616 1028,-616 1028,-622 1022,-628 1016,-628"/>
<text text-anchor="middle" x="759" y="-585.8" font-family="Courier-Bold" font-size="24.00">KubeVirt/kubevirt&#45;kubevirt&#45;hyperconverged</text>
</g>
<!-- deployment/virt&#45;platform&#45;autopilot&#45;&gt;KubeVirt/kubevirt&#45;kubevirt&#45;hyperconverged -->
<!-- deployment/hco&#45;operator -->
<g id="node9" class="node">
<title>deployment/hco&#45;operator</title>
<path fill="none" stroke="black" d="M1523,-628C1523,-628 1221,-628 1221,-628 1215,-628 1209,-622 1209,-616 1209,-616 1209,-568 1209,-568 1209,-562 1215,-556 1221,-556 1221,-556 1523,-556 1523,-556 1529,-556 1535,-562 1535,-568 1535,-568 1535,-616 1535,-616 1535,-622 1529,-628 1523,-628"/>
<text text-anchor="middle" x="1372" y="-585.8" font-family="Courier-Bold" font-size="24.00">deployment/hco&#45;operator</text>
</g>
<!-- KubeVirt/kubevirt&#45;kubevirt&#45;hyperconverged&#45;&gt;deployment/hco&#45;operator -->
<!-- daemonset/virt&#45;handler -->
<g id="node3" class="node">
<title>daemonset/virt&#45;handler</title>
<path fill="none" stroke="black" d="M898,-538C898,-538 620,-538 620,-538 614,-538 608,-532 608,-526 608,-526 608,-478 608,-478 608,-472 614,-466 620,-466 620,-466 898,-466 898,-466 904,-466 910,-472 910,-478 910,-478 910,-526 910,-526 910,-532 904,-538 898,-538"/>
<text text-anchor="middle" x="759" y="-495.8" font-family="Courier-Bold" font-size="24.00">daemonset/virt&#45;handler</text>
</g>
<!-- deployment/virt&#45;api -->
<g id="node4" class="node">
<title>deployment/virt&#45;api</title>
<path fill="none" stroke="black" d="M874.5,-448C874.5,-448 643.5,-448 643.5,-448 637.5,-448 631.5,-442 631.5,-436 631.5,-436 631.5,-388 631.5,-388 631.5,-382 637.5,-376 643.5,-376 643.5,-376 874.5,-376 874.5,-376 880.5,-376 886.5,-382 886.5,-388 886.5,-388 886.5,-436 886.5,-436 886.5,-442 880.5,-448 874.5,-448"/>
<text text-anchor="middle" x="759" y="-405.8" font-family="Courier-Bold" font-size="24.00">deployment/virt&#45;api</text>
</g>
<!-- deployment/virt&#45;controller -->
<g id="node5" class="node">
<title>deployment/virt&#45;controller</title>
<path fill="none" stroke="black" d="M914,-358C914,-358 604,-358 604,-358 598,-358 592,-352 592,-346 592,-346 592,-298 592,-298 592,-292 598,-286 604,-286 604,-286 914,-286 914,-286 920,-286 926,-292 926,-298 926,-298 926,-346 926,-346 926,-352 920,-358 914,-358"/>
<text text-anchor="middle" x="759" y="-315.8" font-family="Courier-Bold" font-size="24.00">deployment/virt&#45;controller</text>
</g>
<!-- deployment/virt&#45;exportproxy -->
<g id="node6" class="node">
<title>deployment/virt&#45;exportproxy</title>
<path fill="none" stroke="black" d="M928.5,-268C928.5,-268 589.5,-268 589.5,-268 583.5,-268 577.5,-262 577.5,-256 577.5,-256 577.5,-208 577.5,-208 577.5,-202 583.5,-196 589.5,-196 589.5,-196 928.5,-196 928.5,-196 934.5,-196 940.5,-202 940.5,-208 940.5,-208 940.5,-256 940.5,-256 940.5,-262 934.5,-268 928.5,-268"/>
<text text-anchor="middle" x="759" y="-225.8" font-family="Courier-Bold" font-size="24.00">deployment/virt&#45;exportproxy</text>
</g>
<!-- deployment/virt&#45;operator -->
<g id="node7" class="node">
<title>deployment/virt&#45;operator</title>
<path fill="none" stroke="black" d="M908.5,-178C908.5,-178 609.5,-178 609.5,-178 603.5,-178 597.5,-172 597.5,-166 597.5,-166 597.5,-118 597.5,-118 597.5,-112 603.5,-106 609.5,-106 609.5,-106 908.5,-106 908.5,-106 914.5,-106 920.5,-112 920.5,-118 920.5,-118 920.5,-166 920.5,-166 920.5,-172 914.5,-178 908.5,-178"/>
<text text-anchor="middle" x="759" y="-135.8" font-family="Courier-Bold" font-size="24.00">deployment/virt&#45;operator</text>
</g>
<!-- deployment/virt&#45;synchronization&#45;controller -->
<g id="node8" class="node">
<title>deployment/virt&#45;synchronization&#45;controller</title>
<path fill="none" stroke="black" d="M1013.5,-88C1013.5,-88 504.5,-88 504.5,-88 498.5,-88 492.5,-82 492.5,-76 492.5,-76 492.5,-28 492.5,-28 492.5,-22 498.5,-16 504.5,-16 504.5,-16 1013.5,-16 1013.5,-16 1019.5,-16 1025.5,-22 1025.5,-28 1025.5,-28 1025.5,-76 1025.5,-76 1025.5,-82 1019.5,-88 1013.5,-88"/>
<text text-anchor="middle" x="759" y="-45.8" font-family="Courier-Bold" font-size="24.00">deployment/virt&#45;synchronization&#45;controller</text>
</g>
<!-- deployment/kubevirt&#45;apiserver&#45;proxy -->
<g id="node12" class="node">
<title>deployment/kubevirt&#45;apiserver&#45;proxy</title>
<path fill="none" stroke="black" d="M2193,-628C2193,-628 1753,-628 1753,-628 1747,-628 1741,-622 1741,-616 1741,-616 1741,-568 1741,-568 1741,-562 1747,-556 1753,-556 1753,-556 2193,-556 2193,-556 2199,-556 2205,-562 2205,-568 2205,-568 2205,-616 2205,-616 2205,-622 2199,-628 2193,-628"/>
<text text-anchor="middle" x="1973" y="-585.8" font-family="Courier-Bold" font-size="24.00">deployment/kubevirt&#45;apiserver&#45;proxy</text>
</g>
<!-- deployment/hco&#45;operator&#45;&gt;deployment/kubevirt&#45;apiserver&#45;proxy -->
<!-- deployment/hco&#45;webhook -->
<g id="node10" class="node">
<title>deployment/hco&#45;webhook</title>
<path fill="none" stroke="black" d="M1525,-538C1525,-538 1219,-538 1219,-538 1213,-538 1207,-532 1207,-526 1207,-526 1207,-478 1207,-478 1207,-472 1213,-466 1219,-466 1219,-466 1525,-466 1525,-466 1531,-466 1537,-472 1537,-478 1537,-478 1537,-526 1537,-526 1537,-532 1531,-538 1525,-538"/>
<text text-anchor="middle" x="1372" y="-495.8" font-family="Courier-Bold" font-size="24.00">deployment/hco&#45;webhook</text>
</g>
<!-- deployment/hyperconverged&#45;cluster&#45;cli&#45;download -->
<g id="node11" class="node">
<title>deployment/hyperconverged&#45;cluster&#45;cli&#45;download</title>
<path fill="none" stroke="black" d="M1668,-448C1668,-448 1076,-448 1076,-448 1070,-448 1064,-442 1064,-436 1064,-436 1064,-388 1064,-388 1064,-382 1070,-376 1076,-376 1076,-376 1668,-376 1668,-376 1674,-376 1680,-382 1680,-388 1680,-388 1680,-436 1680,-436 1680,-442 1674,-448 1668,-448"/>
<text text-anchor="middle" x="1372" y="-405.8" font-family="Courier-Bold" font-size="24.00">deployment/hyperconverged&#45;cluster&#45;cli&#45;download</text>
</g>
<!-- deployment/kubevirt&#45;console&#45;plugin -->
<g id="node13" class="node">
<title>deployment/kubevirt&#45;console&#45;plugin</title>
<path fill="none" stroke="black" d="M2726,-628C2726,-628 2298,-628 2298,-628 2292,-628 2286,-622 2286,-616 2286,-616 2286,-568 2286,-568 2286,-562 2292,-556 2298,-556 2298,-556 2726,-556 2726,-556 2732,-556 2738,-562 2738,-568 2738,-568 2738,-616 2738,-616 2738,-622 2732,-628 2726,-628"/>
<text text-anchor="middle" x="2512" y="-585.8" font-family="Courier-Bold" font-size="24.00">deployment/kubevirt&#45;console&#45;plugin</text>
</g>
<!-- deployment/kubevirt&#45;apiserver&#45;proxy&#45;&gt;deployment/kubevirt&#45;console&#45;plugin -->
<!-- deployment/kubevirt&#45;migration&#45;controller -->
<g id="node14" class="node">
<title>deployment/kubevirt&#45;migration&#45;controller</title>
<path fill="none" stroke="black" d="M3301,-628C3301,-628 2807,-628 2807,-628 2801,-628 2795,-622 2795,-616 2795,-616 2795,-568 2795,-568 2795,-562 2801,-556 2807,-556 2807,-556 3301,-556 3301,-556 3307,-556 3313,-562 3313,-568 3313,-568 3313,-616 3313,-616 3313,-622 3307,-628 3301,-628"/>
<text text-anchor="middle" x="3054" y="-585.8" font-family="Courier-Bold" font-size="24.00">deployment/kubevirt&#45;migration&#45;controller</text>
</g>
<!-- deployment/kubevirt&#45;console&#45;plugin&#45;&gt;deployment/kubevirt&#45;migration&#45;controller -->
<!-- NetworkAddonsConfig/cluster -->
<g id="node16" class="node">
<title>NetworkAddonsConfig/cluster</title>
<path fill="none" stroke="black" d="M3840,-628C3840,-628 3490,-628 3490,-628 3484,-628 3478,-622 3478,-616 3478,-616 3478,-568 3478,-568 3478,-562 3484,-556 3490,-556 3490,-556 3840,-556 3840,-556 3846,-556 3852,-562 3852,-568 3852,-568 3852,-616 3852,-616 3852,-622 3846,-628 3840,-628"/>
<text text-anchor="middle" x="3665" y="-585.8" font-family="Courier-Bold" font-size="24.00">NetworkAddonsConfig/cluster</text>
</g>
<!-- deployment/kubevirt&#45;migration&#45;controller&#45;&gt;NetworkAddonsConfig/cluster -->
<!-- deployment/kubevirt&#45;migration&#45;operator -->
<g id="node15" class="node">
<title>deployment/kubevirt&#45;migration&#45;operator</title>
<path fill="none" stroke="black" d="M3295,-538C3295,-538 2813,-538 2813,-538 2807,-538 2801,-532 2801,-526 2801,-526 2801,-478 2801,-478 2801,-472 2807,-466 2813,-466 2813,-466 3295,-466 3295,-466 3301,-466 3307,-472 3307,-478 3307,-478 3307,-526 3307,-526 3307,-532 3301,-538 3295,-538"/>
<text text-anchor="middle" x="3054" y="-495.8" font-family="Courier-Bold" font-size="24.00">deployment/kubevirt&#45;migration&#45;operator</text>
</g>
<!-- deployment/aaq&#45;operator -->
<g id="node23" class="node">
<title>deployment/aaq&#45;operator</title>
<path fill="none" stroke="black" d="M4377,-628C4377,-628 4074,-628 4074,-628 4068,-628 4062,-622 4062,-616 4062,-616 4062,-568 4062,-568 4062,-562 4068,-556 4074,-556 4074,-556 4377,-556 4377,-556 4383,-556 4389,-562 4389,-568 4389,-568 4389,-616 4389,-616 4389,-622 4383,-628 4377,-628"/>
<text text-anchor="middle" x="4225.5" y="-585.8" font-family="Courier-Bold" font-size="24.00">deployment/aaq&#45;operator</text>
</g>
<!-- NetworkAddonsConfig/cluster&#45;&gt;deployment/aaq&#45;operator -->
<!-- daemonset/bridge&#45;marker -->
<g id="node17" class="node">
<title>daemonset/bridge&#45;marker</title>
<path fill="none" stroke="black" d="M3819,-538C3819,-538 3511,-538 3511,-538 3505,-538 3499,-532 3499,-526 3499,-526 3499,-478 3499,-478 3499,-472 3505,-466 3511,-466 3511,-466 3819,-466 3819,-466 3825,-466 3831,-472 3831,-478 3831,-478 3831,-526 3831,-526 3831,-532 3825,-538 3819,-538"/>
<text text-anchor="middle" x="3665" y="-495.8" font-family="Courier-Bold" font-size="24.00">daemonset/bridge&#45;marker</text>
</g>
<!-- daemonset/kube&#45;cni&#45;linux&#45;bridge&#45;plugin -->
<g id="node18" class="node">
<title>daemonset/kube&#45;cni&#45;linux&#45;bridge&#45;plugin</title>
<path fill="none" stroke="black" d="M3902,-448C3902,-448 3428,-448 3428,-448 3422,-448 3416,-442 3416,-436 3416,-436 3416,-388 3416,-388 3416,-382 3422,-376 3428,-376 3428,-376 3902,-376 3902,-376 3908,-376 3914,-382 3914,-388 3914,-388 3914,-436 3914,-436 3914,-442 3908,-448 3902,-448"/>
<text text-anchor="middle" x="3665" y="-405.8" font-family="Courier-Bold" font-size="24.00">daemonset/kube&#45;cni&#45;linux&#45;bridge&#45;plugin</text>
</g>
<!-- deployment/cluster&#45;network&#45;addons&#45;operator -->
<g id="node19" class="node">
<title>deployment/cluster&#45;network&#45;addons&#45;operator</title>
<path fill="none" stroke="black" d="M3936.5,-358C3936.5,-358 3393.5,-358 3393.5,-358 3387.5,-358 3381.5,-352 3381.5,-346 3381.5,-346 3381.5,-298 3381.5,-298 3381.5,-292 3387.5,-286 3393.5,-286 3393.5,-286 3936.5,-286 3936.5,-286 3942.5,-286 3948.5,-292 3948.5,-298 3948.5,-298 3948.5,-346 3948.5,-346 3948.5,-352 3942.5,-358 3936.5,-358"/>
<text text-anchor="middle" x="3665" y="-315.8" font-family="Courier-Bold" font-size="24.00">deployment/cluster&#45;network&#45;addons&#45;operator</text>
</g>
<!-- deployment/kubemacpool&#45;cert&#45;manager -->
<g id="node20" class="node">
<title>deployment/kubemacpool&#45;cert&#45;manager</title>
<path fill="none" stroke="black" d="M3905.5,-268C3905.5,-268 3424.5,-268 3424.5,-268 3418.5,-268 3412.5,-262 3412.5,-256 3412.5,-256 3412.5,-208 3412.5,-208 3412.5,-202 3418.5,-196 3424.5,-196 3424.5,-196 3905.5,-196 3905.5,-196 3911.5,-196 3917.5,-202 3917.5,-208 3917.5,-208 3917.5,-256 3917.5,-256 3917.5,-262 3911.5,-268 3905.5,-268"/>
<text text-anchor="middle" x="3665" y="-225.8" font-family="Courier-Bold" font-size="24.00">deployment/kubemacpool&#45;cert&#45;manager</text>
</g>
<!-- deployment/kubemacpool&#45;mac&#45;controller&#45;manager -->
<g id="node21" class="node">
<title>deployment/kubemacpool&#45;mac&#45;controller&#45;manager</title>
<path fill="none" stroke="black" d="M3969,-178C3969,-178 3361,-178 3361,-178 3355,-178 3349,-172 3349,-166 3349,-166 3349,-118 3349,-118 3349,-112 3355,-106 3361,-106 3361,-106 3969,-106 3969,-106 3975,-106 3981,-112 3981,-118 3981,-118 3981,-166 3981,-166 3981,-172 3975,-178 3969,-178"/>
<text text-anchor="middle" x="3665" y="-135.8" font-family="Courier-Bold" font-size="24.00">deployment/kubemacpool&#45;mac&#45;controller&#45;manager</text>
</g>
<!-- deployment/kubevirt&#45;ipam&#45;controller&#45;manager -->
<g id="node22" class="node">
<title>deployment/kubevirt&#45;ipam&#45;controller&#45;manager</title>
<path fill="none" stroke="black" d="M3941.5,-88C3941.5,-88 3388.5,-88 3388.5,-88 3382.5,-88 3376.5,-82 3376.5,-76 3376.5,-76 3376.5,-28 3376.5,-28 3376.5,-22 3382.5,-16 3388.5,-16 3388.5,-16 3941.5,-16 3941.5,-16 3947.5,-16 3953.5,-22 3953.5,-28 3953.5,-28 3953.5,-76 3953.5,-76 3953.5,-82 3947.5,-88 3941.5,-88"/>
<text text-anchor="middle" x="3665" y="-45.8" font-family="Courier-Bold" font-size="24.00">deployment/kubevirt&#45;ipam&#45;controller&#45;manager</text>
</g>
<!-- SSP/ssp&#45;kubevirt&#45;hyperconverged -->
<g id="node24" class="node">
<title>SSP/ssp&#45;kubevirt&#45;hyperconverged</title>
<path fill="none" stroke="black" d="M4880,-628C4880,-628 4482,-628 4482,-628 4476,-628 4470,-622 4470,-616 4470,-616 4470,-568 4470,-568 4470,-562 4476,-556 4482,-556 4482,-556 4880,-556 4880,-556 4886,-556 4892,-562 4892,-568 4892,-568 4892,-616 4892,-616 4892,-622 4886,-628 4880,-628"/>
<text text-anchor="middle" x="4681" y="-585.8" font-family="Courier-Bold" font-size="24.00">SSP/ssp&#45;kubevirt&#45;hyperconverged</text>
</g>
<!-- deployment/aaq&#45;operator&#45;&gt;SSP/ssp&#45;kubevirt&#45;hyperconverged -->
<!-- CDI/cdi&#45;kubevirt&#45;hyperconverged -->
<g id="node26" class="node">
<title>CDI/cdi&#45;kubevirt&#45;hyperconverged</title>
<path fill="none" stroke="black" d="M5389,-628C5389,-628 4998,-628 4998,-628 4992,-628 4986,-622 4986,-616 4986,-616 4986,-568 4986,-568 4986,-562 4992,-556 4998,-556 4998,-556 5389,-556 5389,-556 5395,-556 5401,-562 5401,-568 5401,-568 5401,-616 5401,-616 5401,-622 5395,-628 5389,-628"/>
<text text-anchor="middle" x="5193.5" y="-585.8" font-family="Courier-Bold" font-size="24.00">CDI/cdi&#45;kubevirt&#45;hyperconverged</text>
</g>
<!-- SSP/ssp&#45;kubevirt&#45;hyperconverged&#45;&gt;CDI/cdi&#45;kubevirt&#45;hyperconverged -->
<!-- deployment/ssp&#45;operator -->
<g id="node25" class="node">
<title>deployment/ssp&#45;operator</title>
<path fill="none" stroke="black" d="M4830.5,-538C4830.5,-538 4531.5,-538 4531.5,-538 4525.5,-538 4519.5,-532 4519.5,-526 4519.5,-526 4519.5,-478 4519.5,-478 4519.5,-472 4525.5,-466 4531.5,-466 4531.5,-466 4830.5,-466 4830.5,-466 4836.5,-466 4842.5,-472 4842.5,-478 4842.5,-478 4842.5,-526 4842.5,-526 4842.5,-532 4836.5,-538 4830.5,-538"/>
<text text-anchor="middle" x="4681" y="-495.8" font-family="Courier-Bold" font-size="24.00">deployment/ssp&#45;operator</text>
</g>
<!-- deployment/virt&#45;template&#45;validator -->
<g id="node33" class="node">
<title>deployment/virt&#45;template&#45;validator</title>
<path fill="none" stroke="black" d="M5926,-628C5926,-628 5507,-628 5507,-628 5501,-628 5495,-622 5495,-616 5495,-616 5495,-568 5495,-568 5495,-562 5501,-556 5507,-556 5507,-556 5926,-556 5926,-556 5932,-556 5938,-562 5938,-568 5938,-568 5938,-616 5938,-616 5938,-622 5932,-628 5926,-628"/>
<text text-anchor="middle" x="5716.5" y="-585.8" font-family="Courier-Bold" font-size="24.00">deployment/virt&#45;template&#45;validator</text>
</g>
<!-- CDI/cdi&#45;kubevirt&#45;hyperconverged&#45;&gt;deployment/virt&#45;template&#45;validator -->
<!-- CDIConfig/config -->
<g id="node27" class="node">
<title>CDIConfig/config</title>
<path fill="none" stroke="black" d="M5290,-538C5290,-538 5097,-538 5097,-538 5091,-538 5085,-532 5085,-526 5085,-526 5085,-478 5085,-478 5085,-472 5091,-466 5097,-466 5097,-466 5290,-466 5290,-466 5296,-466 5302,-472 5302,-478 5302,-478 5302,-526 5302,-526 5302,-532 5296,-538 5290,-538"/>
<text text-anchor="middle" x="5193.5" y="-495.8" font-family="Courier-Bold" font-size="24.00">CDIConfig/config</text>
</g>
<!-- deployment/cdi&#45;apiserver -->
<g id="node28" class="node">
<title>deployment/cdi&#45;apiserver</title>
<path fill="none" stroke="black" d="M5344.5,-448C5344.5,-448 5042.5,-448 5042.5,-448 5036.5,-448 5030.5,-442 5030.5,-436 5030.5,-436 5030.5,-388 5030.5,-388 5030.5,-382 5036.5,-376 5042.5,-376 5042.5,-376 5344.5,-376 5344.5,-376 5350.5,-376 5356.5,-382 5356.5,-388 5356.5,-388 5356.5,-436 5356.5,-436 5356.5,-442 5350.5,-448 5344.5,-448"/>
<text text-anchor="middle" x="5193.5" y="-405.8" font-family="Courier-Bold" font-size="24.00">deployment/cdi&#45;apiserver</text>
</g>
<!-- deployment/cdi&#45;deployment -->
<g id="node29" class="node">
<title>deployment/cdi&#45;deployment</title>
<path fill="none" stroke="black" d="M5360,-358C5360,-358 5027,-358 5027,-358 5021,-358 5015,-352 5015,-346 5015,-346 5015,-298 5015,-298 5015,-292 5021,-286 5027,-286 5027,-286 5360,-286 5360,-286 5366,-286 5372,-292 5372,-298 5372,-298 5372,-346 5372,-346 5372,-352 5366,-358 5360,-358"/>
<text text-anchor="middle" x="5193.5" y="-315.8" font-family="Courier-Bold" font-size="24.00">deployment/cdi&#45;deployment</text>
</g>
<!-- deployment/cdi&#45;operator -->
<g id="node30" class="node">
<title>deployment/cdi&#45;operator</title>
<path fill="none" stroke="black" d="M5340,-268C5340,-268 5047,-268 5047,-268 5041,-268 5035,-262 5035,-256 5035,-256 5035,-208 5035,-208 5035,-202 5041,-196 5047,-196 5047,-196 5340,-196 5340,-196 5346,-196 5352,-202 5352,-208 5352,-208 5352,-256 5352,-256 5352,-262 5346,-268 5340,-268"/>
<text text-anchor="middle" x="5193.5" y="-225.8" font-family="Courier-Bold" font-size="24.00">deployment/cdi&#45;operator</text>
</g>
<!-- deployment/cdi&#45;uploadproxy -->
<g id="node31" class="node">
<title>deployment/cdi&#45;uploadproxy</title>
<path fill="none" stroke="black" d="M5362.5,-178C5362.5,-178 5024.5,-178 5024.5,-178 5018.5,-178 5012.5,-172 5012.5,-166 5012.5,-166 5012.5,-118 5012.5,-118 5012.5,-112 5018.5,-106 5024.5,-106 5024.5,-106 5362.5,-106 5362.5,-106 5368.5,-106 5374.5,-112 5374.5,-118 5374.5,-118 5374.5,-166 5374.5,-166 5374.5,-172 5368.5,-178 5362.5,-178"/>
<text text-anchor="middle" x="5193.5" y="-135.8" font-family="Courier-Bold" font-size="24.00">deployment/cdi&#45;uploadproxy</text>
</g>
<!-- deployment/hostpath&#45;provisioner&#45;operator -->
<g id="node32" class="node">
<title>deployment/hostpath&#45;provisioner&#45;operator</title>
<path fill="none" stroke="black" d="M5447,-88C5447,-88 4940,-88 4940,-88 4934,-88 4928,-82 4928,-76 4928,-76 4928,-28 4928,-28 4928,-22 4934,-16 4940,-16 4940,-16 5447,-16 5447,-16 5453,-16 5459,-22 5459,-28 5459,-28 5459,-76 5459,-76 5459,-82 5453,-88 5447,-88"/>
<text text-anchor="middle" x="5193.5" y="-45.8" font-family="Courier-Bold" font-size="24.00">deployment/hostpath&#45;provisioner&#45;operator</text>
</g>
<!-- HyperConverged/kubevirt&#45;hyperconverged -->
<g id="node34" class="node">
<title>HyperConverged/kubevirt&#45;hyperconverged</title>
<path fill="none" stroke="black" d="M6493,-628C6493,-628 5986,-628 5986,-628 5980,-628 5974,-622 5974,-616 5974,-616 5974,-568 5974,-568 5974,-562 5980,-556 5986,-556 5986,-556 6493,-556 6493,-556 6499,-556 6505,-562 6505,-568 6505,-568 6505,-616 6505,-616 6505,-622 6499,-628 6493,-628"/>
<text text-anchor="middle" x="6239.5" y="-585.8" font-family="Courier-Bold" font-size="24.00">HyperConverged/kubevirt&#45;hyperconverged</text>
</g>
<!-- deployment/virt&#45;template&#45;validator&#45;&gt;HyperConverged/kubevirt&#45;hyperconverged -->
</g>
</svg>
