<?xml version="1.0" encoding="UTF-8" standalone="no"?>
<!DOCTYPE svg PUBLIC "-//W3C//DTD SVG 1.1//EN"
 "http://www.w3.org/Graphics/SVG/1.1/DTD/svg11.dtd">
<!-- Generated by graphviz version 2.44.0 (0)
 -->
<!-- Title: managed&#45;by Pages: 1 -->
<svg width="2547pt" height="1847pt"
 viewBox="14.40 14.40 2532.40 1832.40" xmlns="http://www.w3.org/2000/svg" xmlns:xlink="http://www.w3.org/1999/xlink">
<g id="graph0" class="graph" transform="scale(1 1) rotate(0) translate(18.4 1828.4)">
<title>managed&#45;by</title>
<polygon fill="white" stroke="transparent" points="-4,4 -4,-1814 2514,-1814 2514,4 -4,4"/>
<!-- HyperConverged/kubevirt&#45;hyperconverged -->
<g id="node1" class="node">
<title>HyperConverged/kubevirt&#45;hyperconverged</title>
<path fill="none" stroke="black" d="M519,-625C519,-625 12,-625 12,-625 6,-625 0,-619 0,-613 0,-613 0,-565 0,-565 0,-559 6,-553 12,-553 12,-553 519,-553 519,-553 525,-553 531,-559 531,-565 531,-565 531,-613 531,-613 531,-619 525,-625 519,-625"/>
<text text-anchor="middle" x="265.5" y="-582.8" font-family="Courier-Bold" font-size="24.00">HyperConverged/kubevirt&#45;hyperconverged</text>
</g>
<!-- KubeVirt/kubevirt&#45;kubevirt&#45;hyperconverged -->
<g id="node2" class="node">
<title>KubeVirt/kubevirt&#45;kubevirt&#45;hyperconverged</title>
<path fill="none" stroke="black" d="M2090,-1810C2090,-1810 1576,-1810 1576,-1810 1570,-1810 1564,-1804 1564,-1798 1564,-1798 1564,-1750 1564,-1750 1564,-1744 1570,-1738 1576,-1738 1576,-1738 2090,-1738 2090,-1738 2096,-1738 2102,-1744 2102,-1750 2102,-1750 2102,-1798 2102,-1798 2102,-1804 2096,-1810 2090,-1810"/>
<text text-anchor="middle" x="1833" y="-1767.8" font-family="Courier-Bold" font-size="24.00">KubeVirt/kubevirt&#45;kubevirt&#45;hyperconverged</text>
</g>
<!-- deployment/hco&#45;operator -->
<g id="node3" class="node">
<title>deployment/hco&#45;operator</title>
<path fill="none" stroke="black" d="M1175,-1533C1175,-1533 873,-1533 873,-1533 867,-1533 861,-1527 861,-1521 861,-1521 861,-1473 861,-1473 861,-1467 867,-1461 873,-1461 873,-1461 1175,-1461 1175,-1461 1181,-1461 1187,-1467 1187,-1473 1187,-1473 1187,-1521 1187,-1521 1187,-1527 1181,-1533 1175,-1533"/>
<text text-anchor="middle" x="1024" y="-1490.8" font-family="Courier-Bold" font-size="24.00">deployment/hco&#45;operator</text>
</g>
<!-- deployment/hco&#45;operator&#45;&gt;KubeVirt/kubevirt&#45;kubevirt&#45;hyperconverged -->
<g id="edge1" class="edge">
<title>deployment/hco&#45;operator&#45;&gt;KubeVirt/kubevirt&#45;kubevirt&#45;hyperconverged</title>
<path fill="none" stroke="black" d="M1187.35,-1488.79C1249.02,-1492.32 1317.68,-1504.81 1373,-1537 1466.74,-1591.55 1423.59,-1678.9 1517,-1734 1525.97,-1739.29 1535.33,-1744.02 1544.98,-1748.24"/>
<polygon fill="black" stroke="black" points="1563.85,-1755.74 1541.94,-1756.72 1554.56,-1752.05 1545.26,-1748.35 1545.26,-1748.35 1545.26,-1748.35 1554.56,-1752.05 1548.59,-1739.99 1563.85,-1755.74 1563.85,-1755.74"/>
</g>
<!-- SSP/ssp&#45;kubevirt&#45;hyperconverged -->
<g id="node4" class="node">
<title>SSP/ssp&#45;kubevirt&#45;hyperconverged</title>
<path fill="none" stroke="black" d="M2032,-1731C2032,-1731 1634,-1731 1634,-1731 1628,-1731 1622,-1725 1622,-1719 1622,-1719 1622,-1671 1622,-1671 1622,-1665 1628,-1659 1634,-1659 1634,-1659 2032,-1659 2032,-1659 2038,-1659 2044,-1665 2044,-1671 2044,-1671 2044,-1719 2044,-1719 2044,-1725 2038,-1731 2032,-1731"/>
<text text-anchor="middle" x="1833" y="-1688.8" font-family="Courier-Bold" font-size="24.00">SSP/ssp&#45;kubevirt&#45;hyperconverged</text>
</g>
<!-- deployment/hco&#45;operator&#45;&gt;SSP/ssp&#45;kubevirt&#45;hyperconverged -->
<g id="edge2" class="edge">
<title>deployment/hco&#45;operator&#45;&gt;SSP/ssp&#45;kubevirt&#45;hyperconverged</title>
<path fill="none" stroke="black" d="M1187.08,-1496.58C1247.39,-1501.28 1315.18,-1512.52 1373,-1537 1449.2,-1569.26 1441,-1622.29 1517,-1655 1543.66,-1666.48 1572.69,-1674.92 1601.97,-1681.1"/>
<polygon fill="black" stroke="black" points="1621.74,-1684.93 1600.39,-1689.96 1611.92,-1683.03 1602.11,-1681.13 1602.11,-1681.13 1602.11,-1681.13 1611.92,-1683.03 1603.82,-1672.29 1621.74,-1684.93 1621.74,-1684.93"/>
</g>
<!-- CDI/cdi&#45;kubevirt&#45;hyperconverged -->
<g id="node5" class="node">
<title>CDI/cdi&#45;kubevirt&#45;hyperconverged</title>
<path fill="none" stroke="black" d="M2028.5,-1652C2028.5,-1652 1637.5,-1652 1637.5,-1652 1631.5,-1652 1625.5,-1646 1625.5,-1640 1625.5,-1640 1625.5,-1592 1625.5,-1592 1625.5,-1586 1631.5,-1580 1637.5,-1580 1637.5,-1580 2028.5,-1580 2028.5,-1580 2034.5,-1580 2040.5,-1586 2040.5,-1592 2040.5,-1592 2040.5,-1640 2040.5,-1640 2040.5,-1646 2034.5,-1652 2028.5,-1652"/>
<text text-anchor="middle" x="1833" y="-1609.8" font-family="Courier-Bold" font-size="24.00">CDI/cdi&#45;kubevirt&#45;hyperconverged</text>
</g>
<!-- deployment/hco&#45;operator&#45;&gt;CDI/cdi&#45;kubevirt&#45;hyperconverged -->
<g id="edge3" class="edge">
<title>deployment/hco&#45;operator&#45;&gt;CDI/cdi&#45;kubevirt&#45;hyperconverged</title>
<path fill="none" stroke="black" d="M1187.33,-1510.56C1246.12,-1516.81 1312.83,-1525.46 1373,-1537 1438.12,-1549.49 1451.96,-1563.13 1517,-1576 1545.48,-1581.64 1575.57,-1586.65 1605.4,-1591.05"/>
<polygon fill="black" stroke="black" points="1625.47,-1593.93 1604.39,-1600 1615.57,-1592.51 1605.67,-1591.09 1605.67,-1591.09 1605.67,-1591.09 1615.57,-1592.51 1606.95,-1582.18 1625.47,-1593.93 1625.47,-1593.93"/>
</g>
<!-- NetworkAddonsConfig/cluster -->
<g id="node8" class="node">
<title>NetworkAddonsConfig/cluster</title>
<path fill="none" stroke="black" d="M2008,-1573C2008,-1573 1658,-1573 1658,-1573 1652,-1573 1646,-1567 1646,-1561 1646,-1561 1646,-1513 1646,-1513 1646,-1507 1652,-1501 1658,-1501 1658,-1501 2008,-1501 2008,-1501 2014,-1501 2020,-1507 2020,-1513 2020,-1513 2020,-1561 2020,-1561 2020,-1567 2014,-1573 2008,-1573"/>
<text text-anchor="middle" x="1833" y="-1530.8" font-family="Courier-Bold" font-size="24.00">NetworkAddonsConfig/cluster</text>
</g>
<!-- deployment/hco&#45;operator&#45;&gt;NetworkAddonsConfig/cluster -->
<g id="edge5" class="edge">
<title>deployment/hco&#45;operator&#45;&gt;NetworkAddonsConfig/cluster</title>
<path fill="none" stroke="black" d="M1187.34,-1505.05C1313.55,-1511.3 1489.49,-1520.02 1625.69,-1526.77"/>
<polygon fill="black" stroke="black" points="1645.91,-1527.78 1625.49,-1535.77 1635.92,-1527.28 1625.93,-1526.79 1625.93,-1526.79 1625.93,-1526.79 1635.92,-1527.28 1626.38,-1517.8 1645.91,-1527.78 1645.91,-1527.78"/>
</g>
<!-- deployment/kubevirt&#45;apiserver&#45;proxy -->
<g id="node21" class="node">
<title>deployment/kubevirt&#45;apiserver&#45;proxy</title>
<path fill="none" stroke="black" d="M2053,-1494C2053,-1494 1613,-1494 1613,-1494 1607,-1494 1601,-1488 1601,-1482 1601,-1482 1601,-1434 1601,-1434 1601,-1428 1607,-1422 1613,-1422 1613,-1422 2053,-1422 2053,-1422 2059,-1422 2065,-1428 2065,-1434 2065,-1434 2065,-1482 2065,-1482 2065,-1488 2059,-1494 2053,-1494"/>
<text text-anchor="middle" x="1833" y="-1451.8" font-family="Courier-Bold" font-size="24.00">deployment/kubevirt&#45;apiserver&#45;proxy</text>
</g>
<!-- deployment/hco&#45;operator&#45;&gt;deployment/kubevirt&#45;apiserver&#45;proxy -->
<g id="edge19" class="edge">
<title>deployment/hco&#45;operator&#45;&gt;deployment/kubevirt&#45;apiserver&#45;proxy</title>
<path fill="none" stroke="black" d="M1187.34,-1489.15C1299.95,-1483.71 1452.14,-1476.36 1580.37,-1470.16"/>
<polygon fill="black" stroke="black" points="1600.74,-1469.18 1581.2,-1479.13 1590.75,-1469.66 1580.76,-1470.14 1580.76,-1470.14 1580.76,-1470.14 1590.75,-1469.66 1580.33,-1461.15 1600.74,-1469.18 1600.74,-1469.18"/>
</g>
<!-- deployment/kubevirt&#45;console&#45;plugin -->
<g id="node22" class="node">
<title>deployment/kubevirt&#45;console&#45;plugin</title>
<path fill="none" stroke="black" d="M2047,-1415C2047,-1415 1619,-1415 1619,-1415 1613,-1415 1607,-1409 1607,-1403 1607,-1403 1607,-1355 1607,-1355 1607,-1349 1613,-1343 1619,-1343 1619,-1343 2047,-1343 2047,-1343 2053,-1343 2059,-1349 2059,-1355 2059,-1355 2059,-1403 2059,-1403 2059,-1409 2053,-1415 2047,-1415"/>
<text text-anchor="middle" x="1833" y="-1372.8" font-family="Courier-Bold" font-size="24.00">deployment/kubevirt&#45;console&#45;plugin</text>
</g>
<!-- deployment/hco&#45;operator&#45;&gt;deployment/kubevirt&#45;console&#45;plugin -->
<g id="edge20" class="edge">
<title>deployment/hco&#45;operator&#45;&gt;deployment/kubevirt&#45;console&#45;plugin</title>
<path fill="none" stroke="black" d="M1187.13,-1470C1282.97,-1454.37 1406.77,-1434.73 1517,-1419 1539.7,-1415.76 1563.35,-1412.52 1587.02,-1409.36"/>
<polygon fill="black" stroke="black" points="1606.9,-1406.72 1588.26,-1418.27 1596.99,-1408.04 1587.08,-1409.35 1587.08,-1409.35 1587.08,-1409.35 1596.99,-1408.04 1585.89,-1400.43 1606.9,-1406.72 1606.9,-1406.72"/>
</g>
<!-- deployment/virt&#45;network&#45;resources&#45;injector -->
<g id="node32" class="node">
<title>deployment/virt&#45;network&#45;resources&#45;injector</title>
<path fill="none" stroke="black" d="M2092.5,-1336C2092.5,-1336 1573.5,-1336 1573.5,-1336 1567.5,-1336 1561.5,-1330 1561.5,-1324 1561.5,-1324 1561.5,-1276 1561.5,-1276 1561.5,-1270 1567.5,-1264 1573.5,-1264 1573.5,-1264 2092.5,-1264 2092.5,-1264 2098.5,-1264 2104.5,-1270 2104.5,-1276 2104.5,-1276 2104.5,-1324 2104.5,-1324 2104.5,-1330 2098.5,-1336 2092.5,-1336"/>
<text text-anchor="middle" x="1833" y="-1293.8" font-family="Courier-Bold" font-size="24.00">deployment/virt&#45;network&#45;resources&#45;injector</text>
</g>
<!-- deployment/hco&#45;operator&#45;&gt;deployment/virt&#45;network&#45;resources&#45;injector -->
<g id="edge28" class="edge">
<title>deployment/hco&#45;operator&#45;&gt;deployment/virt&#45;network&#45;resources&#45;injector</title>
<path fill="none" stroke="black" d="M1120.2,-1460.89C1218.28,-1425.06 1376.27,-1371.12 1517,-1340 1524.99,-1338.23 1533.11,-1336.54 1541.32,-1334.91"/>
<polygon fill="black" stroke="black" points="1561.24,-1331.12 1543.27,-1343.7 1551.42,-1332.99 1541.59,-1334.86 1541.59,-1334.86 1541.59,-1334.86 1551.42,-1332.99 1539.91,-1326.02 1561.24,-1331.12 1561.24,-1331.12"/>
</g>
<!-- CDIConfig/config -->
<g id="node6" class="node">
<title>CDIConfig/config</title>
<path fill="none" stroke="black" d="M2498,-1257C2498,-1257 2305,-1257 2305,-1257 2299,-1257 2293,-1251 2293,-1245 2293,-1245 2293,-1197 2293,-1197 2293,-1191 2299,-1185 2305,-1185 2305,-1185 2498,-1185 2498,-1185 2504,-1185 2510,-1191 2510,-1197 2510,-1197 2510,-1245 2510,-1245 2510,-1251 2504,-1257 2498,-1257"/>
<text text-anchor="middle" x="2401.5" y="-1214.8" font-family="Courier-Bold" font-size="24.00">CDIConfig/config</text>
</g>
<!-- deployment/cdi&#45;deployment -->
<g id="node7" class="node">
<title>deployment/cdi&#45;deployment</title>
<path fill="none" stroke="black" d="M1999.5,-1257C1999.5,-1257 1666.5,-1257 1666.5,-1257 1660.5,-1257 1654.5,-1251 1654.5,-1245 1654.5,-1245 1654.5,-1197 1654.5,-1197 1654.5,-1191 1660.5,-1185 1666.5,-1185 1666.5,-1185 1999.5,-1185 1999.5,-1185 2005.5,-1185 2011.5,-1191 2011.5,-1197 2011.5,-1197 2011.5,-1245 2011.5,-1245 2011.5,-1251 2005.5,-1257 1999.5,-1257"/>
<text text-anchor="middle" x="1833" y="-1214.8" font-family="Courier-Bold" font-size="24.00">deployment/cdi&#45;deployment</text>
</g>
<!-- deployment/cdi&#45;deployment&#45;&gt;CDIConfig/config -->
<g id="edge4" class="edge">
<title>deployment/cdi&#45;deployment&#45;&gt;CDIConfig/config</title>
<path fill="none" stroke="black" d="M2011.69,-1221C2096.28,-1221 2195.54,-1221 2272.59,-1221"/>
<polygon fill="black" stroke="black" points="2292.69,-1221 2272.69,-1230 2282.69,-1221 2272.69,-1221 2272.69,-1221 2272.69,-1221 2282.69,-1221 2272.69,-1212 2292.69,-1221 2292.69,-1221"/>
</g>
<!-- deployment/aaq&#45;operator -->
<g id="node9" class="node">
<title>deployment/aaq&#45;operator</title>
<path fill="none" stroke="black" d="M1175.5,-1178C1175.5,-1178 872.5,-1178 872.5,-1178 866.5,-1178 860.5,-1172 860.5,-1166 860.5,-1166 860.5,-1118 860.5,-1118 860.5,-1112 866.5,-1106 872.5,-1106 872.5,-1106 1175.5,-1106 1175.5,-1106 1181.5,-1106 1187.5,-1112 1187.5,-1118 1187.5,-1118 1187.5,-1166 1187.5,-1166 1187.5,-1172 1181.5,-1178 1175.5,-1178"/>
<text text-anchor="middle" x="1024" y="-1135.8" font-family="Courier-Bold" font-size="24.00">deployment/aaq&#45;operator</text>
</g>
<!-- olm -->
<g id="node10" class="node">
<title>olm</title>
<path fill="none" stroke="black" d="M361.5,-704C361.5,-704 169.5,-704 169.5,-704 163.5,-704 157.5,-698 157.5,-692 157.5,-692 157.5,-644 157.5,-644 157.5,-638 163.5,-632 169.5,-632 169.5,-632 361.5,-632 361.5,-632 367.5,-632 373.5,-638 373.5,-644 373.5,-644 373.5,-692 373.5,-692 373.5,-698 367.5,-704 361.5,-704"/>
<text text-anchor="middle" x="265.5" y="-661.8" font-family="Courier-Bold" font-size="24.00">olm</text>
</g>
<!-- olm&#45;&gt;deployment/hco&#45;operator -->
<g id="edge12" class="edge">
<title>olm&#45;&gt;deployment/hco&#45;operator</title>
<path fill="none" stroke="black" d="M292.14,-704.13C353.91,-790.26 517.54,-1012.99 675,-1181 769.62,-1281.95 891.55,-1387.79 963.11,-1447.76"/>
<polygon fill="black" stroke="black" points="978.88,-1460.92 957.76,-1455.02 971.2,-1454.51 963.52,-1448.11 963.52,-1448.11 963.52,-1448.11 971.2,-1454.51 969.29,-1441.19 978.88,-1460.92 978.88,-1460.92"/>
</g>
<!-- olm&#45;&gt;deployment/aaq&#45;operator -->
<g id="edge6" class="edge">
<title>olm&#45;&gt;deployment/aaq&#45;operator</title>
<path fill="none" stroke="black" d="M287.83,-704.31C340.76,-790.63 487.49,-1007.91 675,-1102 725.35,-1127.26 784.82,-1139.48 840.22,-1144.79"/>
<polygon fill="black" stroke="black" points="860.42,-1146.44 839.76,-1153.78 850.46,-1145.62 840.49,-1144.81 840.49,-1144.81 840.49,-1144.81 850.46,-1145.62 841.22,-1135.84 860.42,-1146.44 860.42,-1146.44"/>
</g>
<!-- deployment/cdi&#45;operator -->
<g id="node12" class="node">
<title>deployment/cdi&#45;operator</title>
<path fill="none" stroke="black" d="M1170.5,-1099C1170.5,-1099 877.5,-1099 877.5,-1099 871.5,-1099 865.5,-1093 865.5,-1087 865.5,-1087 865.5,-1039 865.5,-1039 865.5,-1033 871.5,-1027 877.5,-1027 877.5,-1027 1170.5,-1027 1170.5,-1027 1176.5,-1027 1182.5,-1033 1182.5,-1039 1182.5,-1039 1182.5,-1087 1182.5,-1087 1182.5,-1093 1176.5,-1099 1170.5,-1099"/>
<text text-anchor="middle" x="1024" y="-1056.8" font-family="Courier-Bold" font-size="24.00">deployment/cdi&#45;operator</text>
</g>
<!-- olm&#45;&gt;deployment/cdi&#45;operator -->
<g id="edge9" class="edge">
<title>olm&#45;&gt;deployment/cdi&#45;operator</title>
<path fill="none" stroke="black" d="M311.21,-704.1C383.85,-761.34 533.63,-873.63 675,-944 737.16,-974.94 809.3,-1001.07 871.73,-1020.89"/>
<polygon fill="black" stroke="black" points="891.2,-1026.96 869.43,-1029.59 881.66,-1023.98 872.11,-1021 872.11,-1021 872.11,-1021 881.66,-1023.98 874.79,-1012.41 891.2,-1026.96 891.2,-1026.96"/>
</g>
<!-- deployment/cluster&#45;network&#45;addons&#45;operator -->
<g id="node14" class="node">
<title>deployment/cluster&#45;network&#45;addons&#45;operator</title>
<path fill="none" stroke="black" d="M1295.5,-941C1295.5,-941 752.5,-941 752.5,-941 746.5,-941 740.5,-935 740.5,-929 740.5,-929 740.5,-881 740.5,-881 740.5,-875 746.5,-869 752.5,-869 752.5,-869 1295.5,-869 1295.5,-869 1301.5,-869 1307.5,-875 1307.5,-881 1307.5,-881 1307.5,-929 1307.5,-929 1307.5,-935 1301.5,-941 1295.5,-941"/>
<text text-anchor="middle" x="1024" y="-898.8" font-family="Courier-Bold" font-size="24.00">deployment/cluster&#45;network&#45;addons&#45;operator</text>
</g>
<!-- olm&#45;&gt;deployment/cluster&#45;network&#45;addons&#45;operator -->
<g id="edge11" class="edge">
<title>olm&#45;&gt;deployment/cluster&#45;network&#45;addons&#45;operator</title>
<path fill="none" stroke="black" d="M325.21,-704.15C402.39,-749.8 543.6,-826.94 675,-865 689.79,-869.28 705.05,-873.11 720.55,-876.53"/>
<polygon fill="black" stroke="black" points="740.3,-880.64 718.89,-885.37 730.51,-878.6 720.72,-876.56 720.72,-876.56 720.72,-876.56 730.51,-878.6 722.56,-867.75 740.3,-880.64 740.3,-880.64"/>
</g>
<!-- deployment/hco&#45;webhook -->
<g id="node15" class="node">
<title>deployment/hco&#45;webhook</title>
<path fill="none" stroke="black" d="M1177,-862C1177,-862 871,-862 871,-862 865,-862 859,-856 859,-850 859,-850 859,-802 859,-802 859,-796 865,-790 871,-790 871,-790 1177,-790 1177,-790 1183,-790 1189,-796 1189,-802 1189,-802 1189,-850 1189,-850 1189,-856 1183,-862 1177,-862"/>
<text text-anchor="middle" x="1024" y="-819.8" font-family="Courier-Bold" font-size="24.00">deployment/hco&#45;webhook</text>
</g>
<!-- olm&#45;&gt;deployment/hco&#45;webhook -->
<g id="edge13" class="edge">
<title>olm&#45;&gt;deployment/hco&#45;webhook</title>
<path fill="none" stroke="black" d="M373.23,-704.14C454.95,-730.5 570.95,-765.14 675,-786 727.74,-796.57 785.58,-804.61 838.7,-810.61"/>
<polygon fill="black" stroke="black" points="858.81,-812.81 837.94,-819.58 848.86,-811.72 838.92,-810.64 838.92,-810.64 838.92,-810.64 848.86,-811.72 839.9,-801.69 858.81,-812.81 858.81,-812.81"/>
</g>
<!-- deployment/hostpath&#45;provisioner&#45;operator -->
<g id="node16" class="node">
<title>deployment/hostpath&#45;provisioner&#45;operator</title>
<path fill="none" stroke="black" d="M1277.5,-783C1277.5,-783 770.5,-783 770.5,-783 764.5,-783 758.5,-777 758.5,-771 758.5,-771 758.5,-723 758.5,-723 758.5,-717 764.5,-711 770.5,-711 770.5,-711 1277.5,-711 1277.5,-711 1283.5,-711 1289.5,-717 1289.5,-723 1289.5,-723 1289.5,-771 1289.5,-771 1289.5,-777 1283.5,-783 1277.5,-783"/>
<text text-anchor="middle" x="1024" y="-740.8" font-family="Courier-Bold" font-size="24.00">deployment/hostpath&#45;provisioner&#45;operator</text>
</g>
<!-- olm&#45;&gt;deployment/hostpath&#45;provisioner&#45;operator -->
<g id="edge14" class="edge">
<title>olm&#45;&gt;deployment/hostpath&#45;provisioner&#45;operator</title>
<path fill="none" stroke="black" d="M373.68,-679.19C468.48,-689.09 611.12,-703.99 738.59,-717.3"/>
<polygon fill="black" stroke="black" points="758.5,-719.38 737.67,-726.25 748.55,-718.34 738.6,-717.3 738.6,-717.3 738.6,-717.3 748.55,-718.34 739.54,-708.35 758.5,-719.38 758.5,-719.38"/>
</g>
<!-- deployment/hyperconverged&#45;cluster&#45;cli&#45;download -->
<g id="node17" class="node">
<title>deployment/hyperconverged&#45;cluster&#45;cli&#45;download</title>
<path fill="none" stroke="black" d="M1320,-704C1320,-704 728,-704 728,-704 722,-704 716,-698 716,-692 716,-692 716,-644 716,-644 716,-638 722,-632 728,-632 728,-632 1320,-632 1320,-632 1326,-632 1332,-638 1332,-644 1332,-644 1332,-692 1332,-692 1332,-698 1326,-704 1320,-704"/>
<text text-anchor="middle" x="1024" y="-661.8" font-family="Courier-Bold" font-size="24.00">deployment/hyperconverged&#45;cluster&#45;cli&#45;download</text>
</g>
<!-- olm&#45;&gt;deployment/hyperconverged&#45;cluster&#45;cli&#45;download -->
<g id="edge15" class="edge">
<title>olm&#45;&gt;deployment/hyperconverged&#45;cluster&#45;cli&#45;download</title>
<path fill="none" stroke="black" d="M373.68,-668C457.88,-668 579.84,-668 695.38,-668"/>
<polygon fill="black" stroke="black" points="715.73,-668 695.73,-677 705.73,-668 695.73,-668 695.73,-668 695.73,-668 705.73,-668 695.73,-659 715.73,-668 715.73,-668"/>
</g>
<!-- deployment/inflightoperations&#45;controller&#45;manager -->
<g id="node18" class="node">
<title>deployment/inflightoperations&#45;controller&#45;manager</title>
<path fill="none" stroke="black" d="M1322.5,-625C1322.5,-625 725.5,-625 725.5,-625 719.5,-625 713.5,-619 713.5,-613 713.5,-613 713.5,-565 713.5,-565 713.5,-559 719.5,-553 725.5,-553 725.5,-553 1322.5,-553 1322.5,-553 1328.5,-553 1334.5,-559 1334.5,-565 1334.5,-565 1334.5,-613 1334.5,-613 1334.5,-619 1328.5,-625 1322.5,-625"/>
<text text-anchor="middle" x="1024" y="-582.8" font-family="Courier-Bold" font-size="24.00">deployment/inflightoperations&#45;controller&#45;manager</text>
</g>
<!-- olm&#45;&gt;deployment/inflightoperations&#45;controller&#45;manager -->
<g id="edge16" class="edge">
<title>olm&#45;&gt;deployment/inflightoperations&#45;controller&#45;manager</title>
<path fill="none" stroke="black" d="M373.68,-656.81C457.31,-648.07 578.17,-635.45 693,-623.46"/>
<polygon fill="black" stroke="black" points="713.23,-621.35 694.28,-632.38 703.29,-622.39 693.34,-623.43 693.34,-623.43 693.34,-623.43 703.29,-622.39 692.41,-614.47 713.23,-621.35 713.23,-621.35"/>
</g>
<!-- deployment/kubevirt&#45;migration&#45;operator -->
<g id="node26" class="node">
<title>deployment/kubevirt&#45;migration&#45;operator</title>
<path fill="none" stroke="black" d="M1265,-546C1265,-546 783,-546 783,-546 777,-546 771,-540 771,-534 771,-534 771,-486 771,-486 771,-480 777,-474 783,-474 783,-474 1265,-474 1265,-474 1271,-474 1277,-480 1277,-486 1277,-486 1277,-534 1277,-534 1277,-540 1271,-546 1265,-546"/>
<text text-anchor="middle" x="1024" y="-503.8" font-family="Courier-Bold" font-size="24.00">deployment/kubevirt&#45;migration&#45;operator</text>
</g>
<!-- olm&#45;&gt;deployment/kubevirt&#45;migration&#45;operator -->
<g id="edge23" class="edge">
<title>olm&#45;&gt;deployment/kubevirt&#45;migration&#45;operator</title>
<path fill="none" stroke="black" d="M373.7,-660.29C422.6,-654.63 480.69,-644.85 531,-628 600.02,-604.88 605.58,-571.89 675,-550 699.26,-542.35 724.89,-536.13 750.79,-531.08"/>
<polygon fill="black" stroke="black" points="770.63,-527.44 752.58,-539.9 760.79,-529.25 750.96,-531.05 750.96,-531.05 750.96,-531.05 760.79,-529.25 749.33,-522.2 770.63,-527.44 770.63,-527.44"/>
</g>
<!-- deployment/ssp&#45;operator -->
<g id="node27" class="node">
<title>deployment/ssp&#45;operator</title>
<path fill="none" stroke="black" d="M1173.5,-467C1173.5,-467 874.5,-467 874.5,-467 868.5,-467 862.5,-461 862.5,-455 862.5,-455 862.5,-407 862.5,-407 862.5,-401 868.5,-395 874.5,-395 874.5,-395 1173.5,-395 1173.5,-395 1179.5,-395 1185.5,-401 1185.5,-407 1185.5,-407 1185.5,-455 1185.5,-455 1185.5,-461 1179.5,-467 1173.5,-467"/>
<text text-anchor="middle" x="1024" y="-424.8" font-family="Courier-Bold" font-size="24.00">deployment/ssp&#45;operator</text>
</g>
<!-- olm&#45;&gt;deployment/ssp&#45;operator -->
<g id="edge24" class="edge">
<title>olm&#45;&gt;deployment/ssp&#45;operator</title>
<path fill="none" stroke="black" d="M373.66,-667.99C423.92,-664.05 483.14,-653.49 531,-628 614.57,-583.5 590.65,-514.01 675,-471 725.9,-445.05 786.3,-432.76 842.38,-427.6"/>
<polygon fill="black" stroke="black" points="862.42,-426.03 843.18,-436.56 852.45,-426.81 842.48,-427.59 842.48,-427.59 842.48,-427.59 852.45,-426.81 841.78,-418.62 862.42,-426.03 862.42,-426.03"/>
</g>
<!-- deployment/virt&#45;operator -->
<g id="node29" class="node">
<title>deployment/virt&#45;operator</title>
<path fill="none" stroke="black" d="M1173.5,-388C1173.5,-388 874.5,-388 874.5,-388 868.5,-388 862.5,-382 862.5,-376 862.5,-376 862.5,-328 862.5,-328 862.5,-322 868.5,-316 874.5,-316 874.5,-316 1173.5,-316 1173.5,-316 1179.5,-316 1185.5,-322 1185.5,-328 1185.5,-328 1185.5,-376 1185.5,-376 1185.5,-382 1179.5,-388 1173.5,-388"/>
<text text-anchor="middle" x="1024" y="-345.8" font-family="Courier-Bold" font-size="24.00">deployment/virt&#45;operator</text>
</g>
<!-- olm&#45;&gt;deployment/virt&#45;operator -->
<g id="edge29" class="edge">
<title>olm&#45;&gt;deployment/virt&#45;operator</title>
<path fill="none" stroke="black" d="M373.78,-672.14C425.09,-669.29 485.16,-658.46 531,-628 633.34,-559.99 571.47,-458.17 675,-392 724.05,-360.65 785.07,-347.16 842.25,-342.54"/>
<polygon fill="black" stroke="black" points="862.29,-341.26 842.9,-351.52 852.31,-341.9 842.33,-342.54 842.33,-342.54 842.33,-342.54 852.31,-341.9 841.75,-333.55 862.29,-341.26 862.29,-341.26"/>
</g>
<!-- deployment/virt&#45;platform&#45;autopilot -->
<g id="node33" class="node">
<title>deployment/virt&#45;platform&#45;autopilot</title>
<path fill="none" stroke="black" d="M1231,-309C1231,-309 817,-309 817,-309 811,-309 805,-303 805,-297 805,-297 805,-249 805,-249 805,-243 811,-237 817,-237 817,-237 1231,-237 1231,-237 1237,-237 1243,-243 1243,-249 1243,-249 1243,-297 1243,-297 1243,-303 1237,-309 1231,-309"/>
<text text-anchor="middle" x="1024" y="-266.8" font-family="Courier-Bold" font-size="24.00">deployment/virt&#45;platform&#45;autopilot</text>
</g>
<!-- olm&#45;&gt;deployment/virt&#45;platform&#45;autopilot -->
<g id="edge30" class="edge">
<title>olm&#45;&gt;deployment/virt&#45;platform&#45;autopilot</title>
<path fill="none" stroke="black" d="M373.78,-674.52C425.86,-672.39 486.59,-661.48 531,-628 653.91,-535.32 550.46,-403.47 675,-313 707.17,-289.63 745.6,-275.59 785.01,-267.64"/>
<polygon fill="black" stroke="black" points="804.72,-264.16 786.59,-276.5 794.87,-265.9 785.02,-267.64 785.02,-267.64 785.02,-267.64 794.87,-265.9 783.46,-258.77 804.72,-264.16 804.72,-264.16"/>
</g>
<!-- deployment/vm&#45;file&#45;restore&#45;operator&#45;controller&#45;manager -->
<g id="node38" class="node">
<title>deployment/vm&#45;file&#45;restore&#45;operator&#45;controller&#45;manager</title>
<path fill="none" stroke="black" d="M1361,-230C1361,-230 687,-230 687,-230 681,-230 675,-224 675,-218 675,-218 675,-170 675,-170 675,-164 681,-158 687,-158 687,-158 1361,-158 1361,-158 1367,-158 1373,-164 1373,-170 1373,-170 1373,-218 1373,-218 1373,-224 1367,-230 1361,-230"/>
<text text-anchor="middle" x="1024" y="-187.8" font-family="Courier-Bold" font-size="24.00">deployment/vm&#45;file&#45;restore&#45;operator&#45;controller&#45;manager</text>
</g>
<!-- olm&#45;&gt;deployment/vm&#45;file&#45;restore&#45;operator&#45;controller&#45;manager -->
<g id="edge35" class="edge">
<title>olm&#45;&gt;deployment/vm&#45;file&#45;restore&#45;operator&#45;controller&#45;manager</title>
<path fill="none" stroke="black" d="M373.62,-676.02C426.27,-674.4 487.58,-663.49 531,-628 670.14,-514.27 538.79,-360.95 664.79,-243.22"/>
<polygon fill="black" stroke="black" points="680.07,-230.13 670.73,-249.98 672.48,-236.64 664.88,-243.14 664.88,-243.14 664.88,-243.14 672.48,-236.64 659.03,-236.3 680.07,-230.13 680.07,-230.13"/>
</g>
<!-- deployment/cdi&#45;apiserver -->
<g id="node11" class="node">
<title>deployment/cdi&#45;apiserver</title>
<path fill="none" stroke="black" d="M1984,-1178C1984,-1178 1682,-1178 1682,-1178 1676,-1178 1670,-1172 1670,-1166 1670,-1166 1670,-1118 1670,-1118 1670,-1112 1676,-1106 1682,-1106 1682,-1106 1984,-1106 1984,-1106 1990,-1106 1996,-1112 1996,-1118 1996,-1118 1996,-1166 1996,-1166 1996,-1172 1990,-1178 1984,-1178"/>
<text text-anchor="middle" x="1833" y="-1135.8" font-family="Courier-Bold" font-size="24.00">deployment/cdi&#45;apiserver</text>
</g>
<!-- deployment/cdi&#45;operator&#45;&gt;deployment/cdi&#45;deployment -->
<g id="edge8" class="edge">
<title>deployment/cdi&#45;operator&#45;&gt;deployment/cdi&#45;deployment</title>
<path fill="none" stroke="black" d="M1182.7,-1068.37C1243.28,-1073.72 1312.39,-1083.89 1373,-1103 1442.42,-1124.89 1447.71,-1158.7 1517,-1181 1554.15,-1192.96 1594.84,-1201.36 1634.27,-1207.26"/>
<polygon fill="black" stroke="black" points="1654.13,-1210.04 1633.07,-1216.18 1644.22,-1208.65 1634.32,-1207.26 1634.32,-1207.26 1634.32,-1207.26 1644.22,-1208.65 1635.57,-1198.35 1654.13,-1210.04 1654.13,-1210.04"/>
</g>
<!-- deployment/cdi&#45;operator&#45;&gt;deployment/cdi&#45;apiserver -->
<g id="edge7" class="edge">
<title>deployment/cdi&#45;operator&#45;&gt;deployment/cdi&#45;apiserver</title>
<path fill="none" stroke="black" d="M1182.51,-1078.42C1316.54,-1091.54 1509.12,-1110.39 1649.77,-1124.16"/>
<polygon fill="black" stroke="black" points="1669.7,-1126.11 1648.92,-1133.12 1659.75,-1125.14 1649.79,-1124.16 1649.79,-1124.16 1649.79,-1124.16 1659.75,-1125.14 1650.67,-1115.21 1669.7,-1126.11 1669.7,-1126.11"/>
</g>
<!-- deployment/cdi&#45;uploadproxy -->
<g id="node13" class="node">
<title>deployment/cdi&#45;uploadproxy</title>
<path fill="none" stroke="black" d="M2002,-1099C2002,-1099 1664,-1099 1664,-1099 1658,-1099 1652,-1093 1652,-1087 1652,-1087 1652,-1039 1652,-1039 1652,-1033 1658,-1027 1664,-1027 1664,-1027 2002,-1027 2002,-1027 2008,-1027 2014,-1033 2014,-1039 2014,-1039 2014,-1087 2014,-1087 2014,-1093 2008,-1099 2002,-1099"/>
<text text-anchor="middle" x="1833" y="-1056.8" font-family="Courier-Bold" font-size="24.00">deployment/cdi&#45;uploadproxy</text>
</g>
<!-- deployment/cdi&#45;operator&#45;&gt;deployment/cdi&#45;uploadproxy -->
<g id="edge10" class="edge">
<title>deployment/cdi&#45;operator&#45;&gt;deployment/cdi&#45;uploadproxy</title>
<path fill="none" stroke="black" d="M1182.51,-1063C1310.83,-1063 1492.82,-1063 1631.52,-1063"/>
<polygon fill="black" stroke="black" points="1651.66,-1063 1631.66,-1072 1641.66,-1063 1631.66,-1063 1631.66,-1063 1631.66,-1063 1641.66,-1063 1631.66,-1054 1651.66,-1063 1651.66,-1063"/>
</g>
<!-- deployment/kubemacpool&#45;cert&#45;manager -->
<g id="node19" class="node">
<title>deployment/kubemacpool&#45;cert&#45;manager</title>
<path fill="none" stroke="black" d="M2073.5,-1020C2073.5,-1020 1592.5,-1020 1592.5,-1020 1586.5,-1020 1580.5,-1014 1580.5,-1008 1580.5,-1008 1580.5,-960 1580.5,-960 1580.5,-954 1586.5,-948 1592.5,-948 1592.5,-948 2073.5,-948 2073.5,-948 2079.5,-948 2085.5,-954 2085.5,-960 2085.5,-960 2085.5,-1008 2085.5,-1008 2085.5,-1014 2079.5,-1020 2073.5,-1020"/>
<text text-anchor="middle" x="1833" y="-977.8" font-family="Courier-Bold" font-size="24.00">deployment/kubemacpool&#45;cert&#45;manager</text>
</g>
<!-- deployment/cluster&#45;network&#45;addons&#45;operator&#45;&gt;deployment/kubemacpool&#45;cert&#45;manager -->
<g id="edge17" class="edge">
<title>deployment/cluster&#45;network&#45;addons&#45;operator&#45;&gt;deployment/kubemacpool&#45;cert&#45;manager</title>
<path fill="none" stroke="black" d="M1307.53,-932.66C1389.61,-940.69 1479.04,-949.45 1560.42,-957.41"/>
<polygon fill="black" stroke="black" points="1580.38,-959.37 1559.6,-966.38 1570.43,-958.39 1560.48,-957.42 1560.48,-957.42 1560.48,-957.42 1570.43,-958.39 1561.36,-948.46 1580.38,-959.37 1580.38,-959.37"/>
</g>
<!-- deployment/kubemacpool&#45;mac&#45;controller&#45;manager -->
<g id="node20" class="node">
<title>deployment/kubemacpool&#45;mac&#45;controller&#45;manager</title>
<path fill="none" stroke="black" d="M2137,-941C2137,-941 1529,-941 1529,-941 1523,-941 1517,-935 1517,-929 1517,-929 1517,-881 1517,-881 1517,-875 1523,-869 1529,-869 1529,-869 2137,-869 2137,-869 2143,-869 2149,-875 2149,-881 2149,-881 2149,-929 2149,-929 2149,-935 2143,-941 2137,-941"/>
<text text-anchor="middle" x="1833" y="-898.8" font-family="Courier-Bold" font-size="24.00">deployment/kubemacpool&#45;mac&#45;controller&#45;manager</text>
</g>
<!-- deployment/cluster&#45;network&#45;addons&#45;operator&#45;&gt;deployment/kubemacpool&#45;mac&#45;controller&#45;manager -->
<g id="edge18" class="edge">
<title>deployment/cluster&#45;network&#45;addons&#45;operator&#45;&gt;deployment/kubemacpool&#45;mac&#45;controller&#45;manager</title>
<path fill="none" stroke="black" d="M1307.53,-905C1368.53,-905 1433.59,-905 1496.39,-905"/>
<polygon fill="black" stroke="black" points="1516.69,-905 1496.69,-914 1506.69,-905 1496.69,-905 1496.69,-905 1496.69,-905 1506.69,-905 1496.69,-896 1516.69,-905 1516.69,-905"/>
</g>
<!-- deployment/kubevirt&#45;ipam&#45;controller&#45;manager -->
<g id="node23" class="node">
<title>deployment/kubevirt&#45;ipam&#45;controller&#45;manager</title>
<path fill="none" stroke="black" d="M2109.5,-862C2109.5,-862 1556.5,-862 1556.5,-862 1550.5,-862 1544.5,-856 1544.5,-850 1544.5,-850 1544.5,-802 1544.5,-802 1544.5,-796 1550.5,-790 1556.5,-790 1556.5,-790 2109.5,-790 2109.5,-790 2115.5,-790 2121.5,-796 2121.5,-802 2121.5,-802 2121.5,-850 2121.5,-850 2121.5,-856 2115.5,-862 2109.5,-862"/>
<text text-anchor="middle" x="1833" y="-819.8" font-family="Courier-Bold" font-size="24.00">deployment/kubevirt&#45;ipam&#45;controller&#45;manager</text>
</g>
<!-- deployment/cluster&#45;network&#45;addons&#45;operator&#45;&gt;deployment/kubevirt&#45;ipam&#45;controller&#45;manager -->
<g id="edge21" class="edge">
<title>deployment/cluster&#45;network&#45;addons&#45;operator&#45;&gt;deployment/kubevirt&#45;ipam&#45;controller&#45;manager</title>
<path fill="none" stroke="black" d="M1307.53,-877.34C1377.63,-870.48 1453.09,-863.09 1524.32,-856.12"/>
<polygon fill="black" stroke="black" points="1544.29,-854.16 1525.27,-865.07 1534.34,-855.14 1524.39,-856.11 1524.39,-856.11 1524.39,-856.11 1534.34,-855.14 1523.51,-847.16 1544.29,-854.16 1544.29,-854.16"/>
</g>
<!-- daemonset/bridge&#45;marker -->
<g id="node39" class="node">
<title>daemonset/bridge&#45;marker</title>
<path fill="none" stroke="black" d="M1987,-783C1987,-783 1679,-783 1679,-783 1673,-783 1667,-777 1667,-771 1667,-771 1667,-723 1667,-723 1667,-717 1673,-711 1679,-711 1679,-711 1987,-711 1987,-711 1993,-711 1999,-717 1999,-723 1999,-723 1999,-771 1999,-771 1999,-777 1993,-783 1987,-783"/>
<text text-anchor="middle" x="1833" y="-740.8" font-family="Courier-Bold" font-size="24.00">daemonset/bridge&#45;marker</text>
</g>
<!-- deployment/cluster&#45;network&#45;addons&#45;operator&#45;&gt;daemonset/bridge&#45;marker -->
<g id="edge36" class="edge">
<title>deployment/cluster&#45;network&#45;addons&#45;operator&#45;&gt;daemonset/bridge&#45;marker</title>
<path fill="none" stroke="black" d="M1307.57,-881.83C1329.93,-877.18 1351.98,-871.63 1373,-865 1442.42,-843.11 1447.71,-809.3 1517,-787 1558.09,-773.78 1603.52,-764.9 1646.78,-758.95"/>
<polygon fill="black" stroke="black" points="1666.81,-756.37 1648.12,-767.85 1656.89,-757.65 1646.97,-758.92 1646.97,-758.92 1646.97,-758.92 1656.89,-757.65 1645.83,-750 1666.81,-756.37 1666.81,-756.37"/>
</g>
<!-- daemonset/kube&#45;cni&#45;linux&#45;bridge&#45;plugin -->
<g id="node40" class="node">
<title>daemonset/kube&#45;cni&#45;linux&#45;bridge&#45;plugin</title>
<path fill="none" stroke="black" d="M2070,-704C2070,-704 1596,-704 1596,-704 1590,-704 1584,-698 1584,-692 1584,-692 1584,-644 1584,-644 1584,-638 1590,-632 1596,-632 1596,-632 2070,-632 2070,-632 2076,-632 2082,-638 2082,-644 2082,-644 2082,-692 2082,-692 2082,-698 2076,-704 2070,-704"/>
<text text-anchor="middle" x="1833" y="-661.8" font-family="Courier-Bold" font-size="24.00">daemonset/kube&#45;cni&#45;linux&#45;bridge&#45;plugin</text>
</g>
<!-- deployment/cluster&#45;network&#45;addons&#45;operator&#45;&gt;daemonset/kube&#45;cni&#45;linux&#45;bridge&#45;plugin -->
<g id="edge37" class="edge">
<title>deployment/cluster&#45;network&#45;addons&#45;operator&#45;&gt;daemonset/kube&#45;cni&#45;linux&#45;bridge&#45;plugin</title>
<path fill="none" stroke="black" d="M1307.93,-890.09C1330.56,-883.65 1352.55,-875.43 1373,-865 1457.35,-821.99 1432.9,-751.51 1517,-708 1532.13,-700.17 1548.19,-693.66 1564.74,-688.24"/>
<polygon fill="black" stroke="black" points="1583.99,-682.48 1567.41,-696.84 1574.41,-685.35 1564.83,-688.21 1564.83,-688.21 1564.83,-688.21 1574.41,-685.35 1562.25,-679.59 1583.99,-682.48 1583.99,-682.48"/>
</g>
<!-- deployment/kubevirt&#45;migration&#45;controller -->
<g id="node24" class="node">
<title>deployment/kubevirt&#45;migration&#45;controller</title>
<path fill="none" stroke="black" d="M1271,-1612C1271,-1612 777,-1612 777,-1612 771,-1612 765,-1606 765,-1600 765,-1600 765,-1552 765,-1552 765,-1546 771,-1540 777,-1540 777,-1540 1271,-1540 1271,-1540 1277,-1540 1283,-1546 1283,-1552 1283,-1552 1283,-1600 1283,-1600 1283,-1606 1277,-1612 1271,-1612"/>
<text text-anchor="middle" x="1024" y="-1569.8" font-family="Courier-Bold" font-size="24.00">deployment/kubevirt&#45;migration&#45;controller</text>
</g>
<!-- kubevirt&#45;migration&#45;operator -->
<g id="node25" class="node">
<title>kubevirt&#45;migration&#45;operator</title>
<path fill="none" stroke="black" d="M430.5,-1612C430.5,-1612 100.5,-1612 100.5,-1612 94.5,-1612 88.5,-1606 88.5,-1600 88.5,-1600 88.5,-1552 88.5,-1552 88.5,-1546 94.5,-1540 100.5,-1540 100.5,-1540 430.5,-1540 430.5,-1540 436.5,-1540 442.5,-1546 442.5,-1552 442.5,-1552 442.5,-1600 442.5,-1600 442.5,-1606 436.5,-1612 430.5,-1612"/>
<text text-anchor="middle" x="265.5" y="-1569.8" font-family="Courier-Bold" font-size="24.00">kubevirt&#45;migration&#45;operator</text>
</g>
<!-- kubevirt&#45;migration&#45;operator&#45;&gt;deployment/kubevirt&#45;migration&#45;controller -->
<g id="edge22" class="edge">
<title>kubevirt&#45;migration&#45;operator&#45;&gt;deployment/kubevirt&#45;migration&#45;controller</title>
<path fill="none" stroke="black" d="M442.91,-1576C532.65,-1576 643.83,-1576 744.77,-1576"/>
<polygon fill="black" stroke="black" points="764.81,-1576 744.81,-1585 754.81,-1576 744.81,-1576 744.81,-1576 744.81,-1576 754.81,-1576 744.81,-1567 764.81,-1576 764.81,-1576"/>
</g>
<!-- deployment/virt&#45;template&#45;validator -->
<g id="node37" class="node">
<title>deployment/virt&#45;template&#45;validator</title>
<path fill="none" stroke="black" d="M2042.5,-625C2042.5,-625 1623.5,-625 1623.5,-625 1617.5,-625 1611.5,-619 1611.5,-613 1611.5,-613 1611.5,-565 1611.5,-565 1611.5,-559 1617.5,-553 1623.5,-553 1623.5,-553 2042.5,-553 2042.5,-553 2048.5,-553 2054.5,-559 2054.5,-565 2054.5,-565 2054.5,-613 2054.5,-613 2054.5,-619 2048.5,-625 2042.5,-625"/>
<text text-anchor="middle" x="1833" y="-582.8" font-family="Courier-Bold" font-size="24.00">deployment/virt&#45;template&#45;validator</text>
</g>
<!-- deployment/ssp&#45;operator&#45;&gt;deployment/virt&#45;template&#45;validator -->
<g id="edge34" class="edge">
<title>deployment/ssp&#45;operator&#45;&gt;deployment/virt&#45;template&#45;validator</title>
<path fill="none" stroke="black" d="M1185.75,-436.64C1245.59,-442.06 1313.41,-452.21 1373,-471 1442.42,-492.89 1447.71,-526.7 1517,-549 1540.72,-556.63 1565.88,-562.82 1591.24,-567.83"/>
<polygon fill="black" stroke="black" points="1611.12,-571.52 1589.81,-576.72 1601.29,-569.69 1591.45,-567.87 1591.45,-567.87 1591.45,-567.87 1601.29,-569.69 1593.1,-559.02 1611.12,-571.52 1611.12,-571.52"/>
</g>
<!-- deployment/virt&#45;api -->
<g id="node28" class="node">
<title>deployment/virt&#45;api</title>
<path fill="none" stroke="black" d="M1948.5,-546C1948.5,-546 1717.5,-546 1717.5,-546 1711.5,-546 1705.5,-540 1705.5,-534 1705.5,-534 1705.5,-486 1705.5,-486 1705.5,-480 1711.5,-474 1717.5,-474 1717.5,-474 1948.5,-474 1948.5,-474 1954.5,-474 1960.5,-480 1960.5,-486 1960.5,-486 1960.5,-534 1960.5,-534 1960.5,-540 1954.5,-546 1948.5,-546"/>
<text text-anchor="middle" x="1833" y="-503.8" font-family="Courier-Bold" font-size="24.00">deployment/virt&#45;api</text>
</g>
<!-- deployment/virt&#45;operator&#45;&gt;deployment/virt&#45;api -->
<g id="edge25" class="edge">
<title>deployment/virt&#45;operator&#45;&gt;deployment/virt&#45;api</title>
<path fill="none" stroke="black" d="M1185.75,-357.64C1245.59,-363.06 1313.41,-373.21 1373,-392 1442.42,-413.89 1447.71,-447.7 1517,-470 1570.39,-487.18 1631.11,-497.03 1684.89,-502.65"/>
<polygon fill="black" stroke="black" points="1705.13,-504.61 1684.36,-511.64 1695.17,-503.64 1685.22,-502.68 1685.22,-502.68 1685.22,-502.68 1695.17,-503.64 1686.09,-493.72 1705.13,-504.61 1705.13,-504.61"/>
</g>
<!-- deployment/virt&#45;controller -->
<g id="node30" class="node">
<title>deployment/virt&#45;controller</title>
<path fill="none" stroke="black" d="M1988,-467C1988,-467 1678,-467 1678,-467 1672,-467 1666,-461 1666,-455 1666,-455 1666,-407 1666,-407 1666,-401 1672,-395 1678,-395 1678,-395 1988,-395 1988,-395 1994,-395 2000,-401 2000,-407 2000,-407 2000,-455 2000,-455 2000,-461 1994,-467 1988,-467"/>
<text text-anchor="middle" x="1833" y="-424.8" font-family="Courier-Bold" font-size="24.00">deployment/virt&#45;controller</text>
</g>
<!-- deployment/virt&#45;operator&#45;&gt;deployment/virt&#45;controller -->
<g id="edge26" class="edge">
<title>deployment/virt&#45;operator&#45;&gt;deployment/virt&#45;controller</title>
<path fill="none" stroke="black" d="M1185.89,-367.75C1318.46,-380.73 1506.61,-399.15 1645.71,-412.76"/>
<polygon fill="black" stroke="black" points="1665.86,-414.74 1645.08,-421.74 1655.91,-413.76 1645.95,-412.79 1645.95,-412.79 1645.95,-412.79 1655.91,-413.76 1646.83,-403.83 1665.86,-414.74 1665.86,-414.74"/>
</g>
<!-- deployment/virt&#45;exportproxy -->
<g id="node31" class="node">
<title>deployment/virt&#45;exportproxy</title>
<path fill="none" stroke="black" d="M2002.5,-388C2002.5,-388 1663.5,-388 1663.5,-388 1657.5,-388 1651.5,-382 1651.5,-376 1651.5,-376 1651.5,-328 1651.5,-328 1651.5,-322 1657.5,-316 1663.5,-316 1663.5,-316 2002.5,-316 2002.5,-316 2008.5,-316 2014.5,-322 2014.5,-328 2014.5,-328 2014.5,-376 2014.5,-376 2014.5,-382 2008.5,-388 2002.5,-388"/>
<text text-anchor="middle" x="1833" y="-345.8" font-family="Courier-Bold" font-size="24.00">deployment/virt&#45;exportproxy</text>
</g>
<!-- deployment/virt&#45;operator&#45;&gt;deployment/virt&#45;exportproxy -->
<g id="edge27" class="edge">
<title>deployment/virt&#45;operator&#45;&gt;deployment/virt&#45;exportproxy</title>
<path fill="none" stroke="black" d="M1185.89,-352C1313.84,-352 1493.56,-352 1630.98,-352"/>
<polygon fill="black" stroke="black" points="1651.37,-352 1631.37,-361 1641.37,-352 1631.37,-352 1631.37,-352 1631.37,-352 1641.37,-352 1631.37,-343 1651.37,-352 1651.37,-352"/>
</g>
<!-- deployment/virt&#45;synchronization&#45;controller -->
<g id="node34" class="node">
<title>deployment/virt&#45;synchronization&#45;controller</title>
<path fill="none" stroke="black" d="M2087.5,-309C2087.5,-309 1578.5,-309 1578.5,-309 1572.5,-309 1566.5,-303 1566.5,-297 1566.5,-297 1566.5,-249 1566.5,-249 1566.5,-243 1572.5,-237 1578.5,-237 1578.5,-237 2087.5,-237 2087.5,-237 2093.5,-237 2099.5,-243 2099.5,-249 2099.5,-249 2099.5,-297 2099.5,-297 2099.5,-303 2093.5,-309 2087.5,-309"/>
<text text-anchor="middle" x="1833" y="-266.8" font-family="Courier-Bold" font-size="24.00">deployment/virt&#45;synchronization&#45;controller</text>
</g>
<!-- deployment/virt&#45;operator&#45;&gt;deployment/virt&#45;synchronization&#45;controller -->
<g id="edge31" class="edge">
<title>deployment/virt&#45;operator&#45;&gt;deployment/virt&#45;synchronization&#45;controller</title>
<path fill="none" stroke="black" d="M1185.89,-336.25C1288.79,-326.18 1425.17,-312.83 1546.11,-300.99"/>
<polygon fill="black" stroke="black" points="1566.16,-299.02 1547.13,-309.93 1556.21,-300 1546.26,-300.97 1546.26,-300.97 1546.26,-300.97 1556.21,-300 1545.38,-292.02 1566.16,-299.02 1566.16,-299.02"/>
</g>
<!-- deployment/virt&#45;template&#45;apiserver -->
<g id="node35" class="node">
<title>deployment/virt&#45;template&#45;apiserver</title>
<path fill="none" stroke="black" d="M2046,-230C2046,-230 1620,-230 1620,-230 1614,-230 1608,-224 1608,-218 1608,-218 1608,-170 1608,-170 1608,-164 1614,-158 1620,-158 1620,-158 2046,-158 2046,-158 2052,-158 2058,-164 2058,-170 2058,-170 2058,-218 2058,-218 2058,-224 2052,-230 2046,-230"/>
<text text-anchor="middle" x="1833" y="-187.8" font-family="Courier-Bold" font-size="24.00">deployment/virt&#45;template&#45;apiserver</text>
</g>
<!-- deployment/virt&#45;operator&#45;&gt;deployment/virt&#45;template&#45;apiserver -->
<g id="edge32" class="edge">
<title>deployment/virt&#45;operator&#45;&gt;deployment/virt&#45;template&#45;apiserver</title>
<path fill="none" stroke="black" d="M1185.75,-346.36C1245.59,-340.94 1313.41,-330.79 1373,-312 1442.42,-290.11 1447.71,-256.3 1517,-234 1539.66,-226.71 1563.64,-220.74 1587.85,-215.85"/>
<polygon fill="black" stroke="black" points="1607.75,-212.08 1589.78,-224.64 1597.92,-213.94 1588.1,-215.8 1588.1,-215.8 1588.1,-215.8 1597.92,-213.94 1586.42,-206.96 1607.75,-212.08 1607.75,-212.08"/>
</g>
<!-- deployment/virt&#45;template&#45;controller -->
<g id="node36" class="node">
<title>deployment/virt&#45;template&#45;controller</title>
<path fill="none" stroke="black" d="M2047,-151C2047,-151 1619,-151 1619,-151 1613,-151 1607,-145 1607,-139 1607,-139 1607,-91 1607,-91 1607,-85 1613,-79 1619,-79 1619,-79 2047,-79 2047,-79 2053,-79 2059,-85 2059,-91 2059,-91 2059,-139 2059,-139 2059,-145 2053,-151 2047,-151"/>
<text text-anchor="middle" x="1833" y="-108.8" font-family="Courier-Bold" font-size="24.00">deployment/virt&#45;template&#45;controller</text>
</g>
<!-- deployment/virt&#45;operator&#45;&gt;deployment/virt&#45;template&#45;controller -->
<g id="edge33" class="edge">
<title>deployment/virt&#45;operator&#45;&gt;deployment/virt&#45;template&#45;controller</title>
<path fill="none" stroke="black" d="M1185.58,-356.97C1247.02,-353 1315.98,-341.07 1373,-312 1457.35,-268.99 1432.9,-198.51 1517,-155 1538.83,-143.71 1562.61,-135.13 1587,-128.68"/>
<polygon fill="black" stroke="black" points="1606.66,-123.94 1589.32,-137.37 1596.94,-126.28 1587.21,-128.62 1587.21,-128.62 1587.21,-128.62 1596.94,-126.28 1585.11,-119.87 1606.66,-123.94 1606.66,-123.94"/>
</g>
<!-- daemonset/virt&#45;handler -->
<g id="node41" class="node">
<title>daemonset/virt&#45;handler</title>
<path fill="none" stroke="black" d="M1972,-72C1972,-72 1694,-72 1694,-72 1688,-72 1682,-66 1682,-60 1682,-60 1682,-12 1682,-12 1682,-6 1688,0 1694,0 1694,0 1972,0 1972,0 1978,0 1984,-6 1984,-12 1984,-12 1984,-60 1984,-60 1984,-66 1978,-72 1972,-72"/>
<text text-anchor="middle" x="1833" y="-29.8" font-family="Courier-Bold" font-size="24.00">daemonset/virt&#45;handler</text>
</g>
<!-- deployment/virt&#45;operator&#45;&gt;daemonset/virt&#45;handler -->
<g id="edge38" class="edge">
<title>deployment/virt&#45;operator&#45;&gt;daemonset/virt&#45;handler</title>
<path fill="none" stroke="black" d="M1185.71,-362.74C1248.38,-359.78 1318.17,-347.04 1373,-312 1476.53,-245.83 1413.86,-142.78 1517,-76 1559.39,-48.55 1611.78,-35.63 1661.58,-30.34"/>
<polygon fill="black" stroke="black" points="1681.62,-28.6 1662.47,-39.3 1671.66,-29.47 1661.69,-30.33 1661.69,-30.33 1661.69,-30.33 1671.66,-29.47 1660.92,-21.37 1681.62,-28.6 1681.62,-28.6"/>
</g>
</g>
</svg>
