<?xml version="1.0" encoding="UTF-8" standalone="no"?>
<!DOCTYPE svg PUBLIC "-//W3C//DTD SVG 1.1//EN"
 "http://www.w3.org/Graphics/SVG/1.1/DTD/svg11.dtd">
<!-- Generated by graphviz version 2.44.0 (0)
 -->
<!-- Title: managed&#45;by Pages: 1 -->
<svg width="2465pt" height="1649pt"
 viewBox="14.40 14.40 2450.40 1634.40" xmlns="http://www.w3.org/2000/svg" xmlns:xlink="http://www.w3.org/1999/xlink">
<g id="graph0" class="graph" transform="scale(1 1) rotate(0) translate(18.4 1630.4)">
<title>managed&#45;by</title>
<polygon fill="white" stroke="transparent" points="-4,4 -4,-1616 2432,-1616 2432,4 -4,4"/>
<!-- HyperConverged/kubevirt&#45;hyperconverged -->
<g id="node1" class="node">
<title>HyperConverged/kubevirt&#45;hyperconverged</title>
<path fill="none" stroke="black" d="M519,-644C519,-644 12,-644 12,-644 6,-644 0,-638 0,-632 0,-632 0,-584 0,-584 0,-578 6,-572 12,-572 12,-572 519,-572 519,-572 525,-572 531,-578 531,-584 531,-584 531,-632 531,-632 531,-638 525,-644 519,-644"/>
<text text-anchor="middle" x="265.5" y="-601.8" font-family="Courier-Bold" font-size="24.00">HyperConverged/kubevirt&#45;hyperconverged</text>
</g>
<!-- KubeVirt/kubevirt&#45;kubevirt&#45;hyperconverged -->
<g id="node2" class="node">
<title>KubeVirt/kubevirt&#45;kubevirt&#45;hyperconverged</title>
<path fill="none" stroke="black" d="M2008,-1612C2008,-1612 1494,-1612 1494,-1612 1488,-1612 1482,-1606 1482,-1600 1482,-1600 1482,-1552 1482,-1552 1482,-1546 1488,-1540 1494,-1540 1494,-1540 2008,-1540 2008,-1540 2014,-1540 2020,-1546 2020,-1552 2020,-1552 2020,-1600 2020,-1600 2020,-1606 2014,-1612 2008,-1612"/>
<text text-anchor="middle" x="1751" y="-1569.8" font-family="Courier-Bold" font-size="24.00">KubeVirt/kubevirt&#45;kubevirt&#45;hyperconverged</text>
</g>
<!-- deployment/hco&#45;operator -->
<g id="node3" class="node">
<title>deployment/hco&#45;operator</title>
<path fill="none" stroke="black" d="M1134,-1375C1134,-1375 832,-1375 832,-1375 826,-1375 820,-1369 820,-1363 820,-1363 820,-1315 820,-1315 820,-1309 826,-1303 832,-1303 832,-1303 1134,-1303 1134,-1303 1140,-1303 1146,-1309 1146,-1315 1146,-1315 1146,-1363 1146,-1363 1146,-1369 1140,-1375 1134,-1375"/>
<text text-anchor="middle" x="983" y="-1332.8" font-family="Courier-Bold" font-size="24.00">deployment/hco&#45;operator</text>
</g>
<!-- deployment/hco&#45;operator&#45;&gt;KubeVirt/kubevirt&#45;kubevirt&#45;hyperconverged -->
<g id="edge1" class="edge">
<title>deployment/hco&#45;operator&#45;&gt;KubeVirt/kubevirt&#45;kubevirt&#45;hyperconverged</title>
<path fill="none" stroke="black" d="M1146.13,-1339.11C1194.84,-1344.57 1247,-1356.14 1291,-1379 1375.02,-1422.64 1350.9,-1492.49 1435,-1536 1443.91,-1540.61 1453.14,-1544.77 1462.61,-1548.51"/>
<polygon fill="black" stroke="black" points="1481.71,-1555.42 1459.84,-1557.08 1472.3,-1552.02 1462.9,-1548.61 1462.9,-1548.61 1462.9,-1548.61 1472.3,-1552.02 1465.96,-1540.15 1481.71,-1555.42 1481.71,-1555.42"/>
</g>
<!-- SSP/ssp&#45;kubevirt&#45;hyperconverged -->
<g id="node4" class="node">
<title>SSP/ssp&#45;kubevirt&#45;hyperconverged</title>
<path fill="none" stroke="black" d="M1950,-1533C1950,-1533 1552,-1533 1552,-1533 1546,-1533 1540,-1527 1540,-1521 1540,-1521 1540,-1473 1540,-1473 1540,-1467 1546,-1461 1552,-1461 1552,-1461 1950,-1461 1950,-1461 1956,-1461 1962,-1467 1962,-1473 1962,-1473 1962,-1521 1962,-1521 1962,-1527 1956,-1533 1950,-1533"/>
<text text-anchor="middle" x="1751" y="-1490.8" font-family="Courier-Bold" font-size="24.00">SSP/ssp&#45;kubevirt&#45;hyperconverged</text>
</g>
<!-- deployment/hco&#45;operator&#45;&gt;SSP/ssp&#45;kubevirt&#45;hyperconverged -->
<g id="edge2" class="edge">
<title>deployment/hco&#45;operator&#45;&gt;SSP/ssp&#45;kubevirt&#45;hyperconverged</title>
<path fill="none" stroke="black" d="M1146.19,-1348.91C1193.66,-1354.79 1245.1,-1364.15 1291,-1379 1360.25,-1401.41 1365.71,-1434.7 1435,-1457 1461.97,-1465.68 1490.8,-1472.49 1519.67,-1477.82"/>
<polygon fill="black" stroke="black" points="1539.63,-1481.29 1518.39,-1486.73 1529.78,-1479.58 1519.93,-1477.87 1519.93,-1477.87 1519.93,-1477.87 1529.78,-1479.58 1521.47,-1469 1539.63,-1481.29 1539.63,-1481.29"/>
</g>
<!-- CDI/cdi&#45;kubevirt&#45;hyperconverged -->
<g id="node5" class="node">
<title>CDI/cdi&#45;kubevirt&#45;hyperconverged</title>
<path fill="none" stroke="black" d="M1946.5,-1454C1946.5,-1454 1555.5,-1454 1555.5,-1454 1549.5,-1454 1543.5,-1448 1543.5,-1442 1543.5,-1442 1543.5,-1394 1543.5,-1394 1543.5,-1388 1549.5,-1382 1555.5,-1382 1555.5,-1382 1946.5,-1382 1946.5,-1382 1952.5,-1382 1958.5,-1388 1958.5,-1394 1958.5,-1394 1958.5,-1442 1958.5,-1442 1958.5,-1448 1952.5,-1454 1946.5,-1454"/>
<text text-anchor="middle" x="1751" y="-1411.8" font-family="Courier-Bold" font-size="24.00">CDI/cdi&#45;kubevirt&#45;hyperconverged</text>
</g>
<!-- deployment/hco&#45;operator&#45;&gt;CDI/cdi&#45;kubevirt&#45;hyperconverged -->
<g id="edge3" class="edge">
<title>deployment/hco&#45;operator&#45;&gt;CDI/cdi&#45;kubevirt&#45;hyperconverged</title>
<path fill="none" stroke="black" d="M1146.45,-1355.75C1256.07,-1367.06 1402.25,-1382.14 1523.29,-1394.62"/>
<polygon fill="black" stroke="black" points="1543.26,-1396.68 1522.44,-1403.58 1533.31,-1395.65 1523.37,-1394.63 1523.37,-1394.63 1523.37,-1394.63 1533.31,-1395.65 1524.29,-1385.67 1543.26,-1396.68 1543.26,-1396.68"/>
</g>
<!-- NetworkAddonsConfig/cluster -->
<g id="node8" class="node">
<title>NetworkAddonsConfig/cluster</title>
<path fill="none" stroke="black" d="M1926,-1375C1926,-1375 1576,-1375 1576,-1375 1570,-1375 1564,-1369 1564,-1363 1564,-1363 1564,-1315 1564,-1315 1564,-1309 1570,-1303 1576,-1303 1576,-1303 1926,-1303 1926,-1303 1932,-1303 1938,-1309 1938,-1315 1938,-1315 1938,-1363 1938,-1363 1938,-1369 1932,-1375 1926,-1375"/>
<text text-anchor="middle" x="1751" y="-1332.8" font-family="Courier-Bold" font-size="24.00">NetworkAddonsConfig/cluster</text>
</g>
<!-- deployment/hco&#45;operator&#45;&gt;NetworkAddonsConfig/cluster -->
<g id="edge5" class="edge">
<title>deployment/hco&#45;operator&#45;&gt;NetworkAddonsConfig/cluster</title>
<path fill="none" stroke="black" d="M1146.45,-1339C1262.32,-1339 1419.05,-1339 1543.76,-1339"/>
<polygon fill="black" stroke="black" points="1563.88,-1339 1543.88,-1348 1553.88,-1339 1543.88,-1339 1543.88,-1339 1543.88,-1339 1553.88,-1339 1543.88,-1330 1563.88,-1339 1563.88,-1339"/>
</g>
<!-- deployment/kubevirt&#45;apiserver&#45;proxy -->
<g id="node20" class="node">
<title>deployment/kubevirt&#45;apiserver&#45;proxy</title>
<path fill="none" stroke="black" d="M1971,-1296C1971,-1296 1531,-1296 1531,-1296 1525,-1296 1519,-1290 1519,-1284 1519,-1284 1519,-1236 1519,-1236 1519,-1230 1525,-1224 1531,-1224 1531,-1224 1971,-1224 1971,-1224 1977,-1224 1983,-1230 1983,-1236 1983,-1236 1983,-1284 1983,-1284 1983,-1290 1977,-1296 1971,-1296"/>
<text text-anchor="middle" x="1751" y="-1253.8" font-family="Courier-Bold" font-size="24.00">deployment/kubevirt&#45;apiserver&#45;proxy</text>
</g>
<!-- deployment/hco&#45;operator&#45;&gt;deployment/kubevirt&#45;apiserver&#45;proxy -->
<g id="edge18" class="edge">
<title>deployment/hco&#45;operator&#45;&gt;deployment/kubevirt&#45;apiserver&#45;proxy</title>
<path fill="none" stroke="black" d="M1146.45,-1322.25C1248.78,-1311.69 1382.98,-1297.85 1498.85,-1285.9"/>
<polygon fill="black" stroke="black" points="1518.76,-1283.85 1499.79,-1294.85 1508.82,-1284.87 1498.87,-1285.9 1498.87,-1285.9 1498.87,-1285.9 1508.82,-1284.87 1497.94,-1276.95 1518.76,-1283.85 1518.76,-1283.85"/>
</g>
<!-- deployment/kubevirt&#45;console&#45;plugin -->
<g id="node21" class="node">
<title>deployment/kubevirt&#45;console&#45;plugin</title>
<path fill="none" stroke="black" d="M1965,-1217C1965,-1217 1537,-1217 1537,-1217 1531,-1217 1525,-1211 1525,-1205 1525,-1205 1525,-1157 1525,-1157 1525,-1151 1531,-1145 1537,-1145 1537,-1145 1965,-1145 1965,-1145 1971,-1145 1977,-1151 1977,-1157 1977,-1157 1977,-1205 1977,-1205 1977,-1211 1971,-1217 1965,-1217"/>
<text text-anchor="middle" x="1751" y="-1174.8" font-family="Courier-Bold" font-size="24.00">deployment/kubevirt&#45;console&#45;plugin</text>
</g>
<!-- deployment/hco&#45;operator&#45;&gt;deployment/kubevirt&#45;console&#45;plugin -->
<g id="edge19" class="edge">
<title>deployment/hco&#45;operator&#45;&gt;deployment/kubevirt&#45;console&#45;plugin</title>
<path fill="none" stroke="black" d="M1104.57,-1302.9C1194.85,-1276.99 1321.77,-1242.91 1435,-1221 1457.62,-1216.62 1481.25,-1212.61 1504.96,-1208.96"/>
<polygon fill="black" stroke="black" points="1524.88,-1205.97 1506.43,-1217.84 1514.99,-1207.46 1505.1,-1208.94 1505.1,-1208.94 1505.1,-1208.94 1514.99,-1207.46 1503.76,-1200.04 1524.88,-1205.97 1524.88,-1205.97"/>
</g>
<!-- CDIConfig/config -->
<g id="node6" class="node">
<title>CDIConfig/config</title>
<path fill="none" stroke="black" d="M2416,-1138C2416,-1138 2223,-1138 2223,-1138 2217,-1138 2211,-1132 2211,-1126 2211,-1126 2211,-1078 2211,-1078 2211,-1072 2217,-1066 2223,-1066 2223,-1066 2416,-1066 2416,-1066 2422,-1066 2428,-1072 2428,-1078 2428,-1078 2428,-1126 2428,-1126 2428,-1132 2422,-1138 2416,-1138"/>
<text text-anchor="middle" x="2319.5" y="-1095.8" font-family="Courier-Bold" font-size="24.00">CDIConfig/config</text>
</g>
<!-- deployment/cdi&#45;deployment -->
<g id="node7" class="node">
<title>deployment/cdi&#45;deployment</title>
<path fill="none" stroke="black" d="M1917.5,-1138C1917.5,-1138 1584.5,-1138 1584.5,-1138 1578.5,-1138 1572.5,-1132 1572.5,-1126 1572.5,-1126 1572.5,-1078 1572.5,-1078 1572.5,-1072 1578.5,-1066 1584.5,-1066 1584.5,-1066 1917.5,-1066 1917.5,-1066 1923.5,-1066 1929.5,-1072 1929.5,-1078 1929.5,-1078 1929.5,-1126 1929.5,-1126 1929.5,-1132 1923.5,-1138 1917.5,-1138"/>
<text text-anchor="middle" x="1751" y="-1095.8" font-family="Courier-Bold" font-size="24.00">deployment/cdi&#45;deployment</text>
</g>
<!-- deployment/cdi&#45;deployment&#45;&gt;CDIConfig/config -->
<g id="edge4" class="edge">
<title>deployment/cdi&#45;deployment&#45;&gt;CDIConfig/config</title>
<path fill="none" stroke="black" d="M1929.69,-1102C2014.28,-1102 2113.54,-1102 2190.59,-1102"/>
<polygon fill="black" stroke="black" points="2210.69,-1102 2190.69,-1111 2200.69,-1102 2190.69,-1102 2190.69,-1102 2190.69,-1102 2200.69,-1102 2190.69,-1093 2210.69,-1102 2210.69,-1102"/>
</g>
<!-- deployment/aaq&#45;operator -->
<g id="node9" class="node">
<title>deployment/aaq&#45;operator</title>
<path fill="none" stroke="black" d="M1134.5,-1059C1134.5,-1059 831.5,-1059 831.5,-1059 825.5,-1059 819.5,-1053 819.5,-1047 819.5,-1047 819.5,-999 819.5,-999 819.5,-993 825.5,-987 831.5,-987 831.5,-987 1134.5,-987 1134.5,-987 1140.5,-987 1146.5,-993 1146.5,-999 1146.5,-999 1146.5,-1047 1146.5,-1047 1146.5,-1053 1140.5,-1059 1134.5,-1059"/>
<text text-anchor="middle" x="983" y="-1016.8" font-family="Courier-Bold" font-size="24.00">deployment/aaq&#45;operator</text>
</g>
<!-- olm -->
<g id="node10" class="node">
<title>olm</title>
<path fill="none" stroke="black" d="M361.5,-723C361.5,-723 169.5,-723 169.5,-723 163.5,-723 157.5,-717 157.5,-711 157.5,-711 157.5,-663 157.5,-663 157.5,-657 163.5,-651 169.5,-651 169.5,-651 361.5,-651 361.5,-651 367.5,-651 373.5,-657 373.5,-663 373.5,-663 373.5,-711 373.5,-711 373.5,-717 367.5,-723 361.5,-723"/>
<text text-anchor="middle" x="265.5" y="-680.8" font-family="Courier-Bold" font-size="24.00">olm</text>
</g>
<!-- olm&#45;&gt;deployment/hco&#45;operator -->
<g id="edge12" class="edge">
<title>olm&#45;&gt;deployment/hco&#45;operator</title>
<path fill="none" stroke="black" d="M305.55,-723.05C378.13,-790.02 538.83,-938.07 675,-1062 762.67,-1141.79 864.97,-1233.89 926.55,-1289.23"/>
<polygon fill="black" stroke="black" points="941.67,-1302.81 920.78,-1296.14 934.23,-1296.13 926.79,-1289.45 926.79,-1289.45 926.79,-1289.45 934.23,-1296.13 932.81,-1282.75 941.67,-1302.81 941.67,-1302.81"/>
</g>
<!-- olm&#45;&gt;deployment/aaq&#45;operator -->
<g id="edge6" class="edge">
<title>olm&#45;&gt;deployment/aaq&#45;operator</title>
<path fill="none" stroke="black" d="M302.59,-723.11C369.46,-787.56 519.95,-921.38 675,-983 713.83,-998.43 757.38,-1008.18 799.21,-1014.27"/>
<polygon fill="black" stroke="black" points="819.25,-1016.94 798.24,-1023.22 809.34,-1015.62 799.43,-1014.3 799.43,-1014.3 799.43,-1014.3 809.34,-1015.62 800.62,-1005.38 819.25,-1016.94 819.25,-1016.94"/>
</g>
<!-- deployment/cdi&#45;operator -->
<g id="node12" class="node">
<title>deployment/cdi&#45;operator</title>
<path fill="none" stroke="black" d="M1129.5,-980C1129.5,-980 836.5,-980 836.5,-980 830.5,-980 824.5,-974 824.5,-968 824.5,-968 824.5,-920 824.5,-920 824.5,-914 830.5,-908 836.5,-908 836.5,-908 1129.5,-908 1129.5,-908 1135.5,-908 1141.5,-914 1141.5,-920 1141.5,-920 1141.5,-968 1141.5,-968 1141.5,-974 1135.5,-980 1129.5,-980"/>
<text text-anchor="middle" x="983" y="-937.8" font-family="Courier-Bold" font-size="24.00">deployment/cdi&#45;operator</text>
</g>
<!-- olm&#45;&gt;deployment/cdi&#45;operator -->
<g id="edge9" class="edge">
<title>olm&#45;&gt;deployment/cdi&#45;operator</title>
<path fill="none" stroke="black" d="M355.6,-723.15C437.99,-756.18 564.08,-805.7 675,-845 730.47,-864.65 792.14,-884.86 845.57,-901.84"/>
<polygon fill="black" stroke="black" points="864.85,-907.95 843.06,-910.49 855.32,-904.93 845.78,-901.91 845.78,-901.91 845.78,-901.91 855.32,-904.93 848.5,-893.33 864.85,-907.95 864.85,-907.95"/>
</g>
<!-- deployment/cluster&#45;network&#45;addons&#45;operator -->
<g id="node14" class="node">
<title>deployment/cluster&#45;network&#45;addons&#45;operator</title>
<path fill="none" stroke="black" d="M1254.5,-842C1254.5,-842 711.5,-842 711.5,-842 705.5,-842 699.5,-836 699.5,-830 699.5,-830 699.5,-782 699.5,-782 699.5,-776 705.5,-770 711.5,-770 711.5,-770 1254.5,-770 1254.5,-770 1260.5,-770 1266.5,-776 1266.5,-782 1266.5,-782 1266.5,-830 1266.5,-830 1266.5,-836 1260.5,-842 1254.5,-842"/>
<text text-anchor="middle" x="983" y="-799.8" font-family="Courier-Bold" font-size="24.00">deployment/cluster&#45;network&#45;addons&#45;operator</text>
</g>
<!-- olm&#45;&gt;deployment/cluster&#45;network&#45;addons&#45;operator -->
<g id="edge11" class="edge">
<title>olm&#45;&gt;deployment/cluster&#45;network&#45;addons&#45;operator</title>
<path fill="none" stroke="black" d="M373.69,-709.6C455.9,-726.48 572.32,-749.4 675,-766 676.67,-766.27 678.35,-766.54 680.03,-766.81"/>
<polygon fill="black" stroke="black" points="700.02,-769.94 678.86,-775.74 690.14,-768.39 680.26,-766.84 680.26,-766.84 680.26,-766.84 690.14,-768.39 681.65,-757.95 700.02,-769.94 700.02,-769.94"/>
</g>
<!-- deployment/hco&#45;webhook -->
<g id="node15" class="node">
<title>deployment/hco&#45;webhook</title>
<path fill="none" stroke="black" d="M1136,-763C1136,-763 830,-763 830,-763 824,-763 818,-757 818,-751 818,-751 818,-703 818,-703 818,-697 824,-691 830,-691 830,-691 1136,-691 1136,-691 1142,-691 1148,-697 1148,-703 1148,-703 1148,-751 1148,-751 1148,-757 1142,-763 1136,-763"/>
<text text-anchor="middle" x="983" y="-720.8" font-family="Courier-Bold" font-size="24.00">deployment/hco&#45;webhook</text>
</g>
<!-- olm&#45;&gt;deployment/hco&#45;webhook -->
<g id="edge13" class="edge">
<title>olm&#45;&gt;deployment/hco&#45;webhook</title>
<path fill="none" stroke="black" d="M373.62,-692.99C485.51,-699.24 663.14,-709.17 797.64,-716.69"/>
<polygon fill="black" stroke="black" points="817.99,-717.83 797.52,-725.7 808.01,-717.27 798.03,-716.71 798.03,-716.71 798.03,-716.71 808.01,-717.27 798.53,-707.73 817.99,-717.83 817.99,-717.83"/>
</g>
<!-- deployment/hostpath&#45;provisioner&#45;operator -->
<g id="node16" class="node">
<title>deployment/hostpath&#45;provisioner&#45;operator</title>
<path fill="none" stroke="black" d="M1236.5,-684C1236.5,-684 729.5,-684 729.5,-684 723.5,-684 717.5,-678 717.5,-672 717.5,-672 717.5,-624 717.5,-624 717.5,-618 723.5,-612 729.5,-612 729.5,-612 1236.5,-612 1236.5,-612 1242.5,-612 1248.5,-618 1248.5,-624 1248.5,-624 1248.5,-672 1248.5,-672 1248.5,-678 1242.5,-684 1236.5,-684"/>
<text text-anchor="middle" x="983" y="-641.8" font-family="Courier-Bold" font-size="24.00">deployment/hostpath&#45;provisioner&#45;operator</text>
</g>
<!-- olm&#45;&gt;deployment/hostpath&#45;provisioner&#45;operator -->
<g id="edge14" class="edge">
<title>olm&#45;&gt;deployment/hostpath&#45;provisioner&#45;operator</title>
<path fill="none" stroke="black" d="M373.62,-681.16C459.3,-676.49 583.54,-669.72 697.43,-663.51"/>
<polygon fill="black" stroke="black" points="717.46,-662.42 697.98,-672.49 707.47,-662.96 697.49,-663.51 697.49,-663.51 697.49,-663.51 707.47,-662.96 697,-654.52 717.46,-662.42 717.46,-662.42"/>
</g>
<!-- deployment/hyperconverged&#45;cluster&#45;cli&#45;download -->
<g id="node17" class="node">
<title>deployment/hyperconverged&#45;cluster&#45;cli&#45;download</title>
<path fill="none" stroke="black" d="M1279,-605C1279,-605 687,-605 687,-605 681,-605 675,-599 675,-593 675,-593 675,-545 675,-545 675,-539 681,-533 687,-533 687,-533 1279,-533 1279,-533 1285,-533 1291,-539 1291,-545 1291,-545 1291,-593 1291,-593 1291,-599 1285,-605 1279,-605"/>
<text text-anchor="middle" x="983" y="-562.8" font-family="Courier-Bold" font-size="24.00">deployment/hyperconverged&#45;cluster&#45;cli&#45;download</text>
</g>
<!-- olm&#45;&gt;deployment/hyperconverged&#45;cluster&#45;cli&#45;download -->
<g id="edge15" class="edge">
<title>olm&#45;&gt;deployment/hyperconverged&#45;cluster&#45;cli&#45;download</title>
<path fill="none" stroke="black" d="M373.78,-673.46C422.05,-666.67 479.61,-657.63 531,-647 595.82,-633.59 610.05,-621.75 675,-609 675.32,-608.94 675.64,-608.87 675.96,-608.81"/>
<polygon fill="black" stroke="black" points="695.83,-605.06 677.84,-617.62 686,-606.92 676.17,-608.77 676.17,-608.77 676.17,-608.77 686,-606.92 674.51,-599.93 695.83,-605.06 695.83,-605.06"/>
</g>
<!-- deployment/kubevirt&#45;migration&#45;operator -->
<g id="node25" class="node">
<title>deployment/kubevirt&#45;migration&#45;operator</title>
<path fill="none" stroke="black" d="M1224,-526C1224,-526 742,-526 742,-526 736,-526 730,-520 730,-514 730,-514 730,-466 730,-466 730,-460 736,-454 742,-454 742,-454 1224,-454 1224,-454 1230,-454 1236,-460 1236,-466 1236,-466 1236,-514 1236,-514 1236,-520 1230,-526 1224,-526"/>
<text text-anchor="middle" x="983" y="-483.8" font-family="Courier-Bold" font-size="24.00">deployment/kubevirt&#45;migration&#45;operator</text>
</g>
<!-- olm&#45;&gt;deployment/kubevirt&#45;migration&#45;operator -->
<g id="edge22" class="edge">
<title>olm&#45;&gt;deployment/kubevirt&#45;migration&#45;operator</title>
<path fill="none" stroke="black" d="M373.73,-683.68C423.31,-678.95 481.94,-668.69 531,-647 606.42,-613.66 599.24,-562.56 675,-530 686.42,-525.09 698.29,-520.74 710.42,-516.89"/>
<polygon fill="black" stroke="black" points="729.69,-511.24 713.03,-525.51 720.09,-514.06 710.5,-516.87 710.5,-516.87 710.5,-516.87 720.09,-514.06 707.96,-508.23 729.69,-511.24 729.69,-511.24"/>
</g>
<!-- deployment/ssp&#45;operator -->
<g id="node26" class="node">
<title>deployment/ssp&#45;operator</title>
<path fill="none" stroke="black" d="M1132.5,-447C1132.5,-447 833.5,-447 833.5,-447 827.5,-447 821.5,-441 821.5,-435 821.5,-435 821.5,-387 821.5,-387 821.5,-381 827.5,-375 833.5,-375 833.5,-375 1132.5,-375 1132.5,-375 1138.5,-375 1144.5,-381 1144.5,-387 1144.5,-387 1144.5,-435 1144.5,-435 1144.5,-441 1138.5,-447 1132.5,-447"/>
<text text-anchor="middle" x="983" y="-404.8" font-family="Courier-Bold" font-size="24.00">deployment/ssp&#45;operator</text>
</g>
<!-- olm&#45;&gt;deployment/ssp&#45;operator -->
<g id="edge23" class="edge">
<title>olm&#45;&gt;deployment/ssp&#45;operator</title>
<path fill="none" stroke="black" d="M373.65,-689.35C424.49,-686.01 484.2,-675.29 531,-647 623.51,-591.09 581.92,-505.96 675,-451 712.83,-428.66 757.8,-416.51 801.49,-410.32"/>
<polygon fill="black" stroke="black" points="821.44,-407.88 802.68,-419.24 811.51,-409.09 801.59,-410.31 801.59,-410.31 801.59,-410.31 811.51,-409.09 800.5,-401.38 821.44,-407.88 821.44,-407.88"/>
</g>
<!-- deployment/virt&#45;operator -->
<g id="node28" class="node">
<title>deployment/virt&#45;operator</title>
<path fill="none" stroke="black" d="M1132.5,-269C1132.5,-269 833.5,-269 833.5,-269 827.5,-269 821.5,-263 821.5,-257 821.5,-257 821.5,-209 821.5,-209 821.5,-203 827.5,-197 833.5,-197 833.5,-197 1132.5,-197 1132.5,-197 1138.5,-197 1144.5,-203 1144.5,-209 1144.5,-209 1144.5,-257 1144.5,-257 1144.5,-263 1138.5,-269 1132.5,-269"/>
<text text-anchor="middle" x="983" y="-226.8" font-family="Courier-Bold" font-size="24.00">deployment/virt&#45;operator</text>
</g>
<!-- olm&#45;&gt;deployment/virt&#45;operator -->
<g id="edge27" class="edge">
<title>olm&#45;&gt;deployment/virt&#45;operator</title>
<path fill="none" stroke="black" d="M373.7,-692.5C425.45,-690.06 485.93,-679.18 531,-647 643.61,-566.61 574.35,-465.93 675,-371 719.78,-328.76 779.68,-297.92 834.69,-276.25"/>
<polygon fill="black" stroke="black" points="853.51,-269.1 838.01,-284.61 844.17,-272.65 834.82,-276.2 834.82,-276.2 834.82,-276.2 844.17,-272.65 831.62,-267.78 853.51,-269.1 853.51,-269.1"/>
</g>
<!-- deployment/cdi&#45;apiserver -->
<g id="node11" class="node">
<title>deployment/cdi&#45;apiserver</title>
<path fill="none" stroke="black" d="M1902,-1059C1902,-1059 1600,-1059 1600,-1059 1594,-1059 1588,-1053 1588,-1047 1588,-1047 1588,-999 1588,-999 1588,-993 1594,-987 1600,-987 1600,-987 1902,-987 1902,-987 1908,-987 1914,-993 1914,-999 1914,-999 1914,-1047 1914,-1047 1914,-1053 1908,-1059 1902,-1059"/>
<text text-anchor="middle" x="1751" y="-1016.8" font-family="Courier-Bold" font-size="24.00">deployment/cdi&#45;apiserver</text>
</g>
<!-- deployment/cdi&#45;operator&#45;&gt;deployment/cdi&#45;deployment -->
<g id="edge8" class="edge">
<title>deployment/cdi&#45;operator&#45;&gt;deployment/cdi&#45;deployment</title>
<path fill="none" stroke="black" d="M1141.84,-953.37C1190.5,-959.22 1243.7,-968.69 1291,-984 1360.25,-1006.41 1365.71,-1039.7 1435,-1062 1472.15,-1073.96 1512.84,-1082.36 1552.27,-1088.26"/>
<polygon fill="black" stroke="black" points="1572.13,-1091.04 1551.07,-1097.18 1562.22,-1089.65 1552.32,-1088.26 1552.32,-1088.26 1552.32,-1088.26 1562.22,-1089.65 1553.57,-1079.35 1572.13,-1091.04 1572.13,-1091.04"/>
</g>
<!-- deployment/cdi&#45;operator&#45;&gt;deployment/cdi&#45;apiserver -->
<g id="edge7" class="edge">
<title>deployment/cdi&#45;operator&#45;&gt;deployment/cdi&#45;apiserver</title>
<path fill="none" stroke="black" d="M1141.79,-960.27C1265.59,-973.04 1438.09,-990.83 1567.77,-1004.21"/>
<polygon fill="black" stroke="black" points="1587.8,-1006.27 1566.98,-1013.17 1577.85,-1005.25 1567.9,-1004.22 1567.9,-1004.22 1567.9,-1004.22 1577.85,-1005.25 1568.83,-995.27 1587.8,-1006.27 1587.8,-1006.27"/>
</g>
<!-- deployment/cdi&#45;uploadproxy -->
<g id="node13" class="node">
<title>deployment/cdi&#45;uploadproxy</title>
<path fill="none" stroke="black" d="M1920,-980C1920,-980 1582,-980 1582,-980 1576,-980 1570,-974 1570,-968 1570,-968 1570,-920 1570,-920 1570,-914 1576,-908 1582,-908 1582,-908 1920,-908 1920,-908 1926,-908 1932,-914 1932,-920 1932,-920 1932,-968 1932,-968 1932,-974 1926,-980 1920,-980"/>
<text text-anchor="middle" x="1751" y="-937.8" font-family="Courier-Bold" font-size="24.00">deployment/cdi&#45;uploadproxy</text>
</g>
<!-- deployment/cdi&#45;operator&#45;&gt;deployment/cdi&#45;uploadproxy -->
<g id="edge10" class="edge">
<title>deployment/cdi&#45;operator&#45;&gt;deployment/cdi&#45;uploadproxy</title>
<path fill="none" stroke="black" d="M1141.79,-944C1259.96,-944 1422.49,-944 1549.81,-944"/>
<polygon fill="black" stroke="black" points="1569.93,-944 1549.93,-953 1559.93,-944 1549.93,-944 1549.93,-944 1549.93,-944 1559.93,-944 1549.93,-935 1569.93,-944 1569.93,-944"/>
</g>
<!-- deployment/kubemacpool&#45;cert&#45;manager -->
<g id="node18" class="node">
<title>deployment/kubemacpool&#45;cert&#45;manager</title>
<path fill="none" stroke="black" d="M1991.5,-901C1991.5,-901 1510.5,-901 1510.5,-901 1504.5,-901 1498.5,-895 1498.5,-889 1498.5,-889 1498.5,-841 1498.5,-841 1498.5,-835 1504.5,-829 1510.5,-829 1510.5,-829 1991.5,-829 1991.5,-829 1997.5,-829 2003.5,-835 2003.5,-841 2003.5,-841 2003.5,-889 2003.5,-889 2003.5,-895 1997.5,-901 1991.5,-901"/>
<text text-anchor="middle" x="1751" y="-858.8" font-family="Courier-Bold" font-size="24.00">deployment/kubemacpool&#45;cert&#45;manager</text>
</g>
<!-- deployment/cluster&#45;network&#45;addons&#45;operator&#45;&gt;deployment/kubemacpool&#45;cert&#45;manager -->
<g id="edge16" class="edge">
<title>deployment/cluster&#45;network&#45;addons&#45;operator&#45;&gt;deployment/kubemacpool&#45;cert&#45;manager</title>
<path fill="none" stroke="black" d="M1266.51,-827.76C1335.68,-833.09 1409.57,-838.78 1478.22,-844.07"/>
<polygon fill="black" stroke="black" points="1498.39,-845.62 1477.76,-853.06 1488.42,-844.85 1478.45,-844.08 1478.45,-844.08 1478.45,-844.08 1488.42,-844.85 1479.15,-835.11 1498.39,-845.62 1498.39,-845.62"/>
</g>
<!-- deployment/kubemacpool&#45;mac&#45;controller&#45;manager -->
<g id="node19" class="node">
<title>deployment/kubemacpool&#45;mac&#45;controller&#45;manager</title>
<path fill="none" stroke="black" d="M2055,-822C2055,-822 1447,-822 1447,-822 1441,-822 1435,-816 1435,-810 1435,-810 1435,-762 1435,-762 1435,-756 1441,-750 1447,-750 1447,-750 2055,-750 2055,-750 2061,-750 2067,-756 2067,-762 2067,-762 2067,-810 2067,-810 2067,-816 2061,-822 2055,-822"/>
<text text-anchor="middle" x="1751" y="-779.8" font-family="Courier-Bold" font-size="24.00">deployment/kubemacpool&#45;mac&#45;controller&#45;manager</text>
</g>
<!-- deployment/cluster&#45;network&#45;addons&#45;operator&#45;&gt;deployment/kubemacpool&#45;mac&#45;controller&#45;manager -->
<g id="edge17" class="edge">
<title>deployment/cluster&#45;network&#45;addons&#45;operator&#45;&gt;deployment/kubemacpool&#45;mac&#45;controller&#45;manager</title>
<path fill="none" stroke="black" d="M1266.51,-798.62C1314.77,-797.36 1365.33,-796.04 1414.8,-794.75"/>
<polygon fill="black" stroke="black" points="1434.81,-794.23 1415.05,-803.75 1424.81,-794.49 1414.81,-794.75 1414.81,-794.75 1414.81,-794.75 1424.81,-794.49 1414.58,-785.75 1434.81,-794.23 1434.81,-794.23"/>
</g>
<!-- deployment/kubevirt&#45;ipam&#45;controller&#45;manager -->
<g id="node22" class="node">
<title>deployment/kubevirt&#45;ipam&#45;controller&#45;manager</title>
<path fill="none" stroke="black" d="M2027.5,-743C2027.5,-743 1474.5,-743 1474.5,-743 1468.5,-743 1462.5,-737 1462.5,-731 1462.5,-731 1462.5,-683 1462.5,-683 1462.5,-677 1468.5,-671 1474.5,-671 1474.5,-671 2027.5,-671 2027.5,-671 2033.5,-671 2039.5,-677 2039.5,-683 2039.5,-683 2039.5,-731 2039.5,-731 2039.5,-737 2033.5,-743 2027.5,-743"/>
<text text-anchor="middle" x="1751" y="-700.8" font-family="Courier-Bold" font-size="24.00">deployment/kubevirt&#45;ipam&#45;controller&#45;manager</text>
</g>
<!-- deployment/cluster&#45;network&#45;addons&#45;operator&#45;&gt;deployment/kubevirt&#45;ipam&#45;controller&#45;manager -->
<g id="edge20" class="edge">
<title>deployment/cluster&#45;network&#45;addons&#45;operator&#45;&gt;deployment/kubevirt&#45;ipam&#45;controller&#45;manager</title>
<path fill="none" stroke="black" d="M1260.55,-769.99C1270.83,-768.64 1281.01,-767.31 1291,-766 1355.01,-757.61 1370.98,-755.29 1435,-747 1438.63,-746.53 1442.29,-746.06 1445.97,-745.58"/>
<polygon fill="black" stroke="black" points="1465.81,-743.02 1447.13,-754.51 1455.89,-744.3 1445.98,-745.58 1445.98,-745.58 1445.98,-745.58 1455.89,-744.3 1444.83,-736.65 1465.81,-743.02 1465.81,-743.02"/>
</g>
<!-- daemonset/bridge&#45;marker -->
<g id="node33" class="node">
<title>daemonset/bridge&#45;marker</title>
<path fill="none" stroke="black" d="M1905,-664C1905,-664 1597,-664 1597,-664 1591,-664 1585,-658 1585,-652 1585,-652 1585,-604 1585,-604 1585,-598 1591,-592 1597,-592 1597,-592 1905,-592 1905,-592 1911,-592 1917,-598 1917,-604 1917,-604 1917,-652 1917,-652 1917,-658 1911,-664 1905,-664"/>
<text text-anchor="middle" x="1751" y="-621.8" font-family="Courier-Bold" font-size="24.00">daemonset/bridge&#45;marker</text>
</g>
<!-- deployment/cluster&#45;network&#45;addons&#45;operator&#45;&gt;daemonset/bridge&#45;marker -->
<g id="edge30" class="edge">
<title>deployment/cluster&#45;network&#45;addons&#45;operator&#45;&gt;daemonset/bridge&#45;marker</title>
<path fill="none" stroke="black" d="M1266.75,-774.39C1274.99,-771.8 1283.09,-769.01 1291,-766 1363.35,-738.47 1362.6,-695.41 1435,-668 1475.8,-652.55 1521.47,-642.84 1565.1,-636.78"/>
<polygon fill="black" stroke="black" points="1584.99,-634.25 1566.28,-645.7 1575.07,-635.51 1565.15,-636.77 1565.15,-636.77 1565.15,-636.77 1575.07,-635.51 1564.01,-627.85 1584.99,-634.25 1584.99,-634.25"/>
</g>
<!-- daemonset/kube&#45;cni&#45;linux&#45;bridge&#45;plugin -->
<g id="node34" class="node">
<title>daemonset/kube&#45;cni&#45;linux&#45;bridge&#45;plugin</title>
<path fill="none" stroke="black" d="M1988,-585C1988,-585 1514,-585 1514,-585 1508,-585 1502,-579 1502,-573 1502,-573 1502,-525 1502,-525 1502,-519 1508,-513 1514,-513 1514,-513 1988,-513 1988,-513 1994,-513 2000,-519 2000,-525 2000,-525 2000,-573 2000,-573 2000,-579 1994,-585 1988,-585"/>
<text text-anchor="middle" x="1751" y="-542.8" font-family="Courier-Bold" font-size="24.00">daemonset/kube&#45;cni&#45;linux&#45;bridge&#45;plugin</text>
</g>
<!-- deployment/cluster&#45;network&#45;addons&#45;operator&#45;&gt;daemonset/kube&#45;cni&#45;linux&#45;bridge&#45;plugin -->
<g id="edge31" class="edge">
<title>deployment/cluster&#45;network&#45;addons&#45;operator&#45;&gt;daemonset/kube&#45;cni&#45;linux&#45;bridge&#45;plugin</title>
<path fill="none" stroke="black" d="M1266.63,-777.98C1274.99,-774.37 1283.14,-770.38 1291,-766 1379.57,-716.61 1346.35,-638.25 1435,-589 1449.97,-580.68 1465.96,-573.79 1482.48,-568.11"/>
<polygon fill="black" stroke="black" points="1501.71,-562.09 1485.32,-576.65 1492.17,-565.07 1482.63,-568.06 1482.63,-568.06 1482.63,-568.06 1492.17,-565.07 1479.94,-559.47 1501.71,-562.09 1501.71,-562.09"/>
</g>
<!-- deployment/kubevirt&#45;migration&#45;controller -->
<g id="node23" class="node">
<title>deployment/kubevirt&#45;migration&#45;controller</title>
<path fill="none" stroke="black" d="M1230,-1454C1230,-1454 736,-1454 736,-1454 730,-1454 724,-1448 724,-1442 724,-1442 724,-1394 724,-1394 724,-1388 730,-1382 736,-1382 736,-1382 1230,-1382 1230,-1382 1236,-1382 1242,-1388 1242,-1394 1242,-1394 1242,-1442 1242,-1442 1242,-1448 1236,-1454 1230,-1454"/>
<text text-anchor="middle" x="983" y="-1411.8" font-family="Courier-Bold" font-size="24.00">deployment/kubevirt&#45;migration&#45;controller</text>
</g>
<!-- kubevirt&#45;migration&#45;operator -->
<g id="node24" class="node">
<title>kubevirt&#45;migration&#45;operator</title>
<path fill="none" stroke="black" d="M430.5,-1454C430.5,-1454 100.5,-1454 100.5,-1454 94.5,-1454 88.5,-1448 88.5,-1442 88.5,-1442 88.5,-1394 88.5,-1394 88.5,-1388 94.5,-1382 100.5,-1382 100.5,-1382 430.5,-1382 430.5,-1382 436.5,-1382 442.5,-1388 442.5,-1394 442.5,-1394 442.5,-1442 442.5,-1442 442.5,-1448 436.5,-1454 430.5,-1454"/>
<text text-anchor="middle" x="265.5" y="-1411.8" font-family="Courier-Bold" font-size="24.00">kubevirt&#45;migration&#45;operator</text>
</g>
<!-- kubevirt&#45;migration&#45;operator&#45;&gt;deployment/kubevirt&#45;migration&#45;controller -->
<g id="edge21" class="edge">
<title>kubevirt&#45;migration&#45;operator&#45;&gt;deployment/kubevirt&#45;migration&#45;controller</title>
<path fill="none" stroke="black" d="M442.91,-1418C521.5,-1418 615.96,-1418 703.71,-1418"/>
<polygon fill="black" stroke="black" points="723.78,-1418 703.78,-1427 713.78,-1418 703.78,-1418 703.78,-1418 703.78,-1418 713.78,-1418 703.78,-1409 723.78,-1418 723.78,-1418"/>
</g>
<!-- deployment/virt&#45;template&#45;validator -->
<g id="node32" class="node">
<title>deployment/virt&#45;template&#45;validator</title>
<path fill="none" stroke="black" d="M1960.5,-467C1960.5,-467 1541.5,-467 1541.5,-467 1535.5,-467 1529.5,-461 1529.5,-455 1529.5,-455 1529.5,-407 1529.5,-407 1529.5,-401 1535.5,-395 1541.5,-395 1541.5,-395 1960.5,-395 1960.5,-395 1966.5,-395 1972.5,-401 1972.5,-407 1972.5,-407 1972.5,-455 1972.5,-455 1972.5,-461 1966.5,-467 1960.5,-467"/>
<text text-anchor="middle" x="1751" y="-424.8" font-family="Courier-Bold" font-size="24.00">deployment/virt&#45;template&#45;validator</text>
</g>
<!-- deployment/ssp&#45;operator&#45;&gt;deployment/virt&#45;template&#45;validator -->
<g id="edge29" class="edge">
<title>deployment/ssp&#45;operator&#45;&gt;deployment/virt&#45;template&#45;validator</title>
<path fill="none" stroke="black" d="M1144.58,-415.19C1250.23,-417.95 1390.44,-421.61 1509.32,-424.72"/>
<polygon fill="black" stroke="black" points="1529.35,-425.24 1509.12,-433.71 1519.35,-424.98 1509.36,-424.72 1509.36,-424.72 1509.36,-424.72 1519.35,-424.98 1509.59,-415.72 1529.35,-425.24 1529.35,-425.24"/>
</g>
<!-- deployment/virt&#45;api -->
<g id="node27" class="node">
<title>deployment/virt&#45;api</title>
<path fill="none" stroke="black" d="M1866.5,-388C1866.5,-388 1635.5,-388 1635.5,-388 1629.5,-388 1623.5,-382 1623.5,-376 1623.5,-376 1623.5,-328 1623.5,-328 1623.5,-322 1629.5,-316 1635.5,-316 1635.5,-316 1866.5,-316 1866.5,-316 1872.5,-316 1878.5,-322 1878.5,-328 1878.5,-328 1878.5,-376 1878.5,-376 1878.5,-382 1872.5,-388 1866.5,-388"/>
<text text-anchor="middle" x="1751" y="-345.8" font-family="Courier-Bold" font-size="24.00">deployment/virt&#45;api</text>
</g>
<!-- deployment/virt&#45;operator&#45;&gt;deployment/virt&#45;api -->
<g id="edge24" class="edge">
<title>deployment/virt&#45;operator&#45;&gt;deployment/virt&#45;api</title>
<path fill="none" stroke="black" d="M1144.68,-263.04C1230.65,-278.63 1338.42,-297.42 1435,-312 1489.86,-320.28 1550.27,-328.24 1603.39,-334.84"/>
<polygon fill="black" stroke="black" points="1623.36,-337.3 1602.41,-343.79 1613.44,-336.08 1603.51,-334.85 1603.51,-334.85 1603.51,-334.85 1613.44,-336.08 1604.61,-325.92 1623.36,-337.3 1623.36,-337.3"/>
</g>
<!-- deployment/virt&#45;controller -->
<g id="node29" class="node">
<title>deployment/virt&#45;controller</title>
<path fill="none" stroke="black" d="M1906,-309C1906,-309 1596,-309 1596,-309 1590,-309 1584,-303 1584,-297 1584,-297 1584,-249 1584,-249 1584,-243 1590,-237 1596,-237 1596,-237 1906,-237 1906,-237 1912,-237 1918,-243 1918,-249 1918,-249 1918,-297 1918,-297 1918,-303 1912,-309 1906,-309"/>
<text text-anchor="middle" x="1751" y="-266.8" font-family="Courier-Bold" font-size="24.00">deployment/virt&#45;controller</text>
</g>
<!-- deployment/virt&#45;operator&#45;&gt;deployment/virt&#45;controller -->
<g id="edge25" class="edge">
<title>deployment/virt&#45;operator&#45;&gt;deployment/virt&#45;controller</title>
<path fill="none" stroke="black" d="M1144.58,-241.39C1266.8,-247.77 1435.26,-256.56 1563.46,-263.26"/>
<polygon fill="black" stroke="black" points="1583.68,-264.31 1563.23,-272.26 1573.69,-263.79 1563.7,-263.27 1563.7,-263.27 1563.7,-263.27 1573.69,-263.79 1564.17,-254.28 1583.68,-264.31 1583.68,-264.31"/>
</g>
<!-- deployment/virt&#45;exportproxy -->
<g id="node30" class="node">
<title>deployment/virt&#45;exportproxy</title>
<path fill="none" stroke="black" d="M1920.5,-230C1920.5,-230 1581.5,-230 1581.5,-230 1575.5,-230 1569.5,-224 1569.5,-218 1569.5,-218 1569.5,-170 1569.5,-170 1569.5,-164 1575.5,-158 1581.5,-158 1581.5,-158 1920.5,-158 1920.5,-158 1926.5,-158 1932.5,-164 1932.5,-170 1932.5,-170 1932.5,-218 1932.5,-218 1932.5,-224 1926.5,-230 1920.5,-230"/>
<text text-anchor="middle" x="1751" y="-187.8" font-family="Courier-Bold" font-size="24.00">deployment/virt&#45;exportproxy</text>
</g>
<!-- deployment/virt&#45;operator&#45;&gt;deployment/virt&#45;exportproxy -->
<g id="edge26" class="edge">
<title>deployment/virt&#45;operator&#45;&gt;deployment/virt&#45;exportproxy</title>
<path fill="none" stroke="black" d="M1144.58,-224.82C1262.2,-218.84 1422.66,-210.67 1548.83,-204.24"/>
<polygon fill="black" stroke="black" points="1569.17,-203.21 1549.65,-213.21 1559.18,-203.72 1549.19,-204.22 1549.19,-204.22 1549.19,-204.22 1559.18,-203.72 1548.74,-195.24 1569.17,-203.21 1569.17,-203.21"/>
</g>
<!-- deployment/virt&#45;synchronization&#45;controller -->
<g id="node31" class="node">
<title>deployment/virt&#45;synchronization&#45;controller</title>
<path fill="none" stroke="black" d="M2005.5,-151C2005.5,-151 1496.5,-151 1496.5,-151 1490.5,-151 1484.5,-145 1484.5,-139 1484.5,-139 1484.5,-91 1484.5,-91 1484.5,-85 1490.5,-79 1496.5,-79 1496.5,-79 2005.5,-79 2005.5,-79 2011.5,-79 2017.5,-85 2017.5,-91 2017.5,-91 2017.5,-139 2017.5,-139 2017.5,-145 2011.5,-151 2005.5,-151"/>
<text text-anchor="middle" x="1751" y="-108.8" font-family="Courier-Bold" font-size="24.00">deployment/virt&#45;synchronization&#45;controller</text>
</g>
<!-- deployment/virt&#45;operator&#45;&gt;deployment/virt&#45;synchronization&#45;controller -->
<g id="edge28" class="edge">
<title>deployment/virt&#45;operator&#45;&gt;deployment/virt&#45;synchronization&#45;controller</title>
<path fill="none" stroke="black" d="M1144.7,-203.4C1230.67,-188.02 1338.44,-169.47 1435,-155 1444.67,-153.55 1454.52,-152.11 1464.47,-150.68"/>
<polygon fill="black" stroke="black" points="1484.35,-147.87 1465.81,-159.58 1474.45,-149.27 1464.55,-150.67 1464.55,-150.67 1464.55,-150.67 1474.45,-149.27 1463.29,-141.76 1484.35,-147.87 1484.35,-147.87"/>
</g>
<!-- daemonset/virt&#45;handler -->
<g id="node35" class="node">
<title>daemonset/virt&#45;handler</title>
<path fill="none" stroke="black" d="M1890,-72C1890,-72 1612,-72 1612,-72 1606,-72 1600,-66 1600,-60 1600,-60 1600,-12 1600,-12 1600,-6 1606,0 1612,0 1612,0 1890,0 1890,0 1896,0 1902,-6 1902,-12 1902,-12 1902,-60 1902,-60 1902,-66 1896,-72 1890,-72"/>
<text text-anchor="middle" x="1751" y="-29.8" font-family="Courier-Bold" font-size="24.00">daemonset/virt&#45;handler</text>
</g>
<!-- deployment/virt&#45;operator&#45;&gt;daemonset/virt&#45;handler -->
<g id="edge32" class="edge">
<title>deployment/virt&#45;operator&#45;&gt;daemonset/virt&#45;handler</title>
<path fill="none" stroke="black" d="M1070.13,-196.96C1159.72,-160.91 1304.85,-106.56 1435,-76 1481.49,-65.08 1532.58,-56.97 1579.84,-51.02"/>
<polygon fill="black" stroke="black" points="1599.84,-48.6 1581.07,-59.94 1589.91,-49.8 1579.98,-51.01 1579.98,-51.01 1579.98,-51.01 1589.91,-49.8 1578.9,-42.07 1599.84,-48.6 1599.84,-48.6"/>
</g>
</g>
</svg>
