<?xml version="1.0" encoding="UTF-8" standalone="no"?>
<!DOCTYPE svg PUBLIC "-//W3C//DTD SVG 1.1//EN"
 "http://www.w3.org/Graphics/SVG/1.1/DTD/svg11.dtd">
<!-- Generated by graphviz version 2.44.0 (0)
 -->
<!-- Title: managed&#45;by Pages: 1 -->
<svg width="2470pt" height="1847pt"
 viewBox="14.40 14.40 2455.40 1832.40" xmlns="http://www.w3.org/2000/svg" xmlns:xlink="http://www.w3.org/1999/xlink">
<g id="graph0" class="graph" transform="scale(1 1) rotate(0) translate(18.4 1828.4)">
<title>managed&#45;by</title>
<polygon fill="white" stroke="transparent" points="-4,4 -4,-1814 2437,-1814 2437,4 -4,4"/>
<!-- HyperConverged/kubevirt&#45;hyperconverged -->
<g id="node1" class="node">
<title>HyperConverged/kubevirt&#45;hyperconverged</title>
<path fill="none" stroke="black" d="M519,-664C519,-664 12,-664 12,-664 6,-664 0,-658 0,-652 0,-652 0,-604 0,-604 0,-598 6,-592 12,-592 12,-592 519,-592 519,-592 525,-592 531,-598 531,-604 531,-604 531,-652 531,-652 531,-658 525,-664 519,-664"/>
<text text-anchor="middle" x="265.5" y="-621.8" font-family="Courier-Bold" font-size="24.00">HyperConverged/kubevirt&#45;hyperconverged</text>
</g>
<!-- KubeVirt/kubevirt&#45;kubevirt&#45;hyperconverged -->
<g id="node2" class="node">
<title>KubeVirt/kubevirt&#45;kubevirt&#45;hyperconverged</title>
<path fill="none" stroke="black" d="M2013,-1810C2013,-1810 1499,-1810 1499,-1810 1493,-1810 1487,-1804 1487,-1798 1487,-1798 1487,-1750 1487,-1750 1487,-1744 1493,-1738 1499,-1738 1499,-1738 2013,-1738 2013,-1738 2019,-1738 2025,-1744 2025,-1750 2025,-1750 2025,-1798 2025,-1798 2025,-1804 2019,-1810 2013,-1810"/>
<text text-anchor="middle" x="1756" y="-1767.8" font-family="Courier-Bold" font-size="24.00">KubeVirt/kubevirt&#45;kubevirt&#45;hyperconverged</text>
</g>
<!-- deployment/hco&#45;operator -->
<g id="node3" class="node">
<title>deployment/hco&#45;operator</title>
<path fill="none" stroke="black" d="M1136.5,-1533C1136.5,-1533 834.5,-1533 834.5,-1533 828.5,-1533 822.5,-1527 822.5,-1521 822.5,-1521 822.5,-1473 822.5,-1473 822.5,-1467 828.5,-1461 834.5,-1461 834.5,-1461 1136.5,-1461 1136.5,-1461 1142.5,-1461 1148.5,-1467 1148.5,-1473 1148.5,-1473 1148.5,-1521 1148.5,-1521 1148.5,-1527 1142.5,-1533 1136.5,-1533"/>
<text text-anchor="middle" x="985.5" y="-1490.8" font-family="Courier-Bold" font-size="24.00">deployment/hco&#45;operator</text>
</g>
<!-- deployment/hco&#45;operator&#45;&gt;KubeVirt/kubevirt&#45;kubevirt&#45;hyperconverged -->
<g id="edge1" class="edge">
<title>deployment/hco&#45;operator&#45;&gt;KubeVirt/kubevirt&#45;kubevirt&#45;hyperconverged</title>
<path fill="none" stroke="black" d="M1148.79,-1493.64C1198.79,-1498.8 1252.16,-1511.08 1296,-1537 1389.35,-1592.21 1346.59,-1678.9 1440,-1734 1448.97,-1739.29 1458.33,-1744.02 1467.98,-1748.24"/>
<polygon fill="black" stroke="black" points="1486.85,-1755.74 1464.94,-1756.72 1477.56,-1752.05 1468.26,-1748.35 1468.26,-1748.35 1468.26,-1748.35 1477.56,-1752.05 1471.59,-1739.99 1486.85,-1755.74 1486.85,-1755.74"/>
</g>
<!-- SSP/ssp&#45;kubevirt&#45;hyperconverged -->
<g id="node4" class="node">
<title>SSP/ssp&#45;kubevirt&#45;hyperconverged</title>
<path fill="none" stroke="black" d="M1955,-1731C1955,-1731 1557,-1731 1557,-1731 1551,-1731 1545,-1725 1545,-1719 1545,-1719 1545,-1671 1545,-1671 1545,-1665 1551,-1659 1557,-1659 1557,-1659 1955,-1659 1955,-1659 1961,-1659 1967,-1665 1967,-1671 1967,-1671 1967,-1719 1967,-1719 1967,-1725 1961,-1731 1955,-1731"/>
<text text-anchor="middle" x="1756" y="-1688.8" font-family="Courier-Bold" font-size="24.00">SSP/ssp&#45;kubevirt&#45;hyperconverged</text>
</g>
<!-- deployment/hco&#45;operator&#45;&gt;SSP/ssp&#45;kubevirt&#45;hyperconverged -->
<g id="edge2" class="edge">
<title>deployment/hco&#45;operator&#45;&gt;SSP/ssp&#45;kubevirt&#45;hyperconverged</title>
<path fill="none" stroke="black" d="M1148.87,-1500.94C1197.68,-1506.58 1250.36,-1517.3 1296,-1537 1371.97,-1569.79 1364,-1622.29 1440,-1655 1466.66,-1666.48 1495.69,-1674.92 1524.97,-1681.1"/>
<polygon fill="black" stroke="black" points="1544.74,-1684.93 1523.39,-1689.96 1534.92,-1683.03 1525.11,-1681.13 1525.11,-1681.13 1525.11,-1681.13 1534.92,-1683.03 1526.82,-1672.29 1544.74,-1684.93 1544.74,-1684.93"/>
</g>
<!-- CDI/cdi&#45;kubevirt&#45;hyperconverged -->
<g id="node5" class="node">
<title>CDI/cdi&#45;kubevirt&#45;hyperconverged</title>
<path fill="none" stroke="black" d="M1951.5,-1652C1951.5,-1652 1560.5,-1652 1560.5,-1652 1554.5,-1652 1548.5,-1646 1548.5,-1640 1548.5,-1640 1548.5,-1592 1548.5,-1592 1548.5,-1586 1554.5,-1580 1560.5,-1580 1560.5,-1580 1951.5,-1580 1951.5,-1580 1957.5,-1580 1963.5,-1586 1963.5,-1592 1963.5,-1592 1963.5,-1640 1963.5,-1640 1963.5,-1646 1957.5,-1652 1951.5,-1652"/>
<text text-anchor="middle" x="1756" y="-1609.8" font-family="Courier-Bold" font-size="24.00">CDI/cdi&#45;kubevirt&#45;hyperconverged</text>
</g>
<!-- deployment/hco&#45;operator&#45;&gt;CDI/cdi&#45;kubevirt&#45;hyperconverged -->
<g id="edge3" class="edge">
<title>deployment/hco&#45;operator&#45;&gt;CDI/cdi&#45;kubevirt&#45;hyperconverged</title>
<path fill="none" stroke="black" d="M1148.61,-1513.74C1196.31,-1519.8 1248.44,-1527.53 1296,-1537 1361.03,-1549.95 1374.96,-1563.13 1440,-1576 1468.48,-1581.64 1498.57,-1586.65 1528.4,-1591.05"/>
<polygon fill="black" stroke="black" points="1548.47,-1593.93 1527.39,-1600 1538.57,-1592.51 1528.67,-1591.09 1528.67,-1591.09 1528.67,-1591.09 1538.57,-1592.51 1529.95,-1582.18 1548.47,-1593.93 1548.47,-1593.93"/>
</g>
<!-- NetworkAddonsConfig/cluster -->
<g id="node8" class="node">
<title>NetworkAddonsConfig/cluster</title>
<path fill="none" stroke="black" d="M1931,-1573C1931,-1573 1581,-1573 1581,-1573 1575,-1573 1569,-1567 1569,-1561 1569,-1561 1569,-1513 1569,-1513 1569,-1507 1575,-1501 1581,-1501 1581,-1501 1931,-1501 1931,-1501 1937,-1501 1943,-1507 1943,-1513 1943,-1513 1943,-1561 1943,-1561 1943,-1567 1937,-1573 1931,-1573"/>
<text text-anchor="middle" x="1756" y="-1530.8" font-family="Courier-Bold" font-size="24.00">NetworkAddonsConfig/cluster</text>
</g>
<!-- deployment/hco&#45;operator&#45;&gt;NetworkAddonsConfig/cluster -->
<g id="edge5" class="edge">
<title>deployment/hco&#45;operator&#45;&gt;NetworkAddonsConfig/cluster</title>
<path fill="none" stroke="black" d="M1148.54,-1505.43C1265.04,-1511.5 1423.07,-1519.72 1548.61,-1526.26"/>
<polygon fill="black" stroke="black" points="1568.86,-1527.31 1548.42,-1535.26 1558.87,-1526.79 1548.89,-1526.27 1548.89,-1526.27 1548.89,-1526.27 1558.87,-1526.79 1549.35,-1517.28 1568.86,-1527.31 1568.86,-1527.31"/>
</g>
<!-- deployment/cnv&#45;network&#45;resources&#45;injector -->
<g id="node15" class="node">
<title>deployment/cnv&#45;network&#45;resources&#45;injector</title>
<path fill="none" stroke="black" d="M2016.5,-1494C2016.5,-1494 1495.5,-1494 1495.5,-1494 1489.5,-1494 1483.5,-1488 1483.5,-1482 1483.5,-1482 1483.5,-1434 1483.5,-1434 1483.5,-1428 1489.5,-1422 1495.5,-1422 1495.5,-1422 2016.5,-1422 2016.5,-1422 2022.5,-1422 2028.5,-1428 2028.5,-1434 2028.5,-1434 2028.5,-1482 2028.5,-1482 2028.5,-1488 2022.5,-1494 2016.5,-1494"/>
<text text-anchor="middle" x="1756" y="-1451.8" font-family="Courier-Bold" font-size="24.00">deployment/cnv&#45;network&#45;resources&#45;injector</text>
</g>
<!-- deployment/hco&#45;operator&#45;&gt;deployment/cnv&#45;network&#45;resources&#45;injector -->
<g id="edge12" class="edge">
<title>deployment/hco&#45;operator&#45;&gt;deployment/cnv&#45;network&#45;resources&#45;injector</title>
<path fill="none" stroke="black" d="M1148.54,-1488.78C1239.75,-1484.15 1356.42,-1478.23 1463.02,-1472.82"/>
<polygon fill="black" stroke="black" points="1483.14,-1471.8 1463.63,-1481.8 1473.16,-1472.3 1463.17,-1472.81 1463.17,-1472.81 1463.17,-1472.81 1473.16,-1472.3 1462.71,-1463.82 1483.14,-1471.8 1483.14,-1471.8"/>
</g>
<!-- deployment/kubevirt&#45;apiserver&#45;proxy -->
<g id="node22" class="node">
<title>deployment/kubevirt&#45;apiserver&#45;proxy</title>
<path fill="none" stroke="black" d="M1976,-1415C1976,-1415 1536,-1415 1536,-1415 1530,-1415 1524,-1409 1524,-1403 1524,-1403 1524,-1355 1524,-1355 1524,-1349 1530,-1343 1536,-1343 1536,-1343 1976,-1343 1976,-1343 1982,-1343 1988,-1349 1988,-1355 1988,-1355 1988,-1403 1988,-1403 1988,-1409 1982,-1415 1976,-1415"/>
<text text-anchor="middle" x="1756" y="-1372.8" font-family="Courier-Bold" font-size="24.00">deployment/kubevirt&#45;apiserver&#45;proxy</text>
</g>
<!-- deployment/hco&#45;operator&#45;&gt;deployment/kubevirt&#45;apiserver&#45;proxy -->
<g id="edge20" class="edge">
<title>deployment/hco&#45;operator&#45;&gt;deployment/kubevirt&#45;apiserver&#45;proxy</title>
<path fill="none" stroke="black" d="M1148.63,-1467.33C1234.99,-1451.98 1343.11,-1433.48 1440,-1419 1460.77,-1415.9 1482.33,-1412.83 1503.99,-1409.86"/>
<polygon fill="black" stroke="black" points="1523.88,-1407.16 1505.28,-1418.77 1513.98,-1408.51 1504.07,-1409.85 1504.07,-1409.85 1504.07,-1409.85 1513.98,-1408.51 1502.86,-1400.93 1523.88,-1407.16 1523.88,-1407.16"/>
</g>
<!-- deployment/kubevirt&#45;console&#45;plugin -->
<g id="node23" class="node">
<title>deployment/kubevirt&#45;console&#45;plugin</title>
<path fill="none" stroke="black" d="M1970,-1336C1970,-1336 1542,-1336 1542,-1336 1536,-1336 1530,-1330 1530,-1324 1530,-1324 1530,-1276 1530,-1276 1530,-1270 1536,-1264 1542,-1264 1542,-1264 1970,-1264 1970,-1264 1976,-1264 1982,-1270 1982,-1276 1982,-1276 1982,-1324 1982,-1324 1982,-1330 1976,-1336 1970,-1336"/>
<text text-anchor="middle" x="1756" y="-1293.8" font-family="Courier-Bold" font-size="24.00">deployment/kubevirt&#45;console&#45;plugin</text>
</g>
<!-- deployment/hco&#45;operator&#45;&gt;deployment/kubevirt&#45;console&#45;plugin -->
<g id="edge21" class="edge">
<title>deployment/hco&#45;operator&#45;&gt;deployment/kubevirt&#45;console&#45;plugin</title>
<path fill="none" stroke="black" d="M1073.12,-1460.98C1163.24,-1424.94 1309.18,-1370.6 1440,-1340 1462.54,-1334.73 1486.16,-1330.11 1509.9,-1326.07"/>
<polygon fill="black" stroke="black" points="1529.85,-1322.81 1511.56,-1334.92 1519.98,-1324.42 1510.11,-1326.04 1510.11,-1326.04 1510.11,-1326.04 1519.98,-1324.42 1508.66,-1317.15 1529.85,-1322.81 1529.85,-1322.81"/>
</g>
<!-- CDIConfig/config -->
<g id="node6" class="node">
<title>CDIConfig/config</title>
<path fill="none" stroke="black" d="M2421,-1257C2421,-1257 2228,-1257 2228,-1257 2222,-1257 2216,-1251 2216,-1245 2216,-1245 2216,-1197 2216,-1197 2216,-1191 2222,-1185 2228,-1185 2228,-1185 2421,-1185 2421,-1185 2427,-1185 2433,-1191 2433,-1197 2433,-1197 2433,-1245 2433,-1245 2433,-1251 2427,-1257 2421,-1257"/>
<text text-anchor="middle" x="2324.5" y="-1214.8" font-family="Courier-Bold" font-size="24.00">CDIConfig/config</text>
</g>
<!-- deployment/cdi&#45;deployment -->
<g id="node7" class="node">
<title>deployment/cdi&#45;deployment</title>
<path fill="none" stroke="black" d="M1922.5,-1257C1922.5,-1257 1589.5,-1257 1589.5,-1257 1583.5,-1257 1577.5,-1251 1577.5,-1245 1577.5,-1245 1577.5,-1197 1577.5,-1197 1577.5,-1191 1583.5,-1185 1589.5,-1185 1589.5,-1185 1922.5,-1185 1922.5,-1185 1928.5,-1185 1934.5,-1191 1934.5,-1197 1934.5,-1197 1934.5,-1245 1934.5,-1245 1934.5,-1251 1928.5,-1257 1922.5,-1257"/>
<text text-anchor="middle" x="1756" y="-1214.8" font-family="Courier-Bold" font-size="24.00">deployment/cdi&#45;deployment</text>
</g>
<!-- deployment/cdi&#45;deployment&#45;&gt;CDIConfig/config -->
<g id="edge4" class="edge">
<title>deployment/cdi&#45;deployment&#45;&gt;CDIConfig/config</title>
<path fill="none" stroke="black" d="M1934.69,-1221C2019.28,-1221 2118.54,-1221 2195.59,-1221"/>
<polygon fill="black" stroke="black" points="2215.69,-1221 2195.69,-1230 2205.69,-1221 2195.69,-1221 2195.69,-1221 2195.69,-1221 2205.69,-1221 2195.69,-1212 2215.69,-1221 2215.69,-1221"/>
</g>
<!-- deployment/aaq&#45;operator -->
<g id="node9" class="node">
<title>deployment/aaq&#45;operator</title>
<path fill="none" stroke="black" d="M1137,-1178C1137,-1178 834,-1178 834,-1178 828,-1178 822,-1172 822,-1166 822,-1166 822,-1118 822,-1118 822,-1112 828,-1106 834,-1106 834,-1106 1137,-1106 1137,-1106 1143,-1106 1149,-1112 1149,-1118 1149,-1118 1149,-1166 1149,-1166 1149,-1172 1143,-1178 1137,-1178"/>
<text text-anchor="middle" x="985.5" y="-1135.8" font-family="Courier-Bold" font-size="24.00">deployment/aaq&#45;operator</text>
</g>
<!-- olm -->
<g id="node10" class="node">
<title>olm</title>
<path fill="none" stroke="black" d="M361.5,-743C361.5,-743 169.5,-743 169.5,-743 163.5,-743 157.5,-737 157.5,-731 157.5,-731 157.5,-683 157.5,-683 157.5,-677 163.5,-671 169.5,-671 169.5,-671 361.5,-671 361.5,-671 367.5,-671 373.5,-677 373.5,-683 373.5,-683 373.5,-731 373.5,-731 373.5,-737 367.5,-743 361.5,-743"/>
<text text-anchor="middle" x="265.5" y="-700.8" font-family="Courier-Bold" font-size="24.00">olm</text>
</g>
<!-- olm&#45;&gt;deployment/hco&#45;operator -->
<g id="edge13" class="edge">
<title>olm&#45;&gt;deployment/hco&#45;operator</title>
<path fill="none" stroke="black" d="M296.23,-743.06C362.6,-823.19 528.54,-1021.62 675,-1181 763.32,-1277.12 870.81,-1384.91 933.07,-1446.5"/>
<polygon fill="black" stroke="black" points="947.51,-1460.76 926.96,-1453.11 940.4,-1453.74 933.28,-1446.71 933.28,-1446.71 933.28,-1446.71 940.4,-1453.74 939.6,-1440.31 947.51,-1460.76 947.51,-1460.76"/>
</g>
<!-- olm&#45;&gt;deployment/aaq&#45;operator -->
<g id="edge6" class="edge">
<title>olm&#45;&gt;deployment/aaq&#45;operator</title>
<path fill="none" stroke="black" d="M291.07,-743.15C347.89,-823.48 497.21,-1016.43 675,-1102 713.97,-1120.75 758.72,-1131.7 801.87,-1137.89"/>
<polygon fill="black" stroke="black" points="821.88,-1140.44 800.9,-1146.84 811.96,-1139.18 802.04,-1137.91 802.04,-1137.91 802.04,-1137.91 811.96,-1139.18 803.18,-1128.98 821.88,-1140.44 821.88,-1140.44"/>
</g>
<!-- deployment/cdi&#45;operator -->
<g id="node12" class="node">
<title>deployment/cdi&#45;operator</title>
<path fill="none" stroke="black" d="M1132,-1099C1132,-1099 839,-1099 839,-1099 833,-1099 827,-1093 827,-1087 827,-1087 827,-1039 827,-1039 827,-1033 833,-1027 839,-1027 839,-1027 1132,-1027 1132,-1027 1138,-1027 1144,-1033 1144,-1039 1144,-1039 1144,-1087 1144,-1087 1144,-1093 1138,-1099 1132,-1099"/>
<text text-anchor="middle" x="985.5" y="-1056.8" font-family="Courier-Bold" font-size="24.00">deployment/cdi&#45;operator</text>
</g>
<!-- olm&#45;&gt;deployment/cdi&#45;operator -->
<g id="edge9" class="edge">
<title>olm&#45;&gt;deployment/cdi&#45;operator</title>
<path fill="none" stroke="black" d="M322.12,-743.09C399.34,-792.29 544.28,-881.44 675,-944 734.37,-972.41 802.43,-999.18 859.59,-1020.11"/>
<polygon fill="black" stroke="black" points="878.53,-1026.97 856.66,-1028.62 869.13,-1023.57 859.73,-1020.16 859.73,-1020.16 859.73,-1020.16 869.13,-1023.57 862.8,-1011.7 878.53,-1026.97 878.53,-1026.97"/>
</g>
<!-- deployment/cluster&#45;network&#45;addons&#45;operator -->
<g id="node14" class="node">
<title>deployment/cluster&#45;network&#45;addons&#45;operator</title>
<path fill="none" stroke="black" d="M1257,-941C1257,-941 714,-941 714,-941 708,-941 702,-935 702,-929 702,-929 702,-881 702,-881 702,-875 708,-869 714,-869 714,-869 1257,-869 1257,-869 1263,-869 1269,-875 1269,-881 1269,-881 1269,-929 1269,-929 1269,-935 1263,-941 1257,-941"/>
<text text-anchor="middle" x="985.5" y="-898.8" font-family="Courier-Bold" font-size="24.00">deployment/cluster&#45;network&#45;addons&#45;operator</text>
</g>
<!-- olm&#45;&gt;deployment/cluster&#45;network&#45;addons&#45;operator -->
<g id="edge11" class="edge">
<title>olm&#45;&gt;deployment/cluster&#45;network&#45;addons&#45;operator</title>
<path fill="none" stroke="black" d="M343.37,-743.16C424.14,-779.62 555.79,-834.71 675,-865 677.34,-865.59 679.68,-866.18 682.04,-866.76"/>
<polygon fill="black" stroke="black" points="701.85,-871.35 680.33,-875.6 692.11,-869.09 682.37,-866.83 682.37,-866.83 682.37,-866.83 692.11,-869.09 684.4,-858.06 701.85,-871.35 701.85,-871.35"/>
</g>
<!-- deployment/hco&#45;webhook -->
<g id="node16" class="node">
<title>deployment/hco&#45;webhook</title>
<path fill="none" stroke="black" d="M1138.5,-862C1138.5,-862 832.5,-862 832.5,-862 826.5,-862 820.5,-856 820.5,-850 820.5,-850 820.5,-802 820.5,-802 820.5,-796 826.5,-790 832.5,-790 832.5,-790 1138.5,-790 1138.5,-790 1144.5,-790 1150.5,-796 1150.5,-802 1150.5,-802 1150.5,-850 1150.5,-850 1150.5,-856 1144.5,-862 1138.5,-862"/>
<text text-anchor="middle" x="985.5" y="-819.8" font-family="Courier-Bold" font-size="24.00">deployment/hco&#45;webhook</text>
</g>
<!-- olm&#45;&gt;deployment/hco&#45;webhook -->
<g id="edge14" class="edge">
<title>olm&#45;&gt;deployment/hco&#45;webhook</title>
<path fill="none" stroke="black" d="M373.68,-729.63C455.89,-746.52 572.31,-769.45 675,-786 715.45,-792.52 759.01,-798.68 800.32,-804.12"/>
<polygon fill="black" stroke="black" points="820.39,-806.73 799.39,-813.07 810.47,-805.44 800.55,-804.15 800.55,-804.15 800.55,-804.15 810.47,-805.44 801.72,-795.22 820.39,-806.73 820.39,-806.73"/>
</g>
<!-- deployment/hostpath&#45;provisioner&#45;operator -->
<g id="node17" class="node">
<title>deployment/hostpath&#45;provisioner&#45;operator</title>
<path fill="none" stroke="black" d="M1239,-783C1239,-783 732,-783 732,-783 726,-783 720,-777 720,-771 720,-771 720,-723 720,-723 720,-717 726,-711 732,-711 732,-711 1239,-711 1239,-711 1245,-711 1251,-717 1251,-723 1251,-723 1251,-771 1251,-771 1251,-777 1245,-783 1239,-783"/>
<text text-anchor="middle" x="985.5" y="-740.8" font-family="Courier-Bold" font-size="24.00">deployment/hostpath&#45;provisioner&#45;operator</text>
</g>
<!-- olm&#45;&gt;deployment/hostpath&#45;provisioner&#45;operator -->
<g id="edge15" class="edge">
<title>olm&#45;&gt;deployment/hostpath&#45;provisioner&#45;operator</title>
<path fill="none" stroke="black" d="M373.6,-712.97C459.8,-717.77 585.06,-724.75 699.75,-731.14"/>
<polygon fill="black" stroke="black" points="719.91,-732.26 699.44,-740.13 709.93,-731.7 699.94,-731.15 699.94,-731.15 699.94,-731.15 709.93,-731.7 700.44,-722.16 719.91,-732.26 719.91,-732.26"/>
</g>
<!-- deployment/hyperconverged&#45;cluster&#45;cli&#45;download -->
<g id="node18" class="node">
<title>deployment/hyperconverged&#45;cluster&#45;cli&#45;download</title>
<path fill="none" stroke="black" d="M1281.5,-704C1281.5,-704 689.5,-704 689.5,-704 683.5,-704 677.5,-698 677.5,-692 677.5,-692 677.5,-644 677.5,-644 677.5,-638 683.5,-632 689.5,-632 689.5,-632 1281.5,-632 1281.5,-632 1287.5,-632 1293.5,-638 1293.5,-644 1293.5,-644 1293.5,-692 1293.5,-692 1293.5,-698 1287.5,-704 1281.5,-704"/>
<text text-anchor="middle" x="985.5" y="-661.8" font-family="Courier-Bold" font-size="24.00">deployment/hyperconverged&#45;cluster&#45;cli&#45;download</text>
</g>
<!-- olm&#45;&gt;deployment/hyperconverged&#45;cluster&#45;cli&#45;download -->
<g id="edge16" class="edge">
<title>olm&#45;&gt;deployment/hyperconverged&#45;cluster&#45;cli&#45;download</title>
<path fill="none" stroke="black" d="M373.6,-701.18C449.27,-697.07 555.04,-691.33 657.33,-685.77"/>
<polygon fill="black" stroke="black" points="677.39,-684.68 657.91,-694.75 667.41,-685.22 657.42,-685.77 657.42,-685.77 657.42,-685.77 667.41,-685.22 656.93,-676.78 677.39,-684.68 677.39,-684.68"/>
</g>
<!-- deployment/inflightoperations&#45;controller&#45;manager -->
<g id="node19" class="node">
<title>deployment/inflightoperations&#45;controller&#45;manager</title>
<path fill="none" stroke="black" d="M1284,-625C1284,-625 687,-625 687,-625 681,-625 675,-619 675,-613 675,-613 675,-565 675,-565 675,-559 681,-553 687,-553 687,-553 1284,-553 1284,-553 1290,-553 1296,-559 1296,-565 1296,-565 1296,-613 1296,-613 1296,-619 1290,-625 1284,-625"/>
<text text-anchor="middle" x="985.5" y="-582.8" font-family="Courier-Bold" font-size="24.00">deployment/inflightoperations&#45;controller&#45;manager</text>
</g>
<!-- olm&#45;&gt;deployment/inflightoperations&#45;controller&#45;manager -->
<g id="edge17" class="edge">
<title>olm&#45;&gt;deployment/inflightoperations&#45;controller&#45;manager</title>
<path fill="none" stroke="black" d="M373.78,-693.46C422.05,-686.67 479.61,-677.63 531,-667 595.82,-653.59 610.04,-641.71 675,-629 675.43,-628.92 675.86,-628.83 676.3,-628.75"/>
<polygon fill="black" stroke="black" points="696,-625.04 678,-637.58 686.17,-626.89 676.34,-628.74 676.34,-628.74 676.34,-628.74 686.17,-626.89 674.68,-619.89 696,-625.04 696,-625.04"/>
</g>
<!-- deployment/kubevirt&#45;migration&#45;operator -->
<g id="node27" class="node">
<title>deployment/kubevirt&#45;migration&#45;operator</title>
<path fill="none" stroke="black" d="M1226.5,-546C1226.5,-546 744.5,-546 744.5,-546 738.5,-546 732.5,-540 732.5,-534 732.5,-534 732.5,-486 732.5,-486 732.5,-480 738.5,-474 744.5,-474 744.5,-474 1226.5,-474 1226.5,-474 1232.5,-474 1238.5,-480 1238.5,-486 1238.5,-486 1238.5,-534 1238.5,-534 1238.5,-540 1232.5,-546 1226.5,-546"/>
<text text-anchor="middle" x="985.5" y="-503.8" font-family="Courier-Bold" font-size="24.00">deployment/kubevirt&#45;migration&#45;operator</text>
</g>
<!-- olm&#45;&gt;deployment/kubevirt&#45;migration&#45;operator -->
<g id="edge24" class="edge">
<title>olm&#45;&gt;deployment/kubevirt&#45;migration&#45;operator</title>
<path fill="none" stroke="black" d="M373.73,-703.68C423.31,-698.95 481.94,-688.69 531,-667 606.42,-633.66 599.22,-582.52 675,-550 687.21,-544.76 699.92,-540.16 712.92,-536.12"/>
<polygon fill="black" stroke="black" points="732.16,-530.59 715.42,-544.76 722.55,-533.35 712.94,-536.11 712.94,-536.11 712.94,-536.11 722.55,-533.35 710.45,-527.46 732.16,-530.59 732.16,-530.59"/>
</g>
<!-- deployment/ssp&#45;operator -->
<g id="node28" class="node">
<title>deployment/ssp&#45;operator</title>
<path fill="none" stroke="black" d="M1135,-467C1135,-467 836,-467 836,-467 830,-467 824,-461 824,-455 824,-455 824,-407 824,-407 824,-401 830,-395 836,-395 836,-395 1135,-395 1135,-395 1141,-395 1147,-401 1147,-407 1147,-407 1147,-455 1147,-455 1147,-461 1141,-467 1135,-467"/>
<text text-anchor="middle" x="985.5" y="-424.8" font-family="Courier-Bold" font-size="24.00">deployment/ssp&#45;operator</text>
</g>
<!-- olm&#45;&gt;deployment/ssp&#45;operator -->
<g id="edge25" class="edge">
<title>olm&#45;&gt;deployment/ssp&#45;operator</title>
<path fill="none" stroke="black" d="M373.65,-709.35C424.49,-706.01 484.2,-695.29 531,-667 623.51,-611.09 581.89,-525.91 675,-471 713.53,-448.28 759.41,-436.05 803.88,-429.91"/>
<polygon fill="black" stroke="black" points="823.84,-427.54 805.04,-438.84 813.91,-428.72 803.98,-429.9 803.98,-429.9 803.98,-429.9 813.91,-428.72 802.92,-420.96 823.84,-427.54 823.84,-427.54"/>
</g>
<!-- deployment/virt&#45;operator -->
<g id="node30" class="node">
<title>deployment/virt&#45;operator</title>
<path fill="none" stroke="black" d="M1135,-388C1135,-388 836,-388 836,-388 830,-388 824,-382 824,-376 824,-376 824,-328 824,-328 824,-322 830,-316 836,-316 836,-316 1135,-316 1135,-316 1141,-316 1147,-322 1147,-328 1147,-328 1147,-376 1147,-376 1147,-382 1141,-388 1135,-388"/>
<text text-anchor="middle" x="985.5" y="-345.8" font-family="Courier-Bold" font-size="24.00">deployment/virt&#45;operator</text>
</g>
<!-- olm&#45;&gt;deployment/virt&#45;operator -->
<g id="edge29" class="edge">
<title>olm&#45;&gt;deployment/virt&#45;operator</title>
<path fill="none" stroke="black" d="M373.68,-712.47C425.43,-710.02 485.9,-699.15 531,-667 643.35,-586.92 561.8,-470.86 675,-392 712.37,-365.97 758.57,-352.72 803.77,-346.66"/>
<polygon fill="black" stroke="black" points="823.74,-344.43 804.86,-355.6 813.8,-345.54 803.86,-346.65 803.86,-346.65 803.86,-346.65 813.8,-345.54 802.86,-337.71 823.74,-344.43 823.74,-344.43"/>
</g>
<!-- deployment/virt&#45;platform&#45;autopilot -->
<g id="node33" class="node">
<title>deployment/virt&#45;platform&#45;autopilot</title>
<path fill="none" stroke="black" d="M1192.5,-309C1192.5,-309 778.5,-309 778.5,-309 772.5,-309 766.5,-303 766.5,-297 766.5,-297 766.5,-249 766.5,-249 766.5,-243 772.5,-237 778.5,-237 778.5,-237 1192.5,-237 1192.5,-237 1198.5,-237 1204.5,-243 1204.5,-249 1204.5,-249 1204.5,-297 1204.5,-297 1204.5,-303 1198.5,-309 1192.5,-309"/>
<text text-anchor="middle" x="985.5" y="-266.8" font-family="Courier-Bold" font-size="24.00">deployment/virt&#45;platform&#45;autopilot</text>
</g>
<!-- olm&#45;&gt;deployment/virt&#45;platform&#45;autopilot -->
<g id="edge30" class="edge">
<title>olm&#45;&gt;deployment/virt&#45;platform&#45;autopilot</title>
<path fill="none" stroke="black" d="M373.74,-714.34C426.12,-712.48 487.13,-701.56 531,-667 664.42,-561.89 540.45,-416.67 675,-313 696.22,-296.65 720.79,-285.12 746.63,-277.16"/>
<polygon fill="black" stroke="black" points="766.11,-271.87 749.17,-285.8 756.46,-274.49 746.81,-277.12 746.81,-277.12 746.81,-277.12 756.46,-274.49 744.45,-268.43 766.11,-271.87 766.11,-271.87"/>
</g>
<!-- deployment/cdi&#45;apiserver -->
<g id="node11" class="node">
<title>deployment/cdi&#45;apiserver</title>
<path fill="none" stroke="black" d="M1907,-1178C1907,-1178 1605,-1178 1605,-1178 1599,-1178 1593,-1172 1593,-1166 1593,-1166 1593,-1118 1593,-1118 1593,-1112 1599,-1106 1605,-1106 1605,-1106 1907,-1106 1907,-1106 1913,-1106 1919,-1112 1919,-1118 1919,-1118 1919,-1166 1919,-1166 1919,-1172 1913,-1178 1907,-1178"/>
<text text-anchor="middle" x="1756" y="-1135.8" font-family="Courier-Bold" font-size="24.00">deployment/cdi&#45;apiserver</text>
</g>
<!-- deployment/cdi&#45;operator&#45;&gt;deployment/cdi&#45;deployment -->
<g id="edge8" class="edge">
<title>deployment/cdi&#45;operator&#45;&gt;deployment/cdi&#45;deployment</title>
<path fill="none" stroke="black" d="M1144.03,-1072.07C1193.52,-1077.89 1247.8,-1087.43 1296,-1103 1365.26,-1125.38 1370.71,-1158.7 1440,-1181 1477.15,-1192.96 1517.84,-1201.36 1557.27,-1207.26"/>
<polygon fill="black" stroke="black" points="1577.13,-1210.04 1556.07,-1216.18 1567.22,-1208.65 1557.32,-1207.26 1557.32,-1207.26 1557.32,-1207.26 1567.22,-1208.65 1558.57,-1198.35 1577.13,-1210.04 1577.13,-1210.04"/>
</g>
<!-- deployment/cdi&#45;operator&#45;&gt;deployment/cdi&#45;apiserver -->
<g id="edge7" class="edge">
<title>deployment/cdi&#45;operator&#45;&gt;deployment/cdi&#45;apiserver</title>
<path fill="none" stroke="black" d="M1144.34,-1079.23C1268.72,-1092.01 1442.3,-1109.85 1572.62,-1123.25"/>
<polygon fill="black" stroke="black" points="1592.74,-1125.32 1571.92,-1132.23 1582.79,-1124.3 1572.84,-1123.27 1572.84,-1123.27 1572.84,-1123.27 1582.79,-1124.3 1573.76,-1114.32 1592.74,-1125.32 1592.74,-1125.32"/>
</g>
<!-- deployment/cdi&#45;uploadproxy -->
<g id="node13" class="node">
<title>deployment/cdi&#45;uploadproxy</title>
<path fill="none" stroke="black" d="M1925,-1099C1925,-1099 1587,-1099 1587,-1099 1581,-1099 1575,-1093 1575,-1087 1575,-1087 1575,-1039 1575,-1039 1575,-1033 1581,-1027 1587,-1027 1587,-1027 1925,-1027 1925,-1027 1931,-1027 1937,-1033 1937,-1039 1937,-1039 1937,-1087 1937,-1087 1937,-1093 1931,-1099 1925,-1099"/>
<text text-anchor="middle" x="1756" y="-1056.8" font-family="Courier-Bold" font-size="24.00">deployment/cdi&#45;uploadproxy</text>
</g>
<!-- deployment/cdi&#45;operator&#45;&gt;deployment/cdi&#45;uploadproxy -->
<g id="edge10" class="edge">
<title>deployment/cdi&#45;operator&#45;&gt;deployment/cdi&#45;uploadproxy</title>
<path fill="none" stroke="black" d="M1144.34,-1063C1263.06,-1063 1426.62,-1063 1554.59,-1063"/>
<polygon fill="black" stroke="black" points="1574.81,-1063 1554.81,-1072 1564.81,-1063 1554.81,-1063 1554.81,-1063 1554.81,-1063 1564.81,-1063 1554.81,-1054 1574.81,-1063 1574.81,-1063"/>
</g>
<!-- deployment/kubemacpool&#45;cert&#45;manager -->
<g id="node20" class="node">
<title>deployment/kubemacpool&#45;cert&#45;manager</title>
<path fill="none" stroke="black" d="M1996.5,-1020C1996.5,-1020 1515.5,-1020 1515.5,-1020 1509.5,-1020 1503.5,-1014 1503.5,-1008 1503.5,-1008 1503.5,-960 1503.5,-960 1503.5,-954 1509.5,-948 1515.5,-948 1515.5,-948 1996.5,-948 1996.5,-948 2002.5,-948 2008.5,-954 2008.5,-960 2008.5,-960 2008.5,-1008 2008.5,-1008 2008.5,-1014 2002.5,-1020 1996.5,-1020"/>
<text text-anchor="middle" x="1756" y="-977.8" font-family="Courier-Bold" font-size="24.00">deployment/kubemacpool&#45;cert&#45;manager</text>
</g>
<!-- deployment/cluster&#45;network&#45;addons&#45;operator&#45;&gt;deployment/kubemacpool&#45;cert&#45;manager -->
<g id="edge18" class="edge">
<title>deployment/cluster&#45;network&#45;addons&#45;operator&#45;&gt;deployment/kubemacpool&#45;cert&#45;manager</title>
<path fill="none" stroke="black" d="M1269.11,-934.05C1339.1,-941.25 1413.94,-948.94 1483.39,-956.08"/>
<polygon fill="black" stroke="black" points="1503.31,-958.13 1482.49,-965.03 1493.36,-957.1 1483.41,-956.08 1483.41,-956.08 1483.41,-956.08 1493.36,-957.1 1484.33,-947.13 1503.31,-958.13 1503.31,-958.13"/>
</g>
<!-- deployment/kubemacpool&#45;mac&#45;controller&#45;manager -->
<g id="node21" class="node">
<title>deployment/kubemacpool&#45;mac&#45;controller&#45;manager</title>
<path fill="none" stroke="black" d="M2060,-941C2060,-941 1452,-941 1452,-941 1446,-941 1440,-935 1440,-929 1440,-929 1440,-881 1440,-881 1440,-875 1446,-869 1452,-869 1452,-869 2060,-869 2060,-869 2066,-869 2072,-875 2072,-881 2072,-881 2072,-929 2072,-929 2072,-935 2066,-941 2060,-941"/>
<text text-anchor="middle" x="1756" y="-898.8" font-family="Courier-Bold" font-size="24.00">deployment/kubemacpool&#45;mac&#45;controller&#45;manager</text>
</g>
<!-- deployment/cluster&#45;network&#45;addons&#45;operator&#45;&gt;deployment/kubemacpool&#45;mac&#45;controller&#45;manager -->
<g id="edge19" class="edge">
<title>deployment/cluster&#45;network&#45;addons&#45;operator&#45;&gt;deployment/kubemacpool&#45;mac&#45;controller&#45;manager</title>
<path fill="none" stroke="black" d="M1269.11,-905C1318.04,-905 1369.33,-905 1419.5,-905"/>
<polygon fill="black" stroke="black" points="1439.79,-905 1419.79,-914 1429.79,-905 1419.79,-905 1419.79,-905 1419.79,-905 1429.79,-905 1419.79,-896 1439.79,-905 1439.79,-905"/>
</g>
<!-- deployment/kubevirt&#45;ipam&#45;controller&#45;manager -->
<g id="node24" class="node">
<title>deployment/kubevirt&#45;ipam&#45;controller&#45;manager</title>
<path fill="none" stroke="black" d="M2032.5,-862C2032.5,-862 1479.5,-862 1479.5,-862 1473.5,-862 1467.5,-856 1467.5,-850 1467.5,-850 1467.5,-802 1467.5,-802 1467.5,-796 1473.5,-790 1479.5,-790 1479.5,-790 2032.5,-790 2032.5,-790 2038.5,-790 2044.5,-796 2044.5,-802 2044.5,-802 2044.5,-850 2044.5,-850 2044.5,-856 2038.5,-862 2032.5,-862"/>
<text text-anchor="middle" x="1756" y="-819.8" font-family="Courier-Bold" font-size="24.00">deployment/kubevirt&#45;ipam&#45;controller&#45;manager</text>
</g>
<!-- deployment/cluster&#45;network&#45;addons&#45;operator&#45;&gt;deployment/kubevirt&#45;ipam&#45;controller&#45;manager -->
<g id="edge22" class="edge">
<title>deployment/cluster&#45;network&#45;addons&#45;operator&#45;&gt;deployment/kubevirt&#45;ipam&#45;controller&#45;manager</title>
<path fill="none" stroke="black" d="M1269.11,-875.95C1327.06,-869.99 1388.33,-863.69 1447.12,-857.65"/>
<polygon fill="black" stroke="black" points="1467.38,-855.57 1448.4,-866.57 1457.43,-856.59 1447.48,-857.61 1447.48,-857.61 1447.48,-857.61 1457.43,-856.59 1446.56,-848.66 1467.38,-855.57 1467.38,-855.57"/>
</g>
<!-- daemonset/bridge&#45;marker -->
<g id="node38" class="node">
<title>daemonset/bridge&#45;marker</title>
<path fill="none" stroke="black" d="M1910,-783C1910,-783 1602,-783 1602,-783 1596,-783 1590,-777 1590,-771 1590,-771 1590,-723 1590,-723 1590,-717 1596,-711 1602,-711 1602,-711 1910,-711 1910,-711 1916,-711 1922,-717 1922,-723 1922,-723 1922,-771 1922,-771 1922,-777 1916,-783 1910,-783"/>
<text text-anchor="middle" x="1756" y="-740.8" font-family="Courier-Bold" font-size="24.00">daemonset/bridge&#45;marker</text>
</g>
<!-- deployment/cluster&#45;network&#45;addons&#45;operator&#45;&gt;daemonset/bridge&#45;marker -->
<g id="edge35" class="edge">
<title>deployment/cluster&#45;network&#45;addons&#45;operator&#45;&gt;daemonset/bridge&#45;marker</title>
<path fill="none" stroke="black" d="M1269.17,-872.91C1278.27,-870.46 1287.24,-867.83 1296,-865 1365.26,-842.62 1370.71,-809.3 1440,-787 1481.09,-773.78 1526.52,-764.9 1569.78,-758.95"/>
<polygon fill="black" stroke="black" points="1589.81,-756.37 1571.12,-767.85 1579.89,-757.65 1569.97,-758.92 1569.97,-758.92 1569.97,-758.92 1579.89,-757.65 1568.83,-750 1589.81,-756.37 1589.81,-756.37"/>
</g>
<!-- daemonset/kube&#45;cni&#45;linux&#45;bridge&#45;plugin -->
<g id="node39" class="node">
<title>daemonset/kube&#45;cni&#45;linux&#45;bridge&#45;plugin</title>
<path fill="none" stroke="black" d="M1993,-704C1993,-704 1519,-704 1519,-704 1513,-704 1507,-698 1507,-692 1507,-692 1507,-644 1507,-644 1507,-638 1513,-632 1519,-632 1519,-632 1993,-632 1993,-632 1999,-632 2005,-638 2005,-644 2005,-644 2005,-692 2005,-692 2005,-698 1999,-704 1993,-704"/>
<text text-anchor="middle" x="1756" y="-661.8" font-family="Courier-Bold" font-size="24.00">daemonset/kube&#45;cni&#45;linux&#45;bridge&#45;plugin</text>
</g>
<!-- deployment/cluster&#45;network&#45;addons&#45;operator&#45;&gt;daemonset/kube&#45;cni&#45;linux&#45;bridge&#45;plugin -->
<g id="edge36" class="edge">
<title>deployment/cluster&#45;network&#45;addons&#45;operator&#45;&gt;daemonset/kube&#45;cni&#45;linux&#45;bridge&#45;plugin</title>
<path fill="none" stroke="black" d="M1269.18,-877.21C1278.37,-873.55 1287.34,-869.49 1296,-865 1380.05,-821.4 1355.9,-751.51 1440,-708 1455.13,-700.17 1471.19,-693.66 1487.74,-688.24"/>
<polygon fill="black" stroke="black" points="1506.99,-682.48 1490.41,-696.84 1497.41,-685.35 1487.83,-688.21 1487.83,-688.21 1487.83,-688.21 1497.41,-685.35 1485.25,-679.59 1506.99,-682.48 1506.99,-682.48"/>
</g>
<!-- deployment/kubevirt&#45;migration&#45;controller -->
<g id="node25" class="node">
<title>deployment/kubevirt&#45;migration&#45;controller</title>
<path fill="none" stroke="black" d="M1232.5,-1612C1232.5,-1612 738.5,-1612 738.5,-1612 732.5,-1612 726.5,-1606 726.5,-1600 726.5,-1600 726.5,-1552 726.5,-1552 726.5,-1546 732.5,-1540 738.5,-1540 738.5,-1540 1232.5,-1540 1232.5,-1540 1238.5,-1540 1244.5,-1546 1244.5,-1552 1244.5,-1552 1244.5,-1600 1244.5,-1600 1244.5,-1606 1238.5,-1612 1232.5,-1612"/>
<text text-anchor="middle" x="985.5" y="-1569.8" font-family="Courier-Bold" font-size="24.00">deployment/kubevirt&#45;migration&#45;controller</text>
</g>
<!-- kubevirt&#45;migration&#45;operator -->
<g id="node26" class="node">
<title>kubevirt&#45;migration&#45;operator</title>
<path fill="none" stroke="black" d="M430.5,-1612C430.5,-1612 100.5,-1612 100.5,-1612 94.5,-1612 88.5,-1606 88.5,-1600 88.5,-1600 88.5,-1552 88.5,-1552 88.5,-1546 94.5,-1540 100.5,-1540 100.5,-1540 430.5,-1540 430.5,-1540 436.5,-1540 442.5,-1546 442.5,-1552 442.5,-1552 442.5,-1600 442.5,-1600 442.5,-1606 436.5,-1612 430.5,-1612"/>
<text text-anchor="middle" x="265.5" y="-1569.8" font-family="Courier-Bold" font-size="24.00">kubevirt&#45;migration&#45;operator</text>
</g>
<!-- kubevirt&#45;migration&#45;operator&#45;&gt;deployment/kubevirt&#45;migration&#45;controller -->
<g id="edge23" class="edge">
<title>kubevirt&#45;migration&#45;operator&#45;&gt;deployment/kubevirt&#45;migration&#45;controller</title>
<path fill="none" stroke="black" d="M442.6,-1576C522.02,-1576 617.74,-1576 706.48,-1576"/>
<polygon fill="black" stroke="black" points="726.49,-1576 706.49,-1585 716.49,-1576 706.49,-1576 706.49,-1576 706.49,-1576 716.49,-1576 706.49,-1567 726.49,-1576 726.49,-1576"/>
</g>
<!-- deployment/virt&#45;template&#45;validator -->
<g id="node37" class="node">
<title>deployment/virt&#45;template&#45;validator</title>
<path fill="none" stroke="black" d="M1965.5,-625C1965.5,-625 1546.5,-625 1546.5,-625 1540.5,-625 1534.5,-619 1534.5,-613 1534.5,-613 1534.5,-565 1534.5,-565 1534.5,-559 1540.5,-553 1546.5,-553 1546.5,-553 1965.5,-553 1965.5,-553 1971.5,-553 1977.5,-559 1977.5,-565 1977.5,-565 1977.5,-613 1977.5,-613 1977.5,-619 1971.5,-625 1965.5,-625"/>
<text text-anchor="middle" x="1756" y="-582.8" font-family="Courier-Bold" font-size="24.00">deployment/virt&#45;template&#45;validator</text>
</g>
<!-- deployment/ssp&#45;operator&#45;&gt;deployment/virt&#45;template&#45;validator -->
<g id="edge34" class="edge">
<title>deployment/ssp&#45;operator&#45;&gt;deployment/virt&#45;template&#45;validator</title>
<path fill="none" stroke="black" d="M1147.21,-440.44C1195.84,-446.3 1248.83,-455.76 1296,-471 1365.26,-493.38 1370.71,-526.7 1440,-549 1463.72,-556.63 1488.88,-562.82 1514.24,-567.83"/>
<polygon fill="black" stroke="black" points="1534.12,-571.52 1512.81,-576.72 1524.29,-569.69 1514.45,-567.87 1514.45,-567.87 1514.45,-567.87 1524.29,-569.69 1516.1,-559.02 1534.12,-571.52 1534.12,-571.52"/>
</g>
<!-- deployment/virt&#45;api -->
<g id="node29" class="node">
<title>deployment/virt&#45;api</title>
<path fill="none" stroke="black" d="M1871.5,-546C1871.5,-546 1640.5,-546 1640.5,-546 1634.5,-546 1628.5,-540 1628.5,-534 1628.5,-534 1628.5,-486 1628.5,-486 1628.5,-480 1634.5,-474 1640.5,-474 1640.5,-474 1871.5,-474 1871.5,-474 1877.5,-474 1883.5,-480 1883.5,-486 1883.5,-486 1883.5,-534 1883.5,-534 1883.5,-540 1877.5,-546 1871.5,-546"/>
<text text-anchor="middle" x="1756" y="-503.8" font-family="Courier-Bold" font-size="24.00">deployment/virt&#45;api</text>
</g>
<!-- deployment/virt&#45;operator&#45;&gt;deployment/virt&#45;api -->
<g id="edge26" class="edge">
<title>deployment/virt&#45;operator&#45;&gt;deployment/virt&#45;api</title>
<path fill="none" stroke="black" d="M1147.21,-361.44C1195.84,-367.3 1248.83,-376.76 1296,-392 1365.26,-414.38 1370.71,-447.7 1440,-470 1493.39,-487.18 1554.11,-497.03 1607.89,-502.65"/>
<polygon fill="black" stroke="black" points="1628.13,-504.61 1607.36,-511.64 1618.17,-503.64 1608.22,-502.68 1608.22,-502.68 1608.22,-502.68 1618.17,-503.64 1609.09,-493.72 1628.13,-504.61 1628.13,-504.61"/>
</g>
<!-- deployment/virt&#45;controller -->
<g id="node31" class="node">
<title>deployment/virt&#45;controller</title>
<path fill="none" stroke="black" d="M1911,-467C1911,-467 1601,-467 1601,-467 1595,-467 1589,-461 1589,-455 1589,-455 1589,-407 1589,-407 1589,-401 1595,-395 1601,-395 1601,-395 1911,-395 1911,-395 1917,-395 1923,-401 1923,-407 1923,-407 1923,-455 1923,-455 1923,-461 1917,-467 1911,-467"/>
<text text-anchor="middle" x="1756" y="-424.8" font-family="Courier-Bold" font-size="24.00">deployment/virt&#45;controller</text>
</g>
<!-- deployment/virt&#45;operator&#45;&gt;deployment/virt&#45;controller -->
<g id="edge27" class="edge">
<title>deployment/virt&#45;operator&#45;&gt;deployment/virt&#45;controller</title>
<path fill="none" stroke="black" d="M1147.13,-368.51C1270.16,-381.16 1440.09,-398.63 1569.01,-411.88"/>
<polygon fill="black" stroke="black" points="1588.93,-413.93 1568.12,-420.84 1578.99,-412.91 1569.04,-411.88 1569.04,-411.88 1569.04,-411.88 1578.99,-412.91 1569.96,-402.93 1588.93,-413.93 1588.93,-413.93"/>
</g>
<!-- deployment/virt&#45;exportproxy -->
<g id="node32" class="node">
<title>deployment/virt&#45;exportproxy</title>
<path fill="none" stroke="black" d="M1925.5,-388C1925.5,-388 1586.5,-388 1586.5,-388 1580.5,-388 1574.5,-382 1574.5,-376 1574.5,-376 1574.5,-328 1574.5,-328 1574.5,-322 1580.5,-316 1586.5,-316 1586.5,-316 1925.5,-316 1925.5,-316 1931.5,-316 1937.5,-322 1937.5,-328 1937.5,-328 1937.5,-376 1937.5,-376 1937.5,-382 1931.5,-388 1925.5,-388"/>
<text text-anchor="middle" x="1756" y="-345.8" font-family="Courier-Bold" font-size="24.00">deployment/virt&#45;exportproxy</text>
</g>
<!-- deployment/virt&#45;operator&#45;&gt;deployment/virt&#45;exportproxy -->
<g id="edge28" class="edge">
<title>deployment/virt&#45;operator&#45;&gt;deployment/virt&#45;exportproxy</title>
<path fill="none" stroke="black" d="M1147.13,-352C1265.54,-352 1427.4,-352 1554.33,-352"/>
<polygon fill="black" stroke="black" points="1574.39,-352 1554.39,-361 1564.39,-352 1554.39,-352 1554.39,-352 1554.39,-352 1564.39,-352 1554.39,-343 1574.39,-352 1574.39,-352"/>
</g>
<!-- deployment/virt&#45;synchronization&#45;controller -->
<g id="node34" class="node">
<title>deployment/virt&#45;synchronization&#45;controller</title>
<path fill="none" stroke="black" d="M2010.5,-309C2010.5,-309 1501.5,-309 1501.5,-309 1495.5,-309 1489.5,-303 1489.5,-297 1489.5,-297 1489.5,-249 1489.5,-249 1489.5,-243 1495.5,-237 1501.5,-237 1501.5,-237 2010.5,-237 2010.5,-237 2016.5,-237 2022.5,-243 2022.5,-249 2022.5,-249 2022.5,-297 2022.5,-297 2022.5,-303 2016.5,-309 2010.5,-309"/>
<text text-anchor="middle" x="1756" y="-266.8" font-family="Courier-Bold" font-size="24.00">deployment/virt&#45;synchronization&#45;controller</text>
</g>
<!-- deployment/virt&#45;operator&#45;&gt;deployment/virt&#45;synchronization&#45;controller -->
<g id="edge31" class="edge">
<title>deployment/virt&#45;operator&#45;&gt;deployment/virt&#45;synchronization&#45;controller</title>
<path fill="none" stroke="black" d="M1147.13,-335.49C1240.34,-325.91 1360.46,-313.56 1469.28,-302.37"/>
<polygon fill="black" stroke="black" points="1489.46,-300.3 1470.48,-311.3 1479.51,-301.32 1469.56,-302.34 1469.56,-302.34 1469.56,-302.34 1479.51,-301.32 1468.64,-293.39 1489.46,-300.3 1489.46,-300.3"/>
</g>
<!-- deployment/virt&#45;template&#45;apiserver -->
<g id="node35" class="node">
<title>deployment/virt&#45;template&#45;apiserver</title>
<path fill="none" stroke="black" d="M1969,-230C1969,-230 1543,-230 1543,-230 1537,-230 1531,-224 1531,-218 1531,-218 1531,-170 1531,-170 1531,-164 1537,-158 1543,-158 1543,-158 1969,-158 1969,-158 1975,-158 1981,-164 1981,-170 1981,-170 1981,-218 1981,-218 1981,-224 1975,-230 1969,-230"/>
<text text-anchor="middle" x="1756" y="-187.8" font-family="Courier-Bold" font-size="24.00">deployment/virt&#45;template&#45;apiserver</text>
</g>
<!-- deployment/virt&#45;operator&#45;&gt;deployment/virt&#45;template&#45;apiserver -->
<g id="edge32" class="edge">
<title>deployment/virt&#45;operator&#45;&gt;deployment/virt&#45;template&#45;apiserver</title>
<path fill="none" stroke="black" d="M1147.21,-342.56C1195.84,-336.7 1248.83,-327.24 1296,-312 1365.26,-289.62 1370.71,-256.3 1440,-234 1462.66,-226.71 1486.64,-220.74 1510.85,-215.85"/>
<polygon fill="black" stroke="black" points="1530.75,-212.08 1512.78,-224.64 1520.92,-213.94 1511.1,-215.8 1511.1,-215.8 1511.1,-215.8 1520.92,-213.94 1509.42,-206.96 1530.75,-212.08 1530.75,-212.08"/>
</g>
<!-- deployment/virt&#45;template&#45;controller -->
<g id="node36" class="node">
<title>deployment/virt&#45;template&#45;controller</title>
<path fill="none" stroke="black" d="M1970,-151C1970,-151 1542,-151 1542,-151 1536,-151 1530,-145 1530,-139 1530,-139 1530,-91 1530,-91 1530,-85 1536,-79 1542,-79 1542,-79 1970,-79 1970,-79 1976,-79 1982,-85 1982,-91 1982,-91 1982,-139 1982,-139 1982,-145 1976,-151 1970,-151"/>
<text text-anchor="middle" x="1756" y="-108.8" font-family="Courier-Bold" font-size="24.00">deployment/virt&#45;template&#45;controller</text>
</g>
<!-- deployment/virt&#45;operator&#45;&gt;deployment/virt&#45;template&#45;controller -->
<g id="edge33" class="edge">
<title>deployment/virt&#45;operator&#45;&gt;deployment/virt&#45;template&#45;controller</title>
<path fill="none" stroke="black" d="M1147.15,-352.39C1197.06,-347.07 1250.79,-335.45 1296,-312 1380.05,-268.4 1355.9,-198.51 1440,-155 1461.83,-143.71 1485.61,-135.13 1510,-128.68"/>
<polygon fill="black" stroke="black" points="1529.66,-123.94 1512.32,-137.37 1519.94,-126.28 1510.21,-128.62 1510.21,-128.62 1510.21,-128.62 1519.94,-126.28 1508.11,-119.87 1529.66,-123.94 1529.66,-123.94"/>
</g>
<!-- daemonset/virt&#45;handler -->
<g id="node40" class="node">
<title>daemonset/virt&#45;handler</title>
<path fill="none" stroke="black" d="M1895,-72C1895,-72 1617,-72 1617,-72 1611,-72 1605,-66 1605,-60 1605,-60 1605,-12 1605,-12 1605,-6 1611,0 1617,0 1617,0 1895,0 1895,0 1901,0 1907,-6 1907,-12 1907,-12 1907,-60 1907,-60 1907,-66 1901,-72 1895,-72"/>
<text text-anchor="middle" x="1756" y="-29.8" font-family="Courier-Bold" font-size="24.00">daemonset/virt&#45;handler</text>
</g>
<!-- deployment/virt&#45;operator&#45;&gt;daemonset/virt&#45;handler -->
<g id="edge37" class="edge">
<title>deployment/virt&#45;operator&#45;&gt;daemonset/virt&#45;handler</title>
<path fill="none" stroke="black" d="M1147.34,-357.8C1198.23,-352.96 1252.49,-340.24 1296,-312 1399.06,-245.1 1336.86,-142.78 1440,-76 1482.39,-48.55 1534.78,-35.63 1584.58,-30.34"/>
<polygon fill="black" stroke="black" points="1604.62,-28.6 1585.47,-39.3 1594.66,-29.47 1584.69,-30.33 1584.69,-30.33 1584.69,-30.33 1594.66,-29.47 1583.92,-21.37 1604.62,-28.6 1604.62,-28.6"/>
</g>
</g>
</svg>
