<?xml version="1.0" encoding="UTF-8" standalone="no"?>
<!DOCTYPE svg PUBLIC "-//W3C//DTD SVG 1.1//EN"
 "http://www.w3.org/Graphics/SVG/1.1/DTD/svg11.dtd">
<!-- Generated by graphviz version 2.44.0 (0)
 -->
<!-- Title: managed&#45;by Pages: 1 -->
<svg width="2465pt" height="1610pt"
 viewBox="14.40 14.40 2450.40 1595.40" xmlns="http://www.w3.org/2000/svg" xmlns:xlink="http://www.w3.org/1999/xlink">
<g id="graph0" class="graph" transform="scale(1 1) rotate(0) translate(18.4 1591.4)">
<title>managed&#45;by</title>
<polygon fill="white" stroke="transparent" points="-4,4 -4,-1577 2432,-1577 2432,4 -4,4"/>
<!-- HyperConverged/kubevirt&#45;hyperconverged -->
<g id="node1" class="node">
<title>HyperConverged/kubevirt&#45;hyperconverged</title>
<path fill="none" stroke="black" d="M519,-546C519,-546 12,-546 12,-546 6,-546 0,-540 0,-534 0,-534 0,-486 0,-486 0,-480 6,-474 12,-474 12,-474 519,-474 519,-474 525,-474 531,-480 531,-486 531,-486 531,-534 531,-534 531,-540 525,-546 519,-546"/>
<text text-anchor="middle" x="265.5" y="-503.8" font-family="Courier-Bold" font-size="24.00">HyperConverged/kubevirt&#45;hyperconverged</text>
</g>
<!-- KubeVirt/kubevirt&#45;kubevirt&#45;hyperconverged -->
<g id="node2" class="node">
<title>KubeVirt/kubevirt&#45;kubevirt&#45;hyperconverged</title>
<path fill="none" stroke="black" d="M2008,-1573C2008,-1573 1494,-1573 1494,-1573 1488,-1573 1482,-1567 1482,-1561 1482,-1561 1482,-1513 1482,-1513 1482,-1507 1488,-1501 1494,-1501 1494,-1501 2008,-1501 2008,-1501 2014,-1501 2020,-1507 2020,-1513 2020,-1513 2020,-1561 2020,-1561 2020,-1567 2014,-1573 2008,-1573"/>
<text text-anchor="middle" x="1751" y="-1530.8" font-family="Courier-Bold" font-size="24.00">KubeVirt/kubevirt&#45;kubevirt&#45;hyperconverged</text>
</g>
<!-- deployment/hco&#45;operator -->
<g id="node3" class="node">
<title>deployment/hco&#45;operator</title>
<path fill="none" stroke="black" d="M1134,-1336C1134,-1336 832,-1336 832,-1336 826,-1336 820,-1330 820,-1324 820,-1324 820,-1276 820,-1276 820,-1270 826,-1264 832,-1264 832,-1264 1134,-1264 1134,-1264 1140,-1264 1146,-1270 1146,-1276 1146,-1276 1146,-1324 1146,-1324 1146,-1330 1140,-1336 1134,-1336"/>
<text text-anchor="middle" x="983" y="-1293.8" font-family="Courier-Bold" font-size="24.00">deployment/hco&#45;operator</text>
</g>
<!-- deployment/hco&#45;operator&#45;&gt;KubeVirt/kubevirt&#45;kubevirt&#45;hyperconverged -->
<g id="edge1" class="edge">
<title>deployment/hco&#45;operator&#45;&gt;KubeVirt/kubevirt&#45;kubevirt&#45;hyperconverged</title>
<path fill="none" stroke="black" d="M1146.13,-1300.11C1194.84,-1305.57 1247,-1317.14 1291,-1340 1375.02,-1383.64 1350.9,-1453.49 1435,-1497 1443.91,-1501.61 1453.14,-1505.77 1462.61,-1509.51"/>
<polygon fill="black" stroke="black" points="1481.71,-1516.42 1459.84,-1518.08 1472.3,-1513.02 1462.9,-1509.61 1462.9,-1509.61 1462.9,-1509.61 1472.3,-1513.02 1465.96,-1501.15 1481.71,-1516.42 1481.71,-1516.42"/>
</g>
<!-- SSP/ssp&#45;kubevirt&#45;hyperconverged -->
<g id="node4" class="node">
<title>SSP/ssp&#45;kubevirt&#45;hyperconverged</title>
<path fill="none" stroke="black" d="M1950,-1494C1950,-1494 1552,-1494 1552,-1494 1546,-1494 1540,-1488 1540,-1482 1540,-1482 1540,-1434 1540,-1434 1540,-1428 1546,-1422 1552,-1422 1552,-1422 1950,-1422 1950,-1422 1956,-1422 1962,-1428 1962,-1434 1962,-1434 1962,-1482 1962,-1482 1962,-1488 1956,-1494 1950,-1494"/>
<text text-anchor="middle" x="1751" y="-1451.8" font-family="Courier-Bold" font-size="24.00">SSP/ssp&#45;kubevirt&#45;hyperconverged</text>
</g>
<!-- deployment/hco&#45;operator&#45;&gt;SSP/ssp&#45;kubevirt&#45;hyperconverged -->
<g id="edge2" class="edge">
<title>deployment/hco&#45;operator&#45;&gt;SSP/ssp&#45;kubevirt&#45;hyperconverged</title>
<path fill="none" stroke="black" d="M1146.19,-1309.91C1193.66,-1315.79 1245.1,-1325.15 1291,-1340 1360.25,-1362.41 1365.71,-1395.7 1435,-1418 1461.97,-1426.68 1490.8,-1433.49 1519.67,-1438.82"/>
<polygon fill="black" stroke="black" points="1539.63,-1442.29 1518.39,-1447.73 1529.78,-1440.58 1519.93,-1438.87 1519.93,-1438.87 1519.93,-1438.87 1529.78,-1440.58 1521.47,-1430 1539.63,-1442.29 1539.63,-1442.29"/>
</g>
<!-- CDI/cdi&#45;kubevirt&#45;hyperconverged -->
<g id="node5" class="node">
<title>CDI/cdi&#45;kubevirt&#45;hyperconverged</title>
<path fill="none" stroke="black" d="M1946.5,-1415C1946.5,-1415 1555.5,-1415 1555.5,-1415 1549.5,-1415 1543.5,-1409 1543.5,-1403 1543.5,-1403 1543.5,-1355 1543.5,-1355 1543.5,-1349 1549.5,-1343 1555.5,-1343 1555.5,-1343 1946.5,-1343 1946.5,-1343 1952.5,-1343 1958.5,-1349 1958.5,-1355 1958.5,-1355 1958.5,-1403 1958.5,-1403 1958.5,-1409 1952.5,-1415 1946.5,-1415"/>
<text text-anchor="middle" x="1751" y="-1372.8" font-family="Courier-Bold" font-size="24.00">CDI/cdi&#45;kubevirt&#45;hyperconverged</text>
</g>
<!-- deployment/hco&#45;operator&#45;&gt;CDI/cdi&#45;kubevirt&#45;hyperconverged -->
<g id="edge3" class="edge">
<title>deployment/hco&#45;operator&#45;&gt;CDI/cdi&#45;kubevirt&#45;hyperconverged</title>
<path fill="none" stroke="black" d="M1146.45,-1316.75C1256.07,-1328.06 1402.25,-1343.14 1523.29,-1355.62"/>
<polygon fill="black" stroke="black" points="1543.26,-1357.68 1522.44,-1364.58 1533.31,-1356.65 1523.37,-1355.63 1523.37,-1355.63 1523.37,-1355.63 1533.31,-1356.65 1524.29,-1346.67 1543.26,-1357.68 1543.26,-1357.68"/>
</g>
<!-- NetworkAddonsConfig/cluster -->
<g id="node8" class="node">
<title>NetworkAddonsConfig/cluster</title>
<path fill="none" stroke="black" d="M1926,-1336C1926,-1336 1576,-1336 1576,-1336 1570,-1336 1564,-1330 1564,-1324 1564,-1324 1564,-1276 1564,-1276 1564,-1270 1570,-1264 1576,-1264 1576,-1264 1926,-1264 1926,-1264 1932,-1264 1938,-1270 1938,-1276 1938,-1276 1938,-1324 1938,-1324 1938,-1330 1932,-1336 1926,-1336"/>
<text text-anchor="middle" x="1751" y="-1293.8" font-family="Courier-Bold" font-size="24.00">NetworkAddonsConfig/cluster</text>
</g>
<!-- deployment/hco&#45;operator&#45;&gt;NetworkAddonsConfig/cluster -->
<g id="edge5" class="edge">
<title>deployment/hco&#45;operator&#45;&gt;NetworkAddonsConfig/cluster</title>
<path fill="none" stroke="black" d="M1146.45,-1300C1262.32,-1300 1419.05,-1300 1543.76,-1300"/>
<polygon fill="black" stroke="black" points="1563.88,-1300 1543.88,-1309 1553.88,-1300 1543.88,-1300 1543.88,-1300 1543.88,-1300 1553.88,-1300 1543.88,-1291 1563.88,-1300 1563.88,-1300"/>
</g>
<!-- deployment/kubevirt&#45;apiserver&#45;proxy -->
<g id="node20" class="node">
<title>deployment/kubevirt&#45;apiserver&#45;proxy</title>
<path fill="none" stroke="black" d="M1971,-1257C1971,-1257 1531,-1257 1531,-1257 1525,-1257 1519,-1251 1519,-1245 1519,-1245 1519,-1197 1519,-1197 1519,-1191 1525,-1185 1531,-1185 1531,-1185 1971,-1185 1971,-1185 1977,-1185 1983,-1191 1983,-1197 1983,-1197 1983,-1245 1983,-1245 1983,-1251 1977,-1257 1971,-1257"/>
<text text-anchor="middle" x="1751" y="-1214.8" font-family="Courier-Bold" font-size="24.00">deployment/kubevirt&#45;apiserver&#45;proxy</text>
</g>
<!-- deployment/hco&#45;operator&#45;&gt;deployment/kubevirt&#45;apiserver&#45;proxy -->
<g id="edge18" class="edge">
<title>deployment/hco&#45;operator&#45;&gt;deployment/kubevirt&#45;apiserver&#45;proxy</title>
<path fill="none" stroke="black" d="M1146.45,-1283.25C1248.78,-1272.69 1382.98,-1258.85 1498.85,-1246.9"/>
<polygon fill="black" stroke="black" points="1518.76,-1244.85 1499.79,-1255.85 1508.82,-1245.87 1498.87,-1246.9 1498.87,-1246.9 1498.87,-1246.9 1508.82,-1245.87 1497.94,-1237.95 1518.76,-1244.85 1518.76,-1244.85"/>
</g>
<!-- deployment/kubevirt&#45;console&#45;plugin -->
<g id="node21" class="node">
<title>deployment/kubevirt&#45;console&#45;plugin</title>
<path fill="none" stroke="black" d="M1965,-1178C1965,-1178 1537,-1178 1537,-1178 1531,-1178 1525,-1172 1525,-1166 1525,-1166 1525,-1118 1525,-1118 1525,-1112 1531,-1106 1537,-1106 1537,-1106 1965,-1106 1965,-1106 1971,-1106 1977,-1112 1977,-1118 1977,-1118 1977,-1166 1977,-1166 1977,-1172 1971,-1178 1965,-1178"/>
<text text-anchor="middle" x="1751" y="-1135.8" font-family="Courier-Bold" font-size="24.00">deployment/kubevirt&#45;console&#45;plugin</text>
</g>
<!-- deployment/hco&#45;operator&#45;&gt;deployment/kubevirt&#45;console&#45;plugin -->
<g id="edge19" class="edge">
<title>deployment/hco&#45;operator&#45;&gt;deployment/kubevirt&#45;console&#45;plugin</title>
<path fill="none" stroke="black" d="M1104.57,-1263.9C1194.85,-1237.99 1321.77,-1203.91 1435,-1182 1457.62,-1177.62 1481.25,-1173.61 1504.96,-1169.96"/>
<polygon fill="black" stroke="black" points="1524.88,-1166.97 1506.43,-1178.84 1514.99,-1168.46 1505.1,-1169.94 1505.1,-1169.94 1505.1,-1169.94 1514.99,-1168.46 1503.76,-1161.04 1524.88,-1166.97 1524.88,-1166.97"/>
</g>
<!-- CDIConfig/config -->
<g id="node6" class="node">
<title>CDIConfig/config</title>
<path fill="none" stroke="black" d="M2416,-1099C2416,-1099 2223,-1099 2223,-1099 2217,-1099 2211,-1093 2211,-1087 2211,-1087 2211,-1039 2211,-1039 2211,-1033 2217,-1027 2223,-1027 2223,-1027 2416,-1027 2416,-1027 2422,-1027 2428,-1033 2428,-1039 2428,-1039 2428,-1087 2428,-1087 2428,-1093 2422,-1099 2416,-1099"/>
<text text-anchor="middle" x="2319.5" y="-1056.8" font-family="Courier-Bold" font-size="24.00">CDIConfig/config</text>
</g>
<!-- deployment/cdi&#45;deployment -->
<g id="node7" class="node">
<title>deployment/cdi&#45;deployment</title>
<path fill="none" stroke="black" d="M1917.5,-1099C1917.5,-1099 1584.5,-1099 1584.5,-1099 1578.5,-1099 1572.5,-1093 1572.5,-1087 1572.5,-1087 1572.5,-1039 1572.5,-1039 1572.5,-1033 1578.5,-1027 1584.5,-1027 1584.5,-1027 1917.5,-1027 1917.5,-1027 1923.5,-1027 1929.5,-1033 1929.5,-1039 1929.5,-1039 1929.5,-1087 1929.5,-1087 1929.5,-1093 1923.5,-1099 1917.5,-1099"/>
<text text-anchor="middle" x="1751" y="-1056.8" font-family="Courier-Bold" font-size="24.00">deployment/cdi&#45;deployment</text>
</g>
<!-- deployment/cdi&#45;deployment&#45;&gt;CDIConfig/config -->
<g id="edge4" class="edge">
<title>deployment/cdi&#45;deployment&#45;&gt;CDIConfig/config</title>
<path fill="none" stroke="black" d="M1929.69,-1063C2014.28,-1063 2113.54,-1063 2190.59,-1063"/>
<polygon fill="black" stroke="black" points="2210.69,-1063 2190.69,-1072 2200.69,-1063 2190.69,-1063 2190.69,-1063 2190.69,-1063 2200.69,-1063 2190.69,-1054 2210.69,-1063 2210.69,-1063"/>
</g>
<!-- deployment/aaq&#45;operator -->
<g id="node9" class="node">
<title>deployment/aaq&#45;operator</title>
<path fill="none" stroke="black" d="M1134.5,-1020C1134.5,-1020 831.5,-1020 831.5,-1020 825.5,-1020 819.5,-1014 819.5,-1008 819.5,-1008 819.5,-960 819.5,-960 819.5,-954 825.5,-948 831.5,-948 831.5,-948 1134.5,-948 1134.5,-948 1140.5,-948 1146.5,-954 1146.5,-960 1146.5,-960 1146.5,-1008 1146.5,-1008 1146.5,-1014 1140.5,-1020 1134.5,-1020"/>
<text text-anchor="middle" x="983" y="-977.8" font-family="Courier-Bold" font-size="24.00">deployment/aaq&#45;operator</text>
</g>
<!-- olm -->
<g id="node10" class="node">
<title>olm</title>
<path fill="none" stroke="black" d="M361.5,-625C361.5,-625 169.5,-625 169.5,-625 163.5,-625 157.5,-619 157.5,-613 157.5,-613 157.5,-565 157.5,-565 157.5,-559 163.5,-553 169.5,-553 169.5,-553 361.5,-553 361.5,-553 367.5,-553 373.5,-559 373.5,-565 373.5,-565 373.5,-613 373.5,-613 373.5,-619 367.5,-625 361.5,-625"/>
<text text-anchor="middle" x="265.5" y="-582.8" font-family="Courier-Bold" font-size="24.00">olm</text>
</g>
<!-- olm&#45;&gt;deployment/hco&#45;operator -->
<g id="edge12" class="edge">
<title>olm&#45;&gt;deployment/hco&#45;operator</title>
<path fill="none" stroke="black" d="M298.64,-625.09C366.37,-700.72 529.54,-880.57 675,-1023 759.23,-1105.47 861.71,-1196.11 924.38,-1250.51"/>
<polygon fill="black" stroke="black" points="939.8,-1263.86 918.79,-1257.57 932.24,-1257.31 924.68,-1250.77 924.68,-1250.77 924.68,-1250.77 932.24,-1257.31 930.57,-1243.96 939.8,-1263.86 939.8,-1263.86"/>
</g>
<!-- olm&#45;&gt;deployment/aaq&#45;operator -->
<g id="edge6" class="edge">
<title>olm&#45;&gt;deployment/aaq&#45;operator</title>
<path fill="none" stroke="black" d="M294.92,-625.06C355.66,-699.22 506.39,-868.2 675,-944 713.51,-961.31 757.3,-971.77 799.49,-977.94"/>
<polygon fill="black" stroke="black" points="819.39,-980.56 798.39,-986.88 809.48,-979.26 799.57,-977.95 799.57,-977.95 799.57,-977.95 809.48,-979.26 800.74,-969.03 819.39,-980.56 819.39,-980.56"/>
</g>
<!-- deployment/cdi&#45;operator -->
<g id="node12" class="node">
<title>deployment/cdi&#45;operator</title>
<path fill="none" stroke="black" d="M1129.5,-941C1129.5,-941 836.5,-941 836.5,-941 830.5,-941 824.5,-935 824.5,-929 824.5,-929 824.5,-881 824.5,-881 824.5,-875 830.5,-869 836.5,-869 836.5,-869 1129.5,-869 1129.5,-869 1135.5,-869 1141.5,-875 1141.5,-881 1141.5,-881 1141.5,-929 1141.5,-929 1141.5,-935 1135.5,-941 1129.5,-941"/>
<text text-anchor="middle" x="983" y="-898.8" font-family="Courier-Bold" font-size="24.00">deployment/cdi&#45;operator</text>
</g>
<!-- olm&#45;&gt;deployment/cdi&#45;operator -->
<g id="edge9" class="edge">
<title>olm&#45;&gt;deployment/cdi&#45;operator</title>
<path fill="none" stroke="black" d="M336.92,-625.07C417.71,-665.96 554.57,-733.72 675,-786 736.71,-812.79 806.57,-840.1 864.04,-861.79"/>
<polygon fill="black" stroke="black" points="883.03,-868.92 861.14,-870.31 873.66,-865.4 864.3,-861.89 864.3,-861.89 864.3,-861.89 873.66,-865.4 867.47,-853.46 883.03,-868.92 883.03,-868.92"/>
</g>
<!-- deployment/cluster&#45;network&#45;addons&#45;operator -->
<g id="node14" class="node">
<title>deployment/cluster&#45;network&#45;addons&#45;operator</title>
<path fill="none" stroke="black" d="M1254.5,-783C1254.5,-783 711.5,-783 711.5,-783 705.5,-783 699.5,-777 699.5,-771 699.5,-771 699.5,-723 699.5,-723 699.5,-717 705.5,-711 711.5,-711 711.5,-711 1254.5,-711 1254.5,-711 1260.5,-711 1266.5,-717 1266.5,-723 1266.5,-723 1266.5,-771 1266.5,-771 1266.5,-777 1260.5,-783 1254.5,-783"/>
<text text-anchor="middle" x="983" y="-740.8" font-family="Courier-Bold" font-size="24.00">deployment/cluster&#45;network&#45;addons&#45;operator</text>
</g>
<!-- olm&#45;&gt;deployment/cluster&#45;network&#45;addons&#45;operator -->
<g id="edge11" class="edge">
<title>olm&#45;&gt;deployment/cluster&#45;network&#45;addons&#45;operator</title>
<path fill="none" stroke="black" d="M373.75,-624.82C455.5,-650.93 571.3,-685.4 675,-707 676.5,-707.31 678.01,-707.62 679.53,-707.93"/>
<polygon fill="black" stroke="black" points="699.43,-711.84 678.07,-716.82 689.62,-709.92 679.8,-707.99 679.8,-707.99 679.8,-707.99 689.62,-709.92 681.54,-699.16 699.43,-711.84 699.43,-711.84"/>
</g>
<!-- deployment/hco&#45;webhook -->
<g id="node15" class="node">
<title>deployment/hco&#45;webhook</title>
<path fill="none" stroke="black" d="M1136,-704C1136,-704 830,-704 830,-704 824,-704 818,-698 818,-692 818,-692 818,-644 818,-644 818,-638 824,-632 830,-632 830,-632 1136,-632 1136,-632 1142,-632 1148,-638 1148,-644 1148,-644 1148,-692 1148,-692 1148,-698 1142,-704 1136,-704"/>
<text text-anchor="middle" x="983" y="-661.8" font-family="Courier-Bold" font-size="24.00">deployment/hco&#45;webhook</text>
</g>
<!-- olm&#45;&gt;deployment/hco&#45;webhook -->
<g id="edge13" class="edge">
<title>olm&#45;&gt;deployment/hco&#45;webhook</title>
<path fill="none" stroke="black" d="M373.62,-600.83C485.62,-613.19 663.5,-632.83 798.05,-647.69"/>
<polygon fill="black" stroke="black" points="817.99,-649.89 797.13,-656.64 808.05,-648.79 798.12,-647.7 798.12,-647.7 798.12,-647.7 808.05,-648.79 799.1,-638.75 817.99,-649.89 817.99,-649.89"/>
</g>
<!-- deployment/hostpath&#45;provisioner&#45;operator -->
<g id="node16" class="node">
<title>deployment/hostpath&#45;provisioner&#45;operator</title>
<path fill="none" stroke="black" d="M1236.5,-625C1236.5,-625 729.5,-625 729.5,-625 723.5,-625 717.5,-619 717.5,-613 717.5,-613 717.5,-565 717.5,-565 717.5,-559 723.5,-553 729.5,-553 729.5,-553 1236.5,-553 1236.5,-553 1242.5,-553 1248.5,-559 1248.5,-565 1248.5,-565 1248.5,-613 1248.5,-613 1248.5,-619 1242.5,-625 1236.5,-625"/>
<text text-anchor="middle" x="983" y="-582.8" font-family="Courier-Bold" font-size="24.00">deployment/hostpath&#45;provisioner&#45;operator</text>
</g>
<!-- olm&#45;&gt;deployment/hostpath&#45;provisioner&#45;operator -->
<g id="edge14" class="edge">
<title>olm&#45;&gt;deployment/hostpath&#45;provisioner&#45;operator</title>
<path fill="none" stroke="black" d="M373.62,-589C459.3,-589 583.54,-589 697.43,-589"/>
<polygon fill="black" stroke="black" points="717.46,-589 697.46,-598 707.46,-589 697.46,-589 697.46,-589 697.46,-589 707.46,-589 697.46,-580 717.46,-589 717.46,-589"/>
</g>
<!-- deployment/hyperconverged&#45;cluster&#45;cli&#45;download -->
<g id="node17" class="node">
<title>deployment/hyperconverged&#45;cluster&#45;cli&#45;download</title>
<path fill="none" stroke="black" d="M1279,-546C1279,-546 687,-546 687,-546 681,-546 675,-540 675,-534 675,-534 675,-486 675,-486 675,-480 681,-474 687,-474 687,-474 1279,-474 1279,-474 1285,-474 1291,-480 1291,-486 1291,-486 1291,-534 1291,-534 1291,-540 1285,-546 1279,-546"/>
<text text-anchor="middle" x="983" y="-503.8" font-family="Courier-Bold" font-size="24.00">deployment/hyperconverged&#45;cluster&#45;cli&#45;download</text>
</g>
<!-- olm&#45;&gt;deployment/hyperconverged&#45;cluster&#45;cli&#45;download -->
<g id="edge15" class="edge">
<title>olm&#45;&gt;deployment/hyperconverged&#45;cluster&#45;cli&#45;download</title>
<path fill="none" stroke="black" d="M373.62,-577.17C448.71,-568.88 553.41,-557.32 654.81,-546.13"/>
<polygon fill="black" stroke="black" points="674.7,-543.93 655.81,-555.07 664.76,-545.03 654.82,-546.12 654.82,-546.12 654.82,-546.12 664.76,-545.03 653.84,-537.18 674.7,-543.93 674.7,-543.93"/>
</g>
<!-- deployment/kubevirt&#45;migration&#45;operator -->
<g id="node25" class="node">
<title>deployment/kubevirt&#45;migration&#45;operator</title>
<path fill="none" stroke="black" d="M1224,-467C1224,-467 742,-467 742,-467 736,-467 730,-461 730,-455 730,-455 730,-407 730,-407 730,-401 736,-395 742,-395 742,-395 1224,-395 1224,-395 1230,-395 1236,-401 1236,-407 1236,-407 1236,-455 1236,-455 1236,-461 1230,-467 1224,-467"/>
<text text-anchor="middle" x="983" y="-424.8" font-family="Courier-Bold" font-size="24.00">deployment/kubevirt&#45;migration&#45;operator</text>
</g>
<!-- olm&#45;&gt;deployment/kubevirt&#45;migration&#45;operator -->
<g id="edge22" class="edge">
<title>olm&#45;&gt;deployment/kubevirt&#45;migration&#45;operator</title>
<path fill="none" stroke="black" d="M373.7,-581.29C422.6,-575.63 480.69,-565.85 531,-549 600.02,-525.88 605.75,-493.41 675,-471 686.44,-467.3 698.23,-463.94 710.21,-460.89"/>
<polygon fill="black" stroke="black" points="729.85,-456.19 712.49,-469.6 720.12,-458.52 710.4,-460.84 710.4,-460.84 710.4,-460.84 720.12,-458.52 708.3,-452.09 729.85,-456.19 729.85,-456.19"/>
</g>
<!-- deployment/ssp&#45;operator -->
<g id="node26" class="node">
<title>deployment/ssp&#45;operator</title>
<path fill="none" stroke="black" d="M1132.5,-388C1132.5,-388 833.5,-388 833.5,-388 827.5,-388 821.5,-382 821.5,-376 821.5,-376 821.5,-328 821.5,-328 821.5,-322 827.5,-316 833.5,-316 833.5,-316 1132.5,-316 1132.5,-316 1138.5,-316 1144.5,-322 1144.5,-328 1144.5,-328 1144.5,-376 1144.5,-376 1144.5,-382 1138.5,-388 1132.5,-388"/>
<text text-anchor="middle" x="983" y="-345.8" font-family="Courier-Bold" font-size="24.00">deployment/ssp&#45;operator</text>
</g>
<!-- olm&#45;&gt;deployment/ssp&#45;operator -->
<g id="edge23" class="edge">
<title>olm&#45;&gt;deployment/ssp&#45;operator</title>
<path fill="none" stroke="black" d="M373.66,-588.99C423.92,-585.05 483.14,-574.49 531,-549 614.57,-504.5 590.98,-435.64 675,-392 713.48,-372.01 758.21,-360.65 801.41,-354.46"/>
<polygon fill="black" stroke="black" points="821.46,-351.93 802.74,-363.36 811.54,-353.18 801.61,-354.43 801.61,-354.43 801.61,-354.43 811.54,-353.18 800.49,-345.5 821.46,-351.93 821.46,-351.93"/>
</g>
<!-- deployment/virt&#45;operator -->
<g id="node28" class="node">
<title>deployment/virt&#45;operator</title>
<path fill="none" stroke="black" d="M1132.5,-309C1132.5,-309 833.5,-309 833.5,-309 827.5,-309 821.5,-303 821.5,-297 821.5,-297 821.5,-249 821.5,-249 821.5,-243 827.5,-237 833.5,-237 833.5,-237 1132.5,-237 1132.5,-237 1138.5,-237 1144.5,-243 1144.5,-249 1144.5,-249 1144.5,-297 1144.5,-297 1144.5,-303 1138.5,-309 1132.5,-309"/>
<text text-anchor="middle" x="983" y="-266.8" font-family="Courier-Bold" font-size="24.00">deployment/virt&#45;operator</text>
</g>
<!-- olm&#45;&gt;deployment/virt&#45;operator -->
<g id="edge27" class="edge">
<title>olm&#45;&gt;deployment/virt&#45;operator</title>
<path fill="none" stroke="black" d="M373.78,-593.14C425.09,-590.29 485.16,-579.46 531,-549 633.34,-480.99 571.97,-379.95 675,-313 712.13,-288.87 757.15,-276.13 801.15,-269.95"/>
<polygon fill="black" stroke="black" points="821.26,-267.55 802.46,-278.85 811.33,-268.73 801.4,-269.92 801.4,-269.92 801.4,-269.92 811.33,-268.73 800.33,-260.98 821.26,-267.55 821.26,-267.55"/>
</g>
<!-- deployment/virt&#45;platform&#45;autopilot -->
<g id="node31" class="node">
<title>deployment/virt&#45;platform&#45;autopilot</title>
<path fill="none" stroke="black" d="M1190,-230C1190,-230 776,-230 776,-230 770,-230 764,-224 764,-218 764,-218 764,-170 764,-170 764,-164 770,-158 776,-158 776,-158 1190,-158 1190,-158 1196,-158 1202,-164 1202,-170 1202,-170 1202,-218 1202,-218 1202,-224 1196,-230 1190,-230"/>
<text text-anchor="middle" x="983" y="-187.8" font-family="Courier-Bold" font-size="24.00">deployment/virt&#45;platform&#45;autopilot</text>
</g>
<!-- olm&#45;&gt;deployment/virt&#45;platform&#45;autopilot -->
<g id="edge28" class="edge">
<title>olm&#45;&gt;deployment/virt&#45;platform&#45;autopilot</title>
<path fill="none" stroke="black" d="M373.78,-595.52C425.86,-593.39 486.59,-582.48 531,-549 653.91,-456.32 551.14,-325.41 675,-234 695.66,-218.75 719.3,-207.8 744.09,-200.08"/>
<polygon fill="black" stroke="black" points="763.71,-194.67 746.83,-208.66 754.07,-197.32 744.43,-199.98 744.43,-199.98 744.43,-199.98 754.07,-197.32 742.04,-191.31 763.71,-194.67 763.71,-194.67"/>
</g>
<!-- deployment/cdi&#45;apiserver -->
<g id="node11" class="node">
<title>deployment/cdi&#45;apiserver</title>
<path fill="none" stroke="black" d="M1902,-1020C1902,-1020 1600,-1020 1600,-1020 1594,-1020 1588,-1014 1588,-1008 1588,-1008 1588,-960 1588,-960 1588,-954 1594,-948 1600,-948 1600,-948 1902,-948 1902,-948 1908,-948 1914,-954 1914,-960 1914,-960 1914,-1008 1914,-1008 1914,-1014 1908,-1020 1902,-1020"/>
<text text-anchor="middle" x="1751" y="-977.8" font-family="Courier-Bold" font-size="24.00">deployment/cdi&#45;apiserver</text>
</g>
<!-- deployment/cdi&#45;operator&#45;&gt;deployment/cdi&#45;deployment -->
<g id="edge8" class="edge">
<title>deployment/cdi&#45;operator&#45;&gt;deployment/cdi&#45;deployment</title>
<path fill="none" stroke="black" d="M1141.84,-914.37C1190.5,-920.22 1243.7,-929.69 1291,-945 1360.25,-967.41 1365.71,-1000.7 1435,-1023 1472.15,-1034.96 1512.84,-1043.36 1552.27,-1049.26"/>
<polygon fill="black" stroke="black" points="1572.13,-1052.04 1551.07,-1058.18 1562.22,-1050.65 1552.32,-1049.26 1552.32,-1049.26 1552.32,-1049.26 1562.22,-1050.65 1553.57,-1040.35 1572.13,-1052.04 1572.13,-1052.04"/>
</g>
<!-- deployment/cdi&#45;operator&#45;&gt;deployment/cdi&#45;apiserver -->
<g id="edge7" class="edge">
<title>deployment/cdi&#45;operator&#45;&gt;deployment/cdi&#45;apiserver</title>
<path fill="none" stroke="black" d="M1141.79,-921.27C1265.59,-934.04 1438.09,-951.83 1567.77,-965.21"/>
<polygon fill="black" stroke="black" points="1587.8,-967.27 1566.98,-974.17 1577.85,-966.25 1567.9,-965.22 1567.9,-965.22 1567.9,-965.22 1577.85,-966.25 1568.83,-956.27 1587.8,-967.27 1587.8,-967.27"/>
</g>
<!-- deployment/cdi&#45;uploadproxy -->
<g id="node13" class="node">
<title>deployment/cdi&#45;uploadproxy</title>
<path fill="none" stroke="black" d="M1920,-941C1920,-941 1582,-941 1582,-941 1576,-941 1570,-935 1570,-929 1570,-929 1570,-881 1570,-881 1570,-875 1576,-869 1582,-869 1582,-869 1920,-869 1920,-869 1926,-869 1932,-875 1932,-881 1932,-881 1932,-929 1932,-929 1932,-935 1926,-941 1920,-941"/>
<text text-anchor="middle" x="1751" y="-898.8" font-family="Courier-Bold" font-size="24.00">deployment/cdi&#45;uploadproxy</text>
</g>
<!-- deployment/cdi&#45;operator&#45;&gt;deployment/cdi&#45;uploadproxy -->
<g id="edge10" class="edge">
<title>deployment/cdi&#45;operator&#45;&gt;deployment/cdi&#45;uploadproxy</title>
<path fill="none" stroke="black" d="M1141.79,-905C1259.96,-905 1422.49,-905 1549.81,-905"/>
<polygon fill="black" stroke="black" points="1569.93,-905 1549.93,-914 1559.93,-905 1549.93,-905 1549.93,-905 1549.93,-905 1559.93,-905 1549.93,-896 1569.93,-905 1569.93,-905"/>
</g>
<!-- deployment/kubemacpool&#45;cert&#45;manager -->
<g id="node18" class="node">
<title>deployment/kubemacpool&#45;cert&#45;manager</title>
<path fill="none" stroke="black" d="M1991.5,-862C1991.5,-862 1510.5,-862 1510.5,-862 1504.5,-862 1498.5,-856 1498.5,-850 1498.5,-850 1498.5,-802 1498.5,-802 1498.5,-796 1504.5,-790 1510.5,-790 1510.5,-790 1991.5,-790 1991.5,-790 1997.5,-790 2003.5,-796 2003.5,-802 2003.5,-802 2003.5,-850 2003.5,-850 2003.5,-856 1997.5,-862 1991.5,-862"/>
<text text-anchor="middle" x="1751" y="-819.8" font-family="Courier-Bold" font-size="24.00">deployment/kubemacpool&#45;cert&#45;manager</text>
</g>
<!-- deployment/cluster&#45;network&#45;addons&#45;operator&#45;&gt;deployment/kubemacpool&#45;cert&#45;manager -->
<g id="edge16" class="edge">
<title>deployment/cluster&#45;network&#45;addons&#45;operator&#45;&gt;deployment/kubemacpool&#45;cert&#45;manager</title>
<path fill="none" stroke="black" d="M1266.51,-776.14C1335.68,-783.27 1409.57,-790.89 1478.22,-797.97"/>
<polygon fill="black" stroke="black" points="1498.39,-800.05 1477.58,-806.95 1488.45,-799.03 1478.5,-798 1478.5,-798 1478.5,-798 1488.45,-799.03 1479.42,-789.05 1498.39,-800.05 1498.39,-800.05"/>
</g>
<!-- deployment/kubemacpool&#45;mac&#45;controller&#45;manager -->
<g id="node19" class="node">
<title>deployment/kubemacpool&#45;mac&#45;controller&#45;manager</title>
<path fill="none" stroke="black" d="M2055,-783C2055,-783 1447,-783 1447,-783 1441,-783 1435,-777 1435,-771 1435,-771 1435,-723 1435,-723 1435,-717 1441,-711 1447,-711 1447,-711 2055,-711 2055,-711 2061,-711 2067,-717 2067,-723 2067,-723 2067,-771 2067,-771 2067,-777 2061,-783 2055,-783"/>
<text text-anchor="middle" x="1751" y="-740.8" font-family="Courier-Bold" font-size="24.00">deployment/kubemacpool&#45;mac&#45;controller&#45;manager</text>
</g>
<!-- deployment/cluster&#45;network&#45;addons&#45;operator&#45;&gt;deployment/kubemacpool&#45;mac&#45;controller&#45;manager -->
<g id="edge17" class="edge">
<title>deployment/cluster&#45;network&#45;addons&#45;operator&#45;&gt;deployment/kubemacpool&#45;mac&#45;controller&#45;manager</title>
<path fill="none" stroke="black" d="M1266.51,-747C1314.77,-747 1365.33,-747 1414.8,-747"/>
<polygon fill="black" stroke="black" points="1434.81,-747 1414.81,-756 1424.81,-747 1414.81,-747 1414.81,-747 1414.81,-747 1424.81,-747 1414.81,-738 1434.81,-747 1434.81,-747"/>
</g>
<!-- deployment/kubevirt&#45;ipam&#45;controller&#45;manager -->
<g id="node22" class="node">
<title>deployment/kubevirt&#45;ipam&#45;controller&#45;manager</title>
<path fill="none" stroke="black" d="M2027.5,-704C2027.5,-704 1474.5,-704 1474.5,-704 1468.5,-704 1462.5,-698 1462.5,-692 1462.5,-692 1462.5,-644 1462.5,-644 1462.5,-638 1468.5,-632 1474.5,-632 1474.5,-632 2027.5,-632 2027.5,-632 2033.5,-632 2039.5,-638 2039.5,-644 2039.5,-644 2039.5,-692 2039.5,-692 2039.5,-698 2033.5,-704 2027.5,-704"/>
<text text-anchor="middle" x="1751" y="-661.8" font-family="Courier-Bold" font-size="24.00">deployment/kubevirt&#45;ipam&#45;controller&#45;manager</text>
</g>
<!-- deployment/cluster&#45;network&#45;addons&#45;operator&#45;&gt;deployment/kubevirt&#45;ipam&#45;controller&#45;manager -->
<g id="edge20" class="edge">
<title>deployment/cluster&#45;network&#45;addons&#45;operator&#45;&gt;deployment/kubevirt&#45;ipam&#45;controller&#45;manager</title>
<path fill="none" stroke="black" d="M1266.51,-717.86C1323.75,-711.96 1384.22,-705.72 1442.28,-699.74"/>
<polygon fill="black" stroke="black" points="1462.28,-697.67 1443.31,-708.68 1452.34,-698.7 1442.39,-699.72 1442.39,-699.72 1442.39,-699.72 1452.34,-698.7 1441.47,-690.77 1462.28,-697.67 1462.28,-697.67"/>
</g>
<!-- daemonset/bridge&#45;marker -->
<g id="node34" class="node">
<title>daemonset/bridge&#45;marker</title>
<path fill="none" stroke="black" d="M1905,-625C1905,-625 1597,-625 1597,-625 1591,-625 1585,-619 1585,-613 1585,-613 1585,-565 1585,-565 1585,-559 1591,-553 1597,-553 1597,-553 1905,-553 1905,-553 1911,-553 1917,-559 1917,-565 1917,-565 1917,-613 1917,-613 1917,-619 1911,-625 1905,-625"/>
<text text-anchor="middle" x="1751" y="-582.8" font-family="Courier-Bold" font-size="24.00">daemonset/bridge&#45;marker</text>
</g>
<!-- deployment/cluster&#45;network&#45;addons&#45;operator&#45;&gt;daemonset/bridge&#45;marker -->
<g id="edge31" class="edge">
<title>deployment/cluster&#45;network&#45;addons&#45;operator&#45;&gt;daemonset/bridge&#45;marker</title>
<path fill="none" stroke="black" d="M1266.77,-714.21C1274.98,-711.97 1283.07,-709.57 1291,-707 1360.25,-684.59 1365.71,-651.3 1435,-629 1476.09,-615.78 1521.52,-606.9 1564.78,-600.95"/>
<polygon fill="black" stroke="black" points="1584.81,-598.37 1566.12,-609.85 1574.89,-599.65 1564.97,-600.92 1564.97,-600.92 1564.97,-600.92 1574.89,-599.65 1563.83,-592 1584.81,-598.37 1584.81,-598.37"/>
</g>
<!-- daemonset/kube&#45;cni&#45;linux&#45;bridge&#45;plugin -->
<g id="node35" class="node">
<title>daemonset/kube&#45;cni&#45;linux&#45;bridge&#45;plugin</title>
<path fill="none" stroke="black" d="M1988,-546C1988,-546 1514,-546 1514,-546 1508,-546 1502,-540 1502,-534 1502,-534 1502,-486 1502,-486 1502,-480 1508,-474 1514,-474 1514,-474 1988,-474 1988,-474 1994,-474 2000,-480 2000,-486 2000,-486 2000,-534 2000,-534 2000,-540 1994,-546 1988,-546"/>
<text text-anchor="middle" x="1751" y="-503.8" font-family="Courier-Bold" font-size="24.00">daemonset/kube&#45;cni&#45;linux&#45;bridge&#45;plugin</text>
</g>
<!-- deployment/cluster&#45;network&#45;addons&#45;operator&#45;&gt;daemonset/kube&#45;cni&#45;linux&#45;bridge&#45;plugin -->
<g id="edge32" class="edge">
<title>deployment/cluster&#45;network&#45;addons&#45;operator&#45;&gt;daemonset/kube&#45;cni&#45;linux&#45;bridge&#45;plugin</title>
<path fill="none" stroke="black" d="M1266.67,-718.21C1275,-714.82 1283.13,-711.09 1291,-707 1375.02,-663.36 1350.9,-593.51 1435,-550 1450.13,-542.17 1466.19,-535.66 1482.74,-530.24"/>
<polygon fill="black" stroke="black" points="1501.99,-524.48 1485.41,-538.84 1492.41,-527.35 1482.83,-530.21 1482.83,-530.21 1482.83,-530.21 1492.41,-527.35 1480.25,-521.59 1501.99,-524.48 1501.99,-524.48"/>
</g>
<!-- deployment/kubevirt&#45;migration&#45;controller -->
<g id="node23" class="node">
<title>deployment/kubevirt&#45;migration&#45;controller</title>
<path fill="none" stroke="black" d="M1230,-1415C1230,-1415 736,-1415 736,-1415 730,-1415 724,-1409 724,-1403 724,-1403 724,-1355 724,-1355 724,-1349 730,-1343 736,-1343 736,-1343 1230,-1343 1230,-1343 1236,-1343 1242,-1349 1242,-1355 1242,-1355 1242,-1403 1242,-1403 1242,-1409 1236,-1415 1230,-1415"/>
<text text-anchor="middle" x="983" y="-1372.8" font-family="Courier-Bold" font-size="24.00">deployment/kubevirt&#45;migration&#45;controller</text>
</g>
<!-- kubevirt&#45;migration&#45;operator -->
<g id="node24" class="node">
<title>kubevirt&#45;migration&#45;operator</title>
<path fill="none" stroke="black" d="M430.5,-1415C430.5,-1415 100.5,-1415 100.5,-1415 94.5,-1415 88.5,-1409 88.5,-1403 88.5,-1403 88.5,-1355 88.5,-1355 88.5,-1349 94.5,-1343 100.5,-1343 100.5,-1343 430.5,-1343 430.5,-1343 436.5,-1343 442.5,-1349 442.5,-1355 442.5,-1355 442.5,-1403 442.5,-1403 442.5,-1409 436.5,-1415 430.5,-1415"/>
<text text-anchor="middle" x="265.5" y="-1372.8" font-family="Courier-Bold" font-size="24.00">kubevirt&#45;migration&#45;operator</text>
</g>
<!-- kubevirt&#45;migration&#45;operator&#45;&gt;deployment/kubevirt&#45;migration&#45;controller -->
<g id="edge21" class="edge">
<title>kubevirt&#45;migration&#45;operator&#45;&gt;deployment/kubevirt&#45;migration&#45;controller</title>
<path fill="none" stroke="black" d="M442.91,-1379C521.5,-1379 615.96,-1379 703.71,-1379"/>
<polygon fill="black" stroke="black" points="723.78,-1379 703.78,-1388 713.78,-1379 703.78,-1379 703.78,-1379 703.78,-1379 713.78,-1379 703.78,-1370 723.78,-1379 723.78,-1379"/>
</g>
<!-- deployment/virt&#45;template&#45;validator -->
<g id="node33" class="node">
<title>deployment/virt&#45;template&#45;validator</title>
<path fill="none" stroke="black" d="M1960.5,-467C1960.5,-467 1541.5,-467 1541.5,-467 1535.5,-467 1529.5,-461 1529.5,-455 1529.5,-455 1529.5,-407 1529.5,-407 1529.5,-401 1535.5,-395 1541.5,-395 1541.5,-395 1960.5,-395 1960.5,-395 1966.5,-395 1972.5,-401 1972.5,-407 1972.5,-407 1972.5,-455 1972.5,-455 1972.5,-461 1966.5,-467 1960.5,-467"/>
<text text-anchor="middle" x="1751" y="-424.8" font-family="Courier-Bold" font-size="24.00">deployment/virt&#45;template&#45;validator</text>
</g>
<!-- deployment/ssp&#45;operator&#45;&gt;deployment/virt&#45;template&#45;validator -->
<g id="edge30" class="edge">
<title>deployment/ssp&#45;operator&#45;&gt;deployment/virt&#45;template&#45;validator</title>
<path fill="none" stroke="black" d="M1144.58,-368.56C1250.23,-379.46 1390.44,-393.92 1509.32,-406.18"/>
<polygon fill="black" stroke="black" points="1529.35,-408.24 1508.53,-415.14 1519.4,-407.22 1509.46,-406.19 1509.46,-406.19 1509.46,-406.19 1519.4,-407.22 1510.38,-397.24 1529.35,-408.24 1529.35,-408.24"/>
</g>
<!-- deployment/virt&#45;api -->
<g id="node27" class="node">
<title>deployment/virt&#45;api</title>
<path fill="none" stroke="black" d="M1866.5,-388C1866.5,-388 1635.5,-388 1635.5,-388 1629.5,-388 1623.5,-382 1623.5,-376 1623.5,-376 1623.5,-328 1623.5,-328 1623.5,-322 1629.5,-316 1635.5,-316 1635.5,-316 1866.5,-316 1866.5,-316 1872.5,-316 1878.5,-322 1878.5,-328 1878.5,-328 1878.5,-376 1878.5,-376 1878.5,-382 1872.5,-388 1866.5,-388"/>
<text text-anchor="middle" x="1751" y="-345.8" font-family="Courier-Bold" font-size="24.00">deployment/virt&#45;api</text>
</g>
<!-- deployment/virt&#45;operator&#45;&gt;deployment/virt&#45;api -->
<g id="edge24" class="edge">
<title>deployment/virt&#45;operator&#45;&gt;deployment/virt&#45;api</title>
<path fill="none" stroke="black" d="M1144.58,-289.56C1279.95,-303.52 1472.06,-323.33 1603.34,-336.87"/>
<polygon fill="black" stroke="black" points="1623.47,-338.95 1602.65,-345.85 1613.52,-337.92 1603.57,-336.9 1603.57,-336.9 1603.57,-336.9 1613.52,-337.92 1604.5,-327.95 1623.47,-338.95 1623.47,-338.95"/>
</g>
<!-- deployment/virt&#45;controller -->
<g id="node29" class="node">
<title>deployment/virt&#45;controller</title>
<path fill="none" stroke="black" d="M1906,-309C1906,-309 1596,-309 1596,-309 1590,-309 1584,-303 1584,-297 1584,-297 1584,-249 1584,-249 1584,-243 1590,-237 1596,-237 1596,-237 1906,-237 1906,-237 1912,-237 1918,-243 1918,-249 1918,-249 1918,-297 1918,-297 1918,-303 1912,-309 1906,-309"/>
<text text-anchor="middle" x="1751" y="-266.8" font-family="Courier-Bold" font-size="24.00">deployment/virt&#45;controller</text>
</g>
<!-- deployment/virt&#45;operator&#45;&gt;deployment/virt&#45;controller -->
<g id="edge25" class="edge">
<title>deployment/virt&#45;operator&#45;&gt;deployment/virt&#45;controller</title>
<path fill="none" stroke="black" d="M1144.58,-273C1266.8,-273 1435.26,-273 1563.46,-273"/>
<polygon fill="black" stroke="black" points="1583.68,-273 1563.68,-282 1573.68,-273 1563.68,-273 1563.68,-273 1563.68,-273 1573.68,-273 1563.68,-264 1583.68,-273 1583.68,-273"/>
</g>
<!-- deployment/virt&#45;exportproxy -->
<g id="node30" class="node">
<title>deployment/virt&#45;exportproxy</title>
<path fill="none" stroke="black" d="M1920.5,-230C1920.5,-230 1581.5,-230 1581.5,-230 1575.5,-230 1569.5,-224 1569.5,-218 1569.5,-218 1569.5,-170 1569.5,-170 1569.5,-164 1575.5,-158 1581.5,-158 1581.5,-158 1920.5,-158 1920.5,-158 1926.5,-158 1932.5,-164 1932.5,-170 1932.5,-170 1932.5,-218 1932.5,-218 1932.5,-224 1926.5,-230 1920.5,-230"/>
<text text-anchor="middle" x="1751" y="-187.8" font-family="Courier-Bold" font-size="24.00">deployment/virt&#45;exportproxy</text>
</g>
<!-- deployment/virt&#45;operator&#45;&gt;deployment/virt&#45;exportproxy -->
<g id="edge26" class="edge">
<title>deployment/virt&#45;operator&#45;&gt;deployment/virt&#45;exportproxy</title>
<path fill="none" stroke="black" d="M1144.58,-256.44C1262.32,-244.3 1422.99,-227.73 1549.22,-214.71"/>
<polygon fill="black" stroke="black" points="1569.17,-212.65 1550.2,-223.65 1559.22,-213.68 1549.27,-214.7 1549.27,-214.7 1549.27,-214.7 1559.22,-213.68 1548.35,-205.75 1569.17,-212.65 1569.17,-212.65"/>
</g>
<!-- deployment/virt&#45;synchronization&#45;controller -->
<g id="node32" class="node">
<title>deployment/virt&#45;synchronization&#45;controller</title>
<path fill="none" stroke="black" d="M2005.5,-151C2005.5,-151 1496.5,-151 1496.5,-151 1490.5,-151 1484.5,-145 1484.5,-139 1484.5,-139 1484.5,-91 1484.5,-91 1484.5,-85 1490.5,-79 1496.5,-79 1496.5,-79 2005.5,-79 2005.5,-79 2011.5,-79 2017.5,-85 2017.5,-91 2017.5,-91 2017.5,-139 2017.5,-139 2017.5,-145 2011.5,-151 2005.5,-151"/>
<text text-anchor="middle" x="1751" y="-108.8" font-family="Courier-Bold" font-size="24.00">deployment/virt&#45;synchronization&#45;controller</text>
</g>
<!-- deployment/virt&#45;operator&#45;&gt;deployment/virt&#45;synchronization&#45;controller -->
<g id="edge29" class="edge">
<title>deployment/virt&#45;operator&#45;&gt;deployment/virt&#45;synchronization&#45;controller</title>
<path fill="none" stroke="black" d="M1144.6,-263.29C1192.51,-257.42 1244.59,-248.02 1291,-233 1360.25,-210.59 1365.71,-177.3 1435,-155 1444.67,-151.89 1454.59,-149.01 1464.66,-146.36"/>
<polygon fill="black" stroke="black" points="1484.19,-141.54 1466.93,-155.07 1474.48,-143.94 1464.77,-146.34 1464.77,-146.34 1464.77,-146.34 1474.48,-143.94 1462.61,-137.6 1484.19,-141.54 1484.19,-141.54"/>
</g>
<!-- daemonset/virt&#45;handler -->
<g id="node36" class="node">
<title>daemonset/virt&#45;handler</title>
<path fill="none" stroke="black" d="M1890,-72C1890,-72 1612,-72 1612,-72 1606,-72 1600,-66 1600,-60 1600,-60 1600,-12 1600,-12 1600,-6 1606,0 1612,0 1612,0 1890,0 1890,0 1896,0 1902,-6 1902,-12 1902,-12 1902,-60 1902,-60 1902,-66 1896,-72 1890,-72"/>
<text text-anchor="middle" x="1751" y="-29.8" font-family="Courier-Bold" font-size="24.00">daemonset/virt&#45;handler</text>
</g>
<!-- deployment/virt&#45;operator&#45;&gt;daemonset/virt&#45;handler -->
<g id="edge33" class="edge">
<title>deployment/virt&#45;operator&#45;&gt;daemonset/virt&#45;handler</title>
<path fill="none" stroke="black" d="M1144.54,-273.07C1193.71,-267.68 1246.52,-256.1 1291,-233 1375.02,-189.36 1350.9,-119.51 1435,-76 1479,-53.24 1530.93,-41.52 1579.79,-35.91"/>
<polygon fill="black" stroke="black" points="1599.79,-33.93 1580.78,-44.86 1589.84,-34.91 1579.89,-35.9 1579.89,-35.9 1579.89,-35.9 1589.84,-34.91 1579,-26.95 1599.79,-33.93 1599.79,-33.93"/>
</g>
</g>
</svg>
