<?xml version="1.0" encoding="UTF-8" standalone="no"?>
<!DOCTYPE svg PUBLIC "-//W3C//DTD SVG 1.1//EN"
 "http://www.w3.org/Graphics/SVG/1.1/DTD/svg11.dtd">
<!-- Generated by graphviz version 2.44.0 (0)
 -->
<!-- Title: managed&#45;by Pages: 1 -->
<svg width="2465pt" height="1531pt"
 viewBox="14.40 14.40 2450.40 1516.40" xmlns="http://www.w3.org/2000/svg" xmlns:xlink="http://www.w3.org/1999/xlink">
<g id="graph0" class="graph" transform="scale(1 1) rotate(0) translate(18.4 1512.4)">
<title>managed&#45;by</title>
<polygon fill="white" stroke="transparent" points="-4,4 -4,-1498 2432,-1498 2432,4 -4,4"/>
<!-- HyperConverged/kubevirt&#45;hyperconverged -->
<g id="node1" class="node">
<title>HyperConverged/kubevirt&#45;hyperconverged</title>
<path fill="none" stroke="black" d="M519,-546C519,-546 12,-546 12,-546 6,-546 0,-540 0,-534 0,-534 0,-486 0,-486 0,-480 6,-474 12,-474 12,-474 519,-474 519,-474 525,-474 531,-480 531,-486 531,-486 531,-534 531,-534 531,-540 525,-546 519,-546"/>
<text text-anchor="middle" x="265.5" y="-503.8" font-family="Courier-Bold" font-size="24.00">HyperConverged/kubevirt&#45;hyperconverged</text>
</g>
<!-- KubeVirt/kubevirt&#45;kubevirt&#45;hyperconverged -->
<g id="node2" class="node">
<title>KubeVirt/kubevirt&#45;kubevirt&#45;hyperconverged</title>
<path fill="none" stroke="black" d="M2008,-1494C2008,-1494 1494,-1494 1494,-1494 1488,-1494 1482,-1488 1482,-1482 1482,-1482 1482,-1434 1482,-1434 1482,-1428 1488,-1422 1494,-1422 1494,-1422 2008,-1422 2008,-1422 2014,-1422 2020,-1428 2020,-1434 2020,-1434 2020,-1482 2020,-1482 2020,-1488 2014,-1494 2008,-1494"/>
<text text-anchor="middle" x="1751" y="-1451.8" font-family="Courier-Bold" font-size="24.00">KubeVirt/kubevirt&#45;kubevirt&#45;hyperconverged</text>
</g>
<!-- deployment/hco&#45;operator -->
<g id="node3" class="node">
<title>deployment/hco&#45;operator</title>
<path fill="none" stroke="black" d="M1134,-1257C1134,-1257 832,-1257 832,-1257 826,-1257 820,-1251 820,-1245 820,-1245 820,-1197 820,-1197 820,-1191 826,-1185 832,-1185 832,-1185 1134,-1185 1134,-1185 1140,-1185 1146,-1191 1146,-1197 1146,-1197 1146,-1245 1146,-1245 1146,-1251 1140,-1257 1134,-1257"/>
<text text-anchor="middle" x="983" y="-1214.8" font-family="Courier-Bold" font-size="24.00">deployment/hco&#45;operator</text>
</g>
<!-- deployment/hco&#45;operator&#45;&gt;KubeVirt/kubevirt&#45;kubevirt&#45;hyperconverged -->
<g id="edge1" class="edge">
<title>deployment/hco&#45;operator&#45;&gt;KubeVirt/kubevirt&#45;kubevirt&#45;hyperconverged</title>
<path fill="none" stroke="black" d="M1050.17,-1257.11C1136.19,-1302.33 1292.3,-1378.65 1435,-1418 1443.87,-1420.45 1452.93,-1422.75 1462.11,-1424.9"/>
<polygon fill="black" stroke="black" points="1481.73,-1429.27 1460.25,-1433.71 1471.97,-1427.1 1462.2,-1424.92 1462.2,-1424.92 1462.2,-1424.92 1471.97,-1427.1 1464.16,-1416.14 1481.73,-1429.27 1481.73,-1429.27"/>
</g>
<!-- SSP/ssp&#45;kubevirt&#45;hyperconverged -->
<g id="node4" class="node">
<title>SSP/ssp&#45;kubevirt&#45;hyperconverged</title>
<path fill="none" stroke="black" d="M1950,-1415C1950,-1415 1552,-1415 1552,-1415 1546,-1415 1540,-1409 1540,-1403 1540,-1403 1540,-1355 1540,-1355 1540,-1349 1546,-1343 1552,-1343 1552,-1343 1950,-1343 1950,-1343 1956,-1343 1962,-1349 1962,-1355 1962,-1355 1962,-1403 1962,-1403 1962,-1409 1956,-1415 1950,-1415"/>
<text text-anchor="middle" x="1751" y="-1372.8" font-family="Courier-Bold" font-size="24.00">SSP/ssp&#45;kubevirt&#45;hyperconverged</text>
</g>
<!-- deployment/hco&#45;operator&#45;&gt;SSP/ssp&#45;kubevirt&#45;hyperconverged -->
<g id="edge2" class="edge">
<title>deployment/hco&#45;operator&#45;&gt;SSP/ssp&#45;kubevirt&#45;hyperconverged</title>
<path fill="none" stroke="black" d="M1104.57,-1257.1C1194.85,-1283.01 1321.77,-1317.09 1435,-1339 1462.37,-1344.3 1491.23,-1349.06 1519.91,-1353.3"/>
<polygon fill="black" stroke="black" points="1539.71,-1356.15 1518.64,-1362.21 1529.82,-1354.72 1519.92,-1353.3 1519.92,-1353.3 1519.92,-1353.3 1529.82,-1354.72 1521.2,-1344.39 1539.71,-1356.15 1539.71,-1356.15"/>
</g>
<!-- CDI/cdi&#45;kubevirt&#45;hyperconverged -->
<g id="node5" class="node">
<title>CDI/cdi&#45;kubevirt&#45;hyperconverged</title>
<path fill="none" stroke="black" d="M1946.5,-1336C1946.5,-1336 1555.5,-1336 1555.5,-1336 1549.5,-1336 1543.5,-1330 1543.5,-1324 1543.5,-1324 1543.5,-1276 1543.5,-1276 1543.5,-1270 1549.5,-1264 1555.5,-1264 1555.5,-1264 1946.5,-1264 1946.5,-1264 1952.5,-1264 1958.5,-1270 1958.5,-1276 1958.5,-1276 1958.5,-1324 1958.5,-1324 1958.5,-1330 1952.5,-1336 1946.5,-1336"/>
<text text-anchor="middle" x="1751" y="-1293.8" font-family="Courier-Bold" font-size="24.00">CDI/cdi&#45;kubevirt&#45;hyperconverged</text>
</g>
<!-- deployment/hco&#45;operator&#45;&gt;CDI/cdi&#45;kubevirt&#45;hyperconverged -->
<g id="edge3" class="edge">
<title>deployment/hco&#45;operator&#45;&gt;CDI/cdi&#45;kubevirt&#45;hyperconverged</title>
<path fill="none" stroke="black" d="M1146.45,-1237.75C1256.07,-1249.06 1402.25,-1264.14 1523.29,-1276.62"/>
<polygon fill="black" stroke="black" points="1543.26,-1278.68 1522.44,-1285.58 1533.31,-1277.65 1523.37,-1276.63 1523.37,-1276.63 1523.37,-1276.63 1533.31,-1277.65 1524.29,-1267.67 1543.26,-1278.68 1543.26,-1278.68"/>
</g>
<!-- NetworkAddonsConfig/cluster -->
<g id="node8" class="node">
<title>NetworkAddonsConfig/cluster</title>
<path fill="none" stroke="black" d="M1926,-1257C1926,-1257 1576,-1257 1576,-1257 1570,-1257 1564,-1251 1564,-1245 1564,-1245 1564,-1197 1564,-1197 1564,-1191 1570,-1185 1576,-1185 1576,-1185 1926,-1185 1926,-1185 1932,-1185 1938,-1191 1938,-1197 1938,-1197 1938,-1245 1938,-1245 1938,-1251 1932,-1257 1926,-1257"/>
<text text-anchor="middle" x="1751" y="-1214.8" font-family="Courier-Bold" font-size="24.00">NetworkAddonsConfig/cluster</text>
</g>
<!-- deployment/hco&#45;operator&#45;&gt;NetworkAddonsConfig/cluster -->
<g id="edge5" class="edge">
<title>deployment/hco&#45;operator&#45;&gt;NetworkAddonsConfig/cluster</title>
<path fill="none" stroke="black" d="M1146.45,-1221C1262.32,-1221 1419.05,-1221 1543.76,-1221"/>
<polygon fill="black" stroke="black" points="1563.88,-1221 1543.88,-1230 1553.88,-1221 1543.88,-1221 1543.88,-1221 1543.88,-1221 1553.88,-1221 1543.88,-1212 1563.88,-1221 1563.88,-1221"/>
</g>
<!-- deployment/kubevirt&#45;apiserver&#45;proxy -->
<g id="node20" class="node">
<title>deployment/kubevirt&#45;apiserver&#45;proxy</title>
<path fill="none" stroke="black" d="M1971,-1178C1971,-1178 1531,-1178 1531,-1178 1525,-1178 1519,-1172 1519,-1166 1519,-1166 1519,-1118 1519,-1118 1519,-1112 1525,-1106 1531,-1106 1531,-1106 1971,-1106 1971,-1106 1977,-1106 1983,-1112 1983,-1118 1983,-1118 1983,-1166 1983,-1166 1983,-1172 1977,-1178 1971,-1178"/>
<text text-anchor="middle" x="1751" y="-1135.8" font-family="Courier-Bold" font-size="24.00">deployment/kubevirt&#45;apiserver&#45;proxy</text>
</g>
<!-- deployment/hco&#45;operator&#45;&gt;deployment/kubevirt&#45;apiserver&#45;proxy -->
<g id="edge18" class="edge">
<title>deployment/hco&#45;operator&#45;&gt;deployment/kubevirt&#45;apiserver&#45;proxy</title>
<path fill="none" stroke="black" d="M1146.45,-1204.25C1248.78,-1193.69 1382.98,-1179.85 1498.85,-1167.9"/>
<polygon fill="black" stroke="black" points="1518.76,-1165.85 1499.79,-1176.85 1508.82,-1166.87 1498.87,-1167.9 1498.87,-1167.9 1498.87,-1167.9 1508.82,-1166.87 1497.94,-1158.95 1518.76,-1165.85 1518.76,-1165.85"/>
</g>
<!-- deployment/kubevirt&#45;console&#45;plugin -->
<g id="node21" class="node">
<title>deployment/kubevirt&#45;console&#45;plugin</title>
<path fill="none" stroke="black" d="M1965,-1099C1965,-1099 1537,-1099 1537,-1099 1531,-1099 1525,-1093 1525,-1087 1525,-1087 1525,-1039 1525,-1039 1525,-1033 1531,-1027 1537,-1027 1537,-1027 1965,-1027 1965,-1027 1971,-1027 1977,-1033 1977,-1039 1977,-1039 1977,-1087 1977,-1087 1977,-1093 1971,-1099 1965,-1099"/>
<text text-anchor="middle" x="1751" y="-1056.8" font-family="Courier-Bold" font-size="24.00">deployment/kubevirt&#45;console&#45;plugin</text>
</g>
<!-- deployment/hco&#45;operator&#45;&gt;deployment/kubevirt&#45;console&#45;plugin -->
<g id="edge19" class="edge">
<title>deployment/hco&#45;operator&#45;&gt;deployment/kubevirt&#45;console&#45;plugin</title>
<path fill="none" stroke="black" d="M1104.57,-1184.9C1194.85,-1158.99 1321.77,-1124.91 1435,-1103 1457.62,-1098.62 1481.25,-1094.61 1504.96,-1090.96"/>
<polygon fill="black" stroke="black" points="1524.88,-1087.97 1506.43,-1099.84 1514.99,-1089.46 1505.1,-1090.94 1505.1,-1090.94 1505.1,-1090.94 1514.99,-1089.46 1503.76,-1082.04 1524.88,-1087.97 1524.88,-1087.97"/>
</g>
<!-- CDIConfig/config -->
<g id="node6" class="node">
<title>CDIConfig/config</title>
<path fill="none" stroke="black" d="M2416,-1020C2416,-1020 2223,-1020 2223,-1020 2217,-1020 2211,-1014 2211,-1008 2211,-1008 2211,-960 2211,-960 2211,-954 2217,-948 2223,-948 2223,-948 2416,-948 2416,-948 2422,-948 2428,-954 2428,-960 2428,-960 2428,-1008 2428,-1008 2428,-1014 2422,-1020 2416,-1020"/>
<text text-anchor="middle" x="2319.5" y="-977.8" font-family="Courier-Bold" font-size="24.00">CDIConfig/config</text>
</g>
<!-- deployment/cdi&#45;deployment -->
<g id="node7" class="node">
<title>deployment/cdi&#45;deployment</title>
<path fill="none" stroke="black" d="M1917.5,-1020C1917.5,-1020 1584.5,-1020 1584.5,-1020 1578.5,-1020 1572.5,-1014 1572.5,-1008 1572.5,-1008 1572.5,-960 1572.5,-960 1572.5,-954 1578.5,-948 1584.5,-948 1584.5,-948 1917.5,-948 1917.5,-948 1923.5,-948 1929.5,-954 1929.5,-960 1929.5,-960 1929.5,-1008 1929.5,-1008 1929.5,-1014 1923.5,-1020 1917.5,-1020"/>
<text text-anchor="middle" x="1751" y="-977.8" font-family="Courier-Bold" font-size="24.00">deployment/cdi&#45;deployment</text>
</g>
<!-- deployment/cdi&#45;deployment&#45;&gt;CDIConfig/config -->
<g id="edge4" class="edge">
<title>deployment/cdi&#45;deployment&#45;&gt;CDIConfig/config</title>
<path fill="none" stroke="black" d="M1929.69,-984C2014.28,-984 2113.54,-984 2190.59,-984"/>
<polygon fill="black" stroke="black" points="2210.69,-984 2190.69,-993 2200.69,-984 2190.69,-984 2190.69,-984 2190.69,-984 2200.69,-984 2190.69,-975 2210.69,-984 2210.69,-984"/>
</g>
<!-- deployment/aaq&#45;operator -->
<g id="node9" class="node">
<title>deployment/aaq&#45;operator</title>
<path fill="none" stroke="black" d="M1134.5,-941C1134.5,-941 831.5,-941 831.5,-941 825.5,-941 819.5,-935 819.5,-929 819.5,-929 819.5,-881 819.5,-881 819.5,-875 825.5,-869 831.5,-869 831.5,-869 1134.5,-869 1134.5,-869 1140.5,-869 1146.5,-875 1146.5,-881 1146.5,-881 1146.5,-929 1146.5,-929 1146.5,-935 1140.5,-941 1134.5,-941"/>
<text text-anchor="middle" x="983" y="-898.8" font-family="Courier-Bold" font-size="24.00">deployment/aaq&#45;operator</text>
</g>
<!-- olm -->
<g id="node10" class="node">
<title>olm</title>
<path fill="none" stroke="black" d="M361.5,-625C361.5,-625 169.5,-625 169.5,-625 163.5,-625 157.5,-619 157.5,-613 157.5,-613 157.5,-565 157.5,-565 157.5,-559 163.5,-553 169.5,-553 169.5,-553 361.5,-553 361.5,-553 367.5,-553 373.5,-559 373.5,-565 373.5,-565 373.5,-613 373.5,-613 373.5,-619 367.5,-625 361.5,-625"/>
<text text-anchor="middle" x="265.5" y="-582.8" font-family="Courier-Bold" font-size="24.00">olm</text>
</g>
<!-- olm&#45;&gt;deployment/hco&#45;operator -->
<g id="edge12" class="edge">
<title>olm&#45;&gt;deployment/hco&#45;operator</title>
<path fill="none" stroke="black" d="M307.28,-625.02C428.53,-732.12 786.99,-1048.75 926.01,-1171.55"/>
<polygon fill="black" stroke="black" points="941.08,-1184.86 920.14,-1178.36 933.59,-1178.24 926.09,-1171.62 926.09,-1171.62 926.09,-1171.62 933.59,-1178.24 932.05,-1164.87 941.08,-1184.86 941.08,-1184.86"/>
</g>
<!-- olm&#45;&gt;deployment/aaq&#45;operator -->
<g id="edge6" class="edge">
<title>olm&#45;&gt;deployment/aaq&#45;operator</title>
<path fill="none" stroke="black" d="M305.8,-625.02C374.75,-685.89 524.51,-808.03 675,-865 713.97,-879.75 757.49,-889.24 799.23,-895.29"/>
<polygon fill="black" stroke="black" points="819.22,-897.96 798.21,-904.24 809.31,-896.64 799.4,-895.31 799.4,-895.31 799.4,-895.31 809.31,-896.64 800.59,-886.39 819.22,-897.96 819.22,-897.96"/>
</g>
<!-- deployment/cdi&#45;operator -->
<g id="node12" class="node">
<title>deployment/cdi&#45;operator</title>
<path fill="none" stroke="black" d="M1129.5,-862C1129.5,-862 836.5,-862 836.5,-862 830.5,-862 824.5,-856 824.5,-850 824.5,-850 824.5,-802 824.5,-802 824.5,-796 830.5,-790 836.5,-790 836.5,-790 1129.5,-790 1129.5,-790 1135.5,-790 1141.5,-796 1141.5,-802 1141.5,-802 1141.5,-850 1141.5,-850 1141.5,-856 1135.5,-862 1129.5,-862"/>
<text text-anchor="middle" x="983" y="-819.8" font-family="Courier-Bold" font-size="24.00">deployment/cdi&#45;operator</text>
</g>
<!-- olm&#45;&gt;deployment/cdi&#45;operator -->
<g id="edge9" class="edge">
<title>olm&#45;&gt;deployment/cdi&#45;operator</title>
<path fill="none" stroke="black" d="M351.13,-625.09C433.03,-659.2 561.14,-710.47 675,-747 717.59,-760.66 764.07,-773.61 807.69,-784.92"/>
<polygon fill="black" stroke="black" points="827.17,-789.92 805.56,-793.67 817.48,-787.44 807.8,-784.95 807.8,-784.95 807.8,-784.95 817.48,-787.44 810.03,-776.23 827.17,-789.92 827.17,-789.92"/>
</g>
<!-- deployment/cluster&#45;network&#45;addons&#45;operator -->
<g id="node14" class="node">
<title>deployment/cluster&#45;network&#45;addons&#45;operator</title>
<path fill="none" stroke="black" d="M1254.5,-744C1254.5,-744 711.5,-744 711.5,-744 705.5,-744 699.5,-738 699.5,-732 699.5,-732 699.5,-684 699.5,-684 699.5,-678 705.5,-672 711.5,-672 711.5,-672 1254.5,-672 1254.5,-672 1260.5,-672 1266.5,-678 1266.5,-684 1266.5,-684 1266.5,-732 1266.5,-732 1266.5,-738 1260.5,-744 1254.5,-744"/>
<text text-anchor="middle" x="983" y="-701.8" font-family="Courier-Bold" font-size="24.00">deployment/cluster&#45;network&#45;addons&#45;operator</text>
</g>
<!-- olm&#45;&gt;deployment/cluster&#45;network&#45;addons&#45;operator -->
<g id="edge11" class="edge">
<title>olm&#45;&gt;deployment/cluster&#45;network&#45;addons&#45;operator</title>
<path fill="none" stroke="black" d="M373.69,-611.6C455.9,-628.48 572.32,-651.4 675,-668 676.67,-668.27 678.35,-668.54 680.03,-668.81"/>
<polygon fill="black" stroke="black" points="700.02,-671.94 678.86,-677.74 690.14,-670.39 680.26,-668.84 680.26,-668.84 680.26,-668.84 690.14,-670.39 681.65,-659.95 700.02,-671.94 700.02,-671.94"/>
</g>
<!-- deployment/hco&#45;webhook -->
<g id="node15" class="node">
<title>deployment/hco&#45;webhook</title>
<path fill="none" stroke="black" d="M1136,-665C1136,-665 830,-665 830,-665 824,-665 818,-659 818,-653 818,-653 818,-605 818,-605 818,-599 824,-593 830,-593 830,-593 1136,-593 1136,-593 1142,-593 1148,-599 1148,-605 1148,-605 1148,-653 1148,-653 1148,-659 1142,-665 1136,-665"/>
<text text-anchor="middle" x="983" y="-622.8" font-family="Courier-Bold" font-size="24.00">deployment/hco&#45;webhook</text>
</g>
<!-- olm&#45;&gt;deployment/hco&#45;webhook -->
<g id="edge13" class="edge">
<title>olm&#45;&gt;deployment/hco&#45;webhook</title>
<path fill="none" stroke="black" d="M373.62,-594.99C485.51,-601.24 663.14,-611.17 797.64,-618.69"/>
<polygon fill="black" stroke="black" points="817.99,-619.83 797.52,-627.7 808.01,-619.27 798.03,-618.71 798.03,-618.71 798.03,-618.71 808.01,-619.27 798.53,-609.73 817.99,-619.83 817.99,-619.83"/>
</g>
<!-- deployment/hostpath&#45;provisioner&#45;operator -->
<g id="node16" class="node">
<title>deployment/hostpath&#45;provisioner&#45;operator</title>
<path fill="none" stroke="black" d="M1236.5,-586C1236.5,-586 729.5,-586 729.5,-586 723.5,-586 717.5,-580 717.5,-574 717.5,-574 717.5,-526 717.5,-526 717.5,-520 723.5,-514 729.5,-514 729.5,-514 1236.5,-514 1236.5,-514 1242.5,-514 1248.5,-520 1248.5,-526 1248.5,-526 1248.5,-574 1248.5,-574 1248.5,-580 1242.5,-586 1236.5,-586"/>
<text text-anchor="middle" x="983" y="-543.8" font-family="Courier-Bold" font-size="24.00">deployment/hostpath&#45;provisioner&#45;operator</text>
</g>
<!-- olm&#45;&gt;deployment/hostpath&#45;provisioner&#45;operator -->
<g id="edge14" class="edge">
<title>olm&#45;&gt;deployment/hostpath&#45;provisioner&#45;operator</title>
<path fill="none" stroke="black" d="M373.62,-583.16C459.3,-578.49 583.54,-571.72 697.43,-565.51"/>
<polygon fill="black" stroke="black" points="717.46,-564.42 697.98,-574.49 707.47,-564.96 697.49,-565.51 697.49,-565.51 697.49,-565.51 707.47,-564.96 697,-556.52 717.46,-564.42 717.46,-564.42"/>
</g>
<!-- deployment/hyperconverged&#45;cluster&#45;cli&#45;download -->
<g id="node17" class="node">
<title>deployment/hyperconverged&#45;cluster&#45;cli&#45;download</title>
<path fill="none" stroke="black" d="M1279,-507C1279,-507 687,-507 687,-507 681,-507 675,-501 675,-495 675,-495 675,-447 675,-447 675,-441 681,-435 687,-435 687,-435 1279,-435 1279,-435 1285,-435 1291,-441 1291,-447 1291,-447 1291,-495 1291,-495 1291,-501 1285,-507 1279,-507"/>
<text text-anchor="middle" x="983" y="-464.8" font-family="Courier-Bold" font-size="24.00">deployment/hyperconverged&#45;cluster&#45;cli&#45;download</text>
</g>
<!-- olm&#45;&gt;deployment/hyperconverged&#45;cluster&#45;cli&#45;download -->
<g id="edge15" class="edge">
<title>olm&#45;&gt;deployment/hyperconverged&#45;cluster&#45;cli&#45;download</title>
<path fill="none" stroke="black" d="M373.78,-575.46C422.05,-568.67 479.61,-559.63 531,-549 595.82,-535.59 610.05,-523.75 675,-511 675.32,-510.94 675.64,-510.87 675.96,-510.81"/>
<polygon fill="black" stroke="black" points="695.83,-507.06 677.84,-519.62 686,-508.92 676.17,-510.77 676.17,-510.77 676.17,-510.77 686,-508.92 674.51,-501.93 695.83,-507.06 695.83,-507.06"/>
</g>
<!-- deployment/kubevirt&#45;migration&#45;operator -->
<g id="node23" class="node">
<title>deployment/kubevirt&#45;migration&#45;operator</title>
<path fill="none" stroke="black" d="M1224,-428C1224,-428 742,-428 742,-428 736,-428 730,-422 730,-416 730,-416 730,-368 730,-368 730,-362 736,-356 742,-356 742,-356 1224,-356 1224,-356 1230,-356 1236,-362 1236,-368 1236,-368 1236,-416 1236,-416 1236,-422 1230,-428 1224,-428"/>
<text text-anchor="middle" x="983" y="-385.8" font-family="Courier-Bold" font-size="24.00">deployment/kubevirt&#45;migration&#45;operator</text>
</g>
<!-- olm&#45;&gt;deployment/kubevirt&#45;migration&#45;operator -->
<g id="edge21" class="edge">
<title>olm&#45;&gt;deployment/kubevirt&#45;migration&#45;operator</title>
<path fill="none" stroke="black" d="M373.73,-585.68C423.31,-580.95 481.94,-570.69 531,-549 606.42,-515.66 599.24,-464.56 675,-432 686.42,-427.09 698.29,-422.74 710.42,-418.89"/>
<polygon fill="black" stroke="black" points="729.69,-413.24 713.03,-427.51 720.09,-416.06 710.5,-418.87 710.5,-418.87 710.5,-418.87 720.09,-416.06 707.96,-410.23 729.69,-413.24 729.69,-413.24"/>
</g>
<!-- deployment/ssp&#45;operator -->
<g id="node24" class="node">
<title>deployment/ssp&#45;operator</title>
<path fill="none" stroke="black" d="M1132.5,-349C1132.5,-349 833.5,-349 833.5,-349 827.5,-349 821.5,-343 821.5,-337 821.5,-337 821.5,-289 821.5,-289 821.5,-283 827.5,-277 833.5,-277 833.5,-277 1132.5,-277 1132.5,-277 1138.5,-277 1144.5,-283 1144.5,-289 1144.5,-289 1144.5,-337 1144.5,-337 1144.5,-343 1138.5,-349 1132.5,-349"/>
<text text-anchor="middle" x="983" y="-306.8" font-family="Courier-Bold" font-size="24.00">deployment/ssp&#45;operator</text>
</g>
<!-- olm&#45;&gt;deployment/ssp&#45;operator -->
<g id="edge22" class="edge">
<title>olm&#45;&gt;deployment/ssp&#45;operator</title>
<path fill="none" stroke="black" d="M373.65,-591.35C424.49,-588.01 484.2,-577.29 531,-549 623.51,-493.09 581.92,-407.96 675,-353 712.83,-330.66 757.8,-318.51 801.49,-312.32"/>
<polygon fill="black" stroke="black" points="821.44,-309.88 802.68,-321.24 811.51,-311.09 801.59,-312.31 801.59,-312.31 801.59,-312.31 811.51,-311.09 800.5,-303.38 821.44,-309.88 821.44,-309.88"/>
</g>
<!-- deployment/virt&#45;operator -->
<g id="node26" class="node">
<title>deployment/virt&#45;operator</title>
<path fill="none" stroke="black" d="M1132.5,-230C1132.5,-230 833.5,-230 833.5,-230 827.5,-230 821.5,-224 821.5,-218 821.5,-218 821.5,-170 821.5,-170 821.5,-164 827.5,-158 833.5,-158 833.5,-158 1132.5,-158 1132.5,-158 1138.5,-158 1144.5,-164 1144.5,-170 1144.5,-170 1144.5,-218 1144.5,-218 1144.5,-224 1138.5,-230 1132.5,-230"/>
<text text-anchor="middle" x="983" y="-187.8" font-family="Courier-Bold" font-size="24.00">deployment/virt&#45;operator</text>
</g>
<!-- olm&#45;&gt;deployment/virt&#45;operator -->
<g id="edge26" class="edge">
<title>olm&#45;&gt;deployment/virt&#45;operator</title>
<path fill="none" stroke="black" d="M373.7,-594.5C425.45,-592.06 485.93,-581.18 531,-549 643.61,-468.61 566.63,-359.01 675,-273 711.32,-244.17 756.98,-225.77 801.9,-214.04"/>
<polygon fill="black" stroke="black" points="821.42,-209.34 804.09,-222.77 811.7,-211.68 801.98,-214.02 801.98,-214.02 801.98,-214.02 811.7,-211.68 799.87,-205.27 821.42,-209.34 821.42,-209.34"/>
</g>
<!-- deployment/cdi&#45;apiserver -->
<g id="node11" class="node">
<title>deployment/cdi&#45;apiserver</title>
<path fill="none" stroke="black" d="M1902,-941C1902,-941 1600,-941 1600,-941 1594,-941 1588,-935 1588,-929 1588,-929 1588,-881 1588,-881 1588,-875 1594,-869 1600,-869 1600,-869 1902,-869 1902,-869 1908,-869 1914,-875 1914,-881 1914,-881 1914,-929 1914,-929 1914,-935 1908,-941 1902,-941"/>
<text text-anchor="middle" x="1751" y="-898.8" font-family="Courier-Bold" font-size="24.00">deployment/cdi&#45;apiserver</text>
</g>
<!-- deployment/cdi&#45;operator&#45;&gt;deployment/cdi&#45;deployment -->
<g id="edge8" class="edge">
<title>deployment/cdi&#45;operator&#45;&gt;deployment/cdi&#45;deployment</title>
<path fill="none" stroke="black" d="M1141.84,-835.37C1190.5,-841.22 1243.7,-850.69 1291,-866 1360.25,-888.41 1365.71,-921.7 1435,-944 1472.15,-955.96 1512.84,-964.36 1552.27,-970.26"/>
<polygon fill="black" stroke="black" points="1572.13,-973.04 1551.07,-979.18 1562.22,-971.65 1552.32,-970.26 1552.32,-970.26 1552.32,-970.26 1562.22,-971.65 1553.57,-961.35 1572.13,-973.04 1572.13,-973.04"/>
</g>
<!-- deployment/cdi&#45;operator&#45;&gt;deployment/cdi&#45;apiserver -->
<g id="edge7" class="edge">
<title>deployment/cdi&#45;operator&#45;&gt;deployment/cdi&#45;apiserver</title>
<path fill="none" stroke="black" d="M1141.79,-842.27C1265.59,-855.04 1438.09,-872.83 1567.77,-886.21"/>
<polygon fill="black" stroke="black" points="1587.8,-888.27 1566.98,-895.17 1577.85,-887.25 1567.9,-886.22 1567.9,-886.22 1567.9,-886.22 1577.85,-887.25 1568.83,-877.27 1587.8,-888.27 1587.8,-888.27"/>
</g>
<!-- deployment/cdi&#45;uploadproxy -->
<g id="node13" class="node">
<title>deployment/cdi&#45;uploadproxy</title>
<path fill="none" stroke="black" d="M1920,-862C1920,-862 1582,-862 1582,-862 1576,-862 1570,-856 1570,-850 1570,-850 1570,-802 1570,-802 1570,-796 1576,-790 1582,-790 1582,-790 1920,-790 1920,-790 1926,-790 1932,-796 1932,-802 1932,-802 1932,-850 1932,-850 1932,-856 1926,-862 1920,-862"/>
<text text-anchor="middle" x="1751" y="-819.8" font-family="Courier-Bold" font-size="24.00">deployment/cdi&#45;uploadproxy</text>
</g>
<!-- deployment/cdi&#45;operator&#45;&gt;deployment/cdi&#45;uploadproxy -->
<g id="edge10" class="edge">
<title>deployment/cdi&#45;operator&#45;&gt;deployment/cdi&#45;uploadproxy</title>
<path fill="none" stroke="black" d="M1141.79,-826C1259.96,-826 1422.49,-826 1549.81,-826"/>
<polygon fill="black" stroke="black" points="1569.93,-826 1549.93,-835 1559.93,-826 1549.93,-826 1549.93,-826 1549.93,-826 1559.93,-826 1549.93,-817 1569.93,-826 1569.93,-826"/>
</g>
<!-- deployment/kubemacpool&#45;cert&#45;manager -->
<g id="node18" class="node">
<title>deployment/kubemacpool&#45;cert&#45;manager</title>
<path fill="none" stroke="black" d="M1991.5,-783C1991.5,-783 1510.5,-783 1510.5,-783 1504.5,-783 1498.5,-777 1498.5,-771 1498.5,-771 1498.5,-723 1498.5,-723 1498.5,-717 1504.5,-711 1510.5,-711 1510.5,-711 1991.5,-711 1991.5,-711 1997.5,-711 2003.5,-717 2003.5,-723 2003.5,-723 2003.5,-771 2003.5,-771 2003.5,-777 1997.5,-783 1991.5,-783"/>
<text text-anchor="middle" x="1751" y="-740.8" font-family="Courier-Bold" font-size="24.00">deployment/kubemacpool&#45;cert&#45;manager</text>
</g>
<!-- deployment/cluster&#45;network&#45;addons&#45;operator&#45;&gt;deployment/kubemacpool&#45;cert&#45;manager -->
<g id="edge16" class="edge">
<title>deployment/cluster&#45;network&#45;addons&#45;operator&#45;&gt;deployment/kubemacpool&#45;cert&#45;manager</title>
<path fill="none" stroke="black" d="M1266.51,-722.38C1335.68,-725.91 1409.57,-729.67 1478.22,-733.16"/>
<polygon fill="black" stroke="black" points="1498.39,-734.19 1477.96,-742.16 1488.41,-733.68 1478.42,-733.17 1478.42,-733.17 1478.42,-733.17 1488.41,-733.68 1478.88,-724.18 1498.39,-734.19 1498.39,-734.19"/>
</g>
<!-- deployment/kubemacpool&#45;mac&#45;controller&#45;manager -->
<g id="node19" class="node">
<title>deployment/kubemacpool&#45;mac&#45;controller&#45;manager</title>
<path fill="none" stroke="black" d="M2055,-704C2055,-704 1447,-704 1447,-704 1441,-704 1435,-698 1435,-692 1435,-692 1435,-644 1435,-644 1435,-638 1441,-632 1447,-632 1447,-632 2055,-632 2055,-632 2061,-632 2067,-638 2067,-644 2067,-644 2067,-692 2067,-692 2067,-698 2061,-704 2055,-704"/>
<text text-anchor="middle" x="1751" y="-661.8" font-family="Courier-Bold" font-size="24.00">deployment/kubemacpool&#45;mac&#45;controller&#45;manager</text>
</g>
<!-- deployment/cluster&#45;network&#45;addons&#45;operator&#45;&gt;deployment/kubemacpool&#45;mac&#45;controller&#45;manager -->
<g id="edge17" class="edge">
<title>deployment/cluster&#45;network&#45;addons&#45;operator&#45;&gt;deployment/kubemacpool&#45;mac&#45;controller&#45;manager</title>
<path fill="none" stroke="black" d="M1266.51,-693.25C1314.77,-690.73 1365.33,-688.09 1414.8,-685.5"/>
<polygon fill="black" stroke="black" points="1434.81,-684.46 1415.3,-694.49 1424.82,-684.98 1414.83,-685.5 1414.83,-685.5 1414.83,-685.5 1424.82,-684.98 1414.36,-676.51 1434.81,-684.46 1434.81,-684.46"/>
</g>
<!-- deployment/kubevirt&#45;ipam&#45;controller&#45;manager -->
<g id="node22" class="node">
<title>deployment/kubevirt&#45;ipam&#45;controller&#45;manager</title>
<path fill="none" stroke="black" d="M2027.5,-625C2027.5,-625 1474.5,-625 1474.5,-625 1468.5,-625 1462.5,-619 1462.5,-613 1462.5,-613 1462.5,-565 1462.5,-565 1462.5,-559 1468.5,-553 1474.5,-553 1474.5,-553 2027.5,-553 2027.5,-553 2033.5,-553 2039.5,-559 2039.5,-565 2039.5,-565 2039.5,-613 2039.5,-613 2039.5,-619 2033.5,-625 2027.5,-625"/>
<text text-anchor="middle" x="1751" y="-582.8" font-family="Courier-Bold" font-size="24.00">deployment/kubevirt&#45;ipam&#45;controller&#45;manager</text>
</g>
<!-- deployment/cluster&#45;network&#45;addons&#45;operator&#45;&gt;deployment/kubevirt&#45;ipam&#45;controller&#45;manager -->
<g id="edge20" class="edge">
<title>deployment/cluster&#45;network&#45;addons&#45;operator&#45;&gt;deployment/kubevirt&#45;ipam&#45;controller&#45;manager</title>
<path fill="none" stroke="black" d="M1266.53,-672.67C1274.79,-671.16 1282.96,-669.6 1291,-668 1356.02,-655.02 1369.96,-641.87 1435,-629 1437.37,-628.53 1439.75,-628.07 1442.14,-627.61"/>
<polygon fill="black" stroke="black" points="1462.19,-623.89 1444.16,-636.38 1452.35,-625.71 1442.52,-627.54 1442.52,-627.54 1442.52,-627.54 1452.35,-625.71 1440.88,-618.69 1462.19,-623.89 1462.19,-623.89"/>
</g>
<!-- daemonset/bridge&#45;marker -->
<g id="node30" class="node">
<title>daemonset/bridge&#45;marker</title>
<path fill="none" stroke="black" d="M1905,-546C1905,-546 1597,-546 1597,-546 1591,-546 1585,-540 1585,-534 1585,-534 1585,-486 1585,-486 1585,-480 1591,-474 1597,-474 1597,-474 1905,-474 1905,-474 1911,-474 1917,-480 1917,-486 1917,-486 1917,-534 1917,-534 1917,-540 1911,-546 1905,-546"/>
<text text-anchor="middle" x="1751" y="-503.8" font-family="Courier-Bold" font-size="24.00">daemonset/bridge&#45;marker</text>
</g>
<!-- deployment/cluster&#45;network&#45;addons&#45;operator&#45;&gt;daemonset/bridge&#45;marker -->
<g id="edge28" class="edge">
<title>deployment/cluster&#45;network&#45;addons&#45;operator&#45;&gt;daemonset/bridge&#45;marker</title>
<path fill="none" stroke="black" d="M1266.74,-677.45C1275,-674.55 1283.11,-671.41 1291,-668 1366.95,-635.17 1359,-582.71 1435,-550 1475.29,-532.66 1520.96,-522.24 1564.78,-516.1"/>
<polygon fill="black" stroke="black" points="1584.76,-513.58 1566.04,-525.02 1574.84,-514.83 1564.92,-516.09 1564.92,-516.09 1564.92,-516.09 1574.84,-514.83 1563.79,-507.16 1584.76,-513.58 1584.76,-513.58"/>
</g>
<!-- daemonset/kube&#45;cni&#45;linux&#45;bridge&#45;plugin -->
<g id="node31" class="node">
<title>daemonset/kube&#45;cni&#45;linux&#45;bridge&#45;plugin</title>
<path fill="none" stroke="black" d="M1988,-467C1988,-467 1514,-467 1514,-467 1508,-467 1502,-461 1502,-455 1502,-455 1502,-407 1502,-407 1502,-401 1508,-395 1514,-395 1514,-395 1988,-395 1988,-395 1994,-395 2000,-401 2000,-407 2000,-407 2000,-455 2000,-455 2000,-461 1994,-467 1988,-467"/>
<text text-anchor="middle" x="1751" y="-424.8" font-family="Courier-Bold" font-size="24.00">daemonset/kube&#45;cni&#45;linux&#45;bridge&#45;plugin</text>
</g>
<!-- deployment/cluster&#45;network&#45;addons&#45;operator&#45;&gt;daemonset/kube&#45;cni&#45;linux&#45;bridge&#45;plugin -->
<g id="edge29" class="edge">
<title>deployment/cluster&#45;network&#45;addons&#45;operator&#45;&gt;daemonset/kube&#45;cni&#45;linux&#45;bridge&#45;plugin</title>
<path fill="none" stroke="black" d="M1266.56,-680.68C1274.97,-676.87 1283.14,-672.66 1291,-668 1384.32,-612.75 1341.59,-526.1 1435,-471 1450.01,-462.15 1466.11,-454.87 1482.81,-448.92"/>
<polygon fill="black" stroke="black" points="1501.89,-442.74 1485.63,-457.46 1492.37,-445.82 1482.86,-448.9 1482.86,-448.9 1482.86,-448.9 1492.37,-445.82 1480.09,-440.34 1501.89,-442.74 1501.89,-442.74"/>
</g>
<!-- deployment/virt&#45;template&#45;validator -->
<g id="node29" class="node">
<title>deployment/virt&#45;template&#45;validator</title>
<path fill="none" stroke="black" d="M1960.5,-388C1960.5,-388 1541.5,-388 1541.5,-388 1535.5,-388 1529.5,-382 1529.5,-376 1529.5,-376 1529.5,-328 1529.5,-328 1529.5,-322 1535.5,-316 1541.5,-316 1541.5,-316 1960.5,-316 1960.5,-316 1966.5,-316 1972.5,-322 1972.5,-328 1972.5,-328 1972.5,-376 1972.5,-376 1972.5,-382 1966.5,-388 1960.5,-388"/>
<text text-anchor="middle" x="1751" y="-345.8" font-family="Courier-Bold" font-size="24.00">deployment/virt&#45;template&#45;validator</text>
</g>
<!-- deployment/ssp&#45;operator&#45;&gt;deployment/virt&#45;template&#45;validator -->
<g id="edge27" class="edge">
<title>deployment/ssp&#45;operator&#45;&gt;deployment/virt&#45;template&#45;validator</title>
<path fill="none" stroke="black" d="M1144.58,-321.18C1250.23,-326.55 1390.44,-333.69 1509.32,-339.75"/>
<polygon fill="black" stroke="black" points="1529.35,-340.77 1508.92,-348.74 1519.36,-340.26 1509.38,-339.75 1509.38,-339.75 1509.38,-339.75 1519.36,-340.26 1509.83,-330.76 1529.35,-340.77 1529.35,-340.77"/>
</g>
<!-- deployment/virt&#45;api -->
<g id="node25" class="node">
<title>deployment/virt&#45;api</title>
<path fill="none" stroke="black" d="M1866.5,-309C1866.5,-309 1635.5,-309 1635.5,-309 1629.5,-309 1623.5,-303 1623.5,-297 1623.5,-297 1623.5,-249 1623.5,-249 1623.5,-243 1629.5,-237 1635.5,-237 1635.5,-237 1866.5,-237 1866.5,-237 1872.5,-237 1878.5,-243 1878.5,-249 1878.5,-249 1878.5,-297 1878.5,-297 1878.5,-303 1872.5,-309 1866.5,-309"/>
<text text-anchor="middle" x="1751" y="-266.8" font-family="Courier-Bold" font-size="24.00">deployment/virt&#45;api</text>
</g>
<!-- deployment/virt&#45;operator&#45;&gt;deployment/virt&#45;api -->
<g id="edge23" class="edge">
<title>deployment/virt&#45;operator&#45;&gt;deployment/virt&#45;api</title>
<path fill="none" stroke="black" d="M1144.58,-210.56C1279.95,-224.52 1472.06,-244.33 1603.34,-257.87"/>
<polygon fill="black" stroke="black" points="1623.47,-259.95 1602.65,-266.85 1613.52,-258.92 1603.57,-257.9 1603.57,-257.9 1603.57,-257.9 1613.52,-258.92 1604.5,-248.95 1623.47,-259.95 1623.47,-259.95"/>
</g>
<!-- deployment/virt&#45;controller -->
<g id="node27" class="node">
<title>deployment/virt&#45;controller</title>
<path fill="none" stroke="black" d="M1906,-230C1906,-230 1596,-230 1596,-230 1590,-230 1584,-224 1584,-218 1584,-218 1584,-170 1584,-170 1584,-164 1590,-158 1596,-158 1596,-158 1906,-158 1906,-158 1912,-158 1918,-164 1918,-170 1918,-170 1918,-218 1918,-218 1918,-224 1912,-230 1906,-230"/>
<text text-anchor="middle" x="1751" y="-187.8" font-family="Courier-Bold" font-size="24.00">deployment/virt&#45;controller</text>
</g>
<!-- deployment/virt&#45;operator&#45;&gt;deployment/virt&#45;controller -->
<g id="edge24" class="edge">
<title>deployment/virt&#45;operator&#45;&gt;deployment/virt&#45;controller</title>
<path fill="none" stroke="black" d="M1144.58,-194C1266.8,-194 1435.26,-194 1563.46,-194"/>
<polygon fill="black" stroke="black" points="1583.68,-194 1563.68,-203 1573.68,-194 1563.68,-194 1563.68,-194 1563.68,-194 1573.68,-194 1563.68,-185 1583.68,-194 1583.68,-194"/>
</g>
<!-- deployment/virt&#45;exportproxy -->
<g id="node28" class="node">
<title>deployment/virt&#45;exportproxy</title>
<path fill="none" stroke="black" d="M1920.5,-151C1920.5,-151 1581.5,-151 1581.5,-151 1575.5,-151 1569.5,-145 1569.5,-139 1569.5,-139 1569.5,-91 1569.5,-91 1569.5,-85 1575.5,-79 1581.5,-79 1581.5,-79 1920.5,-79 1920.5,-79 1926.5,-79 1932.5,-85 1932.5,-91 1932.5,-91 1932.5,-139 1932.5,-139 1932.5,-145 1926.5,-151 1920.5,-151"/>
<text text-anchor="middle" x="1751" y="-108.8" font-family="Courier-Bold" font-size="24.00">deployment/virt&#45;exportproxy</text>
</g>
<!-- deployment/virt&#45;operator&#45;&gt;deployment/virt&#45;exportproxy -->
<g id="edge25" class="edge">
<title>deployment/virt&#45;operator&#45;&gt;deployment/virt&#45;exportproxy</title>
<path fill="none" stroke="black" d="M1144.58,-177.44C1262.32,-165.3 1422.99,-148.73 1549.22,-135.71"/>
<polygon fill="black" stroke="black" points="1569.17,-133.65 1550.2,-144.65 1559.22,-134.68 1549.27,-135.7 1549.27,-135.7 1549.27,-135.7 1559.22,-134.68 1548.35,-126.75 1569.17,-133.65 1569.17,-133.65"/>
</g>
<!-- daemonset/virt&#45;handler -->
<g id="node32" class="node">
<title>daemonset/virt&#45;handler</title>
<path fill="none" stroke="black" d="M1890,-72C1890,-72 1612,-72 1612,-72 1606,-72 1600,-66 1600,-60 1600,-60 1600,-12 1600,-12 1600,-6 1606,0 1612,0 1612,0 1890,0 1890,0 1896,0 1902,-6 1902,-12 1902,-12 1902,-60 1902,-60 1902,-66 1896,-72 1890,-72"/>
<text text-anchor="middle" x="1751" y="-29.8" font-family="Courier-Bold" font-size="24.00">daemonset/virt&#45;handler</text>
</g>
<!-- deployment/virt&#45;operator&#45;&gt;daemonset/virt&#45;handler -->
<g id="edge30" class="edge">
<title>deployment/virt&#45;operator&#45;&gt;daemonset/virt&#45;handler</title>
<path fill="none" stroke="black" d="M1104.57,-157.9C1194.85,-131.99 1321.77,-97.91 1435,-76 1481.77,-66.95 1532.85,-59.46 1580.01,-53.49"/>
<polygon fill="black" stroke="black" points="1599.95,-51.03 1581.2,-62.41 1590.03,-52.26 1580.1,-53.48 1580.1,-53.48 1580.1,-53.48 1590.03,-52.26 1579,-44.55 1599.95,-51.03 1599.95,-51.03"/>
</g>
</g>
</svg>
