<?xml version="1.0" encoding="UTF-8" standalone="no"?>
<!DOCTYPE svg PUBLIC "-//W3C//DTD SVG 1.1//EN"
 "http://www.w3.org/Graphics/SVG/1.1/DTD/svg11.dtd">
<!-- Generated by graphviz version 2.44.0 (0)
 -->
<!-- Title: managed&#45;by Pages: 1 -->
<svg width="2465pt" height="1570pt"
 viewBox="14.40 14.40 2450.40 1555.40" xmlns="http://www.w3.org/2000/svg" xmlns:xlink="http://www.w3.org/1999/xlink">
<g id="graph0" class="graph" transform="scale(1 1) rotate(0) translate(18.4 1551.4)">
<title>managed&#45;by</title>
<polygon fill="white" stroke="transparent" points="-4,4 -4,-1537 2432,-1537 2432,4 -4,4"/>
<!-- HyperConverged/kubevirt&#45;hyperconverged -->
<g id="node1" class="node">
<title>HyperConverged/kubevirt&#45;hyperconverged</title>
<path fill="none" stroke="black" d="M519,-565C519,-565 12,-565 12,-565 6,-565 0,-559 0,-553 0,-553 0,-505 0,-505 0,-499 6,-493 12,-493 12,-493 519,-493 519,-493 525,-493 531,-499 531,-505 531,-505 531,-553 531,-553 531,-559 525,-565 519,-565"/>
<text text-anchor="middle" x="265.5" y="-522.8" font-family="Courier-Bold" font-size="24.00">HyperConverged/kubevirt&#45;hyperconverged</text>
</g>
<!-- KubeVirt/kubevirt&#45;kubevirt&#45;hyperconverged -->
<g id="node2" class="node">
<title>KubeVirt/kubevirt&#45;kubevirt&#45;hyperconverged</title>
<path fill="none" stroke="black" d="M2008,-1533C2008,-1533 1494,-1533 1494,-1533 1488,-1533 1482,-1527 1482,-1521 1482,-1521 1482,-1473 1482,-1473 1482,-1467 1488,-1461 1494,-1461 1494,-1461 2008,-1461 2008,-1461 2014,-1461 2020,-1467 2020,-1473 2020,-1473 2020,-1521 2020,-1521 2020,-1527 2014,-1533 2008,-1533"/>
<text text-anchor="middle" x="1751" y="-1490.8" font-family="Courier-Bold" font-size="24.00">KubeVirt/kubevirt&#45;kubevirt&#45;hyperconverged</text>
</g>
<!-- deployment/hco&#45;operator -->
<g id="node3" class="node">
<title>deployment/hco&#45;operator</title>
<path fill="none" stroke="black" d="M1134,-1296C1134,-1296 832,-1296 832,-1296 826,-1296 820,-1290 820,-1284 820,-1284 820,-1236 820,-1236 820,-1230 826,-1224 832,-1224 832,-1224 1134,-1224 1134,-1224 1140,-1224 1146,-1230 1146,-1236 1146,-1236 1146,-1284 1146,-1284 1146,-1290 1140,-1296 1134,-1296"/>
<text text-anchor="middle" x="983" y="-1253.8" font-family="Courier-Bold" font-size="24.00">deployment/hco&#45;operator</text>
</g>
<!-- deployment/hco&#45;operator&#45;&gt;KubeVirt/kubevirt&#45;kubevirt&#45;hyperconverged -->
<g id="edge1" class="edge">
<title>deployment/hco&#45;operator&#45;&gt;KubeVirt/kubevirt&#45;kubevirt&#45;hyperconverged</title>
<path fill="none" stroke="black" d="M1146.13,-1260.11C1194.84,-1265.57 1247,-1277.14 1291,-1300 1375.02,-1343.64 1350.9,-1413.49 1435,-1457 1443.91,-1461.61 1453.14,-1465.77 1462.61,-1469.51"/>
<polygon fill="black" stroke="black" points="1481.71,-1476.42 1459.84,-1478.08 1472.3,-1473.02 1462.9,-1469.61 1462.9,-1469.61 1462.9,-1469.61 1472.3,-1473.02 1465.96,-1461.15 1481.71,-1476.42 1481.71,-1476.42"/>
</g>
<!-- SSP/ssp&#45;kubevirt&#45;hyperconverged -->
<g id="node4" class="node">
<title>SSP/ssp&#45;kubevirt&#45;hyperconverged</title>
<path fill="none" stroke="black" d="M1950,-1454C1950,-1454 1552,-1454 1552,-1454 1546,-1454 1540,-1448 1540,-1442 1540,-1442 1540,-1394 1540,-1394 1540,-1388 1546,-1382 1552,-1382 1552,-1382 1950,-1382 1950,-1382 1956,-1382 1962,-1388 1962,-1394 1962,-1394 1962,-1442 1962,-1442 1962,-1448 1956,-1454 1950,-1454"/>
<text text-anchor="middle" x="1751" y="-1411.8" font-family="Courier-Bold" font-size="24.00">SSP/ssp&#45;kubevirt&#45;hyperconverged</text>
</g>
<!-- deployment/hco&#45;operator&#45;&gt;SSP/ssp&#45;kubevirt&#45;hyperconverged -->
<g id="edge2" class="edge">
<title>deployment/hco&#45;operator&#45;&gt;SSP/ssp&#45;kubevirt&#45;hyperconverged</title>
<path fill="none" stroke="black" d="M1146.19,-1269.91C1193.66,-1275.79 1245.1,-1285.15 1291,-1300 1360.25,-1322.41 1365.71,-1355.7 1435,-1378 1461.97,-1386.68 1490.8,-1393.49 1519.67,-1398.82"/>
<polygon fill="black" stroke="black" points="1539.63,-1402.29 1518.39,-1407.73 1529.78,-1400.58 1519.93,-1398.87 1519.93,-1398.87 1519.93,-1398.87 1529.78,-1400.58 1521.47,-1390 1539.63,-1402.29 1539.63,-1402.29"/>
</g>
<!-- CDI/cdi&#45;kubevirt&#45;hyperconverged -->
<g id="node5" class="node">
<title>CDI/cdi&#45;kubevirt&#45;hyperconverged</title>
<path fill="none" stroke="black" d="M1946.5,-1375C1946.5,-1375 1555.5,-1375 1555.5,-1375 1549.5,-1375 1543.5,-1369 1543.5,-1363 1543.5,-1363 1543.5,-1315 1543.5,-1315 1543.5,-1309 1549.5,-1303 1555.5,-1303 1555.5,-1303 1946.5,-1303 1946.5,-1303 1952.5,-1303 1958.5,-1309 1958.5,-1315 1958.5,-1315 1958.5,-1363 1958.5,-1363 1958.5,-1369 1952.5,-1375 1946.5,-1375"/>
<text text-anchor="middle" x="1751" y="-1332.8" font-family="Courier-Bold" font-size="24.00">CDI/cdi&#45;kubevirt&#45;hyperconverged</text>
</g>
<!-- deployment/hco&#45;operator&#45;&gt;CDI/cdi&#45;kubevirt&#45;hyperconverged -->
<g id="edge3" class="edge">
<title>deployment/hco&#45;operator&#45;&gt;CDI/cdi&#45;kubevirt&#45;hyperconverged</title>
<path fill="none" stroke="black" d="M1146.45,-1276.75C1256.07,-1288.06 1402.25,-1303.14 1523.29,-1315.62"/>
<polygon fill="black" stroke="black" points="1543.26,-1317.68 1522.44,-1324.58 1533.31,-1316.65 1523.37,-1315.63 1523.37,-1315.63 1523.37,-1315.63 1533.31,-1316.65 1524.29,-1306.67 1543.26,-1317.68 1543.26,-1317.68"/>
</g>
<!-- NetworkAddonsConfig/cluster -->
<g id="node8" class="node">
<title>NetworkAddonsConfig/cluster</title>
<path fill="none" stroke="black" d="M1926,-1296C1926,-1296 1576,-1296 1576,-1296 1570,-1296 1564,-1290 1564,-1284 1564,-1284 1564,-1236 1564,-1236 1564,-1230 1570,-1224 1576,-1224 1576,-1224 1926,-1224 1926,-1224 1932,-1224 1938,-1230 1938,-1236 1938,-1236 1938,-1284 1938,-1284 1938,-1290 1932,-1296 1926,-1296"/>
<text text-anchor="middle" x="1751" y="-1253.8" font-family="Courier-Bold" font-size="24.00">NetworkAddonsConfig/cluster</text>
</g>
<!-- deployment/hco&#45;operator&#45;&gt;NetworkAddonsConfig/cluster -->
<g id="edge5" class="edge">
<title>deployment/hco&#45;operator&#45;&gt;NetworkAddonsConfig/cluster</title>
<path fill="none" stroke="black" d="M1146.45,-1260C1262.32,-1260 1419.05,-1260 1543.76,-1260"/>
<polygon fill="black" stroke="black" points="1563.88,-1260 1543.88,-1269 1553.88,-1260 1543.88,-1260 1543.88,-1260 1543.88,-1260 1553.88,-1260 1543.88,-1251 1563.88,-1260 1563.88,-1260"/>
</g>
<!-- deployment/kubevirt&#45;apiserver&#45;proxy -->
<g id="node20" class="node">
<title>deployment/kubevirt&#45;apiserver&#45;proxy</title>
<path fill="none" stroke="black" d="M1971,-1217C1971,-1217 1531,-1217 1531,-1217 1525,-1217 1519,-1211 1519,-1205 1519,-1205 1519,-1157 1519,-1157 1519,-1151 1525,-1145 1531,-1145 1531,-1145 1971,-1145 1971,-1145 1977,-1145 1983,-1151 1983,-1157 1983,-1157 1983,-1205 1983,-1205 1983,-1211 1977,-1217 1971,-1217"/>
<text text-anchor="middle" x="1751" y="-1174.8" font-family="Courier-Bold" font-size="24.00">deployment/kubevirt&#45;apiserver&#45;proxy</text>
</g>
<!-- deployment/hco&#45;operator&#45;&gt;deployment/kubevirt&#45;apiserver&#45;proxy -->
<g id="edge18" class="edge">
<title>deployment/hco&#45;operator&#45;&gt;deployment/kubevirt&#45;apiserver&#45;proxy</title>
<path fill="none" stroke="black" d="M1146.45,-1243.25C1248.78,-1232.69 1382.98,-1218.85 1498.85,-1206.9"/>
<polygon fill="black" stroke="black" points="1518.76,-1204.85 1499.79,-1215.85 1508.82,-1205.87 1498.87,-1206.9 1498.87,-1206.9 1498.87,-1206.9 1508.82,-1205.87 1497.94,-1197.95 1518.76,-1204.85 1518.76,-1204.85"/>
</g>
<!-- deployment/kubevirt&#45;console&#45;plugin -->
<g id="node21" class="node">
<title>deployment/kubevirt&#45;console&#45;plugin</title>
<path fill="none" stroke="black" d="M1965,-1138C1965,-1138 1537,-1138 1537,-1138 1531,-1138 1525,-1132 1525,-1126 1525,-1126 1525,-1078 1525,-1078 1525,-1072 1531,-1066 1537,-1066 1537,-1066 1965,-1066 1965,-1066 1971,-1066 1977,-1072 1977,-1078 1977,-1078 1977,-1126 1977,-1126 1977,-1132 1971,-1138 1965,-1138"/>
<text text-anchor="middle" x="1751" y="-1095.8" font-family="Courier-Bold" font-size="24.00">deployment/kubevirt&#45;console&#45;plugin</text>
</g>
<!-- deployment/hco&#45;operator&#45;&gt;deployment/kubevirt&#45;console&#45;plugin -->
<g id="edge19" class="edge">
<title>deployment/hco&#45;operator&#45;&gt;deployment/kubevirt&#45;console&#45;plugin</title>
<path fill="none" stroke="black" d="M1104.57,-1223.9C1194.85,-1197.99 1321.77,-1163.91 1435,-1142 1457.62,-1137.62 1481.25,-1133.61 1504.96,-1129.96"/>
<polygon fill="black" stroke="black" points="1524.88,-1126.97 1506.43,-1138.84 1514.99,-1128.46 1505.1,-1129.94 1505.1,-1129.94 1505.1,-1129.94 1514.99,-1128.46 1503.76,-1121.04 1524.88,-1126.97 1524.88,-1126.97"/>
</g>
<!-- CDIConfig/config -->
<g id="node6" class="node">
<title>CDIConfig/config</title>
<path fill="none" stroke="black" d="M2416,-1059C2416,-1059 2223,-1059 2223,-1059 2217,-1059 2211,-1053 2211,-1047 2211,-1047 2211,-999 2211,-999 2211,-993 2217,-987 2223,-987 2223,-987 2416,-987 2416,-987 2422,-987 2428,-993 2428,-999 2428,-999 2428,-1047 2428,-1047 2428,-1053 2422,-1059 2416,-1059"/>
<text text-anchor="middle" x="2319.5" y="-1016.8" font-family="Courier-Bold" font-size="24.00">CDIConfig/config</text>
</g>
<!-- deployment/cdi&#45;deployment -->
<g id="node7" class="node">
<title>deployment/cdi&#45;deployment</title>
<path fill="none" stroke="black" d="M1917.5,-1059C1917.5,-1059 1584.5,-1059 1584.5,-1059 1578.5,-1059 1572.5,-1053 1572.5,-1047 1572.5,-1047 1572.5,-999 1572.5,-999 1572.5,-993 1578.5,-987 1584.5,-987 1584.5,-987 1917.5,-987 1917.5,-987 1923.5,-987 1929.5,-993 1929.5,-999 1929.5,-999 1929.5,-1047 1929.5,-1047 1929.5,-1053 1923.5,-1059 1917.5,-1059"/>
<text text-anchor="middle" x="1751" y="-1016.8" font-family="Courier-Bold" font-size="24.00">deployment/cdi&#45;deployment</text>
</g>
<!-- deployment/cdi&#45;deployment&#45;&gt;CDIConfig/config -->
<g id="edge4" class="edge">
<title>deployment/cdi&#45;deployment&#45;&gt;CDIConfig/config</title>
<path fill="none" stroke="black" d="M1929.69,-1023C2014.28,-1023 2113.54,-1023 2190.59,-1023"/>
<polygon fill="black" stroke="black" points="2210.69,-1023 2190.69,-1032 2200.69,-1023 2190.69,-1023 2190.69,-1023 2190.69,-1023 2200.69,-1023 2190.69,-1014 2210.69,-1023 2210.69,-1023"/>
</g>
<!-- deployment/aaq&#45;operator -->
<g id="node9" class="node">
<title>deployment/aaq&#45;operator</title>
<path fill="none" stroke="black" d="M1134.5,-980C1134.5,-980 831.5,-980 831.5,-980 825.5,-980 819.5,-974 819.5,-968 819.5,-968 819.5,-920 819.5,-920 819.5,-914 825.5,-908 831.5,-908 831.5,-908 1134.5,-908 1134.5,-908 1140.5,-908 1146.5,-914 1146.5,-920 1146.5,-920 1146.5,-968 1146.5,-968 1146.5,-974 1140.5,-980 1134.5,-980"/>
<text text-anchor="middle" x="983" y="-937.8" font-family="Courier-Bold" font-size="24.00">deployment/aaq&#45;operator</text>
</g>
<!-- olm -->
<g id="node10" class="node">
<title>olm</title>
<path fill="none" stroke="black" d="M361.5,-644C361.5,-644 169.5,-644 169.5,-644 163.5,-644 157.5,-638 157.5,-632 157.5,-632 157.5,-584 157.5,-584 157.5,-578 163.5,-572 169.5,-572 169.5,-572 361.5,-572 361.5,-572 367.5,-572 373.5,-578 373.5,-584 373.5,-584 373.5,-632 373.5,-632 373.5,-638 367.5,-644 361.5,-644"/>
<text text-anchor="middle" x="265.5" y="-601.8" font-family="Courier-Bold" font-size="24.00">olm</text>
</g>
<!-- olm&#45;&gt;deployment/hco&#45;operator -->
<g id="edge12" class="edge">
<title>olm&#45;&gt;deployment/hco&#45;operator</title>
<path fill="none" stroke="black" d="M305.55,-644.05C378.13,-711.02 538.83,-859.07 675,-983 762.67,-1062.79 864.97,-1154.89 926.55,-1210.23"/>
<polygon fill="black" stroke="black" points="941.67,-1223.81 920.78,-1217.14 934.23,-1217.13 926.79,-1210.45 926.79,-1210.45 926.79,-1210.45 934.23,-1217.13 932.81,-1203.75 941.67,-1223.81 941.67,-1223.81"/>
</g>
<!-- olm&#45;&gt;deployment/aaq&#45;operator -->
<g id="edge6" class="edge">
<title>olm&#45;&gt;deployment/aaq&#45;operator</title>
<path fill="none" stroke="black" d="M302.59,-644.11C369.46,-708.56 519.95,-842.38 675,-904 713.83,-919.43 757.38,-929.18 799.21,-935.27"/>
<polygon fill="black" stroke="black" points="819.25,-937.94 798.24,-944.22 809.34,-936.62 799.43,-935.3 799.43,-935.3 799.43,-935.3 809.34,-936.62 800.62,-926.38 819.25,-937.94 819.25,-937.94"/>
</g>
<!-- deployment/cdi&#45;operator -->
<g id="node12" class="node">
<title>deployment/cdi&#45;operator</title>
<path fill="none" stroke="black" d="M1129.5,-901C1129.5,-901 836.5,-901 836.5,-901 830.5,-901 824.5,-895 824.5,-889 824.5,-889 824.5,-841 824.5,-841 824.5,-835 830.5,-829 836.5,-829 836.5,-829 1129.5,-829 1129.5,-829 1135.5,-829 1141.5,-835 1141.5,-841 1141.5,-841 1141.5,-889 1141.5,-889 1141.5,-895 1135.5,-901 1129.5,-901"/>
<text text-anchor="middle" x="983" y="-858.8" font-family="Courier-Bold" font-size="24.00">deployment/cdi&#45;operator</text>
</g>
<!-- olm&#45;&gt;deployment/cdi&#45;operator -->
<g id="edge9" class="edge">
<title>olm&#45;&gt;deployment/cdi&#45;operator</title>
<path fill="none" stroke="black" d="M355.6,-644.15C437.99,-677.18 564.08,-726.7 675,-766 730.47,-785.65 792.14,-805.86 845.57,-822.84"/>
<polygon fill="black" stroke="black" points="864.85,-828.95 843.06,-831.49 855.32,-825.93 845.78,-822.91 845.78,-822.91 845.78,-822.91 855.32,-825.93 848.5,-814.33 864.85,-828.95 864.85,-828.95"/>
</g>
<!-- deployment/cluster&#45;network&#45;addons&#45;operator -->
<g id="node14" class="node">
<title>deployment/cluster&#45;network&#45;addons&#45;operator</title>
<path fill="none" stroke="black" d="M1254.5,-763C1254.5,-763 711.5,-763 711.5,-763 705.5,-763 699.5,-757 699.5,-751 699.5,-751 699.5,-703 699.5,-703 699.5,-697 705.5,-691 711.5,-691 711.5,-691 1254.5,-691 1254.5,-691 1260.5,-691 1266.5,-697 1266.5,-703 1266.5,-703 1266.5,-751 1266.5,-751 1266.5,-757 1260.5,-763 1254.5,-763"/>
<text text-anchor="middle" x="983" y="-720.8" font-family="Courier-Bold" font-size="24.00">deployment/cluster&#45;network&#45;addons&#45;operator</text>
</g>
<!-- olm&#45;&gt;deployment/cluster&#45;network&#45;addons&#45;operator -->
<g id="edge11" class="edge">
<title>olm&#45;&gt;deployment/cluster&#45;network&#45;addons&#45;operator</title>
<path fill="none" stroke="black" d="M373.69,-630.6C455.9,-647.48 572.32,-670.4 675,-687 676.67,-687.27 678.35,-687.54 680.03,-687.81"/>
<polygon fill="black" stroke="black" points="700.02,-690.94 678.86,-696.74 690.14,-689.39 680.26,-687.84 680.26,-687.84 680.26,-687.84 690.14,-689.39 681.65,-678.95 700.02,-690.94 700.02,-690.94"/>
</g>
<!-- deployment/hco&#45;webhook -->
<g id="node15" class="node">
<title>deployment/hco&#45;webhook</title>
<path fill="none" stroke="black" d="M1136,-684C1136,-684 830,-684 830,-684 824,-684 818,-678 818,-672 818,-672 818,-624 818,-624 818,-618 824,-612 830,-612 830,-612 1136,-612 1136,-612 1142,-612 1148,-618 1148,-624 1148,-624 1148,-672 1148,-672 1148,-678 1142,-684 1136,-684"/>
<text text-anchor="middle" x="983" y="-641.8" font-family="Courier-Bold" font-size="24.00">deployment/hco&#45;webhook</text>
</g>
<!-- olm&#45;&gt;deployment/hco&#45;webhook -->
<g id="edge13" class="edge">
<title>olm&#45;&gt;deployment/hco&#45;webhook</title>
<path fill="none" stroke="black" d="M373.62,-613.99C485.51,-620.24 663.14,-630.17 797.64,-637.69"/>
<polygon fill="black" stroke="black" points="817.99,-638.83 797.52,-646.7 808.01,-638.27 798.03,-637.71 798.03,-637.71 798.03,-637.71 808.01,-638.27 798.53,-628.73 817.99,-638.83 817.99,-638.83"/>
</g>
<!-- deployment/hostpath&#45;provisioner&#45;operator -->
<g id="node16" class="node">
<title>deployment/hostpath&#45;provisioner&#45;operator</title>
<path fill="none" stroke="black" d="M1236.5,-605C1236.5,-605 729.5,-605 729.5,-605 723.5,-605 717.5,-599 717.5,-593 717.5,-593 717.5,-545 717.5,-545 717.5,-539 723.5,-533 729.5,-533 729.5,-533 1236.5,-533 1236.5,-533 1242.5,-533 1248.5,-539 1248.5,-545 1248.5,-545 1248.5,-593 1248.5,-593 1248.5,-599 1242.5,-605 1236.5,-605"/>
<text text-anchor="middle" x="983" y="-562.8" font-family="Courier-Bold" font-size="24.00">deployment/hostpath&#45;provisioner&#45;operator</text>
</g>
<!-- olm&#45;&gt;deployment/hostpath&#45;provisioner&#45;operator -->
<g id="edge14" class="edge">
<title>olm&#45;&gt;deployment/hostpath&#45;provisioner&#45;operator</title>
<path fill="none" stroke="black" d="M373.62,-602.16C459.3,-597.49 583.54,-590.72 697.43,-584.51"/>
<polygon fill="black" stroke="black" points="717.46,-583.42 697.98,-593.49 707.47,-583.96 697.49,-584.51 697.49,-584.51 697.49,-584.51 707.47,-583.96 697,-575.52 717.46,-583.42 717.46,-583.42"/>
</g>
<!-- deployment/hyperconverged&#45;cluster&#45;cli&#45;download -->
<g id="node17" class="node">
<title>deployment/hyperconverged&#45;cluster&#45;cli&#45;download</title>
<path fill="none" stroke="black" d="M1279,-526C1279,-526 687,-526 687,-526 681,-526 675,-520 675,-514 675,-514 675,-466 675,-466 675,-460 681,-454 687,-454 687,-454 1279,-454 1279,-454 1285,-454 1291,-460 1291,-466 1291,-466 1291,-514 1291,-514 1291,-520 1285,-526 1279,-526"/>
<text text-anchor="middle" x="983" y="-483.8" font-family="Courier-Bold" font-size="24.00">deployment/hyperconverged&#45;cluster&#45;cli&#45;download</text>
</g>
<!-- olm&#45;&gt;deployment/hyperconverged&#45;cluster&#45;cli&#45;download -->
<g id="edge15" class="edge">
<title>olm&#45;&gt;deployment/hyperconverged&#45;cluster&#45;cli&#45;download</title>
<path fill="none" stroke="black" d="M373.78,-594.46C422.05,-587.67 479.61,-578.63 531,-568 595.82,-554.59 610.05,-542.75 675,-530 675.32,-529.94 675.64,-529.87 675.96,-529.81"/>
<polygon fill="black" stroke="black" points="695.83,-526.06 677.84,-538.62 686,-527.92 676.17,-529.77 676.17,-529.77 676.17,-529.77 686,-527.92 674.51,-520.93 695.83,-526.06 695.83,-526.06"/>
</g>
<!-- deployment/kubevirt&#45;migration&#45;operator -->
<g id="node25" class="node">
<title>deployment/kubevirt&#45;migration&#45;operator</title>
<path fill="none" stroke="black" d="M1224,-447C1224,-447 742,-447 742,-447 736,-447 730,-441 730,-435 730,-435 730,-387 730,-387 730,-381 736,-375 742,-375 742,-375 1224,-375 1224,-375 1230,-375 1236,-381 1236,-387 1236,-387 1236,-435 1236,-435 1236,-441 1230,-447 1224,-447"/>
<text text-anchor="middle" x="983" y="-404.8" font-family="Courier-Bold" font-size="24.00">deployment/kubevirt&#45;migration&#45;operator</text>
</g>
<!-- olm&#45;&gt;deployment/kubevirt&#45;migration&#45;operator -->
<g id="edge22" class="edge">
<title>olm&#45;&gt;deployment/kubevirt&#45;migration&#45;operator</title>
<path fill="none" stroke="black" d="M373.73,-604.68C423.31,-599.95 481.94,-589.69 531,-568 606.42,-534.66 599.24,-483.56 675,-451 686.42,-446.09 698.29,-441.74 710.42,-437.89"/>
<polygon fill="black" stroke="black" points="729.69,-432.24 713.03,-446.51 720.09,-435.06 710.5,-437.87 710.5,-437.87 710.5,-437.87 720.09,-435.06 707.96,-429.23 729.69,-432.24 729.69,-432.24"/>
</g>
<!-- deployment/ssp&#45;operator -->
<g id="node26" class="node">
<title>deployment/ssp&#45;operator</title>
<path fill="none" stroke="black" d="M1132.5,-368C1132.5,-368 833.5,-368 833.5,-368 827.5,-368 821.5,-362 821.5,-356 821.5,-356 821.5,-308 821.5,-308 821.5,-302 827.5,-296 833.5,-296 833.5,-296 1132.5,-296 1132.5,-296 1138.5,-296 1144.5,-302 1144.5,-308 1144.5,-308 1144.5,-356 1144.5,-356 1144.5,-362 1138.5,-368 1132.5,-368"/>
<text text-anchor="middle" x="983" y="-325.8" font-family="Courier-Bold" font-size="24.00">deployment/ssp&#45;operator</text>
</g>
<!-- olm&#45;&gt;deployment/ssp&#45;operator -->
<g id="edge23" class="edge">
<title>olm&#45;&gt;deployment/ssp&#45;operator</title>
<path fill="none" stroke="black" d="M373.65,-610.35C424.49,-607.01 484.2,-596.29 531,-568 623.51,-512.09 581.92,-426.96 675,-372 712.83,-349.66 757.8,-337.51 801.49,-331.32"/>
<polygon fill="black" stroke="black" points="821.44,-328.88 802.68,-340.24 811.51,-330.09 801.59,-331.31 801.59,-331.31 801.59,-331.31 811.51,-330.09 800.5,-322.38 821.44,-328.88 821.44,-328.88"/>
</g>
<!-- deployment/virt&#45;operator -->
<g id="node28" class="node">
<title>deployment/virt&#45;operator</title>
<path fill="none" stroke="black" d="M1132.5,-230C1132.5,-230 833.5,-230 833.5,-230 827.5,-230 821.5,-224 821.5,-218 821.5,-218 821.5,-170 821.5,-170 821.5,-164 827.5,-158 833.5,-158 833.5,-158 1132.5,-158 1132.5,-158 1138.5,-158 1144.5,-164 1144.5,-170 1144.5,-170 1144.5,-218 1144.5,-218 1144.5,-224 1138.5,-230 1132.5,-230"/>
<text text-anchor="middle" x="983" y="-187.8" font-family="Courier-Bold" font-size="24.00">deployment/virt&#45;operator</text>
</g>
<!-- olm&#45;&gt;deployment/virt&#45;operator -->
<g id="edge27" class="edge">
<title>olm&#45;&gt;deployment/virt&#45;operator</title>
<path fill="none" stroke="black" d="M373.7,-613.5C425.45,-611.06 485.93,-600.18 531,-568 643.61,-487.61 569.13,-381.08 675,-292 711.24,-261.51 757.09,-240.47 802.22,-225.96"/>
<polygon fill="black" stroke="black" points="821.49,-220.13 804.95,-234.53 811.92,-223.03 802.34,-225.92 802.34,-225.92 802.34,-225.92 811.92,-223.03 799.74,-217.3 821.49,-220.13 821.49,-220.13"/>
</g>
<!-- deployment/cdi&#45;apiserver -->
<g id="node11" class="node">
<title>deployment/cdi&#45;apiserver</title>
<path fill="none" stroke="black" d="M1902,-980C1902,-980 1600,-980 1600,-980 1594,-980 1588,-974 1588,-968 1588,-968 1588,-920 1588,-920 1588,-914 1594,-908 1600,-908 1600,-908 1902,-908 1902,-908 1908,-908 1914,-914 1914,-920 1914,-920 1914,-968 1914,-968 1914,-974 1908,-980 1902,-980"/>
<text text-anchor="middle" x="1751" y="-937.8" font-family="Courier-Bold" font-size="24.00">deployment/cdi&#45;apiserver</text>
</g>
<!-- deployment/cdi&#45;operator&#45;&gt;deployment/cdi&#45;deployment -->
<g id="edge8" class="edge">
<title>deployment/cdi&#45;operator&#45;&gt;deployment/cdi&#45;deployment</title>
<path fill="none" stroke="black" d="M1141.84,-874.37C1190.5,-880.22 1243.7,-889.69 1291,-905 1360.25,-927.41 1365.71,-960.7 1435,-983 1472.15,-994.96 1512.84,-1003.36 1552.27,-1009.26"/>
<polygon fill="black" stroke="black" points="1572.13,-1012.04 1551.07,-1018.18 1562.22,-1010.65 1552.32,-1009.26 1552.32,-1009.26 1552.32,-1009.26 1562.22,-1010.65 1553.57,-1000.35 1572.13,-1012.04 1572.13,-1012.04"/>
</g>
<!-- deployment/cdi&#45;operator&#45;&gt;deployment/cdi&#45;apiserver -->
<g id="edge7" class="edge">
<title>deployment/cdi&#45;operator&#45;&gt;deployment/cdi&#45;apiserver</title>
<path fill="none" stroke="black" d="M1141.79,-881.27C1265.59,-894.04 1438.09,-911.83 1567.77,-925.21"/>
<polygon fill="black" stroke="black" points="1587.8,-927.27 1566.98,-934.17 1577.85,-926.25 1567.9,-925.22 1567.9,-925.22 1567.9,-925.22 1577.85,-926.25 1568.83,-916.27 1587.8,-927.27 1587.8,-927.27"/>
</g>
<!-- deployment/cdi&#45;uploadproxy -->
<g id="node13" class="node">
<title>deployment/cdi&#45;uploadproxy</title>
<path fill="none" stroke="black" d="M1920,-901C1920,-901 1582,-901 1582,-901 1576,-901 1570,-895 1570,-889 1570,-889 1570,-841 1570,-841 1570,-835 1576,-829 1582,-829 1582,-829 1920,-829 1920,-829 1926,-829 1932,-835 1932,-841 1932,-841 1932,-889 1932,-889 1932,-895 1926,-901 1920,-901"/>
<text text-anchor="middle" x="1751" y="-858.8" font-family="Courier-Bold" font-size="24.00">deployment/cdi&#45;uploadproxy</text>
</g>
<!-- deployment/cdi&#45;operator&#45;&gt;deployment/cdi&#45;uploadproxy -->
<g id="edge10" class="edge">
<title>deployment/cdi&#45;operator&#45;&gt;deployment/cdi&#45;uploadproxy</title>
<path fill="none" stroke="black" d="M1141.79,-865C1259.96,-865 1422.49,-865 1549.81,-865"/>
<polygon fill="black" stroke="black" points="1569.93,-865 1549.93,-874 1559.93,-865 1549.93,-865 1549.93,-865 1549.93,-865 1559.93,-865 1549.93,-856 1569.93,-865 1569.93,-865"/>
</g>
<!-- deployment/kubemacpool&#45;cert&#45;manager -->
<g id="node18" class="node">
<title>deployment/kubemacpool&#45;cert&#45;manager</title>
<path fill="none" stroke="black" d="M1991.5,-822C1991.5,-822 1510.5,-822 1510.5,-822 1504.5,-822 1498.5,-816 1498.5,-810 1498.5,-810 1498.5,-762 1498.5,-762 1498.5,-756 1504.5,-750 1510.5,-750 1510.5,-750 1991.5,-750 1991.5,-750 1997.5,-750 2003.5,-756 2003.5,-762 2003.5,-762 2003.5,-810 2003.5,-810 2003.5,-816 1997.5,-822 1991.5,-822"/>
<text text-anchor="middle" x="1751" y="-779.8" font-family="Courier-Bold" font-size="24.00">deployment/kubemacpool&#45;cert&#45;manager</text>
</g>
<!-- deployment/cluster&#45;network&#45;addons&#45;operator&#45;&gt;deployment/kubemacpool&#45;cert&#45;manager -->
<g id="edge16" class="edge">
<title>deployment/cluster&#45;network&#45;addons&#45;operator&#45;&gt;deployment/kubemacpool&#45;cert&#45;manager</title>
<path fill="none" stroke="black" d="M1266.51,-748.76C1335.68,-754.09 1409.57,-759.78 1478.22,-765.07"/>
<polygon fill="black" stroke="black" points="1498.39,-766.62 1477.76,-774.06 1488.42,-765.85 1478.45,-765.08 1478.45,-765.08 1478.45,-765.08 1488.42,-765.85 1479.15,-756.11 1498.39,-766.62 1498.39,-766.62"/>
</g>
<!-- deployment/kubemacpool&#45;mac&#45;controller&#45;manager -->
<g id="node19" class="node">
<title>deployment/kubemacpool&#45;mac&#45;controller&#45;manager</title>
<path fill="none" stroke="black" d="M2055,-743C2055,-743 1447,-743 1447,-743 1441,-743 1435,-737 1435,-731 1435,-731 1435,-683 1435,-683 1435,-677 1441,-671 1447,-671 1447,-671 2055,-671 2055,-671 2061,-671 2067,-677 2067,-683 2067,-683 2067,-731 2067,-731 2067,-737 2061,-743 2055,-743"/>
<text text-anchor="middle" x="1751" y="-700.8" font-family="Courier-Bold" font-size="24.00">deployment/kubemacpool&#45;mac&#45;controller&#45;manager</text>
</g>
<!-- deployment/cluster&#45;network&#45;addons&#45;operator&#45;&gt;deployment/kubemacpool&#45;mac&#45;controller&#45;manager -->
<g id="edge17" class="edge">
<title>deployment/cluster&#45;network&#45;addons&#45;operator&#45;&gt;deployment/kubemacpool&#45;mac&#45;controller&#45;manager</title>
<path fill="none" stroke="black" d="M1266.51,-719.62C1314.77,-718.36 1365.33,-717.04 1414.8,-715.75"/>
<polygon fill="black" stroke="black" points="1434.81,-715.23 1415.05,-724.75 1424.81,-715.49 1414.81,-715.75 1414.81,-715.75 1414.81,-715.75 1424.81,-715.49 1414.58,-706.75 1434.81,-715.23 1434.81,-715.23"/>
</g>
<!-- deployment/kubevirt&#45;ipam&#45;controller&#45;manager -->
<g id="node22" class="node">
<title>deployment/kubevirt&#45;ipam&#45;controller&#45;manager</title>
<path fill="none" stroke="black" d="M2027.5,-664C2027.5,-664 1474.5,-664 1474.5,-664 1468.5,-664 1462.5,-658 1462.5,-652 1462.5,-652 1462.5,-604 1462.5,-604 1462.5,-598 1468.5,-592 1474.5,-592 1474.5,-592 2027.5,-592 2027.5,-592 2033.5,-592 2039.5,-598 2039.5,-604 2039.5,-604 2039.5,-652 2039.5,-652 2039.5,-658 2033.5,-664 2027.5,-664"/>
<text text-anchor="middle" x="1751" y="-621.8" font-family="Courier-Bold" font-size="24.00">deployment/kubevirt&#45;ipam&#45;controller&#45;manager</text>
</g>
<!-- deployment/cluster&#45;network&#45;addons&#45;operator&#45;&gt;deployment/kubevirt&#45;ipam&#45;controller&#45;manager -->
<g id="edge20" class="edge">
<title>deployment/cluster&#45;network&#45;addons&#45;operator&#45;&gt;deployment/kubevirt&#45;ipam&#45;controller&#45;manager</title>
<path fill="none" stroke="black" d="M1260.55,-690.99C1270.83,-689.64 1281.01,-688.31 1291,-687 1355.01,-678.61 1370.98,-676.29 1435,-668 1438.63,-667.53 1442.29,-667.06 1445.97,-666.58"/>
<polygon fill="black" stroke="black" points="1465.81,-664.02 1447.13,-675.51 1455.89,-665.3 1445.98,-666.58 1445.98,-666.58 1445.98,-666.58 1455.89,-665.3 1444.83,-657.65 1465.81,-664.02 1465.81,-664.02"/>
</g>
<!-- daemonset/bridge&#45;marker -->
<g id="node32" class="node">
<title>daemonset/bridge&#45;marker</title>
<path fill="none" stroke="black" d="M1905,-585C1905,-585 1597,-585 1597,-585 1591,-585 1585,-579 1585,-573 1585,-573 1585,-525 1585,-525 1585,-519 1591,-513 1597,-513 1597,-513 1905,-513 1905,-513 1911,-513 1917,-519 1917,-525 1917,-525 1917,-573 1917,-573 1917,-579 1911,-585 1905,-585"/>
<text text-anchor="middle" x="1751" y="-542.8" font-family="Courier-Bold" font-size="24.00">daemonset/bridge&#45;marker</text>
</g>
<!-- deployment/cluster&#45;network&#45;addons&#45;operator&#45;&gt;daemonset/bridge&#45;marker -->
<g id="edge29" class="edge">
<title>deployment/cluster&#45;network&#45;addons&#45;operator&#45;&gt;daemonset/bridge&#45;marker</title>
<path fill="none" stroke="black" d="M1266.75,-695.39C1274.99,-692.8 1283.09,-690.01 1291,-687 1363.35,-659.47 1362.6,-616.41 1435,-589 1475.8,-573.55 1521.47,-563.84 1565.1,-557.78"/>
<polygon fill="black" stroke="black" points="1584.99,-555.25 1566.28,-566.7 1575.07,-556.51 1565.15,-557.77 1565.15,-557.77 1565.15,-557.77 1575.07,-556.51 1564.01,-548.85 1584.99,-555.25 1584.99,-555.25"/>
</g>
<!-- daemonset/kube&#45;cni&#45;linux&#45;bridge&#45;plugin -->
<g id="node33" class="node">
<title>daemonset/kube&#45;cni&#45;linux&#45;bridge&#45;plugin</title>
<path fill="none" stroke="black" d="M1988,-506C1988,-506 1514,-506 1514,-506 1508,-506 1502,-500 1502,-494 1502,-494 1502,-446 1502,-446 1502,-440 1508,-434 1514,-434 1514,-434 1988,-434 1988,-434 1994,-434 2000,-440 2000,-446 2000,-446 2000,-494 2000,-494 2000,-500 1994,-506 1988,-506"/>
<text text-anchor="middle" x="1751" y="-463.8" font-family="Courier-Bold" font-size="24.00">daemonset/kube&#45;cni&#45;linux&#45;bridge&#45;plugin</text>
</g>
<!-- deployment/cluster&#45;network&#45;addons&#45;operator&#45;&gt;daemonset/kube&#45;cni&#45;linux&#45;bridge&#45;plugin -->
<g id="edge30" class="edge">
<title>deployment/cluster&#45;network&#45;addons&#45;operator&#45;&gt;daemonset/kube&#45;cni&#45;linux&#45;bridge&#45;plugin</title>
<path fill="none" stroke="black" d="M1266.63,-698.98C1274.99,-695.37 1283.14,-691.38 1291,-687 1379.57,-637.61 1346.35,-559.25 1435,-510 1449.97,-501.68 1465.96,-494.79 1482.48,-489.11"/>
<polygon fill="black" stroke="black" points="1501.71,-483.09 1485.32,-497.65 1492.17,-486.07 1482.63,-489.06 1482.63,-489.06 1482.63,-489.06 1492.17,-486.07 1479.94,-480.47 1501.71,-483.09 1501.71,-483.09"/>
</g>
<!-- deployment/kubevirt&#45;migration&#45;controller -->
<g id="node23" class="node">
<title>deployment/kubevirt&#45;migration&#45;controller</title>
<path fill="none" stroke="black" d="M1230,-1375C1230,-1375 736,-1375 736,-1375 730,-1375 724,-1369 724,-1363 724,-1363 724,-1315 724,-1315 724,-1309 730,-1303 736,-1303 736,-1303 1230,-1303 1230,-1303 1236,-1303 1242,-1309 1242,-1315 1242,-1315 1242,-1363 1242,-1363 1242,-1369 1236,-1375 1230,-1375"/>
<text text-anchor="middle" x="983" y="-1332.8" font-family="Courier-Bold" font-size="24.00">deployment/kubevirt&#45;migration&#45;controller</text>
</g>
<!-- kubevirt&#45;migration&#45;operator -->
<g id="node24" class="node">
<title>kubevirt&#45;migration&#45;operator</title>
<path fill="none" stroke="black" d="M430.5,-1375C430.5,-1375 100.5,-1375 100.5,-1375 94.5,-1375 88.5,-1369 88.5,-1363 88.5,-1363 88.5,-1315 88.5,-1315 88.5,-1309 94.5,-1303 100.5,-1303 100.5,-1303 430.5,-1303 430.5,-1303 436.5,-1303 442.5,-1309 442.5,-1315 442.5,-1315 442.5,-1363 442.5,-1363 442.5,-1369 436.5,-1375 430.5,-1375"/>
<text text-anchor="middle" x="265.5" y="-1332.8" font-family="Courier-Bold" font-size="24.00">kubevirt&#45;migration&#45;operator</text>
</g>
<!-- kubevirt&#45;migration&#45;operator&#45;&gt;deployment/kubevirt&#45;migration&#45;controller -->
<g id="edge21" class="edge">
<title>kubevirt&#45;migration&#45;operator&#45;&gt;deployment/kubevirt&#45;migration&#45;controller</title>
<path fill="none" stroke="black" d="M442.91,-1339C521.5,-1339 615.96,-1339 703.71,-1339"/>
<polygon fill="black" stroke="black" points="723.78,-1339 703.78,-1348 713.78,-1339 703.78,-1339 703.78,-1339 703.78,-1339 713.78,-1339 703.78,-1330 723.78,-1339 723.78,-1339"/>
</g>
<!-- deployment/virt&#45;template&#45;validator -->
<g id="node31" class="node">
<title>deployment/virt&#45;template&#45;validator</title>
<path fill="none" stroke="black" d="M1960.5,-388C1960.5,-388 1541.5,-388 1541.5,-388 1535.5,-388 1529.5,-382 1529.5,-376 1529.5,-376 1529.5,-328 1529.5,-328 1529.5,-322 1535.5,-316 1541.5,-316 1541.5,-316 1960.5,-316 1960.5,-316 1966.5,-316 1972.5,-322 1972.5,-328 1972.5,-328 1972.5,-376 1972.5,-376 1972.5,-382 1966.5,-388 1960.5,-388"/>
<text text-anchor="middle" x="1751" y="-345.8" font-family="Courier-Bold" font-size="24.00">deployment/virt&#45;template&#45;validator</text>
</g>
<!-- deployment/ssp&#45;operator&#45;&gt;deployment/virt&#45;template&#45;validator -->
<g id="edge28" class="edge">
<title>deployment/ssp&#45;operator&#45;&gt;deployment/virt&#45;template&#45;validator</title>
<path fill="none" stroke="black" d="M1144.58,-336.19C1250.23,-338.95 1390.44,-342.61 1509.32,-345.72"/>
<polygon fill="black" stroke="black" points="1529.35,-346.24 1509.12,-354.71 1519.35,-345.98 1509.36,-345.72 1509.36,-345.72 1509.36,-345.72 1519.35,-345.98 1509.59,-336.72 1529.35,-346.24 1529.35,-346.24"/>
</g>
<!-- deployment/virt&#45;api -->
<g id="node27" class="node">
<title>deployment/virt&#45;api</title>
<path fill="none" stroke="black" d="M1866.5,-309C1866.5,-309 1635.5,-309 1635.5,-309 1629.5,-309 1623.5,-303 1623.5,-297 1623.5,-297 1623.5,-249 1623.5,-249 1623.5,-243 1629.5,-237 1635.5,-237 1635.5,-237 1866.5,-237 1866.5,-237 1872.5,-237 1878.5,-243 1878.5,-249 1878.5,-249 1878.5,-297 1878.5,-297 1878.5,-303 1872.5,-309 1866.5,-309"/>
<text text-anchor="middle" x="1751" y="-266.8" font-family="Courier-Bold" font-size="24.00">deployment/virt&#45;api</text>
</g>
<!-- deployment/virt&#45;operator&#45;&gt;deployment/virt&#45;api -->
<g id="edge24" class="edge">
<title>deployment/virt&#45;operator&#45;&gt;deployment/virt&#45;api</title>
<path fill="none" stroke="black" d="M1144.58,-210.56C1279.95,-224.52 1472.06,-244.33 1603.34,-257.87"/>
<polygon fill="black" stroke="black" points="1623.47,-259.95 1602.65,-266.85 1613.52,-258.92 1603.57,-257.9 1603.57,-257.9 1603.57,-257.9 1613.52,-258.92 1604.5,-248.95 1623.47,-259.95 1623.47,-259.95"/>
</g>
<!-- deployment/virt&#45;controller -->
<g id="node29" class="node">
<title>deployment/virt&#45;controller</title>
<path fill="none" stroke="black" d="M1906,-230C1906,-230 1596,-230 1596,-230 1590,-230 1584,-224 1584,-218 1584,-218 1584,-170 1584,-170 1584,-164 1590,-158 1596,-158 1596,-158 1906,-158 1906,-158 1912,-158 1918,-164 1918,-170 1918,-170 1918,-218 1918,-218 1918,-224 1912,-230 1906,-230"/>
<text text-anchor="middle" x="1751" y="-187.8" font-family="Courier-Bold" font-size="24.00">deployment/virt&#45;controller</text>
</g>
<!-- deployment/virt&#45;operator&#45;&gt;deployment/virt&#45;controller -->
<g id="edge25" class="edge">
<title>deployment/virt&#45;operator&#45;&gt;deployment/virt&#45;controller</title>
<path fill="none" stroke="black" d="M1144.58,-194C1266.8,-194 1435.26,-194 1563.46,-194"/>
<polygon fill="black" stroke="black" points="1583.68,-194 1563.68,-203 1573.68,-194 1563.68,-194 1563.68,-194 1563.68,-194 1573.68,-194 1563.68,-185 1583.68,-194 1583.68,-194"/>
</g>
<!-- deployment/virt&#45;exportproxy -->
<g id="node30" class="node">
<title>deployment/virt&#45;exportproxy</title>
<path fill="none" stroke="black" d="M1920.5,-151C1920.5,-151 1581.5,-151 1581.5,-151 1575.5,-151 1569.5,-145 1569.5,-139 1569.5,-139 1569.5,-91 1569.5,-91 1569.5,-85 1575.5,-79 1581.5,-79 1581.5,-79 1920.5,-79 1920.5,-79 1926.5,-79 1932.5,-85 1932.5,-91 1932.5,-91 1932.5,-139 1932.5,-139 1932.5,-145 1926.5,-151 1920.5,-151"/>
<text text-anchor="middle" x="1751" y="-108.8" font-family="Courier-Bold" font-size="24.00">deployment/virt&#45;exportproxy</text>
</g>
<!-- deployment/virt&#45;operator&#45;&gt;deployment/virt&#45;exportproxy -->
<g id="edge26" class="edge">
<title>deployment/virt&#45;operator&#45;&gt;deployment/virt&#45;exportproxy</title>
<path fill="none" stroke="black" d="M1144.58,-177.44C1262.32,-165.3 1422.99,-148.73 1549.22,-135.71"/>
<polygon fill="black" stroke="black" points="1569.17,-133.65 1550.2,-144.65 1559.22,-134.68 1549.27,-135.7 1549.27,-135.7 1549.27,-135.7 1559.22,-134.68 1548.35,-126.75 1569.17,-133.65 1569.17,-133.65"/>
</g>
<!-- daemonset/virt&#45;handler -->
<g id="node34" class="node">
<title>daemonset/virt&#45;handler</title>
<path fill="none" stroke="black" d="M1890,-72C1890,-72 1612,-72 1612,-72 1606,-72 1600,-66 1600,-60 1600,-60 1600,-12 1600,-12 1600,-6 1606,0 1612,0 1612,0 1890,0 1890,0 1896,0 1902,-6 1902,-12 1902,-12 1902,-60 1902,-60 1902,-66 1896,-72 1890,-72"/>
<text text-anchor="middle" x="1751" y="-29.8" font-family="Courier-Bold" font-size="24.00">daemonset/virt&#45;handler</text>
</g>
<!-- deployment/virt&#45;operator&#45;&gt;daemonset/virt&#45;handler -->
<g id="edge31" class="edge">
<title>deployment/virt&#45;operator&#45;&gt;daemonset/virt&#45;handler</title>
<path fill="none" stroke="black" d="M1104.57,-157.9C1194.85,-131.99 1321.77,-97.91 1435,-76 1481.77,-66.95 1532.85,-59.46 1580.01,-53.49"/>
<polygon fill="black" stroke="black" points="1599.95,-51.03 1581.2,-62.41 1590.03,-52.26 1580.1,-53.48 1580.1,-53.48 1580.1,-53.48 1590.03,-52.26 1579,-44.55 1599.95,-51.03 1599.95,-51.03"/>
</g>
</g>
</svg>
