<?xml version="1.0" encoding="UTF-8" standalone="no"?>
<!DOCTYPE svg PUBLIC "-//W3C//DTD SVG 1.1//EN"
 "http://www.w3.org/Graphics/SVG/1.1/DTD/svg11.dtd">
<!-- Generated by graphviz version 2.44.0 (0)
 -->
<!-- Title: managed&#45;by Pages: 1 -->
<svg width="2470pt" height="1728pt"
 viewBox="14.40 14.40 2455.40 1713.40" xmlns="http://www.w3.org/2000/svg" xmlns:xlink="http://www.w3.org/1999/xlink">
<g id="graph0" class="graph" transform="scale(1 1) rotate(0) translate(18.4 1709.4)">
<title>managed&#45;by</title>
<polygon fill="white" stroke="transparent" points="-4,4 -4,-1695 2437,-1695 2437,4 -4,4"/>
<!-- HyperConverged/kubevirt&#45;hyperconverged -->
<g id="node1" class="node">
<title>HyperConverged/kubevirt&#45;hyperconverged</title>
<path fill="none" stroke="black" d="M519,-565C519,-565 12,-565 12,-565 6,-565 0,-559 0,-553 0,-553 0,-505 0,-505 0,-499 6,-493 12,-493 12,-493 519,-493 519,-493 525,-493 531,-499 531,-505 531,-505 531,-553 531,-553 531,-559 525,-565 519,-565"/>
<text text-anchor="middle" x="265.5" y="-522.8" font-family="Courier-Bold" font-size="24.00">HyperConverged/kubevirt&#45;hyperconverged</text>
</g>
<!-- KubeVirt/kubevirt&#45;kubevirt&#45;hyperconverged -->
<g id="node2" class="node">
<title>KubeVirt/kubevirt&#45;kubevirt&#45;hyperconverged</title>
<path fill="none" stroke="black" d="M2013,-1691C2013,-1691 1499,-1691 1499,-1691 1493,-1691 1487,-1685 1487,-1679 1487,-1679 1487,-1631 1487,-1631 1487,-1625 1493,-1619 1499,-1619 1499,-1619 2013,-1619 2013,-1619 2019,-1619 2025,-1625 2025,-1631 2025,-1631 2025,-1679 2025,-1679 2025,-1685 2019,-1691 2013,-1691"/>
<text text-anchor="middle" x="1756" y="-1648.8" font-family="Courier-Bold" font-size="24.00">KubeVirt/kubevirt&#45;kubevirt&#45;hyperconverged</text>
</g>
<!-- deployment/hco&#45;operator -->
<g id="node3" class="node">
<title>deployment/hco&#45;operator</title>
<path fill="none" stroke="black" d="M1136.5,-1414C1136.5,-1414 834.5,-1414 834.5,-1414 828.5,-1414 822.5,-1408 822.5,-1402 822.5,-1402 822.5,-1354 822.5,-1354 822.5,-1348 828.5,-1342 834.5,-1342 834.5,-1342 1136.5,-1342 1136.5,-1342 1142.5,-1342 1148.5,-1348 1148.5,-1354 1148.5,-1354 1148.5,-1402 1148.5,-1402 1148.5,-1408 1142.5,-1414 1136.5,-1414"/>
<text text-anchor="middle" x="985.5" y="-1371.8" font-family="Courier-Bold" font-size="24.00">deployment/hco&#45;operator</text>
</g>
<!-- deployment/hco&#45;operator&#45;&gt;KubeVirt/kubevirt&#45;kubevirt&#45;hyperconverged -->
<g id="edge1" class="edge">
<title>deployment/hco&#45;operator&#45;&gt;KubeVirt/kubevirt&#45;kubevirt&#45;hyperconverged</title>
<path fill="none" stroke="black" d="M1148.79,-1374.64C1198.79,-1379.8 1252.16,-1392.08 1296,-1418 1389.35,-1473.21 1346.59,-1559.9 1440,-1615 1448.97,-1620.29 1458.33,-1625.02 1467.98,-1629.24"/>
<polygon fill="black" stroke="black" points="1486.85,-1636.74 1464.94,-1637.72 1477.56,-1633.05 1468.26,-1629.35 1468.26,-1629.35 1468.26,-1629.35 1477.56,-1633.05 1471.59,-1620.99 1486.85,-1636.74 1486.85,-1636.74"/>
</g>
<!-- SSP/ssp&#45;kubevirt&#45;hyperconverged -->
<g id="node4" class="node">
<title>SSP/ssp&#45;kubevirt&#45;hyperconverged</title>
<path fill="none" stroke="black" d="M1955,-1612C1955,-1612 1557,-1612 1557,-1612 1551,-1612 1545,-1606 1545,-1600 1545,-1600 1545,-1552 1545,-1552 1545,-1546 1551,-1540 1557,-1540 1557,-1540 1955,-1540 1955,-1540 1961,-1540 1967,-1546 1967,-1552 1967,-1552 1967,-1600 1967,-1600 1967,-1606 1961,-1612 1955,-1612"/>
<text text-anchor="middle" x="1756" y="-1569.8" font-family="Courier-Bold" font-size="24.00">SSP/ssp&#45;kubevirt&#45;hyperconverged</text>
</g>
<!-- deployment/hco&#45;operator&#45;&gt;SSP/ssp&#45;kubevirt&#45;hyperconverged -->
<g id="edge2" class="edge">
<title>deployment/hco&#45;operator&#45;&gt;SSP/ssp&#45;kubevirt&#45;hyperconverged</title>
<path fill="none" stroke="black" d="M1148.87,-1381.94C1197.68,-1387.58 1250.36,-1398.3 1296,-1418 1371.97,-1450.79 1364,-1503.29 1440,-1536 1466.66,-1547.48 1495.69,-1555.92 1524.97,-1562.1"/>
<polygon fill="black" stroke="black" points="1544.74,-1565.93 1523.39,-1570.96 1534.92,-1564.03 1525.11,-1562.13 1525.11,-1562.13 1525.11,-1562.13 1534.92,-1564.03 1526.82,-1553.29 1544.74,-1565.93 1544.74,-1565.93"/>
</g>
<!-- CDI/cdi&#45;kubevirt&#45;hyperconverged -->
<g id="node5" class="node">
<title>CDI/cdi&#45;kubevirt&#45;hyperconverged</title>
<path fill="none" stroke="black" d="M1951.5,-1533C1951.5,-1533 1560.5,-1533 1560.5,-1533 1554.5,-1533 1548.5,-1527 1548.5,-1521 1548.5,-1521 1548.5,-1473 1548.5,-1473 1548.5,-1467 1554.5,-1461 1560.5,-1461 1560.5,-1461 1951.5,-1461 1951.5,-1461 1957.5,-1461 1963.5,-1467 1963.5,-1473 1963.5,-1473 1963.5,-1521 1963.5,-1521 1963.5,-1527 1957.5,-1533 1951.5,-1533"/>
<text text-anchor="middle" x="1756" y="-1490.8" font-family="Courier-Bold" font-size="24.00">CDI/cdi&#45;kubevirt&#45;hyperconverged</text>
</g>
<!-- deployment/hco&#45;operator&#45;&gt;CDI/cdi&#45;kubevirt&#45;hyperconverged -->
<g id="edge3" class="edge">
<title>deployment/hco&#45;operator&#45;&gt;CDI/cdi&#45;kubevirt&#45;hyperconverged</title>
<path fill="none" stroke="black" d="M1148.61,-1394.74C1196.31,-1400.8 1248.44,-1408.53 1296,-1418 1361.03,-1430.95 1374.96,-1444.13 1440,-1457 1468.48,-1462.64 1498.57,-1467.65 1528.4,-1472.05"/>
<polygon fill="black" stroke="black" points="1548.47,-1474.93 1527.39,-1481 1538.57,-1473.51 1528.67,-1472.09 1528.67,-1472.09 1528.67,-1472.09 1538.57,-1473.51 1529.95,-1463.18 1548.47,-1474.93 1548.47,-1474.93"/>
</g>
<!-- NetworkAddonsConfig/cluster -->
<g id="node8" class="node">
<title>NetworkAddonsConfig/cluster</title>
<path fill="none" stroke="black" d="M1931,-1454C1931,-1454 1581,-1454 1581,-1454 1575,-1454 1569,-1448 1569,-1442 1569,-1442 1569,-1394 1569,-1394 1569,-1388 1575,-1382 1581,-1382 1581,-1382 1931,-1382 1931,-1382 1937,-1382 1943,-1388 1943,-1394 1943,-1394 1943,-1442 1943,-1442 1943,-1448 1937,-1454 1931,-1454"/>
<text text-anchor="middle" x="1756" y="-1411.8" font-family="Courier-Bold" font-size="24.00">NetworkAddonsConfig/cluster</text>
</g>
<!-- deployment/hco&#45;operator&#45;&gt;NetworkAddonsConfig/cluster -->
<g id="edge5" class="edge">
<title>deployment/hco&#45;operator&#45;&gt;NetworkAddonsConfig/cluster</title>
<path fill="none" stroke="black" d="M1148.54,-1386.43C1265.04,-1392.5 1423.07,-1400.72 1548.61,-1407.26"/>
<polygon fill="black" stroke="black" points="1568.86,-1408.31 1548.42,-1416.26 1558.87,-1407.79 1548.89,-1407.27 1548.89,-1407.27 1548.89,-1407.27 1558.87,-1407.79 1549.35,-1398.28 1568.86,-1408.31 1568.86,-1408.31"/>
</g>
<!-- deployment/cnv&#45;network&#45;resources&#45;injector -->
<g id="node15" class="node">
<title>deployment/cnv&#45;network&#45;resources&#45;injector</title>
<path fill="none" stroke="black" d="M2016.5,-1375C2016.5,-1375 1495.5,-1375 1495.5,-1375 1489.5,-1375 1483.5,-1369 1483.5,-1363 1483.5,-1363 1483.5,-1315 1483.5,-1315 1483.5,-1309 1489.5,-1303 1495.5,-1303 1495.5,-1303 2016.5,-1303 2016.5,-1303 2022.5,-1303 2028.5,-1309 2028.5,-1315 2028.5,-1315 2028.5,-1363 2028.5,-1363 2028.5,-1369 2022.5,-1375 2016.5,-1375"/>
<text text-anchor="middle" x="1756" y="-1332.8" font-family="Courier-Bold" font-size="24.00">deployment/cnv&#45;network&#45;resources&#45;injector</text>
</g>
<!-- deployment/hco&#45;operator&#45;&gt;deployment/cnv&#45;network&#45;resources&#45;injector -->
<g id="edge12" class="edge">
<title>deployment/hco&#45;operator&#45;&gt;deployment/cnv&#45;network&#45;resources&#45;injector</title>
<path fill="none" stroke="black" d="M1148.54,-1369.78C1239.75,-1365.15 1356.42,-1359.23 1463.02,-1353.82"/>
<polygon fill="black" stroke="black" points="1483.14,-1352.8 1463.63,-1362.8 1473.16,-1353.3 1463.17,-1353.81 1463.17,-1353.81 1463.17,-1353.81 1473.16,-1353.3 1462.71,-1344.82 1483.14,-1352.8 1483.14,-1352.8"/>
</g>
<!-- deployment/kubevirt&#45;apiserver&#45;proxy -->
<g id="node22" class="node">
<title>deployment/kubevirt&#45;apiserver&#45;proxy</title>
<path fill="none" stroke="black" d="M1976,-1296C1976,-1296 1536,-1296 1536,-1296 1530,-1296 1524,-1290 1524,-1284 1524,-1284 1524,-1236 1524,-1236 1524,-1230 1530,-1224 1536,-1224 1536,-1224 1976,-1224 1976,-1224 1982,-1224 1988,-1230 1988,-1236 1988,-1236 1988,-1284 1988,-1284 1988,-1290 1982,-1296 1976,-1296"/>
<text text-anchor="middle" x="1756" y="-1253.8" font-family="Courier-Bold" font-size="24.00">deployment/kubevirt&#45;apiserver&#45;proxy</text>
</g>
<!-- deployment/hco&#45;operator&#45;&gt;deployment/kubevirt&#45;apiserver&#45;proxy -->
<g id="edge20" class="edge">
<title>deployment/hco&#45;operator&#45;&gt;deployment/kubevirt&#45;apiserver&#45;proxy</title>
<path fill="none" stroke="black" d="M1148.63,-1348.33C1234.99,-1332.98 1343.11,-1314.48 1440,-1300 1460.77,-1296.9 1482.33,-1293.83 1503.99,-1290.86"/>
<polygon fill="black" stroke="black" points="1523.88,-1288.16 1505.28,-1299.77 1513.98,-1289.51 1504.07,-1290.85 1504.07,-1290.85 1504.07,-1290.85 1513.98,-1289.51 1502.86,-1281.93 1523.88,-1288.16 1523.88,-1288.16"/>
</g>
<!-- deployment/kubevirt&#45;console&#45;plugin -->
<g id="node23" class="node">
<title>deployment/kubevirt&#45;console&#45;plugin</title>
<path fill="none" stroke="black" d="M1970,-1217C1970,-1217 1542,-1217 1542,-1217 1536,-1217 1530,-1211 1530,-1205 1530,-1205 1530,-1157 1530,-1157 1530,-1151 1536,-1145 1542,-1145 1542,-1145 1970,-1145 1970,-1145 1976,-1145 1982,-1151 1982,-1157 1982,-1157 1982,-1205 1982,-1205 1982,-1211 1976,-1217 1970,-1217"/>
<text text-anchor="middle" x="1756" y="-1174.8" font-family="Courier-Bold" font-size="24.00">deployment/kubevirt&#45;console&#45;plugin</text>
</g>
<!-- deployment/hco&#45;operator&#45;&gt;deployment/kubevirt&#45;console&#45;plugin -->
<g id="edge21" class="edge">
<title>deployment/hco&#45;operator&#45;&gt;deployment/kubevirt&#45;console&#45;plugin</title>
<path fill="none" stroke="black" d="M1073.12,-1341.98C1163.24,-1305.94 1309.18,-1251.6 1440,-1221 1462.54,-1215.73 1486.16,-1211.11 1509.9,-1207.07"/>
<polygon fill="black" stroke="black" points="1529.85,-1203.81 1511.56,-1215.92 1519.98,-1205.42 1510.11,-1207.04 1510.11,-1207.04 1510.11,-1207.04 1519.98,-1205.42 1508.66,-1198.15 1529.85,-1203.81 1529.85,-1203.81"/>
</g>
<!-- CDIConfig/config -->
<g id="node6" class="node">
<title>CDIConfig/config</title>
<path fill="none" stroke="black" d="M2421,-1138C2421,-1138 2228,-1138 2228,-1138 2222,-1138 2216,-1132 2216,-1126 2216,-1126 2216,-1078 2216,-1078 2216,-1072 2222,-1066 2228,-1066 2228,-1066 2421,-1066 2421,-1066 2427,-1066 2433,-1072 2433,-1078 2433,-1078 2433,-1126 2433,-1126 2433,-1132 2427,-1138 2421,-1138"/>
<text text-anchor="middle" x="2324.5" y="-1095.8" font-family="Courier-Bold" font-size="24.00">CDIConfig/config</text>
</g>
<!-- deployment/cdi&#45;deployment -->
<g id="node7" class="node">
<title>deployment/cdi&#45;deployment</title>
<path fill="none" stroke="black" d="M1922.5,-1138C1922.5,-1138 1589.5,-1138 1589.5,-1138 1583.5,-1138 1577.5,-1132 1577.5,-1126 1577.5,-1126 1577.5,-1078 1577.5,-1078 1577.5,-1072 1583.5,-1066 1589.5,-1066 1589.5,-1066 1922.5,-1066 1922.5,-1066 1928.5,-1066 1934.5,-1072 1934.5,-1078 1934.5,-1078 1934.5,-1126 1934.5,-1126 1934.5,-1132 1928.5,-1138 1922.5,-1138"/>
<text text-anchor="middle" x="1756" y="-1095.8" font-family="Courier-Bold" font-size="24.00">deployment/cdi&#45;deployment</text>
</g>
<!-- deployment/cdi&#45;deployment&#45;&gt;CDIConfig/config -->
<g id="edge4" class="edge">
<title>deployment/cdi&#45;deployment&#45;&gt;CDIConfig/config</title>
<path fill="none" stroke="black" d="M1934.69,-1102C2019.28,-1102 2118.54,-1102 2195.59,-1102"/>
<polygon fill="black" stroke="black" points="2215.69,-1102 2195.69,-1111 2205.69,-1102 2195.69,-1102 2195.69,-1102 2195.69,-1102 2205.69,-1102 2195.69,-1093 2215.69,-1102 2215.69,-1102"/>
</g>
<!-- deployment/aaq&#45;operator -->
<g id="node9" class="node">
<title>deployment/aaq&#45;operator</title>
<path fill="none" stroke="black" d="M1137,-1059C1137,-1059 834,-1059 834,-1059 828,-1059 822,-1053 822,-1047 822,-1047 822,-999 822,-999 822,-993 828,-987 834,-987 834,-987 1137,-987 1137,-987 1143,-987 1149,-993 1149,-999 1149,-999 1149,-1047 1149,-1047 1149,-1053 1143,-1059 1137,-1059"/>
<text text-anchor="middle" x="985.5" y="-1016.8" font-family="Courier-Bold" font-size="24.00">deployment/aaq&#45;operator</text>
</g>
<!-- olm -->
<g id="node10" class="node">
<title>olm</title>
<path fill="none" stroke="black" d="M361.5,-644C361.5,-644 169.5,-644 169.5,-644 163.5,-644 157.5,-638 157.5,-632 157.5,-632 157.5,-584 157.5,-584 157.5,-578 163.5,-572 169.5,-572 169.5,-572 361.5,-572 361.5,-572 367.5,-572 373.5,-578 373.5,-584 373.5,-584 373.5,-632 373.5,-632 373.5,-638 367.5,-644 361.5,-644"/>
<text text-anchor="middle" x="265.5" y="-601.8" font-family="Courier-Bold" font-size="24.00">olm</text>
</g>
<!-- olm&#45;&gt;deployment/hco&#45;operator -->
<g id="edge13" class="edge">
<title>olm&#45;&gt;deployment/hco&#45;operator</title>
<path fill="none" stroke="black" d="M298.03,-644.08C365.94,-721.54 531.49,-909.14 675,-1062 764.59,-1157.43 872.08,-1265.86 933.92,-1327.68"/>
<polygon fill="black" stroke="black" points="948.25,-1341.99 927.74,-1334.23 941.17,-1334.93 934.1,-1327.86 934.1,-1327.86 934.1,-1327.86 941.17,-1334.93 940.46,-1321.49 948.25,-1341.99 948.25,-1341.99"/>
</g>
<!-- olm&#45;&gt;deployment/aaq&#45;operator -->
<g id="edge6" class="edge">
<title>olm&#45;&gt;deployment/aaq&#45;operator</title>
<path fill="none" stroke="black" d="M292.85,-644.05C351.57,-721.32 501.75,-902.37 675,-983 714.1,-1001.2 758.81,-1011.95 801.86,-1018.12"/>
<polygon fill="black" stroke="black" points="821.82,-1020.68 800.84,-1027.06 811.91,-1019.41 801.99,-1018.13 801.99,-1018.13 801.99,-1018.13 811.91,-1019.41 803.13,-1009.21 821.82,-1020.68 821.82,-1020.68"/>
</g>
<!-- deployment/cdi&#45;operator -->
<g id="node12" class="node">
<title>deployment/cdi&#45;operator</title>
<path fill="none" stroke="black" d="M1132,-980C1132,-980 839,-980 839,-980 833,-980 827,-974 827,-968 827,-968 827,-920 827,-920 827,-914 833,-908 839,-908 839,-908 1132,-908 1132,-908 1138,-908 1144,-914 1144,-920 1144,-920 1144,-968 1144,-968 1144,-974 1138,-980 1132,-980"/>
<text text-anchor="middle" x="985.5" y="-937.8" font-family="Courier-Bold" font-size="24.00">deployment/cdi&#45;operator</text>
</g>
<!-- olm&#45;&gt;deployment/cdi&#45;operator -->
<g id="edge9" class="edge">
<title>olm&#45;&gt;deployment/cdi&#45;operator</title>
<path fill="none" stroke="black" d="M320.01,-644.11C396.22,-694.35 541.6,-785.8 675,-845 724.39,-866.92 780.14,-886.29 830.58,-901.96"/>
<polygon fill="black" stroke="black" points="850,-907.89 828.24,-910.65 840.43,-904.97 830.87,-902.04 830.87,-902.04 830.87,-902.04 840.43,-904.97 833.5,-893.44 850,-907.89 850,-907.89"/>
</g>
<!-- deployment/cluster&#45;network&#45;addons&#45;operator -->
<g id="node14" class="node">
<title>deployment/cluster&#45;network&#45;addons&#45;operator</title>
<path fill="none" stroke="black" d="M1257,-842C1257,-842 714,-842 714,-842 708,-842 702,-836 702,-830 702,-830 702,-782 702,-782 702,-776 708,-770 714,-770 714,-770 1257,-770 1257,-770 1263,-770 1269,-776 1269,-782 1269,-782 1269,-830 1269,-830 1269,-836 1263,-842 1257,-842"/>
<text text-anchor="middle" x="985.5" y="-799.8" font-family="Courier-Bold" font-size="24.00">deployment/cluster&#45;network&#45;addons&#45;operator</text>
</g>
<!-- olm&#45;&gt;deployment/cluster&#45;network&#45;addons&#45;operator -->
<g id="edge11" class="edge">
<title>olm&#45;&gt;deployment/cluster&#45;network&#45;addons&#45;operator</title>
<path fill="none" stroke="black" d="M343.37,-644.16C424.14,-680.62 555.79,-735.71 675,-766 677.34,-766.59 679.68,-767.18 682.04,-767.76"/>
<polygon fill="black" stroke="black" points="701.85,-772.35 680.33,-776.6 692.11,-770.09 682.37,-767.83 682.37,-767.83 682.37,-767.83 692.11,-770.09 684.4,-759.06 701.85,-772.35 701.85,-772.35"/>
</g>
<!-- deployment/hco&#45;webhook -->
<g id="node16" class="node">
<title>deployment/hco&#45;webhook</title>
<path fill="none" stroke="black" d="M1138.5,-763C1138.5,-763 832.5,-763 832.5,-763 826.5,-763 820.5,-757 820.5,-751 820.5,-751 820.5,-703 820.5,-703 820.5,-697 826.5,-691 832.5,-691 832.5,-691 1138.5,-691 1138.5,-691 1144.5,-691 1150.5,-697 1150.5,-703 1150.5,-703 1150.5,-751 1150.5,-751 1150.5,-757 1144.5,-763 1138.5,-763"/>
<text text-anchor="middle" x="985.5" y="-720.8" font-family="Courier-Bold" font-size="24.00">deployment/hco&#45;webhook</text>
</g>
<!-- olm&#45;&gt;deployment/hco&#45;webhook -->
<g id="edge14" class="edge">
<title>olm&#45;&gt;deployment/hco&#45;webhook</title>
<path fill="none" stroke="black" d="M373.68,-630.63C455.89,-647.52 572.31,-670.45 675,-687 715.45,-693.52 759.01,-699.68 800.32,-705.12"/>
<polygon fill="black" stroke="black" points="820.39,-707.73 799.39,-714.07 810.47,-706.44 800.55,-705.15 800.55,-705.15 800.55,-705.15 810.47,-706.44 801.72,-696.22 820.39,-707.73 820.39,-707.73"/>
</g>
<!-- deployment/hostpath&#45;provisioner&#45;operator -->
<g id="node17" class="node">
<title>deployment/hostpath&#45;provisioner&#45;operator</title>
<path fill="none" stroke="black" d="M1239,-684C1239,-684 732,-684 732,-684 726,-684 720,-678 720,-672 720,-672 720,-624 720,-624 720,-618 726,-612 732,-612 732,-612 1239,-612 1239,-612 1245,-612 1251,-618 1251,-624 1251,-624 1251,-672 1251,-672 1251,-678 1245,-684 1239,-684"/>
<text text-anchor="middle" x="985.5" y="-641.8" font-family="Courier-Bold" font-size="24.00">deployment/hostpath&#45;provisioner&#45;operator</text>
</g>
<!-- olm&#45;&gt;deployment/hostpath&#45;provisioner&#45;operator -->
<g id="edge15" class="edge">
<title>olm&#45;&gt;deployment/hostpath&#45;provisioner&#45;operator</title>
<path fill="none" stroke="black" d="M373.6,-613.97C459.8,-618.77 585.06,-625.75 699.75,-632.14"/>
<polygon fill="black" stroke="black" points="719.91,-633.26 699.44,-641.13 709.93,-632.7 699.94,-632.15 699.94,-632.15 699.94,-632.15 709.93,-632.7 700.44,-623.16 719.91,-633.26 719.91,-633.26"/>
</g>
<!-- deployment/hyperconverged&#45;cluster&#45;cli&#45;download -->
<g id="node18" class="node">
<title>deployment/hyperconverged&#45;cluster&#45;cli&#45;download</title>
<path fill="none" stroke="black" d="M1281.5,-605C1281.5,-605 689.5,-605 689.5,-605 683.5,-605 677.5,-599 677.5,-593 677.5,-593 677.5,-545 677.5,-545 677.5,-539 683.5,-533 689.5,-533 689.5,-533 1281.5,-533 1281.5,-533 1287.5,-533 1293.5,-539 1293.5,-545 1293.5,-545 1293.5,-593 1293.5,-593 1293.5,-599 1287.5,-605 1281.5,-605"/>
<text text-anchor="middle" x="985.5" y="-562.8" font-family="Courier-Bold" font-size="24.00">deployment/hyperconverged&#45;cluster&#45;cli&#45;download</text>
</g>
<!-- olm&#45;&gt;deployment/hyperconverged&#45;cluster&#45;cli&#45;download -->
<g id="edge16" class="edge">
<title>olm&#45;&gt;deployment/hyperconverged&#45;cluster&#45;cli&#45;download</title>
<path fill="none" stroke="black" d="M373.6,-602.18C449.27,-598.07 555.04,-592.33 657.33,-586.77"/>
<polygon fill="black" stroke="black" points="677.39,-585.68 657.91,-595.75 667.41,-586.22 657.42,-586.77 657.42,-586.77 657.42,-586.77 667.41,-586.22 656.93,-577.78 677.39,-585.68 677.39,-585.68"/>
</g>
<!-- deployment/inflightoperations&#45;controller&#45;manager -->
<g id="node19" class="node">
<title>deployment/inflightoperations&#45;controller&#45;manager</title>
<path fill="none" stroke="black" d="M1284,-526C1284,-526 687,-526 687,-526 681,-526 675,-520 675,-514 675,-514 675,-466 675,-466 675,-460 681,-454 687,-454 687,-454 1284,-454 1284,-454 1290,-454 1296,-460 1296,-466 1296,-466 1296,-514 1296,-514 1296,-520 1290,-526 1284,-526"/>
<text text-anchor="middle" x="985.5" y="-483.8" font-family="Courier-Bold" font-size="24.00">deployment/inflightoperations&#45;controller&#45;manager</text>
</g>
<!-- olm&#45;&gt;deployment/inflightoperations&#45;controller&#45;manager -->
<g id="edge17" class="edge">
<title>olm&#45;&gt;deployment/inflightoperations&#45;controller&#45;manager</title>
<path fill="none" stroke="black" d="M373.78,-594.46C422.05,-587.67 479.61,-578.63 531,-568 595.82,-554.59 610.04,-542.71 675,-530 675.43,-529.92 675.86,-529.83 676.3,-529.75"/>
<polygon fill="black" stroke="black" points="696,-526.04 678,-538.58 686.17,-527.89 676.34,-529.74 676.34,-529.74 676.34,-529.74 686.17,-527.89 674.68,-520.89 696,-526.04 696,-526.04"/>
</g>
<!-- deployment/kubevirt&#45;migration&#45;operator -->
<g id="node27" class="node">
<title>deployment/kubevirt&#45;migration&#45;operator</title>
<path fill="none" stroke="black" d="M1226.5,-447C1226.5,-447 744.5,-447 744.5,-447 738.5,-447 732.5,-441 732.5,-435 732.5,-435 732.5,-387 732.5,-387 732.5,-381 738.5,-375 744.5,-375 744.5,-375 1226.5,-375 1226.5,-375 1232.5,-375 1238.5,-381 1238.5,-387 1238.5,-387 1238.5,-435 1238.5,-435 1238.5,-441 1232.5,-447 1226.5,-447"/>
<text text-anchor="middle" x="985.5" y="-404.8" font-family="Courier-Bold" font-size="24.00">deployment/kubevirt&#45;migration&#45;operator</text>
</g>
<!-- olm&#45;&gt;deployment/kubevirt&#45;migration&#45;operator -->
<g id="edge24" class="edge">
<title>olm&#45;&gt;deployment/kubevirt&#45;migration&#45;operator</title>
<path fill="none" stroke="black" d="M373.73,-604.68C423.31,-599.95 481.94,-589.69 531,-568 606.42,-534.66 599.22,-483.52 675,-451 687.21,-445.76 699.92,-441.16 712.92,-437.12"/>
<polygon fill="black" stroke="black" points="732.16,-431.59 715.42,-445.76 722.55,-434.35 712.94,-437.11 712.94,-437.11 712.94,-437.11 722.55,-434.35 710.45,-428.46 732.16,-431.59 732.16,-431.59"/>
</g>
<!-- deployment/ssp&#45;operator -->
<g id="node28" class="node">
<title>deployment/ssp&#45;operator</title>
<path fill="none" stroke="black" d="M1135,-368C1135,-368 836,-368 836,-368 830,-368 824,-362 824,-356 824,-356 824,-308 824,-308 824,-302 830,-296 836,-296 836,-296 1135,-296 1135,-296 1141,-296 1147,-302 1147,-308 1147,-308 1147,-356 1147,-356 1147,-362 1141,-368 1135,-368"/>
<text text-anchor="middle" x="985.5" y="-325.8" font-family="Courier-Bold" font-size="24.00">deployment/ssp&#45;operator</text>
</g>
<!-- olm&#45;&gt;deployment/ssp&#45;operator -->
<g id="edge25" class="edge">
<title>olm&#45;&gt;deployment/ssp&#45;operator</title>
<path fill="none" stroke="black" d="M373.65,-610.35C424.49,-607.01 484.2,-596.29 531,-568 623.51,-512.09 581.89,-426.91 675,-372 713.53,-349.28 759.41,-337.05 803.88,-330.91"/>
<polygon fill="black" stroke="black" points="823.84,-328.54 805.04,-339.84 813.91,-329.72 803.98,-330.9 803.98,-330.9 803.98,-330.9 813.91,-329.72 802.92,-321.96 823.84,-328.54 823.84,-328.54"/>
</g>
<!-- deployment/virt&#45;operator -->
<g id="node30" class="node">
<title>deployment/virt&#45;operator</title>
<path fill="none" stroke="black" d="M1135,-289C1135,-289 836,-289 836,-289 830,-289 824,-283 824,-277 824,-277 824,-229 824,-229 824,-223 830,-217 836,-217 836,-217 1135,-217 1135,-217 1141,-217 1147,-223 1147,-229 1147,-229 1147,-277 1147,-277 1147,-283 1141,-289 1135,-289"/>
<text text-anchor="middle" x="985.5" y="-246.8" font-family="Courier-Bold" font-size="24.00">deployment/virt&#45;operator</text>
</g>
<!-- olm&#45;&gt;deployment/virt&#45;operator -->
<g id="edge29" class="edge">
<title>olm&#45;&gt;deployment/virt&#45;operator</title>
<path fill="none" stroke="black" d="M373.68,-613.47C425.43,-611.02 485.9,-600.15 531,-568 643.35,-487.92 561.8,-371.86 675,-293 712.37,-266.97 758.57,-253.72 803.77,-247.66"/>
<polygon fill="black" stroke="black" points="823.74,-245.43 804.86,-256.6 813.8,-246.54 803.86,-247.65 803.86,-247.65 803.86,-247.65 813.8,-246.54 802.86,-238.71 823.74,-245.43 823.74,-245.43"/>
</g>
<!-- deployment/virt&#45;platform&#45;autopilot -->
<g id="node33" class="node">
<title>deployment/virt&#45;platform&#45;autopilot</title>
<path fill="none" stroke="black" d="M1192.5,-210C1192.5,-210 778.5,-210 778.5,-210 772.5,-210 766.5,-204 766.5,-198 766.5,-198 766.5,-150 766.5,-150 766.5,-144 772.5,-138 778.5,-138 778.5,-138 1192.5,-138 1192.5,-138 1198.5,-138 1204.5,-144 1204.5,-150 1204.5,-150 1204.5,-198 1204.5,-198 1204.5,-204 1198.5,-210 1192.5,-210"/>
<text text-anchor="middle" x="985.5" y="-167.8" font-family="Courier-Bold" font-size="24.00">deployment/virt&#45;platform&#45;autopilot</text>
</g>
<!-- olm&#45;&gt;deployment/virt&#45;platform&#45;autopilot -->
<g id="edge30" class="edge">
<title>olm&#45;&gt;deployment/virt&#45;platform&#45;autopilot</title>
<path fill="none" stroke="black" d="M373.74,-615.34C426.12,-613.48 487.13,-602.56 531,-568 664.42,-462.89 540.45,-317.67 675,-214 696.22,-197.65 720.79,-186.12 746.63,-178.16"/>
<polygon fill="black" stroke="black" points="766.11,-172.87 749.17,-186.8 756.46,-175.49 746.81,-178.12 746.81,-178.12 746.81,-178.12 756.46,-175.49 744.45,-169.43 766.11,-172.87 766.11,-172.87"/>
</g>
<!-- deployment/cdi&#45;apiserver -->
<g id="node11" class="node">
<title>deployment/cdi&#45;apiserver</title>
<path fill="none" stroke="black" d="M1907,-1059C1907,-1059 1605,-1059 1605,-1059 1599,-1059 1593,-1053 1593,-1047 1593,-1047 1593,-999 1593,-999 1593,-993 1599,-987 1605,-987 1605,-987 1907,-987 1907,-987 1913,-987 1919,-993 1919,-999 1919,-999 1919,-1047 1919,-1047 1919,-1053 1913,-1059 1907,-1059"/>
<text text-anchor="middle" x="1756" y="-1016.8" font-family="Courier-Bold" font-size="24.00">deployment/cdi&#45;apiserver</text>
</g>
<!-- deployment/cdi&#45;operator&#45;&gt;deployment/cdi&#45;deployment -->
<g id="edge8" class="edge">
<title>deployment/cdi&#45;operator&#45;&gt;deployment/cdi&#45;deployment</title>
<path fill="none" stroke="black" d="M1144.03,-953.07C1193.52,-958.89 1247.8,-968.43 1296,-984 1365.26,-1006.38 1370.71,-1039.7 1440,-1062 1477.15,-1073.96 1517.84,-1082.36 1557.27,-1088.26"/>
<polygon fill="black" stroke="black" points="1577.13,-1091.04 1556.07,-1097.18 1567.22,-1089.65 1557.32,-1088.26 1557.32,-1088.26 1557.32,-1088.26 1567.22,-1089.65 1558.57,-1079.35 1577.13,-1091.04 1577.13,-1091.04"/>
</g>
<!-- deployment/cdi&#45;operator&#45;&gt;deployment/cdi&#45;apiserver -->
<g id="edge7" class="edge">
<title>deployment/cdi&#45;operator&#45;&gt;deployment/cdi&#45;apiserver</title>
<path fill="none" stroke="black" d="M1144.34,-960.23C1268.72,-973.01 1442.3,-990.85 1572.62,-1004.25"/>
<polygon fill="black" stroke="black" points="1592.74,-1006.32 1571.92,-1013.23 1582.79,-1005.3 1572.84,-1004.27 1572.84,-1004.27 1572.84,-1004.27 1582.79,-1005.3 1573.76,-995.32 1592.74,-1006.32 1592.74,-1006.32"/>
</g>
<!-- deployment/cdi&#45;uploadproxy -->
<g id="node13" class="node">
<title>deployment/cdi&#45;uploadproxy</title>
<path fill="none" stroke="black" d="M1925,-980C1925,-980 1587,-980 1587,-980 1581,-980 1575,-974 1575,-968 1575,-968 1575,-920 1575,-920 1575,-914 1581,-908 1587,-908 1587,-908 1925,-908 1925,-908 1931,-908 1937,-914 1937,-920 1937,-920 1937,-968 1937,-968 1937,-974 1931,-980 1925,-980"/>
<text text-anchor="middle" x="1756" y="-937.8" font-family="Courier-Bold" font-size="24.00">deployment/cdi&#45;uploadproxy</text>
</g>
<!-- deployment/cdi&#45;operator&#45;&gt;deployment/cdi&#45;uploadproxy -->
<g id="edge10" class="edge">
<title>deployment/cdi&#45;operator&#45;&gt;deployment/cdi&#45;uploadproxy</title>
<path fill="none" stroke="black" d="M1144.34,-944C1263.06,-944 1426.62,-944 1554.59,-944"/>
<polygon fill="black" stroke="black" points="1574.81,-944 1554.81,-953 1564.81,-944 1554.81,-944 1554.81,-944 1554.81,-944 1564.81,-944 1554.81,-935 1574.81,-944 1574.81,-944"/>
</g>
<!-- deployment/kubemacpool&#45;cert&#45;manager -->
<g id="node20" class="node">
<title>deployment/kubemacpool&#45;cert&#45;manager</title>
<path fill="none" stroke="black" d="M1996.5,-901C1996.5,-901 1515.5,-901 1515.5,-901 1509.5,-901 1503.5,-895 1503.5,-889 1503.5,-889 1503.5,-841 1503.5,-841 1503.5,-835 1509.5,-829 1515.5,-829 1515.5,-829 1996.5,-829 1996.5,-829 2002.5,-829 2008.5,-835 2008.5,-841 2008.5,-841 2008.5,-889 2008.5,-889 2008.5,-895 2002.5,-901 1996.5,-901"/>
<text text-anchor="middle" x="1756" y="-858.8" font-family="Courier-Bold" font-size="24.00">deployment/kubemacpool&#45;cert&#45;manager</text>
</g>
<!-- deployment/cluster&#45;network&#45;addons&#45;operator&#45;&gt;deployment/kubemacpool&#45;cert&#45;manager -->
<g id="edge18" class="edge">
<title>deployment/cluster&#45;network&#45;addons&#45;operator&#45;&gt;deployment/kubemacpool&#45;cert&#45;manager</title>
<path fill="none" stroke="black" d="M1269.11,-827.7C1338.95,-833.06 1413.62,-838.79 1482.94,-844.11"/>
<polygon fill="black" stroke="black" points="1503.31,-845.68 1482.68,-853.12 1493.34,-844.91 1483.37,-844.15 1483.37,-844.15 1483.37,-844.15 1493.34,-844.91 1484.05,-835.17 1503.31,-845.68 1503.31,-845.68"/>
</g>
<!-- deployment/kubemacpool&#45;mac&#45;controller&#45;manager -->
<g id="node21" class="node">
<title>deployment/kubemacpool&#45;mac&#45;controller&#45;manager</title>
<path fill="none" stroke="black" d="M2060,-822C2060,-822 1452,-822 1452,-822 1446,-822 1440,-816 1440,-810 1440,-810 1440,-762 1440,-762 1440,-756 1446,-750 1452,-750 1452,-750 2060,-750 2060,-750 2066,-750 2072,-756 2072,-762 2072,-762 2072,-810 2072,-810 2072,-816 2066,-822 2060,-822"/>
<text text-anchor="middle" x="1756" y="-779.8" font-family="Courier-Bold" font-size="24.00">deployment/kubemacpool&#45;mac&#45;controller&#45;manager</text>
</g>
<!-- deployment/cluster&#45;network&#45;addons&#45;operator&#45;&gt;deployment/kubemacpool&#45;mac&#45;controller&#45;manager -->
<g id="edge19" class="edge">
<title>deployment/cluster&#45;network&#45;addons&#45;operator&#45;&gt;deployment/kubemacpool&#45;mac&#45;controller&#45;manager</title>
<path fill="none" stroke="black" d="M1269.11,-798.65C1318.04,-797.37 1369.33,-796.04 1419.5,-794.73"/>
<polygon fill="black" stroke="black" points="1439.79,-794.2 1420.03,-803.72 1429.79,-794.46 1419.79,-794.72 1419.79,-794.72 1419.79,-794.72 1429.79,-794.46 1419.56,-785.73 1439.79,-794.2 1439.79,-794.2"/>
</g>
<!-- deployment/kubevirt&#45;ipam&#45;controller&#45;manager -->
<g id="node24" class="node">
<title>deployment/kubevirt&#45;ipam&#45;controller&#45;manager</title>
<path fill="none" stroke="black" d="M2032.5,-743C2032.5,-743 1479.5,-743 1479.5,-743 1473.5,-743 1467.5,-737 1467.5,-731 1467.5,-731 1467.5,-683 1467.5,-683 1467.5,-677 1473.5,-671 1479.5,-671 1479.5,-671 2032.5,-671 2032.5,-671 2038.5,-671 2044.5,-677 2044.5,-683 2044.5,-683 2044.5,-731 2044.5,-731 2044.5,-737 2038.5,-743 2032.5,-743"/>
<text text-anchor="middle" x="1756" y="-700.8" font-family="Courier-Bold" font-size="24.00">deployment/kubevirt&#45;ipam&#45;controller&#45;manager</text>
</g>
<!-- deployment/cluster&#45;network&#45;addons&#45;operator&#45;&gt;deployment/kubevirt&#45;ipam&#45;controller&#45;manager -->
<g id="edge22" class="edge">
<title>deployment/cluster&#45;network&#45;addons&#45;operator&#45;&gt;deployment/kubevirt&#45;ipam&#45;controller&#45;manager</title>
<path fill="none" stroke="black" d="M1265.72,-769.95C1275.94,-768.62 1286.06,-767.3 1296,-766 1360.01,-757.64 1375.98,-755.29 1440,-747 1443.63,-746.53 1447.29,-746.06 1450.97,-745.58"/>
<polygon fill="black" stroke="black" points="1470.81,-743.02 1452.13,-754.51 1460.89,-744.3 1450.98,-745.58 1450.98,-745.58 1450.98,-745.58 1460.89,-744.3 1449.83,-736.65 1470.81,-743.02 1470.81,-743.02"/>
</g>
<!-- daemonset/bridge&#45;marker -->
<g id="node36" class="node">
<title>daemonset/bridge&#45;marker</title>
<path fill="none" stroke="black" d="M1910,-664C1910,-664 1602,-664 1602,-664 1596,-664 1590,-658 1590,-652 1590,-652 1590,-604 1590,-604 1590,-598 1596,-592 1602,-592 1602,-592 1910,-592 1910,-592 1916,-592 1922,-598 1922,-604 1922,-604 1922,-652 1922,-652 1922,-658 1916,-664 1910,-664"/>
<text text-anchor="middle" x="1756" y="-621.8" font-family="Courier-Bold" font-size="24.00">daemonset/bridge&#45;marker</text>
</g>
<!-- deployment/cluster&#45;network&#45;addons&#45;operator&#45;&gt;daemonset/bridge&#45;marker -->
<g id="edge33" class="edge">
<title>deployment/cluster&#45;network&#45;addons&#45;operator&#45;&gt;daemonset/bridge&#45;marker</title>
<path fill="none" stroke="black" d="M1269.18,-775.18C1278.3,-772.37 1287.26,-769.32 1296,-766 1368.37,-738.51 1367.6,-695.41 1440,-668 1480.8,-652.55 1526.47,-642.84 1570.1,-636.78"/>
<polygon fill="black" stroke="black" points="1589.99,-634.25 1571.28,-645.7 1580.07,-635.51 1570.15,-636.77 1570.15,-636.77 1570.15,-636.77 1580.07,-635.51 1569.01,-627.85 1589.99,-634.25 1589.99,-634.25"/>
</g>
<!-- daemonset/kube&#45;cni&#45;linux&#45;bridge&#45;plugin -->
<g id="node37" class="node">
<title>daemonset/kube&#45;cni&#45;linux&#45;bridge&#45;plugin</title>
<path fill="none" stroke="black" d="M1993,-585C1993,-585 1519,-585 1519,-585 1513,-585 1507,-579 1507,-573 1507,-573 1507,-525 1507,-525 1507,-519 1513,-513 1519,-513 1519,-513 1993,-513 1993,-513 1999,-513 2005,-519 2005,-525 2005,-525 2005,-573 2005,-573 2005,-579 1999,-585 1993,-585"/>
<text text-anchor="middle" x="1756" y="-542.8" font-family="Courier-Bold" font-size="24.00">daemonset/kube&#45;cni&#45;linux&#45;bridge&#45;plugin</text>
</g>
<!-- deployment/cluster&#45;network&#45;addons&#45;operator&#45;&gt;daemonset/kube&#45;cni&#45;linux&#45;bridge&#45;plugin -->
<g id="edge34" class="edge">
<title>deployment/cluster&#45;network&#45;addons&#45;operator&#45;&gt;daemonset/kube&#45;cni&#45;linux&#45;bridge&#45;plugin</title>
<path fill="none" stroke="black" d="M1269.15,-779.03C1278.38,-775.14 1287.36,-770.81 1296,-766 1384.6,-716.65 1351.35,-638.25 1440,-589 1454.97,-580.68 1470.96,-573.79 1487.48,-568.11"/>
<polygon fill="black" stroke="black" points="1506.71,-562.09 1490.32,-576.65 1497.17,-565.07 1487.63,-568.06 1487.63,-568.06 1487.63,-568.06 1497.17,-565.07 1484.94,-559.47 1506.71,-562.09 1506.71,-562.09"/>
</g>
<!-- deployment/kubevirt&#45;migration&#45;controller -->
<g id="node25" class="node">
<title>deployment/kubevirt&#45;migration&#45;controller</title>
<path fill="none" stroke="black" d="M1232.5,-1493C1232.5,-1493 738.5,-1493 738.5,-1493 732.5,-1493 726.5,-1487 726.5,-1481 726.5,-1481 726.5,-1433 726.5,-1433 726.5,-1427 732.5,-1421 738.5,-1421 738.5,-1421 1232.5,-1421 1232.5,-1421 1238.5,-1421 1244.5,-1427 1244.5,-1433 1244.5,-1433 1244.5,-1481 1244.5,-1481 1244.5,-1487 1238.5,-1493 1232.5,-1493"/>
<text text-anchor="middle" x="985.5" y="-1450.8" font-family="Courier-Bold" font-size="24.00">deployment/kubevirt&#45;migration&#45;controller</text>
</g>
<!-- kubevirt&#45;migration&#45;operator -->
<g id="node26" class="node">
<title>kubevirt&#45;migration&#45;operator</title>
<path fill="none" stroke="black" d="M430.5,-1493C430.5,-1493 100.5,-1493 100.5,-1493 94.5,-1493 88.5,-1487 88.5,-1481 88.5,-1481 88.5,-1433 88.5,-1433 88.5,-1427 94.5,-1421 100.5,-1421 100.5,-1421 430.5,-1421 430.5,-1421 436.5,-1421 442.5,-1427 442.5,-1433 442.5,-1433 442.5,-1481 442.5,-1481 442.5,-1487 436.5,-1493 430.5,-1493"/>
<text text-anchor="middle" x="265.5" y="-1450.8" font-family="Courier-Bold" font-size="24.00">kubevirt&#45;migration&#45;operator</text>
</g>
<!-- kubevirt&#45;migration&#45;operator&#45;&gt;deployment/kubevirt&#45;migration&#45;controller -->
<g id="edge23" class="edge">
<title>kubevirt&#45;migration&#45;operator&#45;&gt;deployment/kubevirt&#45;migration&#45;controller</title>
<path fill="none" stroke="black" d="M442.6,-1457C522.02,-1457 617.74,-1457 706.48,-1457"/>
<polygon fill="black" stroke="black" points="726.49,-1457 706.49,-1466 716.49,-1457 706.49,-1457 706.49,-1457 706.49,-1457 716.49,-1457 706.49,-1448 726.49,-1457 726.49,-1457"/>
</g>
<!-- deployment/virt&#45;template&#45;validator -->
<g id="node35" class="node">
<title>deployment/virt&#45;template&#45;validator</title>
<path fill="none" stroke="black" d="M1965.5,-467C1965.5,-467 1546.5,-467 1546.5,-467 1540.5,-467 1534.5,-461 1534.5,-455 1534.5,-455 1534.5,-407 1534.5,-407 1534.5,-401 1540.5,-395 1546.5,-395 1546.5,-395 1965.5,-395 1965.5,-395 1971.5,-395 1977.5,-401 1977.5,-407 1977.5,-407 1977.5,-455 1977.5,-455 1977.5,-461 1971.5,-467 1965.5,-467"/>
<text text-anchor="middle" x="1756" y="-424.8" font-family="Courier-Bold" font-size="24.00">deployment/virt&#45;template&#45;validator</text>
</g>
<!-- deployment/ssp&#45;operator&#45;&gt;deployment/virt&#45;template&#45;validator -->
<g id="edge32" class="edge">
<title>deployment/ssp&#45;operator&#45;&gt;deployment/virt&#45;template&#45;validator</title>
<path fill="none" stroke="black" d="M1147.15,-352.68C1195.04,-358.87 1247.65,-365.69 1296,-372 1360.01,-380.36 1375.98,-382.71 1440,-391 1464.05,-394.11 1489.14,-397.34 1514.19,-400.54"/>
<polygon fill="black" stroke="black" points="1534.26,-403.11 1513.28,-409.5 1524.34,-401.84 1514.42,-400.57 1514.42,-400.57 1514.42,-400.57 1524.34,-401.84 1515.56,-391.65 1534.26,-403.11 1534.26,-403.11"/>
</g>
<!-- deployment/virt&#45;api -->
<g id="node29" class="node">
<title>deployment/virt&#45;api</title>
<path fill="none" stroke="black" d="M1871.5,-388C1871.5,-388 1640.5,-388 1640.5,-388 1634.5,-388 1628.5,-382 1628.5,-376 1628.5,-376 1628.5,-328 1628.5,-328 1628.5,-322 1634.5,-316 1640.5,-316 1640.5,-316 1871.5,-316 1871.5,-316 1877.5,-316 1883.5,-322 1883.5,-328 1883.5,-328 1883.5,-376 1883.5,-376 1883.5,-382 1877.5,-388 1871.5,-388"/>
<text text-anchor="middle" x="1756" y="-345.8" font-family="Courier-Bold" font-size="24.00">deployment/virt&#45;api</text>
</g>
<!-- deployment/virt&#45;operator&#45;&gt;deployment/virt&#45;api -->
<g id="edge26" class="edge">
<title>deployment/virt&#45;operator&#45;&gt;deployment/virt&#45;api</title>
<path fill="none" stroke="black" d="M1147.15,-273.68C1195.04,-279.87 1247.65,-286.69 1296,-293 1360.01,-301.36 1375.98,-303.71 1440,-312 1494.9,-319.11 1555.2,-326.79 1608.22,-333.51"/>
<polygon fill="black" stroke="black" points="1628.15,-336.04 1607.18,-342.45 1618.23,-334.78 1608.31,-333.52 1608.31,-333.52 1608.31,-333.52 1618.23,-334.78 1609.44,-324.59 1628.15,-336.04 1628.15,-336.04"/>
</g>
<!-- deployment/virt&#45;controller -->
<g id="node31" class="node">
<title>deployment/virt&#45;controller</title>
<path fill="none" stroke="black" d="M1911,-309C1911,-309 1601,-309 1601,-309 1595,-309 1589,-303 1589,-297 1589,-297 1589,-249 1589,-249 1589,-243 1595,-237 1601,-237 1601,-237 1911,-237 1911,-237 1917,-237 1923,-243 1923,-249 1923,-249 1923,-297 1923,-297 1923,-303 1917,-309 1911,-309"/>
<text text-anchor="middle" x="1756" y="-266.8" font-family="Courier-Bold" font-size="24.00">deployment/virt&#45;controller</text>
</g>
<!-- deployment/virt&#45;operator&#45;&gt;deployment/virt&#45;controller -->
<g id="edge27" class="edge">
<title>deployment/virt&#45;operator&#45;&gt;deployment/virt&#45;controller</title>
<path fill="none" stroke="black" d="M1147.13,-257.18C1270.03,-260.38 1439.74,-264.8 1568.61,-268.15"/>
<polygon fill="black" stroke="black" points="1588.93,-268.68 1568.71,-277.15 1578.94,-268.42 1568.94,-268.16 1568.94,-268.16 1568.94,-268.16 1578.94,-268.42 1569.17,-259.16 1588.93,-268.68 1588.93,-268.68"/>
</g>
<!-- deployment/virt&#45;exportproxy -->
<g id="node32" class="node">
<title>deployment/virt&#45;exportproxy</title>
<path fill="none" stroke="black" d="M1925.5,-230C1925.5,-230 1586.5,-230 1586.5,-230 1580.5,-230 1574.5,-224 1574.5,-218 1574.5,-218 1574.5,-170 1574.5,-170 1574.5,-164 1580.5,-158 1586.5,-158 1586.5,-158 1925.5,-158 1925.5,-158 1931.5,-158 1937.5,-164 1937.5,-170 1937.5,-170 1937.5,-218 1937.5,-218 1937.5,-224 1931.5,-230 1925.5,-230"/>
<text text-anchor="middle" x="1756" y="-187.8" font-family="Courier-Bold" font-size="24.00">deployment/virt&#45;exportproxy</text>
</g>
<!-- deployment/virt&#45;operator&#45;&gt;deployment/virt&#45;exportproxy -->
<g id="edge28" class="edge">
<title>deployment/virt&#45;operator&#45;&gt;deployment/virt&#45;exportproxy</title>
<path fill="none" stroke="black" d="M1147.13,-240.67C1265.54,-231.58 1427.4,-219.15 1554.33,-209.41"/>
<polygon fill="black" stroke="black" points="1574.39,-207.87 1555.14,-218.37 1564.42,-208.63 1554.45,-209.4 1554.45,-209.4 1554.45,-209.4 1564.42,-208.63 1553.76,-200.42 1574.39,-207.87 1574.39,-207.87"/>
</g>
<!-- deployment/virt&#45;synchronization&#45;controller -->
<g id="node34" class="node">
<title>deployment/virt&#45;synchronization&#45;controller</title>
<path fill="none" stroke="black" d="M2010.5,-151C2010.5,-151 1501.5,-151 1501.5,-151 1495.5,-151 1489.5,-145 1489.5,-139 1489.5,-139 1489.5,-91 1489.5,-91 1489.5,-85 1495.5,-79 1501.5,-79 1501.5,-79 2010.5,-79 2010.5,-79 2016.5,-79 2022.5,-85 2022.5,-91 2022.5,-91 2022.5,-139 2022.5,-139 2022.5,-145 2016.5,-151 2010.5,-151"/>
<text text-anchor="middle" x="1756" y="-108.8" font-family="Courier-Bold" font-size="24.00">deployment/virt&#45;synchronization&#45;controller</text>
</g>
<!-- deployment/virt&#45;operator&#45;&gt;deployment/virt&#45;synchronization&#45;controller -->
<g id="edge31" class="edge">
<title>deployment/virt&#45;operator&#45;&gt;deployment/virt&#45;synchronization&#45;controller</title>
<path fill="none" stroke="black" d="M1147.03,-240.11C1195.4,-234.13 1248.3,-225.47 1296,-213 1362.75,-195.55 1373.23,-172.38 1440,-155 1449.63,-152.49 1459.46,-150.14 1469.43,-147.94"/>
<polygon fill="black" stroke="black" points="1489.38,-143.74 1471.66,-156.66 1479.6,-145.8 1469.81,-147.86 1469.81,-147.86 1469.81,-147.86 1479.6,-145.8 1467.96,-139.05 1489.38,-143.74 1489.38,-143.74"/>
</g>
<!-- daemonset/virt&#45;handler -->
<g id="node38" class="node">
<title>daemonset/virt&#45;handler</title>
<path fill="none" stroke="black" d="M1895,-72C1895,-72 1617,-72 1617,-72 1611,-72 1605,-66 1605,-60 1605,-60 1605,-12 1605,-12 1605,-6 1611,0 1617,0 1617,0 1895,0 1895,0 1901,0 1907,-6 1907,-12 1907,-12 1907,-60 1907,-60 1907,-66 1901,-72 1895,-72"/>
<text text-anchor="middle" x="1756" y="-29.8" font-family="Courier-Bold" font-size="24.00">daemonset/virt&#45;handler</text>
</g>
<!-- deployment/virt&#45;operator&#45;&gt;daemonset/virt&#45;handler -->
<g id="edge35" class="edge">
<title>deployment/virt&#45;operator&#45;&gt;daemonset/virt&#45;handler</title>
<path fill="none" stroke="black" d="M1147.02,-251.44C1196.65,-245.99 1250.26,-234.78 1296,-213 1375.75,-175.01 1360.21,-113.9 1440,-76 1484.43,-54.9 1536.16,-43.65 1584.7,-37.94"/>
<polygon fill="black" stroke="black" points="1604.91,-35.86 1585.94,-46.86 1594.97,-36.88 1585.02,-37.91 1585.02,-37.91 1585.02,-37.91 1594.97,-36.88 1584.1,-28.96 1604.91,-35.86 1604.91,-35.86"/>
</g>
</g>
</svg>
